M48
;DRILL file {KiCad 4.0.6} date 03/11/19 16:26:55
;FORMAT={-:-/ absolute / inch / decimal}
FMAT,2
INCH,TZ
T1C0.012
T2C0.030
T3C0.031
T4C0.083
%
G90
G05
M72
T1
X4.1453Y-5.0693
X4.1717Y-4.3819
X4.1772Y-4.2795
X4.1992Y-5.0138
X4.252Y-5.5606
X4.2673Y-5.4898
X4.2929Y-5.3618
X4.3177Y-4.3594
X4.3185Y-5.5602
X4.3197Y-5.4469
X4.3315Y-4.672
X4.3469Y-4.8772
X4.3476Y-5.1921
X4.35Y-5.0217
X4.3583Y-5.411
X4.378Y-4.4835
X4.378Y-5.298
X4.378Y-5.5724
X4.4016Y-4.5303
X4.4016Y-5.4217
X4.4331Y-5.2264
X4.4335Y-5.502
X4.4374Y-4.9728
X4.439Y-4.9177
X4.4457Y-5.0689
X4.4472Y-5.1039
X4.4488Y-5.2492
X4.4594Y-5.2748
X4.4858Y-4.3319
X4.5087Y-4.3878
X4.5091Y-4.1157
X4.5138Y-5.3697
X4.5449Y-5.3374
X4.548Y-5.1512
X4.5528Y-4.9311
X4.5531Y-5.0925
X4.5563Y-4.3429
X4.5567Y-4.8976
X4.5567Y-4.9622
X4.5567Y-5.122
X4.5614Y-5.0197
X4.5638Y-4.9902
X4.5776Y-4.4319
X4.5787Y-5.1752
X4.587Y-4.8878
X4.5937Y-5.4311
X4.5953Y-4.1157
X4.5953Y-5.4949
X4.624Y-4.7024
X4.6299Y-4.7504
X4.6299Y-5.0768
X4.6543Y-4.7705
X4.6543Y-5.1004
X4.6646Y-4.6185
X4.6717Y-4.6484
X4.6795Y-4.7902
X4.6795Y-5.1236
X4.6949Y-4.5437
X4.7047Y-4.8098
X4.7047Y-5.1469
X4.7287Y-4.8283
X4.7287Y-5.0307
X4.7508Y-5.1646
X4.7524Y-4.8524
X4.7524Y-5.0539
X4.7799Y-5.2937
X4.787Y-4.6228
X4.7874Y-4.7386
X4.8098Y-4.5484
X4.811Y-4.789
X4.8343Y-4.6713
X4.8343Y-5.0016
X4.8425Y-4.5492
X4.8465Y-4.1823
X4.8516Y-4.3827
X4.8598Y-5.5008
X4.8732Y-5.5252
X4.874Y-5.2744
X4.8768Y-4.5827
X4.8886Y-4.672
X4.8969Y-5.3972
X4.9138Y-4.6102
X4.9138Y-4.7591
X4.9299Y-5.2087
X4.939Y-4.2748
X4.9417Y-4.7598
X4.948Y-5.528
X4.9531Y-5.1902
X4.9571Y-4.6102
X4.9661Y-4.7378
X4.974Y-5.2374
X4.976Y-5.1724
X4.985Y-4.8736
X4.9933Y-5.2598
X4.9941Y-4.8087
X4.9992Y-5.1539
X5.0028Y-4.748
X5.013Y-5.2799
X5.0244Y-5.4031
X5.0295Y-4.3394
X5.0484Y-5.289
X5.0531Y-5.4453
X5.0689Y-5.4992
X5.087Y-4.7795
X5.089Y-4.622
X5.0949Y-5.0539
X5.0957Y-5.4504
X5.1016Y-4.8571
X5.1067Y-5.222
X5.1071Y-4.6713
X5.1087Y-4.811
X5.1118Y-4.5669
X5.1177Y-5.0339
X5.1295Y-5.2772
X5.1386Y-4.6709
X5.1457Y-4.9311
X5.1457Y-5.0295
X5.1465Y-5.4433
X5.1524Y-5.4091
X5.1701Y-4.9547
X5.1701Y-5.0425
X5.1736Y-4.648
X5.1803Y-5.3941
X5.187Y-5.2843
X5.1969Y-5.0217
X5.2205Y-5.0453
X5.2398Y-4.55
X5.248Y-5.4406
X5.2484Y-5.4083
X5.2528Y-5.2583
X5.2563Y-4.8339
X5.2563Y-4.9736
X5.2571Y-4.7382
X5.2717Y-4.2748
X5.2748Y-4.6535
X5.276Y-4.811
X5.276Y-5.1669
X5.2764Y-5.2126
X5.2783Y-5.098
X5.2787Y-4.9913
X5.2803Y-4.8815
X5.2846Y-5.4102
X5.2921Y-4.5957
X5.2921Y-5.1898
X5.2929Y-5.2354
X5.2933Y-5.326
X5.2937Y-4.748
X5.2941Y-4.9055
X5.2941Y-5.0654
X5.2941Y-5.1209
X5.2976Y-4.8346
X5.3028Y-5.3587
X5.3228Y-5.5177
X5.3307Y-4.5472
X5.3642Y-5.5925
X5.3886Y-4.6984
X5.3929Y-5.326
X5.4016Y-4.3736
X5.4091Y-4.6295
X5.4091Y-5.411
X5.4209Y-4.698
X5.4232Y-4.1673
X5.4311Y-4.5524
X5.4417Y-5.3472
X5.4504Y-4.698
X5.4543Y-5.4016
X5.4654Y-4.413
X5.5Y-5.3787
X5.5Y-5.4409
X5.5236Y-4.2402
X5.5413Y-4.1661
X5.5535Y-4.5768
X5.5547Y-4.4961
X5.5547Y-5.0492
X5.5783Y-4.7795
X5.5799Y-5.4571
X5.5839Y-5.2965
X5.6004Y-4.1689
X5.6091Y-5.2811
X5.6224Y-4.3886
X5.6228Y-5.1811
X5.6374Y-5.2811
X5.6457Y-5.1256
X5.6665Y-4.4961
X5.6894Y-5.0409
T2
X3.9764Y-4.4831
X3.9764Y-4.6406
X3.9764Y-4.7193
X3.9764Y-4.798
X3.9764Y-4.8768
X3.9764Y-4.9555
X3.9764Y-5.0343
X3.9764Y-5.113
X3.9764Y-5.1917
X3.9764Y-5.2705
X3.9764Y-5.3492
X3.9764Y-5.428
X3.9764Y-5.5067
X3.9764Y-5.5854
X3.9764Y-5.6642
X4.0551Y-4.4831
X4.0551Y-4.6406
X4.0551Y-4.7193
X4.0551Y-4.798
X4.0551Y-4.8768
X4.0551Y-4.9555
X4.0551Y-5.0343
X4.0551Y-5.113
X4.0551Y-5.1917
X4.0551Y-5.2705
X4.0551Y-5.3492
X4.0551Y-5.428
X4.0551Y-5.5067
X4.0551Y-5.5854
X4.0551Y-5.6642
X4.1339Y-4.4831
X4.1772Y-5.8661
X4.1783Y-3.9764
X4.1783Y-4.0551
X4.2559Y-5.8661
X4.2571Y-3.9764
X4.2571Y-4.0551
X4.3346Y-5.8661
X4.3358Y-3.9764
X4.3358Y-4.0551
X4.4134Y-5.8661
X4.4146Y-3.9764
X4.4146Y-4.0551
X4.4921Y-5.8661
X4.4933Y-3.9764
X4.4933Y-4.0551
X4.572Y-3.9764
X4.572Y-4.0551
X4.6406Y-5.7874
X4.6406Y-5.8661
X4.6508Y-3.9764
X4.6508Y-4.0551
X4.7193Y-5.7874
X4.7193Y-5.8661
X4.7295Y-3.9764
X4.7295Y-4.0551
X4.798Y-5.7874
X4.798Y-5.8661
X4.8083Y-3.9764
X4.8083Y-4.0551
X4.8768Y-5.7874
X4.8768Y-5.8661
X4.887Y-3.9764
X4.887Y-4.0551
X4.9555Y-5.7874
X4.9555Y-5.8661
X4.9657Y-3.9764
X4.9657Y-4.0551
X5.0343Y-5.7874
X5.0343Y-5.8661
X5.0445Y-3.9764
X5.0445Y-4.0551
X5.113Y-5.7874
X5.113Y-5.8661
X5.1232Y-3.9764
X5.1232Y-4.0551
X5.1917Y-5.7874
X5.1917Y-5.8661
X5.202Y-3.9764
X5.202Y-4.0551
X5.2705Y-5.7874
X5.2705Y-5.8661
X5.3492Y-5.7874
X5.3492Y-5.8661
X5.428Y-5.7874
X5.428Y-5.8661
X5.4764Y-5.5079
X5.5067Y-5.7874
X5.5067Y-5.8661
X5.5551Y-5.5079
X5.5854Y-5.7874
X5.5854Y-5.8661
X5.6642Y-5.7874
X5.6642Y-5.8661
X5.7874Y-4.1783
X5.7874Y-4.2571
X5.7874Y-4.3358
X5.7874Y-4.4146
X5.7874Y-4.4933
X5.7874Y-4.572
X5.7874Y-4.6508
X5.7874Y-4.7295
X5.7874Y-4.8083
X5.7874Y-4.887
X5.7874Y-4.9657
X5.7874Y-5.0445
X5.7874Y-5.1232
X5.7874Y-5.202
X5.8661Y-4.1783
X5.8661Y-4.2571
X5.8661Y-4.3358
X5.8661Y-4.4146
X5.8661Y-4.4933
X5.8661Y-4.572
X5.8661Y-4.6508
X5.8661Y-4.7295
X5.8661Y-4.8083
X5.8661Y-4.887
X5.8661Y-4.9657
X5.8661Y-5.0445
X5.8661Y-5.1232
X5.8661Y-5.202
T3
X5.0591Y-5.5921
X5.7752Y-5.3862
T4
X4.0354Y-4.0354
X4.0354Y-5.8071
X5.8071Y-4.0354
X5.8071Y-5.8071
T0
M30
