G04 #@! TF.FileFunction,Copper,L3,Inr,Signal*
%FSLAX46Y46*%
G04 Gerber Fmt 4.6, Leading zero omitted, Abs format (unit mm)*
G04 Created by KiCad (PCBNEW 4.0.6) date 03/11/19 23:36:44*
%MOMM*%
%LPD*%
G01*
G04 APERTURE LIST*
%ADD10C,0.100000*%
%ADD11R,1.300000X1.300000*%
%ADD12C,1.300000*%
%ADD13C,1.200000*%
%ADD14R,1.200000X1.200000*%
%ADD15C,2.300000*%
%ADD16C,0.500000*%
%ADD17C,0.250000*%
%ADD18C,0.254000*%
G04 APERTURE END LIST*
D10*
D11*
X139100000Y-139900000D03*
D12*
X141100000Y-139900000D03*
D13*
X143870000Y-149000000D03*
X143870000Y-147000000D03*
X141870000Y-147000000D03*
X141870000Y-149000000D03*
D14*
X117870000Y-149000000D03*
D13*
X117870000Y-147000000D03*
X119870000Y-149000000D03*
X119870000Y-147000000D03*
X121870000Y-149000000D03*
X121870000Y-147000000D03*
X123870000Y-149000000D03*
X123870000Y-147000000D03*
X125870000Y-149000000D03*
X125870000Y-147000000D03*
X127870000Y-149000000D03*
X127870000Y-147000000D03*
X129870000Y-149000000D03*
X129870000Y-147000000D03*
X131870000Y-149000000D03*
X131870000Y-147000000D03*
X133870000Y-149000000D03*
X133870000Y-147000000D03*
X135870000Y-149000000D03*
X135870000Y-147000000D03*
X137870000Y-149000000D03*
X137870000Y-147000000D03*
X139870000Y-149000000D03*
X139870000Y-147000000D03*
X106130000Y-101000000D03*
X106130000Y-103000000D03*
X108130000Y-103000000D03*
X108130000Y-101000000D03*
D14*
X132130000Y-101000000D03*
D13*
X132130000Y-103000000D03*
X130130000Y-101000000D03*
X130130000Y-103000000D03*
X128130000Y-101000000D03*
X128130000Y-103000000D03*
X126130000Y-101000000D03*
X126130000Y-103000000D03*
X124130000Y-101000000D03*
X124130000Y-103000000D03*
X122130000Y-101000000D03*
X122130000Y-103000000D03*
X120130000Y-101000000D03*
X120130000Y-103000000D03*
X118130000Y-101000000D03*
X118130000Y-103000000D03*
X116130000Y-101000000D03*
X116130000Y-103000000D03*
X114130000Y-101000000D03*
X114130000Y-103000000D03*
X112130000Y-101000000D03*
X112130000Y-103000000D03*
X110130000Y-101000000D03*
X110130000Y-103000000D03*
D15*
X147500000Y-147500000D03*
X102500000Y-147500000D03*
X147500000Y-102500000D03*
X102500000Y-102500000D03*
D13*
X101000000Y-143870000D03*
X103000000Y-143870000D03*
X103000000Y-141870000D03*
X101000000Y-141870000D03*
D14*
X101000000Y-117870000D03*
D13*
X103000000Y-117870000D03*
X101000000Y-119870000D03*
X103000000Y-119870000D03*
X101000000Y-121870000D03*
X103000000Y-121870000D03*
X101000000Y-123870000D03*
X103000000Y-123870000D03*
X101000000Y-125870000D03*
X103000000Y-125870000D03*
X101000000Y-127870000D03*
X103000000Y-127870000D03*
X101000000Y-129870000D03*
X103000000Y-129870000D03*
X101000000Y-131870000D03*
X103000000Y-131870000D03*
X101000000Y-133870000D03*
X103000000Y-133870000D03*
X101000000Y-135870000D03*
X103000000Y-135870000D03*
X101000000Y-137870000D03*
X103000000Y-137870000D03*
X101000000Y-139870000D03*
X103000000Y-139870000D03*
D11*
X101000000Y-113870000D03*
D12*
X103000000Y-113870000D03*
X105000000Y-113870000D03*
X114100000Y-149000000D03*
D11*
X106100000Y-149000000D03*
D12*
X108100000Y-149000000D03*
X110100000Y-149000000D03*
X112100000Y-149000000D03*
D13*
X149000000Y-106130000D03*
X147000000Y-106130000D03*
X147000000Y-108130000D03*
X149000000Y-108130000D03*
D14*
X149000000Y-132130000D03*
D13*
X147000000Y-132130000D03*
X149000000Y-130130000D03*
X147000000Y-130130000D03*
X149000000Y-128130000D03*
X147000000Y-128130000D03*
X149000000Y-126130000D03*
X147000000Y-126130000D03*
X149000000Y-124130000D03*
X147000000Y-124130000D03*
X149000000Y-122130000D03*
X147000000Y-122130000D03*
X149000000Y-120130000D03*
X147000000Y-120130000D03*
X149000000Y-118130000D03*
X147000000Y-118130000D03*
X149000000Y-116130000D03*
X147000000Y-116130000D03*
X149000000Y-114130000D03*
X147000000Y-114130000D03*
X149000000Y-112130000D03*
X147000000Y-112130000D03*
X149000000Y-110130000D03*
X147000000Y-110130000D03*
D16*
X105290000Y-128760000D03*
X123440000Y-139720000D03*
X128750000Y-139680000D03*
X137390000Y-137440000D03*
X138220000Y-135820000D03*
X129710000Y-132640000D03*
D13*
X146690000Y-136810000D03*
D16*
X124810000Y-120880000D03*
X124810000Y-117100000D03*
X129720000Y-118650000D03*
X123230000Y-111320000D03*
X143930000Y-114200000D03*
X141690000Y-121400000D03*
X134230000Y-137420000D03*
X111200000Y-141540000D03*
X115730000Y-110310000D03*
X109670000Y-110730000D03*
X143190000Y-134140000D03*
X141090000Y-128250000D03*
X110410000Y-123880000D03*
X110430000Y-131880000D03*
X110490000Y-127550000D03*
X127750000Y-110220000D03*
X142810000Y-111470000D03*
X111800000Y-137710000D03*
X137750000Y-105850000D03*
X137200000Y-111090000D03*
X141060000Y-116250000D03*
X116720000Y-139570000D03*
X135200000Y-140150000D03*
X136250000Y-142050000D03*
X138540000Y-137200000D03*
X137690000Y-119330000D03*
X139700000Y-136620000D03*
X137390000Y-117590000D03*
X141730000Y-138610000D03*
X130520000Y-118640000D03*
X117450000Y-119440000D03*
X115440000Y-135570000D03*
X131410000Y-118060000D03*
X120670000Y-131180000D03*
X114650000Y-136390000D03*
X133090000Y-115570000D03*
X140300000Y-107700000D03*
X121590000Y-117420000D03*
X121410000Y-134460000D03*
X133900000Y-108580000D03*
X125450000Y-108580000D03*
X119250000Y-115410000D03*
X123100000Y-106230000D03*
X115860000Y-127500000D03*
X116300000Y-131450000D03*
X106100000Y-108700000D03*
X116510000Y-124150000D03*
X135400000Y-115500000D03*
X134420000Y-116730000D03*
X140750000Y-105820000D03*
X109040000Y-136190000D03*
X110020000Y-118670000D03*
X106660000Y-127350000D03*
X108000000Y-141240000D03*
X109720000Y-138350000D03*
X111200000Y-134570000D03*
X109690000Y-141230000D03*
X112610000Y-139750000D03*
D13*
X128500000Y-142040000D03*
D16*
X129210000Y-121400000D03*
X134470000Y-128660000D03*
X138440000Y-119330000D03*
X138820000Y-112090000D03*
X142470000Y-134140000D03*
X139700000Y-138200000D03*
X134690000Y-136110000D03*
X128350000Y-138310000D03*
X123780000Y-140340000D03*
X116680000Y-137950000D03*
X110700000Y-137440000D03*
X115740000Y-124400000D03*
X115520000Y-130840000D03*
X116270000Y-112570000D03*
X123000000Y-115550000D03*
X134560000Y-122800000D03*
X137950000Y-115630000D03*
X141090000Y-114200000D03*
X108390000Y-139440000D03*
X125910000Y-117100000D03*
X125520000Y-120900000D03*
X105960000Y-111300000D03*
X142250000Y-105890000D03*
X134010000Y-131240000D03*
X117600000Y-120660000D03*
X117600000Y-128950000D03*
X134420000Y-131820000D03*
X118220000Y-121170000D03*
X118220000Y-129550000D03*
X134020000Y-132400000D03*
X118860000Y-130140000D03*
X118860000Y-121670000D03*
X134440000Y-132980000D03*
X119500000Y-130730000D03*
X119500000Y-122170000D03*
X120110000Y-127780000D03*
X129990000Y-127860000D03*
X120110000Y-122640000D03*
X120710000Y-123250000D03*
X129410000Y-128370000D03*
X120710000Y-128370000D03*
X112750000Y-124910000D03*
X115640000Y-125250000D03*
X112710000Y-126310000D03*
X115740000Y-126040000D03*
X115920000Y-126750000D03*
X112920000Y-128750000D03*
X134470000Y-124600000D03*
X112960000Y-129640000D03*
X115650000Y-129350000D03*
X115740000Y-130100000D03*
X112600000Y-132750000D03*
X113000000Y-133330000D03*
X113270000Y-133980000D03*
X133310000Y-137370000D03*
X133300000Y-138190000D03*
X131750000Y-134220000D03*
X133510000Y-126330000D03*
X126980000Y-130910000D03*
X126390000Y-131380000D03*
X124380000Y-137090000D03*
X125810000Y-131830000D03*
X123800000Y-133970000D03*
X125220000Y-132300000D03*
X133420000Y-133560000D03*
X125680000Y-140410000D03*
X126340000Y-133030000D03*
X126830000Y-133600000D03*
X121600000Y-120360000D03*
X127330000Y-134110000D03*
X126140000Y-120340000D03*
X127070000Y-120600000D03*
X127620000Y-137240000D03*
X128230000Y-134340000D03*
X126850000Y-122140000D03*
X129430000Y-138440000D03*
X130290000Y-134040000D03*
X134010000Y-122200000D03*
X129760000Y-122200000D03*
X134460000Y-120600000D03*
X130720000Y-138260000D03*
X133530000Y-120350000D03*
X130870000Y-137390000D03*
X134450000Y-135280000D03*
X136980000Y-135280000D03*
X133980000Y-118200000D03*
X131580000Y-137010000D03*
X142820000Y-131600000D03*
X143400000Y-130190000D03*
X144510000Y-128040000D03*
X132600000Y-128150000D03*
X132000000Y-127550000D03*
X134070000Y-129490000D03*
X131320000Y-128080000D03*
X131320000Y-125850000D03*
X130700000Y-127750000D03*
X134470000Y-130070000D03*
X130700000Y-125250000D03*
X129580000Y-123370000D03*
X134120000Y-123990000D03*
X126620000Y-123790000D03*
X129840000Y-116000000D03*
X129260000Y-117400000D03*
X123870000Y-116400000D03*
X113940000Y-110030000D03*
X114520000Y-111450000D03*
X133510000Y-122780000D03*
X122200000Y-121640000D03*
X114530000Y-104540000D03*
X116720000Y-104540000D03*
X122170000Y-115530000D03*
X124170000Y-118670000D03*
X122790000Y-127040000D03*
X134080000Y-126780000D03*
X122790000Y-118650000D03*
X141830000Y-134530000D03*
X136870000Y-119340000D03*
X111800000Y-115070000D03*
X118480000Y-117310000D03*
X118660000Y-118070000D03*
X111200000Y-113880000D03*
D17*
X123440000Y-139720000D02*
X123440000Y-139420000D01*
X123440000Y-139420000D02*
X124220000Y-138640000D01*
X128300000Y-139680000D02*
X128750000Y-139680000D01*
X127260000Y-138640000D02*
X128300000Y-139680000D01*
X124220000Y-138640000D02*
X127260000Y-138640000D01*
X134230000Y-137420000D02*
X137370000Y-137420000D01*
X137370000Y-137420000D02*
X137390000Y-137440000D01*
X124810000Y-120880000D02*
X124810000Y-119350000D01*
X124810000Y-119350000D02*
X125510000Y-118650000D01*
X124810000Y-117100000D02*
X124810000Y-117950000D01*
X124810000Y-117950000D02*
X125510000Y-118650000D01*
X125510000Y-118650000D02*
X129720000Y-118650000D01*
X127750000Y-110220000D02*
X123620000Y-110220000D01*
X123230000Y-110610000D02*
X123230000Y-111320000D01*
X123620000Y-110220000D02*
X123230000Y-110610000D01*
X141060000Y-116250000D02*
X141060000Y-120770000D01*
X141060000Y-120770000D02*
X141690000Y-121400000D01*
X143930000Y-114200000D02*
X143930000Y-115420000D01*
X143100000Y-116250000D02*
X141060000Y-116250000D01*
X143930000Y-115420000D02*
X143100000Y-116250000D01*
X134230000Y-137420000D02*
X134230000Y-137410000D01*
D18*
G36*
X104895215Y-100753266D02*
X104894786Y-101244579D01*
X105082408Y-101698657D01*
X105383446Y-102000221D01*
X105083629Y-102299515D01*
X104895215Y-102753266D01*
X104894786Y-103244579D01*
X105082408Y-103698657D01*
X105429515Y-104046371D01*
X105883266Y-104234785D01*
X106374579Y-104235214D01*
X106828657Y-104047592D01*
X107130221Y-103746554D01*
X107429515Y-104046371D01*
X107883266Y-104234785D01*
X108374579Y-104235214D01*
X108828657Y-104047592D01*
X109130221Y-103746554D01*
X109429515Y-104046371D01*
X109883266Y-104234785D01*
X110374579Y-104235214D01*
X110828657Y-104047592D01*
X111130221Y-103746554D01*
X111429515Y-104046371D01*
X111883266Y-104234785D01*
X112374579Y-104235214D01*
X112828657Y-104047592D01*
X113130221Y-103746554D01*
X113429515Y-104046371D01*
X113725649Y-104169337D01*
X113645154Y-104363190D01*
X113644847Y-104715265D01*
X113779296Y-105040657D01*
X114028033Y-105289829D01*
X114353190Y-105424846D01*
X114705265Y-105425153D01*
X115030657Y-105290704D01*
X115279829Y-105041967D01*
X115414846Y-104716810D01*
X115415153Y-104364735D01*
X115280704Y-104039343D01*
X115059200Y-103817452D01*
X115130221Y-103746554D01*
X115429515Y-104046371D01*
X115883266Y-104234785D01*
X115888471Y-104234790D01*
X115835154Y-104363190D01*
X115834847Y-104715265D01*
X115969296Y-105040657D01*
X116218033Y-105289829D01*
X116543190Y-105424846D01*
X116895265Y-105425153D01*
X117220657Y-105290704D01*
X117469829Y-105041967D01*
X117604846Y-104716810D01*
X117605153Y-104364735D01*
X117482740Y-104068472D01*
X117883266Y-104234785D01*
X118374579Y-104235214D01*
X118828657Y-104047592D01*
X119130221Y-103746554D01*
X119429515Y-104046371D01*
X119883266Y-104234785D01*
X120374579Y-104235214D01*
X120828657Y-104047592D01*
X121130221Y-103746554D01*
X121429515Y-104046371D01*
X121883266Y-104234785D01*
X122374579Y-104235214D01*
X122828657Y-104047592D01*
X123130221Y-103746554D01*
X123429515Y-104046371D01*
X123883266Y-104234785D01*
X124374579Y-104235214D01*
X124828657Y-104047592D01*
X125130221Y-103746554D01*
X125429515Y-104046371D01*
X125883266Y-104234785D01*
X126374579Y-104235214D01*
X126828657Y-104047592D01*
X127130221Y-103746554D01*
X127429515Y-104046371D01*
X127883266Y-104234785D01*
X128374579Y-104235214D01*
X128828657Y-104047592D01*
X129130221Y-103746554D01*
X129429515Y-104046371D01*
X129883266Y-104234785D01*
X130374579Y-104235214D01*
X130828657Y-104047592D01*
X131130221Y-103746554D01*
X131429515Y-104046371D01*
X131883266Y-104234785D01*
X132374579Y-104235214D01*
X132828657Y-104047592D01*
X133176371Y-103700485D01*
X133346872Y-103289873D01*
X137414812Y-103289873D01*
X137579646Y-103688800D01*
X137884595Y-103994282D01*
X138283233Y-104159811D01*
X138714873Y-104160188D01*
X139113800Y-103995354D01*
X139419282Y-103690405D01*
X139584811Y-103291767D01*
X139584812Y-103289873D01*
X140414812Y-103289873D01*
X140579646Y-103688800D01*
X140884595Y-103994282D01*
X141283233Y-104159811D01*
X141714873Y-104160188D01*
X142113800Y-103995354D01*
X142348538Y-103761025D01*
X146418581Y-103761025D01*
X146535601Y-104043446D01*
X147199663Y-104295018D01*
X147909448Y-104273314D01*
X148464399Y-104043446D01*
X148581419Y-103761025D01*
X147500000Y-102679605D01*
X146418581Y-103761025D01*
X142348538Y-103761025D01*
X142419282Y-103690405D01*
X142584811Y-103291767D01*
X142585188Y-102860127D01*
X142420354Y-102461200D01*
X142159274Y-102199663D01*
X145704982Y-102199663D01*
X145726686Y-102909448D01*
X145956554Y-103464399D01*
X146238975Y-103581419D01*
X147320395Y-102500000D01*
X146238975Y-101418581D01*
X145956554Y-101535601D01*
X145704982Y-102199663D01*
X142159274Y-102199663D01*
X142115405Y-102155718D01*
X141716767Y-101990189D01*
X141285127Y-101989812D01*
X140886200Y-102154646D01*
X140580718Y-102459595D01*
X140415189Y-102858233D01*
X140414812Y-103289873D01*
X139584812Y-103289873D01*
X139585188Y-102860127D01*
X139420354Y-102461200D01*
X139115405Y-102155718D01*
X138716767Y-101990189D01*
X138285127Y-101989812D01*
X137886200Y-102154646D01*
X137580718Y-102459595D01*
X137415189Y-102858233D01*
X137414812Y-103289873D01*
X133346872Y-103289873D01*
X133364785Y-103246734D01*
X133365214Y-102755421D01*
X133177592Y-102301343D01*
X133034891Y-102158392D01*
X133181441Y-102064090D01*
X133326431Y-101851890D01*
X133377440Y-101600000D01*
X133377440Y-100685000D01*
X147432533Y-100685000D01*
X147568612Y-100712068D01*
X147090552Y-100726686D01*
X146535601Y-100956554D01*
X146418581Y-101238975D01*
X147500000Y-102320395D01*
X147514142Y-102306252D01*
X147693748Y-102485858D01*
X147679605Y-102500000D01*
X148761025Y-103581419D01*
X149043446Y-103464399D01*
X149295018Y-102800337D01*
X149282974Y-102406461D01*
X149315000Y-102567467D01*
X149315000Y-104932367D01*
X149168964Y-104882193D01*
X148678587Y-104912518D01*
X148366383Y-105041836D01*
X148316870Y-105267265D01*
X149000000Y-105950395D01*
X149014143Y-105936253D01*
X149193748Y-106115858D01*
X149179605Y-106130000D01*
X149193748Y-106144143D01*
X149014143Y-106323748D01*
X149000000Y-106309605D01*
X148316870Y-106992735D01*
X148333635Y-107069065D01*
X148301343Y-107082408D01*
X147999779Y-107383446D01*
X147746554Y-107129779D01*
X148046371Y-106830485D01*
X148060572Y-106796285D01*
X148137265Y-106813130D01*
X148820395Y-106130000D01*
X148137265Y-105446870D01*
X148060935Y-105463635D01*
X148047592Y-105431343D01*
X147700485Y-105083629D01*
X147246734Y-104895215D01*
X146755421Y-104894786D01*
X146301343Y-105082408D01*
X145953629Y-105429515D01*
X145765215Y-105883266D01*
X145764786Y-106374579D01*
X145952408Y-106828657D01*
X146253446Y-107130221D01*
X145953629Y-107429515D01*
X145765215Y-107883266D01*
X145764786Y-108374579D01*
X145952408Y-108828657D01*
X146253446Y-109130221D01*
X145953629Y-109429515D01*
X145765215Y-109883266D01*
X145764786Y-110374579D01*
X145952408Y-110828657D01*
X146253446Y-111130221D01*
X145953629Y-111429515D01*
X145765215Y-111883266D01*
X145764786Y-112374579D01*
X145952408Y-112828657D01*
X146253446Y-113130221D01*
X145953629Y-113429515D01*
X145765215Y-113883266D01*
X145764786Y-114374579D01*
X145952408Y-114828657D01*
X146253446Y-115130221D01*
X145953629Y-115429515D01*
X145765215Y-115883266D01*
X145764786Y-116374579D01*
X145952408Y-116828657D01*
X146253446Y-117130221D01*
X145953629Y-117429515D01*
X145765215Y-117883266D01*
X145764786Y-118374579D01*
X145952408Y-118828657D01*
X146253446Y-119130221D01*
X145953629Y-119429515D01*
X145765215Y-119883266D01*
X145764786Y-120374579D01*
X145952408Y-120828657D01*
X146253446Y-121130221D01*
X145953629Y-121429515D01*
X145765215Y-121883266D01*
X145764786Y-122374579D01*
X145952408Y-122828657D01*
X146253446Y-123130221D01*
X145953629Y-123429515D01*
X145765215Y-123883266D01*
X145764786Y-124374579D01*
X145952408Y-124828657D01*
X146253446Y-125130221D01*
X145953629Y-125429515D01*
X145765215Y-125883266D01*
X145764786Y-126374579D01*
X145952408Y-126828657D01*
X146253446Y-127130221D01*
X145953629Y-127429515D01*
X145765215Y-127883266D01*
X145764786Y-128374579D01*
X145952408Y-128828657D01*
X146253446Y-129130221D01*
X145953629Y-129429515D01*
X145765215Y-129883266D01*
X145764786Y-130374579D01*
X145952408Y-130828657D01*
X146253446Y-131130221D01*
X145953629Y-131429515D01*
X145765215Y-131883266D01*
X145764786Y-132374579D01*
X145952408Y-132828657D01*
X146299515Y-133176371D01*
X146753266Y-133364785D01*
X147244579Y-133365214D01*
X147698657Y-133177592D01*
X147841608Y-133034891D01*
X147935910Y-133181441D01*
X148148110Y-133326431D01*
X148400000Y-133377440D01*
X149315000Y-133377440D01*
X149315000Y-147432533D01*
X149287932Y-147568612D01*
X149273314Y-147090552D01*
X149043446Y-146535601D01*
X148761025Y-146418581D01*
X147679605Y-147500000D01*
X147693748Y-147514142D01*
X147514142Y-147693748D01*
X147500000Y-147679605D01*
X146418581Y-148761025D01*
X146535601Y-149043446D01*
X147199663Y-149295018D01*
X147593539Y-149282974D01*
X147432533Y-149315000D01*
X145076438Y-149315000D01*
X145104785Y-149246734D01*
X145105214Y-148755421D01*
X144917592Y-148301343D01*
X144616554Y-147999779D01*
X144916371Y-147700485D01*
X145104785Y-147246734D01*
X145104826Y-147199663D01*
X145704982Y-147199663D01*
X145726686Y-147909448D01*
X145956554Y-148464399D01*
X146238975Y-148581419D01*
X147320395Y-147500000D01*
X146238975Y-146418581D01*
X145956554Y-146535601D01*
X145704982Y-147199663D01*
X145104826Y-147199663D01*
X145105214Y-146755421D01*
X144917592Y-146301343D01*
X144855333Y-146238975D01*
X146418581Y-146238975D01*
X147500000Y-147320395D01*
X148581419Y-146238975D01*
X148464399Y-145956554D01*
X147800337Y-145704982D01*
X147090552Y-145726686D01*
X146535601Y-145956554D01*
X146418581Y-146238975D01*
X144855333Y-146238975D01*
X144570485Y-145953629D01*
X144116734Y-145765215D01*
X143625421Y-145764786D01*
X143171343Y-145952408D01*
X142869779Y-146253446D01*
X142570485Y-145953629D01*
X142116734Y-145765215D01*
X141625421Y-145764786D01*
X141171343Y-145952408D01*
X140869779Y-146253446D01*
X140570485Y-145953629D01*
X140116734Y-145765215D01*
X139625421Y-145764786D01*
X139171343Y-145952408D01*
X138869779Y-146253446D01*
X138570485Y-145953629D01*
X138116734Y-145765215D01*
X137625421Y-145764786D01*
X137171343Y-145952408D01*
X136869779Y-146253446D01*
X136570485Y-145953629D01*
X136116734Y-145765215D01*
X135625421Y-145764786D01*
X135171343Y-145952408D01*
X134869779Y-146253446D01*
X134570485Y-145953629D01*
X134116734Y-145765215D01*
X133625421Y-145764786D01*
X133171343Y-145952408D01*
X132869779Y-146253446D01*
X132570485Y-145953629D01*
X132116734Y-145765215D01*
X131625421Y-145764786D01*
X131171343Y-145952408D01*
X130869779Y-146253446D01*
X130570485Y-145953629D01*
X130116734Y-145765215D01*
X129625421Y-145764786D01*
X129171343Y-145952408D01*
X128869779Y-146253446D01*
X128570485Y-145953629D01*
X128116734Y-145765215D01*
X127625421Y-145764786D01*
X127171343Y-145952408D01*
X126869779Y-146253446D01*
X126570485Y-145953629D01*
X126116734Y-145765215D01*
X125625421Y-145764786D01*
X125171343Y-145952408D01*
X124869779Y-146253446D01*
X124570485Y-145953629D01*
X124116734Y-145765215D01*
X123625421Y-145764786D01*
X123171343Y-145952408D01*
X122869779Y-146253446D01*
X122570485Y-145953629D01*
X122116734Y-145765215D01*
X121625421Y-145764786D01*
X121171343Y-145952408D01*
X120869779Y-146253446D01*
X120570485Y-145953629D01*
X120116734Y-145765215D01*
X119625421Y-145764786D01*
X119171343Y-145952408D01*
X118869779Y-146253446D01*
X118570485Y-145953629D01*
X118116734Y-145765215D01*
X117625421Y-145764786D01*
X117171343Y-145952408D01*
X116823629Y-146299515D01*
X116635215Y-146753266D01*
X116634786Y-147244579D01*
X116822408Y-147698657D01*
X116965109Y-147841608D01*
X116818559Y-147935910D01*
X116673569Y-148148110D01*
X116622560Y-148400000D01*
X116622560Y-149315000D01*
X115360579Y-149315000D01*
X115384777Y-149256724D01*
X115385223Y-148745519D01*
X115190005Y-148273057D01*
X114828845Y-147911265D01*
X114356724Y-147715223D01*
X113845519Y-147714777D01*
X113373057Y-147909995D01*
X113099840Y-148182734D01*
X112828845Y-147911265D01*
X112356724Y-147715223D01*
X111845519Y-147714777D01*
X111373057Y-147909995D01*
X111099840Y-148182734D01*
X110828845Y-147911265D01*
X110356724Y-147715223D01*
X109845519Y-147714777D01*
X109373057Y-147909995D01*
X109099840Y-148182734D01*
X108828845Y-147911265D01*
X108356724Y-147715223D01*
X107845519Y-147714777D01*
X107373057Y-147909995D01*
X107289580Y-147993326D01*
X107288327Y-147990301D01*
X107109698Y-147811673D01*
X106876309Y-147715000D01*
X106385750Y-147715000D01*
X106227000Y-147873750D01*
X106227000Y-148873000D01*
X106247000Y-148873000D01*
X106247000Y-149127000D01*
X106227000Y-149127000D01*
X106227000Y-149147000D01*
X105973000Y-149147000D01*
X105973000Y-149127000D01*
X104973750Y-149127000D01*
X104815000Y-149285750D01*
X104815000Y-149315000D01*
X102567467Y-149315000D01*
X102431388Y-149287932D01*
X102909448Y-149273314D01*
X103464399Y-149043446D01*
X103581419Y-148761025D01*
X102500000Y-147679605D01*
X102485858Y-147693748D01*
X102306252Y-147514142D01*
X102320395Y-147500000D01*
X102679605Y-147500000D01*
X103761025Y-148581419D01*
X104043446Y-148464399D01*
X104134635Y-148223690D01*
X104815000Y-148223690D01*
X104815000Y-148714250D01*
X104973750Y-148873000D01*
X105973000Y-148873000D01*
X105973000Y-147873750D01*
X105814250Y-147715000D01*
X105323691Y-147715000D01*
X105090302Y-147811673D01*
X104911673Y-147990301D01*
X104815000Y-148223690D01*
X104134635Y-148223690D01*
X104295018Y-147800337D01*
X104273314Y-147090552D01*
X104043446Y-146535601D01*
X103761025Y-146418581D01*
X102679605Y-147500000D01*
X102320395Y-147500000D01*
X101238975Y-146418581D01*
X100956554Y-146535601D01*
X100704982Y-147199663D01*
X100717026Y-147593539D01*
X100685000Y-147432533D01*
X100685000Y-146238975D01*
X101418581Y-146238975D01*
X102500000Y-147320395D01*
X103581419Y-146238975D01*
X103464399Y-145956554D01*
X102800337Y-145704982D01*
X102090552Y-145726686D01*
X101535601Y-145956554D01*
X101418581Y-146238975D01*
X100685000Y-146238975D01*
X100685000Y-145067633D01*
X100831036Y-145117807D01*
X101321413Y-145087482D01*
X101633617Y-144958164D01*
X101683130Y-144732735D01*
X102316870Y-144732735D01*
X102366383Y-144958164D01*
X102831036Y-145117807D01*
X103321413Y-145087482D01*
X103633617Y-144958164D01*
X103683130Y-144732735D01*
X103000000Y-144049605D01*
X102316870Y-144732735D01*
X101683130Y-144732735D01*
X101000000Y-144049605D01*
X100985858Y-144063748D01*
X100806253Y-143884143D01*
X100820395Y-143870000D01*
X101179605Y-143870000D01*
X101862735Y-144553130D01*
X102000000Y-144522981D01*
X102137265Y-144553130D01*
X102820395Y-143870000D01*
X103179605Y-143870000D01*
X103862735Y-144553130D01*
X104088164Y-144503617D01*
X104247807Y-144038964D01*
X104217482Y-143548587D01*
X104088164Y-143236383D01*
X103862735Y-143186870D01*
X103179605Y-143870000D01*
X102820395Y-143870000D01*
X102137265Y-143186870D01*
X102000000Y-143217019D01*
X101862735Y-143186870D01*
X101179605Y-143870000D01*
X100820395Y-143870000D01*
X100806253Y-143855858D01*
X100985858Y-143676253D01*
X101000000Y-143690395D01*
X101683130Y-143007265D01*
X101666365Y-142930935D01*
X101698657Y-142917592D01*
X102000221Y-142616554D01*
X102299515Y-142916371D01*
X102333715Y-142930572D01*
X102316870Y-143007265D01*
X103000000Y-143690395D01*
X103683130Y-143007265D01*
X103666365Y-142930935D01*
X103698657Y-142917592D01*
X104046371Y-142570485D01*
X104165089Y-142284579D01*
X127264786Y-142284579D01*
X127452408Y-142738657D01*
X127799515Y-143086371D01*
X128253266Y-143274785D01*
X128744579Y-143275214D01*
X129198657Y-143087592D01*
X129546371Y-142740485D01*
X129734785Y-142286734D01*
X129734838Y-142225265D01*
X135364847Y-142225265D01*
X135499296Y-142550657D01*
X135748033Y-142799829D01*
X136073190Y-142934846D01*
X136425265Y-142935153D01*
X136750657Y-142800704D01*
X136999829Y-142551967D01*
X137134846Y-142226810D01*
X137135153Y-141874735D01*
X137000704Y-141549343D01*
X136751967Y-141300171D01*
X136426810Y-141165154D01*
X136074735Y-141164847D01*
X135749343Y-141299296D01*
X135500171Y-141548033D01*
X135365154Y-141873190D01*
X135364847Y-142225265D01*
X129734838Y-142225265D01*
X129735214Y-141795421D01*
X129547592Y-141341343D01*
X129200485Y-140993629D01*
X128746734Y-140805215D01*
X128255421Y-140804786D01*
X127801343Y-140992408D01*
X127453629Y-141339515D01*
X127265215Y-141793266D01*
X127264786Y-142284579D01*
X104165089Y-142284579D01*
X104234785Y-142116734D01*
X104235214Y-141625421D01*
X104148379Y-141415265D01*
X107114847Y-141415265D01*
X107249296Y-141740657D01*
X107498033Y-141989829D01*
X107823190Y-142124846D01*
X108175265Y-142125153D01*
X108500657Y-141990704D01*
X108749829Y-141741967D01*
X108847139Y-141507619D01*
X108939296Y-141730657D01*
X109188033Y-141979829D01*
X109513190Y-142114846D01*
X109865265Y-142115153D01*
X110190657Y-141980704D01*
X110439829Y-141731967D01*
X110574846Y-141406810D01*
X110575153Y-141054735D01*
X110440704Y-140729343D01*
X110191967Y-140480171D01*
X109866810Y-140345154D01*
X109514735Y-140344847D01*
X109189343Y-140479296D01*
X108940171Y-140728033D01*
X108842861Y-140962381D01*
X108750704Y-140739343D01*
X108501967Y-140490171D01*
X108176810Y-140355154D01*
X107824735Y-140354847D01*
X107499343Y-140489296D01*
X107250171Y-140738033D01*
X107115154Y-141063190D01*
X107114847Y-141415265D01*
X104148379Y-141415265D01*
X104047592Y-141171343D01*
X103746554Y-140869779D01*
X104046371Y-140570485D01*
X104234785Y-140116734D01*
X104235214Y-139625421D01*
X104231018Y-139615265D01*
X107504847Y-139615265D01*
X107639296Y-139940657D01*
X107888033Y-140189829D01*
X108213190Y-140324846D01*
X108565265Y-140325153D01*
X108890657Y-140190704D01*
X109139829Y-139941967D01*
X109146764Y-139925265D01*
X111724847Y-139925265D01*
X111859296Y-140250657D01*
X112108033Y-140499829D01*
X112433190Y-140634846D01*
X112785265Y-140635153D01*
X113075416Y-140515265D01*
X122894847Y-140515265D01*
X123029296Y-140840657D01*
X123278033Y-141089829D01*
X123603190Y-141224846D01*
X123955265Y-141225153D01*
X124280657Y-141090704D01*
X124529829Y-140841967D01*
X124636420Y-140585265D01*
X124794847Y-140585265D01*
X124929296Y-140910657D01*
X125178033Y-141159829D01*
X125503190Y-141294846D01*
X125855265Y-141295153D01*
X126180657Y-141160704D01*
X126429829Y-140911967D01*
X126564846Y-140586810D01*
X126565074Y-140325265D01*
X134314847Y-140325265D01*
X134449296Y-140650657D01*
X134698033Y-140899829D01*
X135023190Y-141034846D01*
X135375265Y-141035153D01*
X135700657Y-140900704D01*
X135949829Y-140651967D01*
X136084846Y-140326810D01*
X136085153Y-139974735D01*
X135950704Y-139649343D01*
X135701967Y-139400171D01*
X135376810Y-139265154D01*
X135024735Y-139264847D01*
X134699343Y-139399296D01*
X134450171Y-139648033D01*
X134315154Y-139973190D01*
X134314847Y-140325265D01*
X126565074Y-140325265D01*
X126565153Y-140234735D01*
X126430704Y-139909343D01*
X126181967Y-139660171D01*
X125856810Y-139525154D01*
X125504735Y-139524847D01*
X125179343Y-139659296D01*
X124930171Y-139908033D01*
X124795154Y-140233190D01*
X124794847Y-140585265D01*
X124636420Y-140585265D01*
X124664846Y-140516810D01*
X124665153Y-140164735D01*
X124530704Y-139839343D01*
X124281967Y-139590171D01*
X123956810Y-139455154D01*
X123604735Y-139454847D01*
X123279343Y-139589296D01*
X123030171Y-139838033D01*
X122895154Y-140163190D01*
X122894847Y-140515265D01*
X113075416Y-140515265D01*
X113110657Y-140500704D01*
X113359829Y-140251967D01*
X113494846Y-139926810D01*
X113495153Y-139574735D01*
X113360704Y-139249343D01*
X113111967Y-139000171D01*
X112786810Y-138865154D01*
X112434735Y-138864847D01*
X112109343Y-138999296D01*
X111860171Y-139248033D01*
X111725154Y-139573190D01*
X111724847Y-139925265D01*
X109146764Y-139925265D01*
X109274846Y-139616810D01*
X109275153Y-139264735D01*
X109199234Y-139080997D01*
X109218033Y-139099829D01*
X109543190Y-139234846D01*
X109895265Y-139235153D01*
X110220657Y-139100704D01*
X110469829Y-138851967D01*
X110604846Y-138526810D01*
X110605022Y-138324917D01*
X110875265Y-138325153D01*
X111200657Y-138190704D01*
X111266210Y-138125265D01*
X115794847Y-138125265D01*
X115929296Y-138450657D01*
X116178033Y-138699829D01*
X116503190Y-138834846D01*
X116855265Y-138835153D01*
X117180657Y-138700704D01*
X117429829Y-138451967D01*
X117564846Y-138126810D01*
X117565153Y-137774735D01*
X117430704Y-137449343D01*
X117246948Y-137265265D01*
X123494847Y-137265265D01*
X123629296Y-137590657D01*
X123878033Y-137839829D01*
X124203190Y-137974846D01*
X124555265Y-137975153D01*
X124880657Y-137840704D01*
X125129829Y-137591967D01*
X125203202Y-137415265D01*
X126734847Y-137415265D01*
X126869296Y-137740657D01*
X127118033Y-137989829D01*
X127443190Y-138124846D01*
X127468610Y-138124868D01*
X127465154Y-138133190D01*
X127464847Y-138485265D01*
X127599296Y-138810657D01*
X127848033Y-139059829D01*
X128173190Y-139194846D01*
X128525265Y-139195153D01*
X128814179Y-139075776D01*
X128928033Y-139189829D01*
X129253190Y-139324846D01*
X129605265Y-139325153D01*
X129930657Y-139190704D01*
X130165033Y-138956737D01*
X130218033Y-139009829D01*
X130543190Y-139144846D01*
X130895265Y-139145153D01*
X131220657Y-139010704D01*
X131469829Y-138761967D01*
X131604846Y-138436810D01*
X131605153Y-138084735D01*
X131553048Y-137958631D01*
X131616758Y-137895032D01*
X131755265Y-137895153D01*
X132080657Y-137760704D01*
X132329829Y-137511967D01*
X132425076Y-137282587D01*
X132424847Y-137545265D01*
X132516922Y-137768105D01*
X132415154Y-138013190D01*
X132414847Y-138365265D01*
X132549296Y-138690657D01*
X132798033Y-138939829D01*
X133123190Y-139074846D01*
X133475265Y-139075153D01*
X133800657Y-138940704D01*
X134049829Y-138691967D01*
X134184846Y-138366810D01*
X134185153Y-138014735D01*
X134093078Y-137791895D01*
X134194846Y-137546810D01*
X134194995Y-137375265D01*
X137654847Y-137375265D01*
X137789296Y-137700657D01*
X138038033Y-137949829D01*
X138363190Y-138084846D01*
X138715265Y-138085153D01*
X138815136Y-138043887D01*
X138814847Y-138375265D01*
X138908763Y-138602560D01*
X138450000Y-138602560D01*
X138214683Y-138646838D01*
X137998559Y-138785910D01*
X137853569Y-138998110D01*
X137802560Y-139250000D01*
X137802560Y-140550000D01*
X137846838Y-140785317D01*
X137985910Y-141001441D01*
X138198110Y-141146431D01*
X138450000Y-141197440D01*
X139750000Y-141197440D01*
X139985317Y-141153162D01*
X140201441Y-141014090D01*
X140280687Y-140898109D01*
X140371155Y-140988735D01*
X140843276Y-141184777D01*
X141354481Y-141185223D01*
X141826943Y-140990005D01*
X142188735Y-140628845D01*
X142331402Y-140285265D01*
X143904847Y-140285265D01*
X144039296Y-140610657D01*
X144288033Y-140859829D01*
X144613190Y-140994846D01*
X144965265Y-140995153D01*
X145290657Y-140860704D01*
X145539829Y-140611967D01*
X145674846Y-140286810D01*
X145675153Y-139934735D01*
X145540704Y-139609343D01*
X145291967Y-139360171D01*
X144966810Y-139225154D01*
X144614735Y-139224847D01*
X144289343Y-139359296D01*
X144040171Y-139608033D01*
X143905154Y-139933190D01*
X143904847Y-140285265D01*
X142331402Y-140285265D01*
X142384777Y-140156724D01*
X142385223Y-139645519D01*
X142256769Y-139334638D01*
X142479829Y-139111967D01*
X142614846Y-138786810D01*
X142615153Y-138434735D01*
X142480704Y-138109343D01*
X142231967Y-137860171D01*
X141906810Y-137725154D01*
X141554735Y-137724847D01*
X141229343Y-137859296D01*
X140980171Y-138108033D01*
X140845154Y-138433190D01*
X140844995Y-138614993D01*
X140373057Y-138809995D01*
X140280746Y-138902145D01*
X140268447Y-138883032D01*
X140449829Y-138701967D01*
X140584846Y-138376810D01*
X140585153Y-138024735D01*
X140450704Y-137699343D01*
X140201967Y-137450171D01*
X140105388Y-137410068D01*
X140200657Y-137370704D01*
X140449829Y-137121967D01*
X140584846Y-136796810D01*
X140585153Y-136444735D01*
X140519262Y-136285265D01*
X143904847Y-136285265D01*
X144039296Y-136610657D01*
X144288033Y-136859829D01*
X144613190Y-136994846D01*
X144965265Y-136995153D01*
X145290657Y-136860704D01*
X145539829Y-136611967D01*
X145674846Y-136286810D01*
X145675153Y-135934735D01*
X145540704Y-135609343D01*
X145291967Y-135360171D01*
X144966810Y-135225154D01*
X144614735Y-135224847D01*
X144289343Y-135359296D01*
X144040171Y-135608033D01*
X143905154Y-135933190D01*
X143904847Y-136285265D01*
X140519262Y-136285265D01*
X140450704Y-136119343D01*
X140201967Y-135870171D01*
X139876810Y-135735154D01*
X139524735Y-135734847D01*
X139199343Y-135869296D01*
X138950171Y-136118033D01*
X138846038Y-136368814D01*
X138716810Y-136315154D01*
X138364735Y-136314847D01*
X138039343Y-136449296D01*
X137790171Y-136698033D01*
X137655154Y-137023190D01*
X137654847Y-137375265D01*
X134194995Y-137375265D01*
X134195153Y-137194735D01*
X134060704Y-136869343D01*
X133811967Y-136620171D01*
X133486810Y-136485154D01*
X133134735Y-136484847D01*
X132809343Y-136619296D01*
X132560171Y-136868033D01*
X132464924Y-137097413D01*
X132465153Y-136834735D01*
X132330704Y-136509343D01*
X132081967Y-136260171D01*
X131756810Y-136125154D01*
X131404735Y-136124847D01*
X131079343Y-136259296D01*
X130833242Y-136504968D01*
X130694735Y-136504847D01*
X130369343Y-136639296D01*
X130120171Y-136888033D01*
X129985154Y-137213190D01*
X129984847Y-137565265D01*
X130036952Y-137691369D01*
X129984967Y-137743263D01*
X129931967Y-137690171D01*
X129606810Y-137555154D01*
X129254735Y-137554847D01*
X128965821Y-137674224D01*
X128851967Y-137560171D01*
X128526810Y-137425154D01*
X128501390Y-137425132D01*
X128504846Y-137416810D01*
X128505153Y-137064735D01*
X128370704Y-136739343D01*
X128121967Y-136490171D01*
X127796810Y-136355154D01*
X127444735Y-136354847D01*
X127119343Y-136489296D01*
X126870171Y-136738033D01*
X126735154Y-137063190D01*
X126734847Y-137415265D01*
X125203202Y-137415265D01*
X125264846Y-137266810D01*
X125265153Y-136914735D01*
X125130704Y-136589343D01*
X124881967Y-136340171D01*
X124556810Y-136205154D01*
X124204735Y-136204847D01*
X123879343Y-136339296D01*
X123630171Y-136588033D01*
X123495154Y-136913190D01*
X123494847Y-137265265D01*
X117246948Y-137265265D01*
X117181967Y-137200171D01*
X116856810Y-137065154D01*
X116504735Y-137064847D01*
X116179343Y-137199296D01*
X115930171Y-137448033D01*
X115795154Y-137773190D01*
X115794847Y-138125265D01*
X111266210Y-138125265D01*
X111449829Y-137941967D01*
X111584846Y-137616810D01*
X111585153Y-137264735D01*
X111450704Y-136939343D01*
X111201967Y-136690171D01*
X110901160Y-136565265D01*
X113764847Y-136565265D01*
X113899296Y-136890657D01*
X114148033Y-137139829D01*
X114473190Y-137274846D01*
X114825265Y-137275153D01*
X115150657Y-137140704D01*
X115399829Y-136891967D01*
X115534846Y-136566810D01*
X115534943Y-136455083D01*
X115615265Y-136455153D01*
X115940657Y-136320704D01*
X116189829Y-136071967D01*
X116324846Y-135746810D01*
X116325100Y-135455265D01*
X133564847Y-135455265D01*
X133699296Y-135780657D01*
X133818787Y-135900357D01*
X133805154Y-135933190D01*
X133804847Y-136285265D01*
X133939296Y-136610657D01*
X134188033Y-136859829D01*
X134513190Y-136994846D01*
X134865265Y-136995153D01*
X135190657Y-136860704D01*
X135439829Y-136611967D01*
X135574846Y-136286810D01*
X135575153Y-135934735D01*
X135440704Y-135609343D01*
X135321213Y-135489643D01*
X135334846Y-135456810D01*
X135334847Y-135455265D01*
X136094847Y-135455265D01*
X136229296Y-135780657D01*
X136478033Y-136029829D01*
X136803190Y-136164846D01*
X137155265Y-136165153D01*
X137480657Y-136030704D01*
X137729829Y-135781967D01*
X137864846Y-135456810D01*
X137865153Y-135104735D01*
X137730704Y-134779343D01*
X137656756Y-134705265D01*
X140944847Y-134705265D01*
X141079296Y-135030657D01*
X141328033Y-135279829D01*
X141653190Y-135414846D01*
X142005265Y-135415153D01*
X142330657Y-135280704D01*
X142579829Y-135031967D01*
X142582681Y-135025098D01*
X142645265Y-135025153D01*
X142970657Y-134890704D01*
X143219829Y-134641967D01*
X143354846Y-134316810D01*
X143355153Y-133964735D01*
X143220704Y-133639343D01*
X142971967Y-133390171D01*
X142646810Y-133255154D01*
X142294735Y-133254847D01*
X141969343Y-133389296D01*
X141720171Y-133638033D01*
X141717319Y-133644902D01*
X141654735Y-133644847D01*
X141329343Y-133779296D01*
X141080171Y-134028033D01*
X140945154Y-134353190D01*
X140944847Y-134705265D01*
X137656756Y-134705265D01*
X137481967Y-134530171D01*
X137156810Y-134395154D01*
X136804735Y-134394847D01*
X136479343Y-134529296D01*
X136230171Y-134778033D01*
X136095154Y-135103190D01*
X136094847Y-135455265D01*
X135334847Y-135455265D01*
X135335153Y-135104735D01*
X135200704Y-134779343D01*
X134951967Y-134530171D01*
X134626810Y-134395154D01*
X134274735Y-134394847D01*
X133949343Y-134529296D01*
X133700171Y-134778033D01*
X133565154Y-135103190D01*
X133564847Y-135455265D01*
X116325100Y-135455265D01*
X116325153Y-135394735D01*
X116190704Y-135069343D01*
X115941967Y-134820171D01*
X115616810Y-134685154D01*
X115264735Y-134684847D01*
X114939343Y-134819296D01*
X114690171Y-135068033D01*
X114555154Y-135393190D01*
X114555057Y-135504917D01*
X114474735Y-135504847D01*
X114149343Y-135639296D01*
X113900171Y-135888033D01*
X113765154Y-136213190D01*
X113764847Y-136565265D01*
X110901160Y-136565265D01*
X110876810Y-136555154D01*
X110524735Y-136554847D01*
X110199343Y-136689296D01*
X109950171Y-136938033D01*
X109815154Y-137263190D01*
X109814978Y-137465083D01*
X109544735Y-137464847D01*
X109219343Y-137599296D01*
X108970171Y-137848033D01*
X108835154Y-138173190D01*
X108834847Y-138525265D01*
X108910766Y-138709003D01*
X108891967Y-138690171D01*
X108566810Y-138555154D01*
X108214735Y-138554847D01*
X107889343Y-138689296D01*
X107640171Y-138938033D01*
X107505154Y-139263190D01*
X107504847Y-139615265D01*
X104231018Y-139615265D01*
X104047592Y-139171343D01*
X103746554Y-138869779D01*
X104046371Y-138570485D01*
X104234785Y-138116734D01*
X104235214Y-137625421D01*
X104047592Y-137171343D01*
X103746554Y-136869779D01*
X104046371Y-136570485D01*
X104131585Y-136365265D01*
X108154847Y-136365265D01*
X108289296Y-136690657D01*
X108538033Y-136939829D01*
X108863190Y-137074846D01*
X109215265Y-137075153D01*
X109540657Y-136940704D01*
X109789829Y-136691967D01*
X109924846Y-136366810D01*
X109925153Y-136014735D01*
X109790704Y-135689343D01*
X109541967Y-135440171D01*
X109216810Y-135305154D01*
X108864735Y-135304847D01*
X108539343Y-135439296D01*
X108290171Y-135688033D01*
X108155154Y-136013190D01*
X108154847Y-136365265D01*
X104131585Y-136365265D01*
X104234785Y-136116734D01*
X104235214Y-135625421D01*
X104047592Y-135171343D01*
X103746554Y-134869779D01*
X103871285Y-134745265D01*
X110314847Y-134745265D01*
X110449296Y-135070657D01*
X110698033Y-135319829D01*
X111023190Y-135454846D01*
X111375265Y-135455153D01*
X111700657Y-135320704D01*
X111949829Y-135071967D01*
X112084846Y-134746810D01*
X112085153Y-134394735D01*
X111950704Y-134069343D01*
X111701967Y-133820171D01*
X111376810Y-133685154D01*
X111024735Y-133684847D01*
X110699343Y-133819296D01*
X110450171Y-134068033D01*
X110315154Y-134393190D01*
X110314847Y-134745265D01*
X103871285Y-134745265D01*
X104046371Y-134570485D01*
X104234785Y-134116734D01*
X104235214Y-133625421D01*
X104047592Y-133171343D01*
X103801944Y-132925265D01*
X111714847Y-132925265D01*
X111849296Y-133250657D01*
X112098033Y-133499829D01*
X112115618Y-133507131D01*
X112249296Y-133830657D01*
X112385012Y-133966610D01*
X112384847Y-134155265D01*
X112519296Y-134480657D01*
X112768033Y-134729829D01*
X113093190Y-134864846D01*
X113445265Y-134865153D01*
X113770657Y-134730704D01*
X113866262Y-134635265D01*
X120524847Y-134635265D01*
X120659296Y-134960657D01*
X120908033Y-135209829D01*
X121233190Y-135344846D01*
X121585265Y-135345153D01*
X121910657Y-135210704D01*
X122159829Y-134961967D01*
X122294846Y-134636810D01*
X122295153Y-134284735D01*
X122237526Y-134145265D01*
X122914847Y-134145265D01*
X123049296Y-134470657D01*
X123298033Y-134719829D01*
X123623190Y-134854846D01*
X123975265Y-134855153D01*
X124300657Y-134720704D01*
X124549829Y-134471967D01*
X124684846Y-134146810D01*
X124685153Y-133794735D01*
X124550704Y-133469343D01*
X124301967Y-133220171D01*
X123976810Y-133085154D01*
X123624735Y-133084847D01*
X123299343Y-133219296D01*
X123050171Y-133468033D01*
X122915154Y-133793190D01*
X122914847Y-134145265D01*
X122237526Y-134145265D01*
X122160704Y-133959343D01*
X121911967Y-133710171D01*
X121586810Y-133575154D01*
X121234735Y-133574847D01*
X120909343Y-133709296D01*
X120660171Y-133958033D01*
X120525154Y-134283190D01*
X120524847Y-134635265D01*
X113866262Y-134635265D01*
X114019829Y-134481967D01*
X114154846Y-134156810D01*
X114155153Y-133804735D01*
X114020704Y-133479343D01*
X113884988Y-133343390D01*
X113885153Y-133154735D01*
X113750704Y-132829343D01*
X113501967Y-132580171D01*
X113484382Y-132572869D01*
X113444053Y-132475265D01*
X124334847Y-132475265D01*
X124469296Y-132800657D01*
X124718033Y-133049829D01*
X125043190Y-133184846D01*
X125395265Y-133185153D01*
X125454886Y-133160518D01*
X125454847Y-133205265D01*
X125589296Y-133530657D01*
X125838033Y-133779829D01*
X125969245Y-133834313D01*
X126079296Y-134100657D01*
X126328033Y-134349829D01*
X126501242Y-134421752D01*
X126579296Y-134610657D01*
X126828033Y-134859829D01*
X127153190Y-134994846D01*
X127505265Y-134995153D01*
X127596069Y-134957634D01*
X127728033Y-135089829D01*
X128053190Y-135224846D01*
X128405265Y-135225153D01*
X128730657Y-135090704D01*
X128979829Y-134841967D01*
X129114846Y-134516810D01*
X129115108Y-134215265D01*
X129404847Y-134215265D01*
X129539296Y-134540657D01*
X129788033Y-134789829D01*
X130113190Y-134924846D01*
X130465265Y-134925153D01*
X130790657Y-134790704D01*
X130958860Y-134622795D01*
X130999296Y-134720657D01*
X131248033Y-134969829D01*
X131573190Y-135104846D01*
X131925265Y-135105153D01*
X132250657Y-134970704D01*
X132499829Y-134721967D01*
X132634846Y-134396810D01*
X132635153Y-134044735D01*
X132507283Y-133735265D01*
X132534847Y-133735265D01*
X132669296Y-134060657D01*
X132918033Y-134309829D01*
X133243190Y-134444846D01*
X133595265Y-134445153D01*
X133920657Y-134310704D01*
X134169829Y-134061967D01*
X134253373Y-133860770D01*
X134263190Y-133864846D01*
X134615265Y-133865153D01*
X134940657Y-133730704D01*
X135189829Y-133481967D01*
X135324846Y-133156810D01*
X135325153Y-132804735D01*
X135190704Y-132479343D01*
X135101597Y-132390080D01*
X135169829Y-132321967D01*
X135304846Y-131996810D01*
X135305039Y-131775265D01*
X141934847Y-131775265D01*
X142069296Y-132100657D01*
X142318033Y-132349829D01*
X142643190Y-132484846D01*
X142995265Y-132485153D01*
X143320657Y-132350704D01*
X143569829Y-132101967D01*
X143704846Y-131776810D01*
X143705153Y-131424735D01*
X143570704Y-131099343D01*
X143546531Y-131075128D01*
X143575265Y-131075153D01*
X143900657Y-130940704D01*
X144149829Y-130691967D01*
X144284846Y-130366810D01*
X144285153Y-130014735D01*
X144150704Y-129689343D01*
X143901967Y-129440171D01*
X143576810Y-129305154D01*
X143224735Y-129304847D01*
X142899343Y-129439296D01*
X142650171Y-129688033D01*
X142515154Y-130013190D01*
X142514847Y-130365265D01*
X142649296Y-130690657D01*
X142673469Y-130714872D01*
X142644735Y-130714847D01*
X142319343Y-130849296D01*
X142070171Y-131098033D01*
X141935154Y-131423190D01*
X141934847Y-131775265D01*
X135305039Y-131775265D01*
X135305153Y-131644735D01*
X135170704Y-131319343D01*
X134921967Y-131070171D01*
X134892311Y-131057857D01*
X134820037Y-130882939D01*
X134970657Y-130820704D01*
X135219829Y-130571967D01*
X135354846Y-130246810D01*
X135355153Y-129894735D01*
X135220704Y-129569343D01*
X135016580Y-129364862D01*
X135219829Y-129161967D01*
X135354846Y-128836810D01*
X135355153Y-128484735D01*
X135243811Y-128215265D01*
X143624847Y-128215265D01*
X143759296Y-128540657D01*
X144008033Y-128789829D01*
X144333190Y-128924846D01*
X144685265Y-128925153D01*
X145010657Y-128790704D01*
X145259829Y-128541967D01*
X145394846Y-128216810D01*
X145395153Y-127864735D01*
X145260704Y-127539343D01*
X145011967Y-127290171D01*
X144686810Y-127155154D01*
X144334735Y-127154847D01*
X144009343Y-127289296D01*
X143760171Y-127538033D01*
X143625154Y-127863190D01*
X143624847Y-128215265D01*
X135243811Y-128215265D01*
X135220704Y-128159343D01*
X134971967Y-127910171D01*
X134646810Y-127775154D01*
X134294735Y-127774847D01*
X133969343Y-127909296D01*
X133720171Y-128158033D01*
X133585154Y-128483190D01*
X133584936Y-128732853D01*
X133569343Y-128739296D01*
X133320171Y-128988033D01*
X133185154Y-129313190D01*
X133184847Y-129665265D01*
X133319296Y-129990657D01*
X133568033Y-130239829D01*
X133585618Y-130247131D01*
X133659963Y-130427061D01*
X133509343Y-130489296D01*
X133260171Y-130738033D01*
X133125154Y-131063190D01*
X133124847Y-131415265D01*
X133259296Y-131740657D01*
X133343412Y-131824920D01*
X133270171Y-131898033D01*
X133135154Y-132223190D01*
X133134847Y-132575265D01*
X133186018Y-132699108D01*
X132919343Y-132809296D01*
X132670171Y-133058033D01*
X132535154Y-133383190D01*
X132534847Y-133735265D01*
X132507283Y-133735265D01*
X132500704Y-133719343D01*
X132251967Y-133470171D01*
X131926810Y-133335154D01*
X131574735Y-133334847D01*
X131249343Y-133469296D01*
X131081140Y-133637205D01*
X131040704Y-133539343D01*
X130791967Y-133290171D01*
X130466810Y-133155154D01*
X130114735Y-133154847D01*
X129789343Y-133289296D01*
X129540171Y-133538033D01*
X129405154Y-133863190D01*
X129404847Y-134215265D01*
X129115108Y-134215265D01*
X129115153Y-134164735D01*
X128980704Y-133839343D01*
X128731967Y-133590171D01*
X128406810Y-133455154D01*
X128054735Y-133454847D01*
X127963931Y-133492366D01*
X127831967Y-133360171D01*
X127658758Y-133288248D01*
X127580704Y-133099343D01*
X127331967Y-132850171D01*
X127200755Y-132795687D01*
X127090704Y-132529343D01*
X126841967Y-132280171D01*
X126685829Y-132215337D01*
X126890657Y-132130704D01*
X127139829Y-131881967D01*
X127180146Y-131784872D01*
X127480657Y-131660704D01*
X127729829Y-131411967D01*
X127864846Y-131086810D01*
X127865153Y-130734735D01*
X127730704Y-130409343D01*
X127481967Y-130160171D01*
X127156810Y-130025154D01*
X126804735Y-130024847D01*
X126479343Y-130159296D01*
X126230171Y-130408033D01*
X126189854Y-130505128D01*
X125889343Y-130629296D01*
X125640171Y-130878033D01*
X125607807Y-130955973D01*
X125309343Y-131079296D01*
X125060171Y-131328033D01*
X125019854Y-131425128D01*
X124719343Y-131549296D01*
X124470171Y-131798033D01*
X124335154Y-132123190D01*
X124334847Y-132475265D01*
X113444053Y-132475265D01*
X113350704Y-132249343D01*
X113101967Y-132000171D01*
X112776810Y-131865154D01*
X112424735Y-131864847D01*
X112099343Y-131999296D01*
X111850171Y-132248033D01*
X111715154Y-132573190D01*
X111714847Y-132925265D01*
X103801944Y-132925265D01*
X103746554Y-132869779D01*
X104046371Y-132570485D01*
X104234785Y-132116734D01*
X104235214Y-131625421D01*
X104047592Y-131171343D01*
X103891787Y-131015265D01*
X114634847Y-131015265D01*
X114769296Y-131340657D01*
X115018033Y-131589829D01*
X115343190Y-131724846D01*
X115456034Y-131724944D01*
X115549296Y-131950657D01*
X115798033Y-132199829D01*
X116123190Y-132334846D01*
X116475265Y-132335153D01*
X116800657Y-132200704D01*
X117049829Y-131951967D01*
X117184846Y-131626810D01*
X117185153Y-131274735D01*
X117050704Y-130949343D01*
X116801967Y-130700171D01*
X116500952Y-130575179D01*
X116624846Y-130276810D01*
X116625153Y-129924735D01*
X116497699Y-129616271D01*
X116534846Y-129526810D01*
X116535153Y-129174735D01*
X116514713Y-129125265D01*
X116714847Y-129125265D01*
X116849296Y-129450657D01*
X117098033Y-129699829D01*
X117371206Y-129813260D01*
X117469296Y-130050657D01*
X117718033Y-130299829D01*
X118020336Y-130425356D01*
X118109296Y-130640657D01*
X118358033Y-130889829D01*
X118660336Y-131015356D01*
X118749296Y-131230657D01*
X118998033Y-131479829D01*
X119323190Y-131614846D01*
X119675265Y-131615153D01*
X119860590Y-131538578D01*
X119919296Y-131680657D01*
X120168033Y-131929829D01*
X120493190Y-132064846D01*
X120845265Y-132065153D01*
X121170657Y-131930704D01*
X121419829Y-131681967D01*
X121554846Y-131356810D01*
X121555153Y-131004735D01*
X121420704Y-130679343D01*
X121171967Y-130430171D01*
X120846810Y-130295154D01*
X120494735Y-130294847D01*
X120309410Y-130371422D01*
X120250704Y-130229343D01*
X120001967Y-129980171D01*
X119699664Y-129854644D01*
X119610704Y-129639343D01*
X119361967Y-129390171D01*
X119059664Y-129264644D01*
X118970704Y-129049343D01*
X118721967Y-128800171D01*
X118448794Y-128686740D01*
X118350704Y-128449343D01*
X118101967Y-128200171D01*
X117776810Y-128065154D01*
X117424735Y-128064847D01*
X117099343Y-128199296D01*
X116850171Y-128448033D01*
X116715154Y-128773190D01*
X116714847Y-129125265D01*
X116514713Y-129125265D01*
X116400704Y-128849343D01*
X116151967Y-128600171D01*
X115826810Y-128465154D01*
X115474735Y-128464847D01*
X115149343Y-128599296D01*
X114900171Y-128848033D01*
X114765154Y-129173190D01*
X114764847Y-129525265D01*
X114892301Y-129833729D01*
X114855154Y-129923190D01*
X114854866Y-130253486D01*
X114770171Y-130338033D01*
X114635154Y-130663190D01*
X114634847Y-131015265D01*
X103891787Y-131015265D01*
X103746554Y-130869779D01*
X104046371Y-130570485D01*
X104234785Y-130116734D01*
X104235214Y-129625421D01*
X104047592Y-129171343D01*
X103811926Y-128935265D01*
X104404847Y-128935265D01*
X104539296Y-129260657D01*
X104788033Y-129509829D01*
X105113190Y-129644846D01*
X105465265Y-129645153D01*
X105790657Y-129510704D01*
X106039829Y-129261967D01*
X106174846Y-128936810D01*
X106174856Y-128925265D01*
X112034847Y-128925265D01*
X112166358Y-129243546D01*
X112075154Y-129463190D01*
X112074847Y-129815265D01*
X112209296Y-130140657D01*
X112458033Y-130389829D01*
X112783190Y-130524846D01*
X113135265Y-130525153D01*
X113460657Y-130390704D01*
X113709829Y-130141967D01*
X113844846Y-129816810D01*
X113845153Y-129464735D01*
X113713642Y-129146454D01*
X113804846Y-128926810D01*
X113805153Y-128574735D01*
X113670704Y-128249343D01*
X113421967Y-128000171D01*
X113096810Y-127865154D01*
X112744735Y-127864847D01*
X112419343Y-127999296D01*
X112170171Y-128248033D01*
X112035154Y-128573190D01*
X112034847Y-128925265D01*
X106174856Y-128925265D01*
X106175153Y-128584735D01*
X106040704Y-128259343D01*
X105791967Y-128010171D01*
X105466810Y-127875154D01*
X105114735Y-127874847D01*
X104789343Y-128009296D01*
X104540171Y-128258033D01*
X104405154Y-128583190D01*
X104404847Y-128935265D01*
X103811926Y-128935265D01*
X103746554Y-128869779D01*
X104046371Y-128570485D01*
X104234785Y-128116734D01*
X104235214Y-127625421D01*
X104193831Y-127525265D01*
X105774847Y-127525265D01*
X105909296Y-127850657D01*
X106158033Y-128099829D01*
X106483190Y-128234846D01*
X106835265Y-128235153D01*
X107160657Y-128100704D01*
X107409829Y-127851967D01*
X107544846Y-127526810D01*
X107545153Y-127174735D01*
X107410704Y-126849343D01*
X107161967Y-126600171D01*
X106885243Y-126485265D01*
X111824847Y-126485265D01*
X111959296Y-126810657D01*
X112208033Y-127059829D01*
X112533190Y-127194846D01*
X112885265Y-127195153D01*
X113210657Y-127060704D01*
X113459829Y-126811967D01*
X113594846Y-126486810D01*
X113595153Y-126134735D01*
X113460704Y-125809343D01*
X113281545Y-125629870D01*
X113486507Y-125425265D01*
X114754847Y-125425265D01*
X114889296Y-125750657D01*
X114898185Y-125759561D01*
X114855154Y-125863190D01*
X114854847Y-126215265D01*
X114989296Y-126540657D01*
X115035142Y-126586583D01*
X115034847Y-126925265D01*
X115087487Y-127052663D01*
X114975154Y-127323190D01*
X114974847Y-127675265D01*
X115109296Y-128000657D01*
X115358033Y-128249829D01*
X115683190Y-128384846D01*
X116035265Y-128385153D01*
X116360657Y-128250704D01*
X116609829Y-128001967D01*
X116629221Y-127955265D01*
X119224847Y-127955265D01*
X119359296Y-128280657D01*
X119608033Y-128529829D01*
X119862051Y-128635307D01*
X119959296Y-128870657D01*
X120208033Y-129119829D01*
X120533190Y-129254846D01*
X120885265Y-129255153D01*
X121210657Y-129120704D01*
X121459829Y-128871967D01*
X121594846Y-128546810D01*
X121594847Y-128545265D01*
X128524847Y-128545265D01*
X128659296Y-128870657D01*
X128908033Y-129119829D01*
X129233190Y-129254846D01*
X129585265Y-129255153D01*
X129910657Y-129120704D01*
X130159829Y-128871967D01*
X130222267Y-128721600D01*
X130477822Y-128616007D01*
X130523190Y-128634846D01*
X130623478Y-128634933D01*
X130818033Y-128829829D01*
X131143190Y-128964846D01*
X131495265Y-128965153D01*
X131820657Y-128830704D01*
X131925025Y-128726518D01*
X132098033Y-128899829D01*
X132423190Y-129034846D01*
X132775265Y-129035153D01*
X133100657Y-128900704D01*
X133349829Y-128651967D01*
X133484846Y-128326810D01*
X133485153Y-127974735D01*
X133350704Y-127649343D01*
X133101967Y-127400171D01*
X132852936Y-127296764D01*
X132750704Y-127049343D01*
X132501967Y-126800171D01*
X132176810Y-126665154D01*
X131824735Y-126664847D01*
X131499343Y-126799296D01*
X131250171Y-127048033D01*
X131250046Y-127048334D01*
X131201967Y-127000171D01*
X130876810Y-126865154D01*
X130524735Y-126864847D01*
X130212178Y-126993993D01*
X130166810Y-126975154D01*
X129814735Y-126974847D01*
X129489343Y-127109296D01*
X129240171Y-127358033D01*
X129177733Y-127508400D01*
X128909343Y-127619296D01*
X128660171Y-127868033D01*
X128525154Y-128193190D01*
X128524847Y-128545265D01*
X121594847Y-128545265D01*
X121595153Y-128194735D01*
X121460704Y-127869343D01*
X121211967Y-127620171D01*
X120957949Y-127514693D01*
X120860704Y-127279343D01*
X120796738Y-127215265D01*
X121904847Y-127215265D01*
X122039296Y-127540657D01*
X122288033Y-127789829D01*
X122613190Y-127924846D01*
X122965265Y-127925153D01*
X123290657Y-127790704D01*
X123539829Y-127541967D01*
X123674846Y-127216810D01*
X123675153Y-126864735D01*
X123540704Y-126539343D01*
X123291967Y-126290171D01*
X122966810Y-126155154D01*
X122614735Y-126154847D01*
X122289343Y-126289296D01*
X122040171Y-126538033D01*
X121905154Y-126863190D01*
X121904847Y-127215265D01*
X120796738Y-127215265D01*
X120611967Y-127030171D01*
X120286810Y-126895154D01*
X119934735Y-126894847D01*
X119609343Y-127029296D01*
X119360171Y-127278033D01*
X119225154Y-127603190D01*
X119224847Y-127955265D01*
X116629221Y-127955265D01*
X116744846Y-127676810D01*
X116745153Y-127324735D01*
X116692513Y-127197337D01*
X116804846Y-126926810D01*
X116805153Y-126574735D01*
X116670704Y-126249343D01*
X116624858Y-126203417D01*
X116625153Y-125864735D01*
X116490704Y-125539343D01*
X116481815Y-125530439D01*
X116524846Y-125426810D01*
X116524847Y-125425265D01*
X129814847Y-125425265D01*
X129949296Y-125750657D01*
X130198033Y-125999829D01*
X130471206Y-126113260D01*
X130569296Y-126350657D01*
X130818033Y-126599829D01*
X131143190Y-126734846D01*
X131495265Y-126735153D01*
X131820657Y-126600704D01*
X131916262Y-126505265D01*
X132624847Y-126505265D01*
X132759296Y-126830657D01*
X133008033Y-127079829D01*
X133295665Y-127199264D01*
X133329296Y-127280657D01*
X133578033Y-127529829D01*
X133903190Y-127664846D01*
X134255265Y-127665153D01*
X134580657Y-127530704D01*
X134829829Y-127281967D01*
X134964846Y-126956810D01*
X134965153Y-126604735D01*
X134830704Y-126279343D01*
X134581967Y-126030171D01*
X134294335Y-125910736D01*
X134260704Y-125829343D01*
X134011967Y-125580171D01*
X133686810Y-125445154D01*
X133334735Y-125444847D01*
X133009343Y-125579296D01*
X132760171Y-125828033D01*
X132625154Y-126153190D01*
X132624847Y-126505265D01*
X131916262Y-126505265D01*
X132069829Y-126351967D01*
X132204846Y-126026810D01*
X132205153Y-125674735D01*
X132070704Y-125349343D01*
X131821967Y-125100171D01*
X131548794Y-124986740D01*
X131450704Y-124749343D01*
X131201967Y-124500171D01*
X130876810Y-124365154D01*
X130524735Y-124364847D01*
X130199343Y-124499296D01*
X129950171Y-124748033D01*
X129815154Y-125073190D01*
X129814847Y-125425265D01*
X116524847Y-125425265D01*
X116525153Y-125074735D01*
X116508734Y-125034999D01*
X116685265Y-125035153D01*
X117010657Y-124900704D01*
X117259829Y-124651967D01*
X117394846Y-124326810D01*
X117395153Y-123974735D01*
X117260704Y-123649343D01*
X117011967Y-123400171D01*
X116686810Y-123265154D01*
X116334735Y-123264847D01*
X116009343Y-123399296D01*
X115893303Y-123515134D01*
X115564735Y-123514847D01*
X115239343Y-123649296D01*
X114990171Y-123898033D01*
X114855154Y-124223190D01*
X114854847Y-124575265D01*
X114915702Y-124722546D01*
X114890171Y-124748033D01*
X114755154Y-125073190D01*
X114754847Y-125425265D01*
X113486507Y-125425265D01*
X113499829Y-125411967D01*
X113634846Y-125086810D01*
X113635153Y-124734735D01*
X113500704Y-124409343D01*
X113251967Y-124160171D01*
X112926810Y-124025154D01*
X112574735Y-124024847D01*
X112249343Y-124159296D01*
X112000171Y-124408033D01*
X111865154Y-124733190D01*
X111864847Y-125085265D01*
X111999296Y-125410657D01*
X112178455Y-125590130D01*
X111960171Y-125808033D01*
X111825154Y-126133190D01*
X111824847Y-126485265D01*
X106885243Y-126485265D01*
X106836810Y-126465154D01*
X106484735Y-126464847D01*
X106159343Y-126599296D01*
X105910171Y-126848033D01*
X105775154Y-127173190D01*
X105774847Y-127525265D01*
X104193831Y-127525265D01*
X104047592Y-127171343D01*
X103746554Y-126869779D01*
X104046371Y-126570485D01*
X104234785Y-126116734D01*
X104235214Y-125625421D01*
X104047592Y-125171343D01*
X103746554Y-124869779D01*
X104046371Y-124570485D01*
X104234785Y-124116734D01*
X104235214Y-123625421D01*
X104047592Y-123171343D01*
X103746554Y-122869779D01*
X104046371Y-122570485D01*
X104234785Y-122116734D01*
X104235214Y-121625421D01*
X104047592Y-121171343D01*
X103746554Y-120869779D01*
X104046371Y-120570485D01*
X104234785Y-120116734D01*
X104235214Y-119625421D01*
X104231018Y-119615265D01*
X116564847Y-119615265D01*
X116699296Y-119940657D01*
X116883290Y-120124972D01*
X116850171Y-120158033D01*
X116715154Y-120483190D01*
X116714847Y-120835265D01*
X116849296Y-121160657D01*
X117098033Y-121409829D01*
X117416095Y-121541900D01*
X117469296Y-121670657D01*
X117718033Y-121919829D01*
X118043190Y-122054846D01*
X118061451Y-122054862D01*
X118109296Y-122170657D01*
X118358033Y-122419829D01*
X118683190Y-122554846D01*
X118701451Y-122554862D01*
X118749296Y-122670657D01*
X118998033Y-122919829D01*
X119323190Y-123054846D01*
X119323840Y-123054847D01*
X119359296Y-123140657D01*
X119608033Y-123389829D01*
X119852076Y-123491165D01*
X119959296Y-123750657D01*
X120208033Y-123999829D01*
X120533190Y-124134846D01*
X120885265Y-124135153D01*
X121210657Y-124000704D01*
X121459829Y-123751967D01*
X121594846Y-123426810D01*
X121595153Y-123074735D01*
X121460704Y-122749343D01*
X121211967Y-122500171D01*
X120967924Y-122398835D01*
X120860704Y-122139343D01*
X120611967Y-121890171D01*
X120286810Y-121755154D01*
X120286160Y-121755153D01*
X120250704Y-121669343D01*
X120001967Y-121420171D01*
X119676810Y-121285154D01*
X119658549Y-121285138D01*
X119610704Y-121169343D01*
X119361967Y-120920171D01*
X119036810Y-120785154D01*
X119018549Y-120785138D01*
X118970704Y-120669343D01*
X118836861Y-120535265D01*
X120714847Y-120535265D01*
X120849296Y-120860657D01*
X121098033Y-121109829D01*
X121408373Y-121238693D01*
X121315154Y-121463190D01*
X121314847Y-121815265D01*
X121449296Y-122140657D01*
X121698033Y-122389829D01*
X122023190Y-122524846D01*
X122375265Y-122525153D01*
X122700657Y-122390704D01*
X122949829Y-122141967D01*
X123084846Y-121816810D01*
X123085153Y-121464735D01*
X122950704Y-121139343D01*
X122886738Y-121075265D01*
X124634847Y-121075265D01*
X124769296Y-121400657D01*
X125018033Y-121649829D01*
X125343190Y-121784846D01*
X125695265Y-121785153D01*
X126020657Y-121650704D01*
X126269829Y-121401967D01*
X126349044Y-121211196D01*
X126406106Y-121187618D01*
X126532064Y-121313797D01*
X126349343Y-121389296D01*
X126100171Y-121638033D01*
X125965154Y-121963190D01*
X125964847Y-122315265D01*
X126099296Y-122640657D01*
X126348033Y-122889829D01*
X126414393Y-122917384D01*
X126119343Y-123039296D01*
X125870171Y-123288033D01*
X125735154Y-123613190D01*
X125734847Y-123965265D01*
X125869296Y-124290657D01*
X126118033Y-124539829D01*
X126443190Y-124674846D01*
X126795265Y-124675153D01*
X127120657Y-124540704D01*
X127369829Y-124291967D01*
X127504846Y-123966810D01*
X127505153Y-123614735D01*
X127370704Y-123289343D01*
X127121967Y-123040171D01*
X127055607Y-123012616D01*
X127350657Y-122890704D01*
X127599829Y-122641967D01*
X127734846Y-122316810D01*
X127735153Y-121964735D01*
X127600704Y-121639343D01*
X127536738Y-121575265D01*
X128324847Y-121575265D01*
X128459296Y-121900657D01*
X128708033Y-122149829D01*
X128874983Y-122219153D01*
X128874847Y-122375265D01*
X129005951Y-122692560D01*
X128830171Y-122868033D01*
X128695154Y-123193190D01*
X128694847Y-123545265D01*
X128829296Y-123870657D01*
X129078033Y-124119829D01*
X129403190Y-124254846D01*
X129755265Y-124255153D01*
X130080657Y-124120704D01*
X130329829Y-123871967D01*
X130464846Y-123546810D01*
X130465153Y-123194735D01*
X130366206Y-122955265D01*
X132624847Y-122955265D01*
X132759296Y-123280657D01*
X133008033Y-123529829D01*
X133302111Y-123651941D01*
X133235154Y-123813190D01*
X133234847Y-124165265D01*
X133369296Y-124490657D01*
X133584907Y-124706645D01*
X133584847Y-124775265D01*
X133719296Y-125100657D01*
X133968033Y-125349829D01*
X134293190Y-125484846D01*
X134645265Y-125485153D01*
X134970657Y-125350704D01*
X135219829Y-125101967D01*
X135354846Y-124776810D01*
X135355153Y-124424735D01*
X135220704Y-124099343D01*
X135005093Y-123883355D01*
X135005153Y-123814735D01*
X134920061Y-123608797D01*
X135060657Y-123550704D01*
X135309829Y-123301967D01*
X135444846Y-122976810D01*
X135445153Y-122624735D01*
X135310704Y-122299343D01*
X135061967Y-122050171D01*
X134873292Y-121971826D01*
X134760704Y-121699343D01*
X134546811Y-121485076D01*
X134635265Y-121485153D01*
X134960657Y-121350704D01*
X135209829Y-121101967D01*
X135344846Y-120776810D01*
X135345153Y-120424735D01*
X135210704Y-120099343D01*
X134961967Y-119850171D01*
X134636810Y-119715154D01*
X134284735Y-119714847D01*
X134186827Y-119755302D01*
X134031967Y-119600171D01*
X133827491Y-119515265D01*
X135984847Y-119515265D01*
X136119296Y-119840657D01*
X136368033Y-120089829D01*
X136693190Y-120224846D01*
X137045265Y-120225153D01*
X137292247Y-120123102D01*
X137513190Y-120214846D01*
X137865265Y-120215153D01*
X138065089Y-120132587D01*
X138263190Y-120214846D01*
X138615265Y-120215153D01*
X138940657Y-120080704D01*
X139189829Y-119831967D01*
X139324846Y-119506810D01*
X139325153Y-119154735D01*
X139190704Y-118829343D01*
X138941967Y-118580171D01*
X138616810Y-118445154D01*
X138264735Y-118444847D01*
X138064911Y-118527413D01*
X137866810Y-118445154D01*
X137638350Y-118444955D01*
X137890657Y-118340704D01*
X138139829Y-118091967D01*
X138274846Y-117766810D01*
X138275153Y-117414735D01*
X138140704Y-117089343D01*
X137891967Y-116840171D01*
X137566810Y-116705154D01*
X137214735Y-116704847D01*
X136889343Y-116839296D01*
X136640171Y-117088033D01*
X136505154Y-117413190D01*
X136504847Y-117765265D01*
X136639296Y-118090657D01*
X136888033Y-118339829D01*
X137213190Y-118474846D01*
X137441650Y-118475045D01*
X137267753Y-118546898D01*
X137046810Y-118455154D01*
X136694735Y-118454847D01*
X136369343Y-118589296D01*
X136120171Y-118838033D01*
X135985154Y-119163190D01*
X135984847Y-119515265D01*
X133827491Y-119515265D01*
X133706810Y-119465154D01*
X133354735Y-119464847D01*
X133029343Y-119599296D01*
X132780171Y-119848033D01*
X132645154Y-120173190D01*
X132644847Y-120525265D01*
X132779296Y-120850657D01*
X133028033Y-121099829D01*
X133353190Y-121234846D01*
X133705265Y-121235153D01*
X133803173Y-121194698D01*
X133923189Y-121314924D01*
X133834735Y-121314847D01*
X133509343Y-121449296D01*
X133260171Y-121698033D01*
X133146079Y-121972798D01*
X133009343Y-122029296D01*
X132760171Y-122278033D01*
X132625154Y-122603190D01*
X132624847Y-122955265D01*
X130366206Y-122955265D01*
X130334049Y-122877440D01*
X130509829Y-122701967D01*
X130644846Y-122376810D01*
X130645153Y-122024735D01*
X130510704Y-121699343D01*
X130261967Y-121450171D01*
X130095017Y-121380847D01*
X130095153Y-121224735D01*
X129960704Y-120899343D01*
X129711967Y-120650171D01*
X129386810Y-120515154D01*
X129034735Y-120514847D01*
X128709343Y-120649296D01*
X128460171Y-120898033D01*
X128325154Y-121223190D01*
X128324847Y-121575265D01*
X127536738Y-121575265D01*
X127387936Y-121426203D01*
X127570657Y-121350704D01*
X127819829Y-121101967D01*
X127954846Y-120776810D01*
X127955153Y-120424735D01*
X127820704Y-120099343D01*
X127571967Y-119850171D01*
X127246810Y-119715154D01*
X126894735Y-119714847D01*
X126803894Y-119752382D01*
X126641967Y-119590171D01*
X126316810Y-119455154D01*
X125964735Y-119454847D01*
X125639343Y-119589296D01*
X125390171Y-119838033D01*
X125310956Y-120028804D01*
X125019343Y-120149296D01*
X124770171Y-120398033D01*
X124635154Y-120723190D01*
X124634847Y-121075265D01*
X122886738Y-121075265D01*
X122701967Y-120890171D01*
X122391627Y-120761307D01*
X122484846Y-120536810D01*
X122485153Y-120184735D01*
X122350704Y-119859343D01*
X122101967Y-119610171D01*
X121776810Y-119475154D01*
X121424735Y-119474847D01*
X121099343Y-119609296D01*
X120850171Y-119858033D01*
X120715154Y-120183190D01*
X120714847Y-120535265D01*
X118836861Y-120535265D01*
X118721967Y-120420171D01*
X118403905Y-120288100D01*
X118350704Y-120159343D01*
X118166710Y-119975028D01*
X118199829Y-119941967D01*
X118334846Y-119616810D01*
X118335153Y-119264735D01*
X118200704Y-118939343D01*
X117951967Y-118690171D01*
X117626810Y-118555154D01*
X117274735Y-118554847D01*
X116949343Y-118689296D01*
X116700171Y-118938033D01*
X116565154Y-119263190D01*
X116564847Y-119615265D01*
X104231018Y-119615265D01*
X104047592Y-119171343D01*
X103746554Y-118869779D01*
X103771110Y-118845265D01*
X109134847Y-118845265D01*
X109269296Y-119170657D01*
X109518033Y-119419829D01*
X109843190Y-119554846D01*
X110195265Y-119555153D01*
X110520657Y-119420704D01*
X110769829Y-119171967D01*
X110904846Y-118846810D01*
X110905153Y-118494735D01*
X110770704Y-118169343D01*
X110521967Y-117920171D01*
X110196810Y-117785154D01*
X109844735Y-117784847D01*
X109519343Y-117919296D01*
X109270171Y-118168033D01*
X109135154Y-118493190D01*
X109134847Y-118845265D01*
X103771110Y-118845265D01*
X104046371Y-118570485D01*
X104234785Y-118116734D01*
X104235214Y-117625421D01*
X104177303Y-117485265D01*
X117594847Y-117485265D01*
X117729296Y-117810657D01*
X117785886Y-117867346D01*
X117775154Y-117893190D01*
X117774847Y-118245265D01*
X117909296Y-118570657D01*
X118158033Y-118819829D01*
X118483190Y-118954846D01*
X118835265Y-118955153D01*
X119160657Y-118820704D01*
X119409829Y-118571967D01*
X119544846Y-118246810D01*
X119545153Y-117894735D01*
X119421415Y-117595265D01*
X120704847Y-117595265D01*
X120839296Y-117920657D01*
X121088033Y-118169829D01*
X121413190Y-118304846D01*
X121765265Y-118305153D01*
X122018352Y-118200580D01*
X121905154Y-118473190D01*
X121904847Y-118825265D01*
X122039296Y-119150657D01*
X122288033Y-119399829D01*
X122613190Y-119534846D01*
X122965265Y-119535153D01*
X123290657Y-119400704D01*
X123470112Y-119221562D01*
X123668033Y-119419829D01*
X123993190Y-119554846D01*
X124345265Y-119555153D01*
X124670657Y-119420704D01*
X124919829Y-119171967D01*
X125054846Y-118846810D01*
X125055153Y-118494735D01*
X124920704Y-118169343D01*
X124671967Y-117920171D01*
X124346810Y-117785154D01*
X123994735Y-117784847D01*
X123669343Y-117919296D01*
X123489888Y-118098438D01*
X123291967Y-117900171D01*
X122966810Y-117765154D01*
X122614735Y-117764847D01*
X122361648Y-117869420D01*
X122474846Y-117596810D01*
X122475153Y-117244735D01*
X122340704Y-116919343D01*
X122091967Y-116670171D01*
X121766810Y-116535154D01*
X121414735Y-116534847D01*
X121089343Y-116669296D01*
X120840171Y-116918033D01*
X120705154Y-117243190D01*
X120704847Y-117595265D01*
X119421415Y-117595265D01*
X119410704Y-117569343D01*
X119354114Y-117512654D01*
X119364846Y-117486810D01*
X119365153Y-117134735D01*
X119230704Y-116809343D01*
X118981967Y-116560171D01*
X118656810Y-116425154D01*
X118304735Y-116424847D01*
X117979343Y-116559296D01*
X117730171Y-116808033D01*
X117595154Y-117133190D01*
X117594847Y-117485265D01*
X104177303Y-117485265D01*
X104047592Y-117171343D01*
X103700485Y-116823629D01*
X103246734Y-116635215D01*
X102755421Y-116634786D01*
X102301343Y-116822408D01*
X102158392Y-116965109D01*
X102064090Y-116818559D01*
X101851890Y-116673569D01*
X101600000Y-116622560D01*
X100685000Y-116622560D01*
X100685000Y-115155000D01*
X100714250Y-115155000D01*
X100873000Y-114996250D01*
X100873000Y-113997000D01*
X100853000Y-113997000D01*
X100853000Y-113743000D01*
X100873000Y-113743000D01*
X100873000Y-112743750D01*
X101127000Y-112743750D01*
X101127000Y-113743000D01*
X101147000Y-113743000D01*
X101147000Y-113997000D01*
X101127000Y-113997000D01*
X101127000Y-114996250D01*
X101285750Y-115155000D01*
X101776309Y-115155000D01*
X102009698Y-115058327D01*
X102188327Y-114879699D01*
X102189480Y-114876917D01*
X102271155Y-114958735D01*
X102743276Y-115154777D01*
X103254481Y-115155223D01*
X103726943Y-114960005D01*
X104000160Y-114687266D01*
X104271155Y-114958735D01*
X104743276Y-115154777D01*
X105254481Y-115155223D01*
X105726943Y-114960005D01*
X106088735Y-114598845D01*
X106284777Y-114126724D01*
X106284839Y-114055265D01*
X110314847Y-114055265D01*
X110449296Y-114380657D01*
X110698033Y-114629829D01*
X110976498Y-114745458D01*
X110915154Y-114893190D01*
X110914847Y-115245265D01*
X111049296Y-115570657D01*
X111298033Y-115819829D01*
X111623190Y-115954846D01*
X111975265Y-115955153D01*
X112300657Y-115820704D01*
X112536507Y-115585265D01*
X118364847Y-115585265D01*
X118499296Y-115910657D01*
X118748033Y-116159829D01*
X119073190Y-116294846D01*
X119425265Y-116295153D01*
X119750657Y-116160704D01*
X119999829Y-115911967D01*
X120085659Y-115705265D01*
X121284847Y-115705265D01*
X121419296Y-116030657D01*
X121668033Y-116279829D01*
X121993190Y-116414846D01*
X122345265Y-116415153D01*
X122561046Y-116325994D01*
X122823190Y-116434846D01*
X122984969Y-116434987D01*
X122984847Y-116575265D01*
X123119296Y-116900657D01*
X123368033Y-117149829D01*
X123693190Y-117284846D01*
X124045265Y-117285153D01*
X124069195Y-117275265D01*
X125024847Y-117275265D01*
X125159296Y-117600657D01*
X125408033Y-117849829D01*
X125733190Y-117984846D01*
X126085265Y-117985153D01*
X126410657Y-117850704D01*
X126659829Y-117601967D01*
X126670916Y-117575265D01*
X128374847Y-117575265D01*
X128509296Y-117900657D01*
X128758033Y-118149829D01*
X129083190Y-118284846D01*
X129435265Y-118285153D01*
X129760657Y-118150704D01*
X129767920Y-118143453D01*
X129635154Y-118463190D01*
X129634847Y-118815265D01*
X129769296Y-119140657D01*
X130018033Y-119389829D01*
X130343190Y-119524846D01*
X130695265Y-119525153D01*
X131020657Y-119390704D01*
X131269829Y-119141967D01*
X131351638Y-118944949D01*
X131585265Y-118945153D01*
X131910657Y-118810704D01*
X132159829Y-118561967D01*
X132294846Y-118236810D01*
X132295153Y-117884735D01*
X132160704Y-117559343D01*
X131911967Y-117310171D01*
X131586810Y-117175154D01*
X131234735Y-117174847D01*
X130909343Y-117309296D01*
X130660171Y-117558033D01*
X130578362Y-117755051D01*
X130344735Y-117754847D01*
X130019343Y-117889296D01*
X130012080Y-117896547D01*
X130144846Y-117576810D01*
X130145153Y-117224735D01*
X130010704Y-116899343D01*
X129996522Y-116885137D01*
X130015265Y-116885153D01*
X130340657Y-116750704D01*
X130589829Y-116501967D01*
X130724846Y-116176810D01*
X130725153Y-115824735D01*
X130692317Y-115745265D01*
X132204847Y-115745265D01*
X132339296Y-116070657D01*
X132588033Y-116319829D01*
X132913190Y-116454846D01*
X133265265Y-116455153D01*
X133590657Y-116320704D01*
X133660741Y-116250742D01*
X133535154Y-116553190D01*
X133534847Y-116905265D01*
X133669296Y-117230657D01*
X133768348Y-117329882D01*
X133479343Y-117449296D01*
X133230171Y-117698033D01*
X133095154Y-118023190D01*
X133094847Y-118375265D01*
X133229296Y-118700657D01*
X133478033Y-118949829D01*
X133803190Y-119084846D01*
X134155265Y-119085153D01*
X134480657Y-118950704D01*
X134729829Y-118701967D01*
X134864846Y-118376810D01*
X134865153Y-118024735D01*
X134730704Y-117699343D01*
X134631652Y-117600118D01*
X134920657Y-117480704D01*
X135169829Y-117231967D01*
X135304846Y-116906810D01*
X135305153Y-116554735D01*
X135234961Y-116384856D01*
X135575265Y-116385153D01*
X135900657Y-116250704D01*
X136149829Y-116001967D01*
X136231506Y-115805265D01*
X137064847Y-115805265D01*
X137199296Y-116130657D01*
X137448033Y-116379829D01*
X137773190Y-116514846D01*
X138125265Y-116515153D01*
X138450657Y-116380704D01*
X138699829Y-116131967D01*
X138834846Y-115806810D01*
X138835153Y-115454735D01*
X138700704Y-115129343D01*
X138451967Y-114880171D01*
X138126810Y-114745154D01*
X137774735Y-114744847D01*
X137449343Y-114879296D01*
X137200171Y-115128033D01*
X137065154Y-115453190D01*
X137064847Y-115805265D01*
X136231506Y-115805265D01*
X136284846Y-115676810D01*
X136285153Y-115324735D01*
X136150704Y-114999343D01*
X135901967Y-114750171D01*
X135576810Y-114615154D01*
X135224735Y-114614847D01*
X134899343Y-114749296D01*
X134650171Y-114998033D01*
X134515154Y-115323190D01*
X134514847Y-115675265D01*
X134585039Y-115845144D01*
X134244735Y-115844847D01*
X133919343Y-115979296D01*
X133849259Y-116049258D01*
X133974846Y-115746810D01*
X133975153Y-115394735D01*
X133840704Y-115069343D01*
X133591967Y-114820171D01*
X133266810Y-114685154D01*
X132914735Y-114684847D01*
X132589343Y-114819296D01*
X132340171Y-115068033D01*
X132205154Y-115393190D01*
X132204847Y-115745265D01*
X130692317Y-115745265D01*
X130590704Y-115499343D01*
X130341967Y-115250171D01*
X130016810Y-115115154D01*
X129664735Y-115114847D01*
X129339343Y-115249296D01*
X129090171Y-115498033D01*
X128955154Y-115823190D01*
X128954847Y-116175265D01*
X129089296Y-116500657D01*
X129103478Y-116514863D01*
X129084735Y-116514847D01*
X128759343Y-116649296D01*
X128510171Y-116898033D01*
X128375154Y-117223190D01*
X128374847Y-117575265D01*
X126670916Y-117575265D01*
X126794846Y-117276810D01*
X126795153Y-116924735D01*
X126660704Y-116599343D01*
X126411967Y-116350171D01*
X126086810Y-116215154D01*
X125734735Y-116214847D01*
X125409343Y-116349296D01*
X125160171Y-116598033D01*
X125025154Y-116923190D01*
X125024847Y-117275265D01*
X124069195Y-117275265D01*
X124370657Y-117150704D01*
X124619829Y-116901967D01*
X124754846Y-116576810D01*
X124755153Y-116224735D01*
X124620704Y-115899343D01*
X124371967Y-115650171D01*
X124046810Y-115515154D01*
X123885031Y-115515013D01*
X123885153Y-115374735D01*
X123750704Y-115049343D01*
X123501967Y-114800171D01*
X123176810Y-114665154D01*
X122824735Y-114664847D01*
X122608954Y-114754006D01*
X122346810Y-114645154D01*
X121994735Y-114644847D01*
X121669343Y-114779296D01*
X121420171Y-115028033D01*
X121285154Y-115353190D01*
X121284847Y-115705265D01*
X120085659Y-115705265D01*
X120134846Y-115586810D01*
X120135153Y-115234735D01*
X120000704Y-114909343D01*
X119751967Y-114660171D01*
X119426810Y-114525154D01*
X119074735Y-114524847D01*
X118749343Y-114659296D01*
X118500171Y-114908033D01*
X118365154Y-115233190D01*
X118364847Y-115585265D01*
X112536507Y-115585265D01*
X112549829Y-115571967D01*
X112684846Y-115246810D01*
X112685153Y-114894735D01*
X112550704Y-114569343D01*
X112356965Y-114375265D01*
X140204847Y-114375265D01*
X140339296Y-114700657D01*
X140588033Y-114949829D01*
X140913190Y-115084846D01*
X141265265Y-115085153D01*
X141590657Y-114950704D01*
X141839829Y-114701967D01*
X141974846Y-114376810D01*
X141975153Y-114024735D01*
X141840704Y-113699343D01*
X141591967Y-113450171D01*
X141266810Y-113315154D01*
X140914735Y-113314847D01*
X140589343Y-113449296D01*
X140340171Y-113698033D01*
X140205154Y-114023190D01*
X140204847Y-114375265D01*
X112356965Y-114375265D01*
X112301967Y-114320171D01*
X112023502Y-114204542D01*
X112084846Y-114056810D01*
X112085153Y-113704735D01*
X111950704Y-113379343D01*
X111701967Y-113130171D01*
X111376810Y-112995154D01*
X111024735Y-112994847D01*
X110699343Y-113129296D01*
X110450171Y-113378033D01*
X110315154Y-113703190D01*
X110314847Y-114055265D01*
X106284839Y-114055265D01*
X106285223Y-113615519D01*
X106090005Y-113143057D01*
X105728845Y-112781265D01*
X105642148Y-112745265D01*
X115384847Y-112745265D01*
X115519296Y-113070657D01*
X115768033Y-113319829D01*
X116093190Y-113454846D01*
X116445265Y-113455153D01*
X116770657Y-113320704D01*
X117019829Y-113071967D01*
X117154846Y-112746810D01*
X117155153Y-112394735D01*
X117101658Y-112265265D01*
X137934847Y-112265265D01*
X138069296Y-112590657D01*
X138318033Y-112839829D01*
X138643190Y-112974846D01*
X138995265Y-112975153D01*
X139320657Y-112840704D01*
X139569829Y-112591967D01*
X139704846Y-112266810D01*
X139705153Y-111914735D01*
X139570704Y-111589343D01*
X139321967Y-111340171D01*
X138996810Y-111205154D01*
X138644735Y-111204847D01*
X138319343Y-111339296D01*
X138070171Y-111588033D01*
X137935154Y-111913190D01*
X137934847Y-112265265D01*
X117101658Y-112265265D01*
X117020704Y-112069343D01*
X116771967Y-111820171D01*
X116446810Y-111685154D01*
X116094735Y-111684847D01*
X115769343Y-111819296D01*
X115520171Y-112068033D01*
X115385154Y-112393190D01*
X115384847Y-112745265D01*
X105642148Y-112745265D01*
X105256724Y-112585223D01*
X104745519Y-112584777D01*
X104273057Y-112779995D01*
X103999840Y-113052734D01*
X103728845Y-112781265D01*
X103256724Y-112585223D01*
X102745519Y-112584777D01*
X102273057Y-112779995D01*
X102189580Y-112863326D01*
X102188327Y-112860301D01*
X102009698Y-112681673D01*
X101776309Y-112585000D01*
X101285750Y-112585000D01*
X101127000Y-112743750D01*
X100873000Y-112743750D01*
X100714250Y-112585000D01*
X100685000Y-112585000D01*
X100685000Y-111475265D01*
X105074847Y-111475265D01*
X105209296Y-111800657D01*
X105458033Y-112049829D01*
X105783190Y-112184846D01*
X106135265Y-112185153D01*
X106460657Y-112050704D01*
X106709829Y-111801967D01*
X106844846Y-111476810D01*
X106845153Y-111124735D01*
X106710704Y-110799343D01*
X106461967Y-110550171D01*
X106136810Y-110415154D01*
X105784735Y-110414847D01*
X105459343Y-110549296D01*
X105210171Y-110798033D01*
X105075154Y-111123190D01*
X105074847Y-111475265D01*
X100685000Y-111475265D01*
X100685000Y-110205265D01*
X113054847Y-110205265D01*
X113189296Y-110530657D01*
X113438033Y-110779829D01*
X113763190Y-110914846D01*
X113803381Y-110914881D01*
X113770171Y-110948033D01*
X113635154Y-111273190D01*
X113634847Y-111625265D01*
X113769296Y-111950657D01*
X114018033Y-112199829D01*
X114343190Y-112334846D01*
X114695265Y-112335153D01*
X115020657Y-112200704D01*
X115269829Y-111951967D01*
X115404846Y-111626810D01*
X115405153Y-111274735D01*
X115270704Y-110949343D01*
X115021967Y-110700171D01*
X114696810Y-110565154D01*
X114656619Y-110565119D01*
X114689829Y-110531967D01*
X114824846Y-110206810D01*
X114825153Y-109854735D01*
X114690704Y-109529343D01*
X114441967Y-109280171D01*
X114116810Y-109145154D01*
X113764735Y-109144847D01*
X113439343Y-109279296D01*
X113190171Y-109528033D01*
X113055154Y-109853190D01*
X113054847Y-110205265D01*
X100685000Y-110205265D01*
X100685000Y-109942438D01*
X100795370Y-109896721D01*
X100795371Y-109896720D01*
X100892698Y-109831688D01*
X101081690Y-109642696D01*
X101146720Y-109545372D01*
X101151278Y-109534368D01*
X101249002Y-109298441D01*
X101271838Y-109183636D01*
X101271838Y-109116170D01*
X101285000Y-109050000D01*
X101285000Y-108875265D01*
X105214847Y-108875265D01*
X105349296Y-109200657D01*
X105598033Y-109449829D01*
X105923190Y-109584846D01*
X106275265Y-109585153D01*
X106600657Y-109450704D01*
X106849829Y-109201967D01*
X106984846Y-108876810D01*
X106984951Y-108755265D01*
X124564847Y-108755265D01*
X124699296Y-109080657D01*
X124948033Y-109329829D01*
X125273190Y-109464846D01*
X125625265Y-109465153D01*
X125950657Y-109330704D01*
X126199829Y-109081967D01*
X126334846Y-108756810D01*
X126334847Y-108755265D01*
X133014847Y-108755265D01*
X133149296Y-109080657D01*
X133398033Y-109329829D01*
X133723190Y-109464846D01*
X134075265Y-109465153D01*
X134400657Y-109330704D01*
X134649829Y-109081967D01*
X134784846Y-108756810D01*
X134785153Y-108404735D01*
X134650704Y-108079343D01*
X134446983Y-107875265D01*
X139414847Y-107875265D01*
X139549296Y-108200657D01*
X139798033Y-108449829D01*
X140123190Y-108584846D01*
X140475265Y-108585153D01*
X140800657Y-108450704D01*
X141049829Y-108201967D01*
X141184846Y-107876810D01*
X141185153Y-107524735D01*
X141050704Y-107199343D01*
X140801967Y-106950171D01*
X140476810Y-106815154D01*
X140124735Y-106814847D01*
X139799343Y-106949296D01*
X139550171Y-107198033D01*
X139415154Y-107523190D01*
X139414847Y-107875265D01*
X134446983Y-107875265D01*
X134401967Y-107830171D01*
X134076810Y-107695154D01*
X133724735Y-107694847D01*
X133399343Y-107829296D01*
X133150171Y-108078033D01*
X133015154Y-108403190D01*
X133014847Y-108755265D01*
X126334847Y-108755265D01*
X126335153Y-108404735D01*
X126200704Y-108079343D01*
X125951967Y-107830171D01*
X125626810Y-107695154D01*
X125274735Y-107694847D01*
X124949343Y-107829296D01*
X124700171Y-108078033D01*
X124565154Y-108403190D01*
X124564847Y-108755265D01*
X106984951Y-108755265D01*
X106985153Y-108524735D01*
X106850704Y-108199343D01*
X106601967Y-107950171D01*
X106276810Y-107815154D01*
X105924735Y-107814847D01*
X105599343Y-107949296D01*
X105350171Y-108198033D01*
X105215154Y-108523190D01*
X105214847Y-108875265D01*
X101285000Y-108875265D01*
X101285000Y-108785083D01*
X101385069Y-108785170D01*
X101747229Y-108635529D01*
X102024555Y-108358686D01*
X102089975Y-108201137D01*
X102154471Y-108357229D01*
X102431314Y-108634555D01*
X102793212Y-108784828D01*
X103185069Y-108785170D01*
X103547229Y-108635529D01*
X103824555Y-108358686D01*
X103974828Y-107996788D01*
X103975170Y-107604931D01*
X103825529Y-107242771D01*
X103548686Y-106965445D01*
X103186788Y-106815172D01*
X102794931Y-106814830D01*
X102432771Y-106964471D01*
X102155445Y-107241314D01*
X102090025Y-107398863D01*
X102025529Y-107242771D01*
X101748686Y-106965445D01*
X101386788Y-106815172D01*
X101285000Y-106815083D01*
X101285000Y-106550000D01*
X101271838Y-106483830D01*
X101271838Y-106416364D01*
X101269631Y-106405265D01*
X122214847Y-106405265D01*
X122349296Y-106730657D01*
X122598033Y-106979829D01*
X122923190Y-107114846D01*
X123275265Y-107115153D01*
X123600657Y-106980704D01*
X123849829Y-106731967D01*
X123984846Y-106406810D01*
X123985153Y-106054735D01*
X123960581Y-105995265D01*
X139864847Y-105995265D01*
X139999296Y-106320657D01*
X140248033Y-106569829D01*
X140573190Y-106704846D01*
X140925265Y-106705153D01*
X141250657Y-106570704D01*
X141479358Y-106342403D01*
X141499296Y-106390657D01*
X141748033Y-106639829D01*
X142073190Y-106774846D01*
X142425265Y-106775153D01*
X142750657Y-106640704D01*
X142999829Y-106391967D01*
X143134846Y-106066810D01*
X143135153Y-105714735D01*
X143000704Y-105389343D01*
X142751967Y-105140171D01*
X142426810Y-105005154D01*
X142074735Y-105004847D01*
X141749343Y-105139296D01*
X141520642Y-105367597D01*
X141500704Y-105319343D01*
X141251967Y-105070171D01*
X140926810Y-104935154D01*
X140574735Y-104934847D01*
X140249343Y-105069296D01*
X140000171Y-105318033D01*
X139865154Y-105643190D01*
X139864847Y-105995265D01*
X123960581Y-105995265D01*
X123850704Y-105729343D01*
X123601967Y-105480171D01*
X123276810Y-105345154D01*
X122924735Y-105344847D01*
X122599343Y-105479296D01*
X122350171Y-105728033D01*
X122215154Y-106053190D01*
X122214847Y-106405265D01*
X101269631Y-106405265D01*
X101249002Y-106301559D01*
X101146721Y-106054630D01*
X101146720Y-106054629D01*
X101146720Y-106054628D01*
X101081688Y-105957302D01*
X100892696Y-105768310D01*
X100795371Y-105703280D01*
X100795370Y-105703279D01*
X100685000Y-105657562D01*
X100685000Y-103761025D01*
X101418581Y-103761025D01*
X101535601Y-104043446D01*
X102199663Y-104295018D01*
X102909448Y-104273314D01*
X103464399Y-104043446D01*
X103581419Y-103761025D01*
X102500000Y-102679605D01*
X101418581Y-103761025D01*
X100685000Y-103761025D01*
X100685000Y-102567467D01*
X100712068Y-102431388D01*
X100726686Y-102909448D01*
X100956554Y-103464399D01*
X101238975Y-103581419D01*
X102320395Y-102500000D01*
X102679605Y-102500000D01*
X103761025Y-103581419D01*
X104043446Y-103464399D01*
X104295018Y-102800337D01*
X104273314Y-102090552D01*
X104043446Y-101535601D01*
X103761025Y-101418581D01*
X102679605Y-102500000D01*
X102320395Y-102500000D01*
X102306252Y-102485858D01*
X102485858Y-102306252D01*
X102500000Y-102320395D01*
X103581419Y-101238975D01*
X103464399Y-100956554D01*
X102800337Y-100704982D01*
X102406461Y-100717026D01*
X102567467Y-100685000D01*
X104923562Y-100685000D01*
X104895215Y-100753266D01*
X104895215Y-100753266D01*
G37*
X104895215Y-100753266D02*
X104894786Y-101244579D01*
X105082408Y-101698657D01*
X105383446Y-102000221D01*
X105083629Y-102299515D01*
X104895215Y-102753266D01*
X104894786Y-103244579D01*
X105082408Y-103698657D01*
X105429515Y-104046371D01*
X105883266Y-104234785D01*
X106374579Y-104235214D01*
X106828657Y-104047592D01*
X107130221Y-103746554D01*
X107429515Y-104046371D01*
X107883266Y-104234785D01*
X108374579Y-104235214D01*
X108828657Y-104047592D01*
X109130221Y-103746554D01*
X109429515Y-104046371D01*
X109883266Y-104234785D01*
X110374579Y-104235214D01*
X110828657Y-104047592D01*
X111130221Y-103746554D01*
X111429515Y-104046371D01*
X111883266Y-104234785D01*
X112374579Y-104235214D01*
X112828657Y-104047592D01*
X113130221Y-103746554D01*
X113429515Y-104046371D01*
X113725649Y-104169337D01*
X113645154Y-104363190D01*
X113644847Y-104715265D01*
X113779296Y-105040657D01*
X114028033Y-105289829D01*
X114353190Y-105424846D01*
X114705265Y-105425153D01*
X115030657Y-105290704D01*
X115279829Y-105041967D01*
X115414846Y-104716810D01*
X115415153Y-104364735D01*
X115280704Y-104039343D01*
X115059200Y-103817452D01*
X115130221Y-103746554D01*
X115429515Y-104046371D01*
X115883266Y-104234785D01*
X115888471Y-104234790D01*
X115835154Y-104363190D01*
X115834847Y-104715265D01*
X115969296Y-105040657D01*
X116218033Y-105289829D01*
X116543190Y-105424846D01*
X116895265Y-105425153D01*
X117220657Y-105290704D01*
X117469829Y-105041967D01*
X117604846Y-104716810D01*
X117605153Y-104364735D01*
X117482740Y-104068472D01*
X117883266Y-104234785D01*
X118374579Y-104235214D01*
X118828657Y-104047592D01*
X119130221Y-103746554D01*
X119429515Y-104046371D01*
X119883266Y-104234785D01*
X120374579Y-104235214D01*
X120828657Y-104047592D01*
X121130221Y-103746554D01*
X121429515Y-104046371D01*
X121883266Y-104234785D01*
X122374579Y-104235214D01*
X122828657Y-104047592D01*
X123130221Y-103746554D01*
X123429515Y-104046371D01*
X123883266Y-104234785D01*
X124374579Y-104235214D01*
X124828657Y-104047592D01*
X125130221Y-103746554D01*
X125429515Y-104046371D01*
X125883266Y-104234785D01*
X126374579Y-104235214D01*
X126828657Y-104047592D01*
X127130221Y-103746554D01*
X127429515Y-104046371D01*
X127883266Y-104234785D01*
X128374579Y-104235214D01*
X128828657Y-104047592D01*
X129130221Y-103746554D01*
X129429515Y-104046371D01*
X129883266Y-104234785D01*
X130374579Y-104235214D01*
X130828657Y-104047592D01*
X131130221Y-103746554D01*
X131429515Y-104046371D01*
X131883266Y-104234785D01*
X132374579Y-104235214D01*
X132828657Y-104047592D01*
X133176371Y-103700485D01*
X133346872Y-103289873D01*
X137414812Y-103289873D01*
X137579646Y-103688800D01*
X137884595Y-103994282D01*
X138283233Y-104159811D01*
X138714873Y-104160188D01*
X139113800Y-103995354D01*
X139419282Y-103690405D01*
X139584811Y-103291767D01*
X139584812Y-103289873D01*
X140414812Y-103289873D01*
X140579646Y-103688800D01*
X140884595Y-103994282D01*
X141283233Y-104159811D01*
X141714873Y-104160188D01*
X142113800Y-103995354D01*
X142348538Y-103761025D01*
X146418581Y-103761025D01*
X146535601Y-104043446D01*
X147199663Y-104295018D01*
X147909448Y-104273314D01*
X148464399Y-104043446D01*
X148581419Y-103761025D01*
X147500000Y-102679605D01*
X146418581Y-103761025D01*
X142348538Y-103761025D01*
X142419282Y-103690405D01*
X142584811Y-103291767D01*
X142585188Y-102860127D01*
X142420354Y-102461200D01*
X142159274Y-102199663D01*
X145704982Y-102199663D01*
X145726686Y-102909448D01*
X145956554Y-103464399D01*
X146238975Y-103581419D01*
X147320395Y-102500000D01*
X146238975Y-101418581D01*
X145956554Y-101535601D01*
X145704982Y-102199663D01*
X142159274Y-102199663D01*
X142115405Y-102155718D01*
X141716767Y-101990189D01*
X141285127Y-101989812D01*
X140886200Y-102154646D01*
X140580718Y-102459595D01*
X140415189Y-102858233D01*
X140414812Y-103289873D01*
X139584812Y-103289873D01*
X139585188Y-102860127D01*
X139420354Y-102461200D01*
X139115405Y-102155718D01*
X138716767Y-101990189D01*
X138285127Y-101989812D01*
X137886200Y-102154646D01*
X137580718Y-102459595D01*
X137415189Y-102858233D01*
X137414812Y-103289873D01*
X133346872Y-103289873D01*
X133364785Y-103246734D01*
X133365214Y-102755421D01*
X133177592Y-102301343D01*
X133034891Y-102158392D01*
X133181441Y-102064090D01*
X133326431Y-101851890D01*
X133377440Y-101600000D01*
X133377440Y-100685000D01*
X147432533Y-100685000D01*
X147568612Y-100712068D01*
X147090552Y-100726686D01*
X146535601Y-100956554D01*
X146418581Y-101238975D01*
X147500000Y-102320395D01*
X147514142Y-102306252D01*
X147693748Y-102485858D01*
X147679605Y-102500000D01*
X148761025Y-103581419D01*
X149043446Y-103464399D01*
X149295018Y-102800337D01*
X149282974Y-102406461D01*
X149315000Y-102567467D01*
X149315000Y-104932367D01*
X149168964Y-104882193D01*
X148678587Y-104912518D01*
X148366383Y-105041836D01*
X148316870Y-105267265D01*
X149000000Y-105950395D01*
X149014143Y-105936253D01*
X149193748Y-106115858D01*
X149179605Y-106130000D01*
X149193748Y-106144143D01*
X149014143Y-106323748D01*
X149000000Y-106309605D01*
X148316870Y-106992735D01*
X148333635Y-107069065D01*
X148301343Y-107082408D01*
X147999779Y-107383446D01*
X147746554Y-107129779D01*
X148046371Y-106830485D01*
X148060572Y-106796285D01*
X148137265Y-106813130D01*
X148820395Y-106130000D01*
X148137265Y-105446870D01*
X148060935Y-105463635D01*
X148047592Y-105431343D01*
X147700485Y-105083629D01*
X147246734Y-104895215D01*
X146755421Y-104894786D01*
X146301343Y-105082408D01*
X145953629Y-105429515D01*
X145765215Y-105883266D01*
X145764786Y-106374579D01*
X145952408Y-106828657D01*
X146253446Y-107130221D01*
X145953629Y-107429515D01*
X145765215Y-107883266D01*
X145764786Y-108374579D01*
X145952408Y-108828657D01*
X146253446Y-109130221D01*
X145953629Y-109429515D01*
X145765215Y-109883266D01*
X145764786Y-110374579D01*
X145952408Y-110828657D01*
X146253446Y-111130221D01*
X145953629Y-111429515D01*
X145765215Y-111883266D01*
X145764786Y-112374579D01*
X145952408Y-112828657D01*
X146253446Y-113130221D01*
X145953629Y-113429515D01*
X145765215Y-113883266D01*
X145764786Y-114374579D01*
X145952408Y-114828657D01*
X146253446Y-115130221D01*
X145953629Y-115429515D01*
X145765215Y-115883266D01*
X145764786Y-116374579D01*
X145952408Y-116828657D01*
X146253446Y-117130221D01*
X145953629Y-117429515D01*
X145765215Y-117883266D01*
X145764786Y-118374579D01*
X145952408Y-118828657D01*
X146253446Y-119130221D01*
X145953629Y-119429515D01*
X145765215Y-119883266D01*
X145764786Y-120374579D01*
X145952408Y-120828657D01*
X146253446Y-121130221D01*
X145953629Y-121429515D01*
X145765215Y-121883266D01*
X145764786Y-122374579D01*
X145952408Y-122828657D01*
X146253446Y-123130221D01*
X145953629Y-123429515D01*
X145765215Y-123883266D01*
X145764786Y-124374579D01*
X145952408Y-124828657D01*
X146253446Y-125130221D01*
X145953629Y-125429515D01*
X145765215Y-125883266D01*
X145764786Y-126374579D01*
X145952408Y-126828657D01*
X146253446Y-127130221D01*
X145953629Y-127429515D01*
X145765215Y-127883266D01*
X145764786Y-128374579D01*
X145952408Y-128828657D01*
X146253446Y-129130221D01*
X145953629Y-129429515D01*
X145765215Y-129883266D01*
X145764786Y-130374579D01*
X145952408Y-130828657D01*
X146253446Y-131130221D01*
X145953629Y-131429515D01*
X145765215Y-131883266D01*
X145764786Y-132374579D01*
X145952408Y-132828657D01*
X146299515Y-133176371D01*
X146753266Y-133364785D01*
X147244579Y-133365214D01*
X147698657Y-133177592D01*
X147841608Y-133034891D01*
X147935910Y-133181441D01*
X148148110Y-133326431D01*
X148400000Y-133377440D01*
X149315000Y-133377440D01*
X149315000Y-147432533D01*
X149287932Y-147568612D01*
X149273314Y-147090552D01*
X149043446Y-146535601D01*
X148761025Y-146418581D01*
X147679605Y-147500000D01*
X147693748Y-147514142D01*
X147514142Y-147693748D01*
X147500000Y-147679605D01*
X146418581Y-148761025D01*
X146535601Y-149043446D01*
X147199663Y-149295018D01*
X147593539Y-149282974D01*
X147432533Y-149315000D01*
X145076438Y-149315000D01*
X145104785Y-149246734D01*
X145105214Y-148755421D01*
X144917592Y-148301343D01*
X144616554Y-147999779D01*
X144916371Y-147700485D01*
X145104785Y-147246734D01*
X145104826Y-147199663D01*
X145704982Y-147199663D01*
X145726686Y-147909448D01*
X145956554Y-148464399D01*
X146238975Y-148581419D01*
X147320395Y-147500000D01*
X146238975Y-146418581D01*
X145956554Y-146535601D01*
X145704982Y-147199663D01*
X145104826Y-147199663D01*
X145105214Y-146755421D01*
X144917592Y-146301343D01*
X144855333Y-146238975D01*
X146418581Y-146238975D01*
X147500000Y-147320395D01*
X148581419Y-146238975D01*
X148464399Y-145956554D01*
X147800337Y-145704982D01*
X147090552Y-145726686D01*
X146535601Y-145956554D01*
X146418581Y-146238975D01*
X144855333Y-146238975D01*
X144570485Y-145953629D01*
X144116734Y-145765215D01*
X143625421Y-145764786D01*
X143171343Y-145952408D01*
X142869779Y-146253446D01*
X142570485Y-145953629D01*
X142116734Y-145765215D01*
X141625421Y-145764786D01*
X141171343Y-145952408D01*
X140869779Y-146253446D01*
X140570485Y-145953629D01*
X140116734Y-145765215D01*
X139625421Y-145764786D01*
X139171343Y-145952408D01*
X138869779Y-146253446D01*
X138570485Y-145953629D01*
X138116734Y-145765215D01*
X137625421Y-145764786D01*
X137171343Y-145952408D01*
X136869779Y-146253446D01*
X136570485Y-145953629D01*
X136116734Y-145765215D01*
X135625421Y-145764786D01*
X135171343Y-145952408D01*
X134869779Y-146253446D01*
X134570485Y-145953629D01*
X134116734Y-145765215D01*
X133625421Y-145764786D01*
X133171343Y-145952408D01*
X132869779Y-146253446D01*
X132570485Y-145953629D01*
X132116734Y-145765215D01*
X131625421Y-145764786D01*
X131171343Y-145952408D01*
X130869779Y-146253446D01*
X130570485Y-145953629D01*
X130116734Y-145765215D01*
X129625421Y-145764786D01*
X129171343Y-145952408D01*
X128869779Y-146253446D01*
X128570485Y-145953629D01*
X128116734Y-145765215D01*
X127625421Y-145764786D01*
X127171343Y-145952408D01*
X126869779Y-146253446D01*
X126570485Y-145953629D01*
X126116734Y-145765215D01*
X125625421Y-145764786D01*
X125171343Y-145952408D01*
X124869779Y-146253446D01*
X124570485Y-145953629D01*
X124116734Y-145765215D01*
X123625421Y-145764786D01*
X123171343Y-145952408D01*
X122869779Y-146253446D01*
X122570485Y-145953629D01*
X122116734Y-145765215D01*
X121625421Y-145764786D01*
X121171343Y-145952408D01*
X120869779Y-146253446D01*
X120570485Y-145953629D01*
X120116734Y-145765215D01*
X119625421Y-145764786D01*
X119171343Y-145952408D01*
X118869779Y-146253446D01*
X118570485Y-145953629D01*
X118116734Y-145765215D01*
X117625421Y-145764786D01*
X117171343Y-145952408D01*
X116823629Y-146299515D01*
X116635215Y-146753266D01*
X116634786Y-147244579D01*
X116822408Y-147698657D01*
X116965109Y-147841608D01*
X116818559Y-147935910D01*
X116673569Y-148148110D01*
X116622560Y-148400000D01*
X116622560Y-149315000D01*
X115360579Y-149315000D01*
X115384777Y-149256724D01*
X115385223Y-148745519D01*
X115190005Y-148273057D01*
X114828845Y-147911265D01*
X114356724Y-147715223D01*
X113845519Y-147714777D01*
X113373057Y-147909995D01*
X113099840Y-148182734D01*
X112828845Y-147911265D01*
X112356724Y-147715223D01*
X111845519Y-147714777D01*
X111373057Y-147909995D01*
X111099840Y-148182734D01*
X110828845Y-147911265D01*
X110356724Y-147715223D01*
X109845519Y-147714777D01*
X109373057Y-147909995D01*
X109099840Y-148182734D01*
X108828845Y-147911265D01*
X108356724Y-147715223D01*
X107845519Y-147714777D01*
X107373057Y-147909995D01*
X107289580Y-147993326D01*
X107288327Y-147990301D01*
X107109698Y-147811673D01*
X106876309Y-147715000D01*
X106385750Y-147715000D01*
X106227000Y-147873750D01*
X106227000Y-148873000D01*
X106247000Y-148873000D01*
X106247000Y-149127000D01*
X106227000Y-149127000D01*
X106227000Y-149147000D01*
X105973000Y-149147000D01*
X105973000Y-149127000D01*
X104973750Y-149127000D01*
X104815000Y-149285750D01*
X104815000Y-149315000D01*
X102567467Y-149315000D01*
X102431388Y-149287932D01*
X102909448Y-149273314D01*
X103464399Y-149043446D01*
X103581419Y-148761025D01*
X102500000Y-147679605D01*
X102485858Y-147693748D01*
X102306252Y-147514142D01*
X102320395Y-147500000D01*
X102679605Y-147500000D01*
X103761025Y-148581419D01*
X104043446Y-148464399D01*
X104134635Y-148223690D01*
X104815000Y-148223690D01*
X104815000Y-148714250D01*
X104973750Y-148873000D01*
X105973000Y-148873000D01*
X105973000Y-147873750D01*
X105814250Y-147715000D01*
X105323691Y-147715000D01*
X105090302Y-147811673D01*
X104911673Y-147990301D01*
X104815000Y-148223690D01*
X104134635Y-148223690D01*
X104295018Y-147800337D01*
X104273314Y-147090552D01*
X104043446Y-146535601D01*
X103761025Y-146418581D01*
X102679605Y-147500000D01*
X102320395Y-147500000D01*
X101238975Y-146418581D01*
X100956554Y-146535601D01*
X100704982Y-147199663D01*
X100717026Y-147593539D01*
X100685000Y-147432533D01*
X100685000Y-146238975D01*
X101418581Y-146238975D01*
X102500000Y-147320395D01*
X103581419Y-146238975D01*
X103464399Y-145956554D01*
X102800337Y-145704982D01*
X102090552Y-145726686D01*
X101535601Y-145956554D01*
X101418581Y-146238975D01*
X100685000Y-146238975D01*
X100685000Y-145067633D01*
X100831036Y-145117807D01*
X101321413Y-145087482D01*
X101633617Y-144958164D01*
X101683130Y-144732735D01*
X102316870Y-144732735D01*
X102366383Y-144958164D01*
X102831036Y-145117807D01*
X103321413Y-145087482D01*
X103633617Y-144958164D01*
X103683130Y-144732735D01*
X103000000Y-144049605D01*
X102316870Y-144732735D01*
X101683130Y-144732735D01*
X101000000Y-144049605D01*
X100985858Y-144063748D01*
X100806253Y-143884143D01*
X100820395Y-143870000D01*
X101179605Y-143870000D01*
X101862735Y-144553130D01*
X102000000Y-144522981D01*
X102137265Y-144553130D01*
X102820395Y-143870000D01*
X103179605Y-143870000D01*
X103862735Y-144553130D01*
X104088164Y-144503617D01*
X104247807Y-144038964D01*
X104217482Y-143548587D01*
X104088164Y-143236383D01*
X103862735Y-143186870D01*
X103179605Y-143870000D01*
X102820395Y-143870000D01*
X102137265Y-143186870D01*
X102000000Y-143217019D01*
X101862735Y-143186870D01*
X101179605Y-143870000D01*
X100820395Y-143870000D01*
X100806253Y-143855858D01*
X100985858Y-143676253D01*
X101000000Y-143690395D01*
X101683130Y-143007265D01*
X101666365Y-142930935D01*
X101698657Y-142917592D01*
X102000221Y-142616554D01*
X102299515Y-142916371D01*
X102333715Y-142930572D01*
X102316870Y-143007265D01*
X103000000Y-143690395D01*
X103683130Y-143007265D01*
X103666365Y-142930935D01*
X103698657Y-142917592D01*
X104046371Y-142570485D01*
X104165089Y-142284579D01*
X127264786Y-142284579D01*
X127452408Y-142738657D01*
X127799515Y-143086371D01*
X128253266Y-143274785D01*
X128744579Y-143275214D01*
X129198657Y-143087592D01*
X129546371Y-142740485D01*
X129734785Y-142286734D01*
X129734838Y-142225265D01*
X135364847Y-142225265D01*
X135499296Y-142550657D01*
X135748033Y-142799829D01*
X136073190Y-142934846D01*
X136425265Y-142935153D01*
X136750657Y-142800704D01*
X136999829Y-142551967D01*
X137134846Y-142226810D01*
X137135153Y-141874735D01*
X137000704Y-141549343D01*
X136751967Y-141300171D01*
X136426810Y-141165154D01*
X136074735Y-141164847D01*
X135749343Y-141299296D01*
X135500171Y-141548033D01*
X135365154Y-141873190D01*
X135364847Y-142225265D01*
X129734838Y-142225265D01*
X129735214Y-141795421D01*
X129547592Y-141341343D01*
X129200485Y-140993629D01*
X128746734Y-140805215D01*
X128255421Y-140804786D01*
X127801343Y-140992408D01*
X127453629Y-141339515D01*
X127265215Y-141793266D01*
X127264786Y-142284579D01*
X104165089Y-142284579D01*
X104234785Y-142116734D01*
X104235214Y-141625421D01*
X104148379Y-141415265D01*
X107114847Y-141415265D01*
X107249296Y-141740657D01*
X107498033Y-141989829D01*
X107823190Y-142124846D01*
X108175265Y-142125153D01*
X108500657Y-141990704D01*
X108749829Y-141741967D01*
X108847139Y-141507619D01*
X108939296Y-141730657D01*
X109188033Y-141979829D01*
X109513190Y-142114846D01*
X109865265Y-142115153D01*
X110190657Y-141980704D01*
X110439829Y-141731967D01*
X110574846Y-141406810D01*
X110575153Y-141054735D01*
X110440704Y-140729343D01*
X110191967Y-140480171D01*
X109866810Y-140345154D01*
X109514735Y-140344847D01*
X109189343Y-140479296D01*
X108940171Y-140728033D01*
X108842861Y-140962381D01*
X108750704Y-140739343D01*
X108501967Y-140490171D01*
X108176810Y-140355154D01*
X107824735Y-140354847D01*
X107499343Y-140489296D01*
X107250171Y-140738033D01*
X107115154Y-141063190D01*
X107114847Y-141415265D01*
X104148379Y-141415265D01*
X104047592Y-141171343D01*
X103746554Y-140869779D01*
X104046371Y-140570485D01*
X104234785Y-140116734D01*
X104235214Y-139625421D01*
X104231018Y-139615265D01*
X107504847Y-139615265D01*
X107639296Y-139940657D01*
X107888033Y-140189829D01*
X108213190Y-140324846D01*
X108565265Y-140325153D01*
X108890657Y-140190704D01*
X109139829Y-139941967D01*
X109146764Y-139925265D01*
X111724847Y-139925265D01*
X111859296Y-140250657D01*
X112108033Y-140499829D01*
X112433190Y-140634846D01*
X112785265Y-140635153D01*
X113075416Y-140515265D01*
X122894847Y-140515265D01*
X123029296Y-140840657D01*
X123278033Y-141089829D01*
X123603190Y-141224846D01*
X123955265Y-141225153D01*
X124280657Y-141090704D01*
X124529829Y-140841967D01*
X124636420Y-140585265D01*
X124794847Y-140585265D01*
X124929296Y-140910657D01*
X125178033Y-141159829D01*
X125503190Y-141294846D01*
X125855265Y-141295153D01*
X126180657Y-141160704D01*
X126429829Y-140911967D01*
X126564846Y-140586810D01*
X126565074Y-140325265D01*
X134314847Y-140325265D01*
X134449296Y-140650657D01*
X134698033Y-140899829D01*
X135023190Y-141034846D01*
X135375265Y-141035153D01*
X135700657Y-140900704D01*
X135949829Y-140651967D01*
X136084846Y-140326810D01*
X136085153Y-139974735D01*
X135950704Y-139649343D01*
X135701967Y-139400171D01*
X135376810Y-139265154D01*
X135024735Y-139264847D01*
X134699343Y-139399296D01*
X134450171Y-139648033D01*
X134315154Y-139973190D01*
X134314847Y-140325265D01*
X126565074Y-140325265D01*
X126565153Y-140234735D01*
X126430704Y-139909343D01*
X126181967Y-139660171D01*
X125856810Y-139525154D01*
X125504735Y-139524847D01*
X125179343Y-139659296D01*
X124930171Y-139908033D01*
X124795154Y-140233190D01*
X124794847Y-140585265D01*
X124636420Y-140585265D01*
X124664846Y-140516810D01*
X124665153Y-140164735D01*
X124530704Y-139839343D01*
X124281967Y-139590171D01*
X123956810Y-139455154D01*
X123604735Y-139454847D01*
X123279343Y-139589296D01*
X123030171Y-139838033D01*
X122895154Y-140163190D01*
X122894847Y-140515265D01*
X113075416Y-140515265D01*
X113110657Y-140500704D01*
X113359829Y-140251967D01*
X113494846Y-139926810D01*
X113495153Y-139574735D01*
X113360704Y-139249343D01*
X113111967Y-139000171D01*
X112786810Y-138865154D01*
X112434735Y-138864847D01*
X112109343Y-138999296D01*
X111860171Y-139248033D01*
X111725154Y-139573190D01*
X111724847Y-139925265D01*
X109146764Y-139925265D01*
X109274846Y-139616810D01*
X109275153Y-139264735D01*
X109199234Y-139080997D01*
X109218033Y-139099829D01*
X109543190Y-139234846D01*
X109895265Y-139235153D01*
X110220657Y-139100704D01*
X110469829Y-138851967D01*
X110604846Y-138526810D01*
X110605022Y-138324917D01*
X110875265Y-138325153D01*
X111200657Y-138190704D01*
X111266210Y-138125265D01*
X115794847Y-138125265D01*
X115929296Y-138450657D01*
X116178033Y-138699829D01*
X116503190Y-138834846D01*
X116855265Y-138835153D01*
X117180657Y-138700704D01*
X117429829Y-138451967D01*
X117564846Y-138126810D01*
X117565153Y-137774735D01*
X117430704Y-137449343D01*
X117246948Y-137265265D01*
X123494847Y-137265265D01*
X123629296Y-137590657D01*
X123878033Y-137839829D01*
X124203190Y-137974846D01*
X124555265Y-137975153D01*
X124880657Y-137840704D01*
X125129829Y-137591967D01*
X125203202Y-137415265D01*
X126734847Y-137415265D01*
X126869296Y-137740657D01*
X127118033Y-137989829D01*
X127443190Y-138124846D01*
X127468610Y-138124868D01*
X127465154Y-138133190D01*
X127464847Y-138485265D01*
X127599296Y-138810657D01*
X127848033Y-139059829D01*
X128173190Y-139194846D01*
X128525265Y-139195153D01*
X128814179Y-139075776D01*
X128928033Y-139189829D01*
X129253190Y-139324846D01*
X129605265Y-139325153D01*
X129930657Y-139190704D01*
X130165033Y-138956737D01*
X130218033Y-139009829D01*
X130543190Y-139144846D01*
X130895265Y-139145153D01*
X131220657Y-139010704D01*
X131469829Y-138761967D01*
X131604846Y-138436810D01*
X131605153Y-138084735D01*
X131553048Y-137958631D01*
X131616758Y-137895032D01*
X131755265Y-137895153D01*
X132080657Y-137760704D01*
X132329829Y-137511967D01*
X132425076Y-137282587D01*
X132424847Y-137545265D01*
X132516922Y-137768105D01*
X132415154Y-138013190D01*
X132414847Y-138365265D01*
X132549296Y-138690657D01*
X132798033Y-138939829D01*
X133123190Y-139074846D01*
X133475265Y-139075153D01*
X133800657Y-138940704D01*
X134049829Y-138691967D01*
X134184846Y-138366810D01*
X134185153Y-138014735D01*
X134093078Y-137791895D01*
X134194846Y-137546810D01*
X134194995Y-137375265D01*
X137654847Y-137375265D01*
X137789296Y-137700657D01*
X138038033Y-137949829D01*
X138363190Y-138084846D01*
X138715265Y-138085153D01*
X138815136Y-138043887D01*
X138814847Y-138375265D01*
X138908763Y-138602560D01*
X138450000Y-138602560D01*
X138214683Y-138646838D01*
X137998559Y-138785910D01*
X137853569Y-138998110D01*
X137802560Y-139250000D01*
X137802560Y-140550000D01*
X137846838Y-140785317D01*
X137985910Y-141001441D01*
X138198110Y-141146431D01*
X138450000Y-141197440D01*
X139750000Y-141197440D01*
X139985317Y-141153162D01*
X140201441Y-141014090D01*
X140280687Y-140898109D01*
X140371155Y-140988735D01*
X140843276Y-141184777D01*
X141354481Y-141185223D01*
X141826943Y-140990005D01*
X142188735Y-140628845D01*
X142331402Y-140285265D01*
X143904847Y-140285265D01*
X144039296Y-140610657D01*
X144288033Y-140859829D01*
X144613190Y-140994846D01*
X144965265Y-140995153D01*
X145290657Y-140860704D01*
X145539829Y-140611967D01*
X145674846Y-140286810D01*
X145675153Y-139934735D01*
X145540704Y-139609343D01*
X145291967Y-139360171D01*
X144966810Y-139225154D01*
X144614735Y-139224847D01*
X144289343Y-139359296D01*
X144040171Y-139608033D01*
X143905154Y-139933190D01*
X143904847Y-140285265D01*
X142331402Y-140285265D01*
X142384777Y-140156724D01*
X142385223Y-139645519D01*
X142256769Y-139334638D01*
X142479829Y-139111967D01*
X142614846Y-138786810D01*
X142615153Y-138434735D01*
X142480704Y-138109343D01*
X142231967Y-137860171D01*
X141906810Y-137725154D01*
X141554735Y-137724847D01*
X141229343Y-137859296D01*
X140980171Y-138108033D01*
X140845154Y-138433190D01*
X140844995Y-138614993D01*
X140373057Y-138809995D01*
X140280746Y-138902145D01*
X140268447Y-138883032D01*
X140449829Y-138701967D01*
X140584846Y-138376810D01*
X140585153Y-138024735D01*
X140450704Y-137699343D01*
X140201967Y-137450171D01*
X140105388Y-137410068D01*
X140200657Y-137370704D01*
X140449829Y-137121967D01*
X140584846Y-136796810D01*
X140585153Y-136444735D01*
X140519262Y-136285265D01*
X143904847Y-136285265D01*
X144039296Y-136610657D01*
X144288033Y-136859829D01*
X144613190Y-136994846D01*
X144965265Y-136995153D01*
X145290657Y-136860704D01*
X145539829Y-136611967D01*
X145674846Y-136286810D01*
X145675153Y-135934735D01*
X145540704Y-135609343D01*
X145291967Y-135360171D01*
X144966810Y-135225154D01*
X144614735Y-135224847D01*
X144289343Y-135359296D01*
X144040171Y-135608033D01*
X143905154Y-135933190D01*
X143904847Y-136285265D01*
X140519262Y-136285265D01*
X140450704Y-136119343D01*
X140201967Y-135870171D01*
X139876810Y-135735154D01*
X139524735Y-135734847D01*
X139199343Y-135869296D01*
X138950171Y-136118033D01*
X138846038Y-136368814D01*
X138716810Y-136315154D01*
X138364735Y-136314847D01*
X138039343Y-136449296D01*
X137790171Y-136698033D01*
X137655154Y-137023190D01*
X137654847Y-137375265D01*
X134194995Y-137375265D01*
X134195153Y-137194735D01*
X134060704Y-136869343D01*
X133811967Y-136620171D01*
X133486810Y-136485154D01*
X133134735Y-136484847D01*
X132809343Y-136619296D01*
X132560171Y-136868033D01*
X132464924Y-137097413D01*
X132465153Y-136834735D01*
X132330704Y-136509343D01*
X132081967Y-136260171D01*
X131756810Y-136125154D01*
X131404735Y-136124847D01*
X131079343Y-136259296D01*
X130833242Y-136504968D01*
X130694735Y-136504847D01*
X130369343Y-136639296D01*
X130120171Y-136888033D01*
X129985154Y-137213190D01*
X129984847Y-137565265D01*
X130036952Y-137691369D01*
X129984967Y-137743263D01*
X129931967Y-137690171D01*
X129606810Y-137555154D01*
X129254735Y-137554847D01*
X128965821Y-137674224D01*
X128851967Y-137560171D01*
X128526810Y-137425154D01*
X128501390Y-137425132D01*
X128504846Y-137416810D01*
X128505153Y-137064735D01*
X128370704Y-136739343D01*
X128121967Y-136490171D01*
X127796810Y-136355154D01*
X127444735Y-136354847D01*
X127119343Y-136489296D01*
X126870171Y-136738033D01*
X126735154Y-137063190D01*
X126734847Y-137415265D01*
X125203202Y-137415265D01*
X125264846Y-137266810D01*
X125265153Y-136914735D01*
X125130704Y-136589343D01*
X124881967Y-136340171D01*
X124556810Y-136205154D01*
X124204735Y-136204847D01*
X123879343Y-136339296D01*
X123630171Y-136588033D01*
X123495154Y-136913190D01*
X123494847Y-137265265D01*
X117246948Y-137265265D01*
X117181967Y-137200171D01*
X116856810Y-137065154D01*
X116504735Y-137064847D01*
X116179343Y-137199296D01*
X115930171Y-137448033D01*
X115795154Y-137773190D01*
X115794847Y-138125265D01*
X111266210Y-138125265D01*
X111449829Y-137941967D01*
X111584846Y-137616810D01*
X111585153Y-137264735D01*
X111450704Y-136939343D01*
X111201967Y-136690171D01*
X110901160Y-136565265D01*
X113764847Y-136565265D01*
X113899296Y-136890657D01*
X114148033Y-137139829D01*
X114473190Y-137274846D01*
X114825265Y-137275153D01*
X115150657Y-137140704D01*
X115399829Y-136891967D01*
X115534846Y-136566810D01*
X115534943Y-136455083D01*
X115615265Y-136455153D01*
X115940657Y-136320704D01*
X116189829Y-136071967D01*
X116324846Y-135746810D01*
X116325100Y-135455265D01*
X133564847Y-135455265D01*
X133699296Y-135780657D01*
X133818787Y-135900357D01*
X133805154Y-135933190D01*
X133804847Y-136285265D01*
X133939296Y-136610657D01*
X134188033Y-136859829D01*
X134513190Y-136994846D01*
X134865265Y-136995153D01*
X135190657Y-136860704D01*
X135439829Y-136611967D01*
X135574846Y-136286810D01*
X135575153Y-135934735D01*
X135440704Y-135609343D01*
X135321213Y-135489643D01*
X135334846Y-135456810D01*
X135334847Y-135455265D01*
X136094847Y-135455265D01*
X136229296Y-135780657D01*
X136478033Y-136029829D01*
X136803190Y-136164846D01*
X137155265Y-136165153D01*
X137480657Y-136030704D01*
X137729829Y-135781967D01*
X137864846Y-135456810D01*
X137865153Y-135104735D01*
X137730704Y-134779343D01*
X137656756Y-134705265D01*
X140944847Y-134705265D01*
X141079296Y-135030657D01*
X141328033Y-135279829D01*
X141653190Y-135414846D01*
X142005265Y-135415153D01*
X142330657Y-135280704D01*
X142579829Y-135031967D01*
X142582681Y-135025098D01*
X142645265Y-135025153D01*
X142970657Y-134890704D01*
X143219829Y-134641967D01*
X143354846Y-134316810D01*
X143355153Y-133964735D01*
X143220704Y-133639343D01*
X142971967Y-133390171D01*
X142646810Y-133255154D01*
X142294735Y-133254847D01*
X141969343Y-133389296D01*
X141720171Y-133638033D01*
X141717319Y-133644902D01*
X141654735Y-133644847D01*
X141329343Y-133779296D01*
X141080171Y-134028033D01*
X140945154Y-134353190D01*
X140944847Y-134705265D01*
X137656756Y-134705265D01*
X137481967Y-134530171D01*
X137156810Y-134395154D01*
X136804735Y-134394847D01*
X136479343Y-134529296D01*
X136230171Y-134778033D01*
X136095154Y-135103190D01*
X136094847Y-135455265D01*
X135334847Y-135455265D01*
X135335153Y-135104735D01*
X135200704Y-134779343D01*
X134951967Y-134530171D01*
X134626810Y-134395154D01*
X134274735Y-134394847D01*
X133949343Y-134529296D01*
X133700171Y-134778033D01*
X133565154Y-135103190D01*
X133564847Y-135455265D01*
X116325100Y-135455265D01*
X116325153Y-135394735D01*
X116190704Y-135069343D01*
X115941967Y-134820171D01*
X115616810Y-134685154D01*
X115264735Y-134684847D01*
X114939343Y-134819296D01*
X114690171Y-135068033D01*
X114555154Y-135393190D01*
X114555057Y-135504917D01*
X114474735Y-135504847D01*
X114149343Y-135639296D01*
X113900171Y-135888033D01*
X113765154Y-136213190D01*
X113764847Y-136565265D01*
X110901160Y-136565265D01*
X110876810Y-136555154D01*
X110524735Y-136554847D01*
X110199343Y-136689296D01*
X109950171Y-136938033D01*
X109815154Y-137263190D01*
X109814978Y-137465083D01*
X109544735Y-137464847D01*
X109219343Y-137599296D01*
X108970171Y-137848033D01*
X108835154Y-138173190D01*
X108834847Y-138525265D01*
X108910766Y-138709003D01*
X108891967Y-138690171D01*
X108566810Y-138555154D01*
X108214735Y-138554847D01*
X107889343Y-138689296D01*
X107640171Y-138938033D01*
X107505154Y-139263190D01*
X107504847Y-139615265D01*
X104231018Y-139615265D01*
X104047592Y-139171343D01*
X103746554Y-138869779D01*
X104046371Y-138570485D01*
X104234785Y-138116734D01*
X104235214Y-137625421D01*
X104047592Y-137171343D01*
X103746554Y-136869779D01*
X104046371Y-136570485D01*
X104131585Y-136365265D01*
X108154847Y-136365265D01*
X108289296Y-136690657D01*
X108538033Y-136939829D01*
X108863190Y-137074846D01*
X109215265Y-137075153D01*
X109540657Y-136940704D01*
X109789829Y-136691967D01*
X109924846Y-136366810D01*
X109925153Y-136014735D01*
X109790704Y-135689343D01*
X109541967Y-135440171D01*
X109216810Y-135305154D01*
X108864735Y-135304847D01*
X108539343Y-135439296D01*
X108290171Y-135688033D01*
X108155154Y-136013190D01*
X108154847Y-136365265D01*
X104131585Y-136365265D01*
X104234785Y-136116734D01*
X104235214Y-135625421D01*
X104047592Y-135171343D01*
X103746554Y-134869779D01*
X103871285Y-134745265D01*
X110314847Y-134745265D01*
X110449296Y-135070657D01*
X110698033Y-135319829D01*
X111023190Y-135454846D01*
X111375265Y-135455153D01*
X111700657Y-135320704D01*
X111949829Y-135071967D01*
X112084846Y-134746810D01*
X112085153Y-134394735D01*
X111950704Y-134069343D01*
X111701967Y-133820171D01*
X111376810Y-133685154D01*
X111024735Y-133684847D01*
X110699343Y-133819296D01*
X110450171Y-134068033D01*
X110315154Y-134393190D01*
X110314847Y-134745265D01*
X103871285Y-134745265D01*
X104046371Y-134570485D01*
X104234785Y-134116734D01*
X104235214Y-133625421D01*
X104047592Y-133171343D01*
X103801944Y-132925265D01*
X111714847Y-132925265D01*
X111849296Y-133250657D01*
X112098033Y-133499829D01*
X112115618Y-133507131D01*
X112249296Y-133830657D01*
X112385012Y-133966610D01*
X112384847Y-134155265D01*
X112519296Y-134480657D01*
X112768033Y-134729829D01*
X113093190Y-134864846D01*
X113445265Y-134865153D01*
X113770657Y-134730704D01*
X113866262Y-134635265D01*
X120524847Y-134635265D01*
X120659296Y-134960657D01*
X120908033Y-135209829D01*
X121233190Y-135344846D01*
X121585265Y-135345153D01*
X121910657Y-135210704D01*
X122159829Y-134961967D01*
X122294846Y-134636810D01*
X122295153Y-134284735D01*
X122237526Y-134145265D01*
X122914847Y-134145265D01*
X123049296Y-134470657D01*
X123298033Y-134719829D01*
X123623190Y-134854846D01*
X123975265Y-134855153D01*
X124300657Y-134720704D01*
X124549829Y-134471967D01*
X124684846Y-134146810D01*
X124685153Y-133794735D01*
X124550704Y-133469343D01*
X124301967Y-133220171D01*
X123976810Y-133085154D01*
X123624735Y-133084847D01*
X123299343Y-133219296D01*
X123050171Y-133468033D01*
X122915154Y-133793190D01*
X122914847Y-134145265D01*
X122237526Y-134145265D01*
X122160704Y-133959343D01*
X121911967Y-133710171D01*
X121586810Y-133575154D01*
X121234735Y-133574847D01*
X120909343Y-133709296D01*
X120660171Y-133958033D01*
X120525154Y-134283190D01*
X120524847Y-134635265D01*
X113866262Y-134635265D01*
X114019829Y-134481967D01*
X114154846Y-134156810D01*
X114155153Y-133804735D01*
X114020704Y-133479343D01*
X113884988Y-133343390D01*
X113885153Y-133154735D01*
X113750704Y-132829343D01*
X113501967Y-132580171D01*
X113484382Y-132572869D01*
X113444053Y-132475265D01*
X124334847Y-132475265D01*
X124469296Y-132800657D01*
X124718033Y-133049829D01*
X125043190Y-133184846D01*
X125395265Y-133185153D01*
X125454886Y-133160518D01*
X125454847Y-133205265D01*
X125589296Y-133530657D01*
X125838033Y-133779829D01*
X125969245Y-133834313D01*
X126079296Y-134100657D01*
X126328033Y-134349829D01*
X126501242Y-134421752D01*
X126579296Y-134610657D01*
X126828033Y-134859829D01*
X127153190Y-134994846D01*
X127505265Y-134995153D01*
X127596069Y-134957634D01*
X127728033Y-135089829D01*
X128053190Y-135224846D01*
X128405265Y-135225153D01*
X128730657Y-135090704D01*
X128979829Y-134841967D01*
X129114846Y-134516810D01*
X129115108Y-134215265D01*
X129404847Y-134215265D01*
X129539296Y-134540657D01*
X129788033Y-134789829D01*
X130113190Y-134924846D01*
X130465265Y-134925153D01*
X130790657Y-134790704D01*
X130958860Y-134622795D01*
X130999296Y-134720657D01*
X131248033Y-134969829D01*
X131573190Y-135104846D01*
X131925265Y-135105153D01*
X132250657Y-134970704D01*
X132499829Y-134721967D01*
X132634846Y-134396810D01*
X132635153Y-134044735D01*
X132507283Y-133735265D01*
X132534847Y-133735265D01*
X132669296Y-134060657D01*
X132918033Y-134309829D01*
X133243190Y-134444846D01*
X133595265Y-134445153D01*
X133920657Y-134310704D01*
X134169829Y-134061967D01*
X134253373Y-133860770D01*
X134263190Y-133864846D01*
X134615265Y-133865153D01*
X134940657Y-133730704D01*
X135189829Y-133481967D01*
X135324846Y-133156810D01*
X135325153Y-132804735D01*
X135190704Y-132479343D01*
X135101597Y-132390080D01*
X135169829Y-132321967D01*
X135304846Y-131996810D01*
X135305039Y-131775265D01*
X141934847Y-131775265D01*
X142069296Y-132100657D01*
X142318033Y-132349829D01*
X142643190Y-132484846D01*
X142995265Y-132485153D01*
X143320657Y-132350704D01*
X143569829Y-132101967D01*
X143704846Y-131776810D01*
X143705153Y-131424735D01*
X143570704Y-131099343D01*
X143546531Y-131075128D01*
X143575265Y-131075153D01*
X143900657Y-130940704D01*
X144149829Y-130691967D01*
X144284846Y-130366810D01*
X144285153Y-130014735D01*
X144150704Y-129689343D01*
X143901967Y-129440171D01*
X143576810Y-129305154D01*
X143224735Y-129304847D01*
X142899343Y-129439296D01*
X142650171Y-129688033D01*
X142515154Y-130013190D01*
X142514847Y-130365265D01*
X142649296Y-130690657D01*
X142673469Y-130714872D01*
X142644735Y-130714847D01*
X142319343Y-130849296D01*
X142070171Y-131098033D01*
X141935154Y-131423190D01*
X141934847Y-131775265D01*
X135305039Y-131775265D01*
X135305153Y-131644735D01*
X135170704Y-131319343D01*
X134921967Y-131070171D01*
X134892311Y-131057857D01*
X134820037Y-130882939D01*
X134970657Y-130820704D01*
X135219829Y-130571967D01*
X135354846Y-130246810D01*
X135355153Y-129894735D01*
X135220704Y-129569343D01*
X135016580Y-129364862D01*
X135219829Y-129161967D01*
X135354846Y-128836810D01*
X135355153Y-128484735D01*
X135243811Y-128215265D01*
X143624847Y-128215265D01*
X143759296Y-128540657D01*
X144008033Y-128789829D01*
X144333190Y-128924846D01*
X144685265Y-128925153D01*
X145010657Y-128790704D01*
X145259829Y-128541967D01*
X145394846Y-128216810D01*
X145395153Y-127864735D01*
X145260704Y-127539343D01*
X145011967Y-127290171D01*
X144686810Y-127155154D01*
X144334735Y-127154847D01*
X144009343Y-127289296D01*
X143760171Y-127538033D01*
X143625154Y-127863190D01*
X143624847Y-128215265D01*
X135243811Y-128215265D01*
X135220704Y-128159343D01*
X134971967Y-127910171D01*
X134646810Y-127775154D01*
X134294735Y-127774847D01*
X133969343Y-127909296D01*
X133720171Y-128158033D01*
X133585154Y-128483190D01*
X133584936Y-128732853D01*
X133569343Y-128739296D01*
X133320171Y-128988033D01*
X133185154Y-129313190D01*
X133184847Y-129665265D01*
X133319296Y-129990657D01*
X133568033Y-130239829D01*
X133585618Y-130247131D01*
X133659963Y-130427061D01*
X133509343Y-130489296D01*
X133260171Y-130738033D01*
X133125154Y-131063190D01*
X133124847Y-131415265D01*
X133259296Y-131740657D01*
X133343412Y-131824920D01*
X133270171Y-131898033D01*
X133135154Y-132223190D01*
X133134847Y-132575265D01*
X133186018Y-132699108D01*
X132919343Y-132809296D01*
X132670171Y-133058033D01*
X132535154Y-133383190D01*
X132534847Y-133735265D01*
X132507283Y-133735265D01*
X132500704Y-133719343D01*
X132251967Y-133470171D01*
X131926810Y-133335154D01*
X131574735Y-133334847D01*
X131249343Y-133469296D01*
X131081140Y-133637205D01*
X131040704Y-133539343D01*
X130791967Y-133290171D01*
X130466810Y-133155154D01*
X130114735Y-133154847D01*
X129789343Y-133289296D01*
X129540171Y-133538033D01*
X129405154Y-133863190D01*
X129404847Y-134215265D01*
X129115108Y-134215265D01*
X129115153Y-134164735D01*
X128980704Y-133839343D01*
X128731967Y-133590171D01*
X128406810Y-133455154D01*
X128054735Y-133454847D01*
X127963931Y-133492366D01*
X127831967Y-133360171D01*
X127658758Y-133288248D01*
X127580704Y-133099343D01*
X127331967Y-132850171D01*
X127200755Y-132795687D01*
X127090704Y-132529343D01*
X126841967Y-132280171D01*
X126685829Y-132215337D01*
X126890657Y-132130704D01*
X127139829Y-131881967D01*
X127180146Y-131784872D01*
X127480657Y-131660704D01*
X127729829Y-131411967D01*
X127864846Y-131086810D01*
X127865153Y-130734735D01*
X127730704Y-130409343D01*
X127481967Y-130160171D01*
X127156810Y-130025154D01*
X126804735Y-130024847D01*
X126479343Y-130159296D01*
X126230171Y-130408033D01*
X126189854Y-130505128D01*
X125889343Y-130629296D01*
X125640171Y-130878033D01*
X125607807Y-130955973D01*
X125309343Y-131079296D01*
X125060171Y-131328033D01*
X125019854Y-131425128D01*
X124719343Y-131549296D01*
X124470171Y-131798033D01*
X124335154Y-132123190D01*
X124334847Y-132475265D01*
X113444053Y-132475265D01*
X113350704Y-132249343D01*
X113101967Y-132000171D01*
X112776810Y-131865154D01*
X112424735Y-131864847D01*
X112099343Y-131999296D01*
X111850171Y-132248033D01*
X111715154Y-132573190D01*
X111714847Y-132925265D01*
X103801944Y-132925265D01*
X103746554Y-132869779D01*
X104046371Y-132570485D01*
X104234785Y-132116734D01*
X104235214Y-131625421D01*
X104047592Y-131171343D01*
X103891787Y-131015265D01*
X114634847Y-131015265D01*
X114769296Y-131340657D01*
X115018033Y-131589829D01*
X115343190Y-131724846D01*
X115456034Y-131724944D01*
X115549296Y-131950657D01*
X115798033Y-132199829D01*
X116123190Y-132334846D01*
X116475265Y-132335153D01*
X116800657Y-132200704D01*
X117049829Y-131951967D01*
X117184846Y-131626810D01*
X117185153Y-131274735D01*
X117050704Y-130949343D01*
X116801967Y-130700171D01*
X116500952Y-130575179D01*
X116624846Y-130276810D01*
X116625153Y-129924735D01*
X116497699Y-129616271D01*
X116534846Y-129526810D01*
X116535153Y-129174735D01*
X116514713Y-129125265D01*
X116714847Y-129125265D01*
X116849296Y-129450657D01*
X117098033Y-129699829D01*
X117371206Y-129813260D01*
X117469296Y-130050657D01*
X117718033Y-130299829D01*
X118020336Y-130425356D01*
X118109296Y-130640657D01*
X118358033Y-130889829D01*
X118660336Y-131015356D01*
X118749296Y-131230657D01*
X118998033Y-131479829D01*
X119323190Y-131614846D01*
X119675265Y-131615153D01*
X119860590Y-131538578D01*
X119919296Y-131680657D01*
X120168033Y-131929829D01*
X120493190Y-132064846D01*
X120845265Y-132065153D01*
X121170657Y-131930704D01*
X121419829Y-131681967D01*
X121554846Y-131356810D01*
X121555153Y-131004735D01*
X121420704Y-130679343D01*
X121171967Y-130430171D01*
X120846810Y-130295154D01*
X120494735Y-130294847D01*
X120309410Y-130371422D01*
X120250704Y-130229343D01*
X120001967Y-129980171D01*
X119699664Y-129854644D01*
X119610704Y-129639343D01*
X119361967Y-129390171D01*
X119059664Y-129264644D01*
X118970704Y-129049343D01*
X118721967Y-128800171D01*
X118448794Y-128686740D01*
X118350704Y-128449343D01*
X118101967Y-128200171D01*
X117776810Y-128065154D01*
X117424735Y-128064847D01*
X117099343Y-128199296D01*
X116850171Y-128448033D01*
X116715154Y-128773190D01*
X116714847Y-129125265D01*
X116514713Y-129125265D01*
X116400704Y-128849343D01*
X116151967Y-128600171D01*
X115826810Y-128465154D01*
X115474735Y-128464847D01*
X115149343Y-128599296D01*
X114900171Y-128848033D01*
X114765154Y-129173190D01*
X114764847Y-129525265D01*
X114892301Y-129833729D01*
X114855154Y-129923190D01*
X114854866Y-130253486D01*
X114770171Y-130338033D01*
X114635154Y-130663190D01*
X114634847Y-131015265D01*
X103891787Y-131015265D01*
X103746554Y-130869779D01*
X104046371Y-130570485D01*
X104234785Y-130116734D01*
X104235214Y-129625421D01*
X104047592Y-129171343D01*
X103811926Y-128935265D01*
X104404847Y-128935265D01*
X104539296Y-129260657D01*
X104788033Y-129509829D01*
X105113190Y-129644846D01*
X105465265Y-129645153D01*
X105790657Y-129510704D01*
X106039829Y-129261967D01*
X106174846Y-128936810D01*
X106174856Y-128925265D01*
X112034847Y-128925265D01*
X112166358Y-129243546D01*
X112075154Y-129463190D01*
X112074847Y-129815265D01*
X112209296Y-130140657D01*
X112458033Y-130389829D01*
X112783190Y-130524846D01*
X113135265Y-130525153D01*
X113460657Y-130390704D01*
X113709829Y-130141967D01*
X113844846Y-129816810D01*
X113845153Y-129464735D01*
X113713642Y-129146454D01*
X113804846Y-128926810D01*
X113805153Y-128574735D01*
X113670704Y-128249343D01*
X113421967Y-128000171D01*
X113096810Y-127865154D01*
X112744735Y-127864847D01*
X112419343Y-127999296D01*
X112170171Y-128248033D01*
X112035154Y-128573190D01*
X112034847Y-128925265D01*
X106174856Y-128925265D01*
X106175153Y-128584735D01*
X106040704Y-128259343D01*
X105791967Y-128010171D01*
X105466810Y-127875154D01*
X105114735Y-127874847D01*
X104789343Y-128009296D01*
X104540171Y-128258033D01*
X104405154Y-128583190D01*
X104404847Y-128935265D01*
X103811926Y-128935265D01*
X103746554Y-128869779D01*
X104046371Y-128570485D01*
X104234785Y-128116734D01*
X104235214Y-127625421D01*
X104193831Y-127525265D01*
X105774847Y-127525265D01*
X105909296Y-127850657D01*
X106158033Y-128099829D01*
X106483190Y-128234846D01*
X106835265Y-128235153D01*
X107160657Y-128100704D01*
X107409829Y-127851967D01*
X107544846Y-127526810D01*
X107545153Y-127174735D01*
X107410704Y-126849343D01*
X107161967Y-126600171D01*
X106885243Y-126485265D01*
X111824847Y-126485265D01*
X111959296Y-126810657D01*
X112208033Y-127059829D01*
X112533190Y-127194846D01*
X112885265Y-127195153D01*
X113210657Y-127060704D01*
X113459829Y-126811967D01*
X113594846Y-126486810D01*
X113595153Y-126134735D01*
X113460704Y-125809343D01*
X113281545Y-125629870D01*
X113486507Y-125425265D01*
X114754847Y-125425265D01*
X114889296Y-125750657D01*
X114898185Y-125759561D01*
X114855154Y-125863190D01*
X114854847Y-126215265D01*
X114989296Y-126540657D01*
X115035142Y-126586583D01*
X115034847Y-126925265D01*
X115087487Y-127052663D01*
X114975154Y-127323190D01*
X114974847Y-127675265D01*
X115109296Y-128000657D01*
X115358033Y-128249829D01*
X115683190Y-128384846D01*
X116035265Y-128385153D01*
X116360657Y-128250704D01*
X116609829Y-128001967D01*
X116629221Y-127955265D01*
X119224847Y-127955265D01*
X119359296Y-128280657D01*
X119608033Y-128529829D01*
X119862051Y-128635307D01*
X119959296Y-128870657D01*
X120208033Y-129119829D01*
X120533190Y-129254846D01*
X120885265Y-129255153D01*
X121210657Y-129120704D01*
X121459829Y-128871967D01*
X121594846Y-128546810D01*
X121594847Y-128545265D01*
X128524847Y-128545265D01*
X128659296Y-128870657D01*
X128908033Y-129119829D01*
X129233190Y-129254846D01*
X129585265Y-129255153D01*
X129910657Y-129120704D01*
X130159829Y-128871967D01*
X130222267Y-128721600D01*
X130477822Y-128616007D01*
X130523190Y-128634846D01*
X130623478Y-128634933D01*
X130818033Y-128829829D01*
X131143190Y-128964846D01*
X131495265Y-128965153D01*
X131820657Y-128830704D01*
X131925025Y-128726518D01*
X132098033Y-128899829D01*
X132423190Y-129034846D01*
X132775265Y-129035153D01*
X133100657Y-128900704D01*
X133349829Y-128651967D01*
X133484846Y-128326810D01*
X133485153Y-127974735D01*
X133350704Y-127649343D01*
X133101967Y-127400171D01*
X132852936Y-127296764D01*
X132750704Y-127049343D01*
X132501967Y-126800171D01*
X132176810Y-126665154D01*
X131824735Y-126664847D01*
X131499343Y-126799296D01*
X131250171Y-127048033D01*
X131250046Y-127048334D01*
X131201967Y-127000171D01*
X130876810Y-126865154D01*
X130524735Y-126864847D01*
X130212178Y-126993993D01*
X130166810Y-126975154D01*
X129814735Y-126974847D01*
X129489343Y-127109296D01*
X129240171Y-127358033D01*
X129177733Y-127508400D01*
X128909343Y-127619296D01*
X128660171Y-127868033D01*
X128525154Y-128193190D01*
X128524847Y-128545265D01*
X121594847Y-128545265D01*
X121595153Y-128194735D01*
X121460704Y-127869343D01*
X121211967Y-127620171D01*
X120957949Y-127514693D01*
X120860704Y-127279343D01*
X120796738Y-127215265D01*
X121904847Y-127215265D01*
X122039296Y-127540657D01*
X122288033Y-127789829D01*
X122613190Y-127924846D01*
X122965265Y-127925153D01*
X123290657Y-127790704D01*
X123539829Y-127541967D01*
X123674846Y-127216810D01*
X123675153Y-126864735D01*
X123540704Y-126539343D01*
X123291967Y-126290171D01*
X122966810Y-126155154D01*
X122614735Y-126154847D01*
X122289343Y-126289296D01*
X122040171Y-126538033D01*
X121905154Y-126863190D01*
X121904847Y-127215265D01*
X120796738Y-127215265D01*
X120611967Y-127030171D01*
X120286810Y-126895154D01*
X119934735Y-126894847D01*
X119609343Y-127029296D01*
X119360171Y-127278033D01*
X119225154Y-127603190D01*
X119224847Y-127955265D01*
X116629221Y-127955265D01*
X116744846Y-127676810D01*
X116745153Y-127324735D01*
X116692513Y-127197337D01*
X116804846Y-126926810D01*
X116805153Y-126574735D01*
X116670704Y-126249343D01*
X116624858Y-126203417D01*
X116625153Y-125864735D01*
X116490704Y-125539343D01*
X116481815Y-125530439D01*
X116524846Y-125426810D01*
X116524847Y-125425265D01*
X129814847Y-125425265D01*
X129949296Y-125750657D01*
X130198033Y-125999829D01*
X130471206Y-126113260D01*
X130569296Y-126350657D01*
X130818033Y-126599829D01*
X131143190Y-126734846D01*
X131495265Y-126735153D01*
X131820657Y-126600704D01*
X131916262Y-126505265D01*
X132624847Y-126505265D01*
X132759296Y-126830657D01*
X133008033Y-127079829D01*
X133295665Y-127199264D01*
X133329296Y-127280657D01*
X133578033Y-127529829D01*
X133903190Y-127664846D01*
X134255265Y-127665153D01*
X134580657Y-127530704D01*
X134829829Y-127281967D01*
X134964846Y-126956810D01*
X134965153Y-126604735D01*
X134830704Y-126279343D01*
X134581967Y-126030171D01*
X134294335Y-125910736D01*
X134260704Y-125829343D01*
X134011967Y-125580171D01*
X133686810Y-125445154D01*
X133334735Y-125444847D01*
X133009343Y-125579296D01*
X132760171Y-125828033D01*
X132625154Y-126153190D01*
X132624847Y-126505265D01*
X131916262Y-126505265D01*
X132069829Y-126351967D01*
X132204846Y-126026810D01*
X132205153Y-125674735D01*
X132070704Y-125349343D01*
X131821967Y-125100171D01*
X131548794Y-124986740D01*
X131450704Y-124749343D01*
X131201967Y-124500171D01*
X130876810Y-124365154D01*
X130524735Y-124364847D01*
X130199343Y-124499296D01*
X129950171Y-124748033D01*
X129815154Y-125073190D01*
X129814847Y-125425265D01*
X116524847Y-125425265D01*
X116525153Y-125074735D01*
X116508734Y-125034999D01*
X116685265Y-125035153D01*
X117010657Y-124900704D01*
X117259829Y-124651967D01*
X117394846Y-124326810D01*
X117395153Y-123974735D01*
X117260704Y-123649343D01*
X117011967Y-123400171D01*
X116686810Y-123265154D01*
X116334735Y-123264847D01*
X116009343Y-123399296D01*
X115893303Y-123515134D01*
X115564735Y-123514847D01*
X115239343Y-123649296D01*
X114990171Y-123898033D01*
X114855154Y-124223190D01*
X114854847Y-124575265D01*
X114915702Y-124722546D01*
X114890171Y-124748033D01*
X114755154Y-125073190D01*
X114754847Y-125425265D01*
X113486507Y-125425265D01*
X113499829Y-125411967D01*
X113634846Y-125086810D01*
X113635153Y-124734735D01*
X113500704Y-124409343D01*
X113251967Y-124160171D01*
X112926810Y-124025154D01*
X112574735Y-124024847D01*
X112249343Y-124159296D01*
X112000171Y-124408033D01*
X111865154Y-124733190D01*
X111864847Y-125085265D01*
X111999296Y-125410657D01*
X112178455Y-125590130D01*
X111960171Y-125808033D01*
X111825154Y-126133190D01*
X111824847Y-126485265D01*
X106885243Y-126485265D01*
X106836810Y-126465154D01*
X106484735Y-126464847D01*
X106159343Y-126599296D01*
X105910171Y-126848033D01*
X105775154Y-127173190D01*
X105774847Y-127525265D01*
X104193831Y-127525265D01*
X104047592Y-127171343D01*
X103746554Y-126869779D01*
X104046371Y-126570485D01*
X104234785Y-126116734D01*
X104235214Y-125625421D01*
X104047592Y-125171343D01*
X103746554Y-124869779D01*
X104046371Y-124570485D01*
X104234785Y-124116734D01*
X104235214Y-123625421D01*
X104047592Y-123171343D01*
X103746554Y-122869779D01*
X104046371Y-122570485D01*
X104234785Y-122116734D01*
X104235214Y-121625421D01*
X104047592Y-121171343D01*
X103746554Y-120869779D01*
X104046371Y-120570485D01*
X104234785Y-120116734D01*
X104235214Y-119625421D01*
X104231018Y-119615265D01*
X116564847Y-119615265D01*
X116699296Y-119940657D01*
X116883290Y-120124972D01*
X116850171Y-120158033D01*
X116715154Y-120483190D01*
X116714847Y-120835265D01*
X116849296Y-121160657D01*
X117098033Y-121409829D01*
X117416095Y-121541900D01*
X117469296Y-121670657D01*
X117718033Y-121919829D01*
X118043190Y-122054846D01*
X118061451Y-122054862D01*
X118109296Y-122170657D01*
X118358033Y-122419829D01*
X118683190Y-122554846D01*
X118701451Y-122554862D01*
X118749296Y-122670657D01*
X118998033Y-122919829D01*
X119323190Y-123054846D01*
X119323840Y-123054847D01*
X119359296Y-123140657D01*
X119608033Y-123389829D01*
X119852076Y-123491165D01*
X119959296Y-123750657D01*
X120208033Y-123999829D01*
X120533190Y-124134846D01*
X120885265Y-124135153D01*
X121210657Y-124000704D01*
X121459829Y-123751967D01*
X121594846Y-123426810D01*
X121595153Y-123074735D01*
X121460704Y-122749343D01*
X121211967Y-122500171D01*
X120967924Y-122398835D01*
X120860704Y-122139343D01*
X120611967Y-121890171D01*
X120286810Y-121755154D01*
X120286160Y-121755153D01*
X120250704Y-121669343D01*
X120001967Y-121420171D01*
X119676810Y-121285154D01*
X119658549Y-121285138D01*
X119610704Y-121169343D01*
X119361967Y-120920171D01*
X119036810Y-120785154D01*
X119018549Y-120785138D01*
X118970704Y-120669343D01*
X118836861Y-120535265D01*
X120714847Y-120535265D01*
X120849296Y-120860657D01*
X121098033Y-121109829D01*
X121408373Y-121238693D01*
X121315154Y-121463190D01*
X121314847Y-121815265D01*
X121449296Y-122140657D01*
X121698033Y-122389829D01*
X122023190Y-122524846D01*
X122375265Y-122525153D01*
X122700657Y-122390704D01*
X122949829Y-122141967D01*
X123084846Y-121816810D01*
X123085153Y-121464735D01*
X122950704Y-121139343D01*
X122886738Y-121075265D01*
X124634847Y-121075265D01*
X124769296Y-121400657D01*
X125018033Y-121649829D01*
X125343190Y-121784846D01*
X125695265Y-121785153D01*
X126020657Y-121650704D01*
X126269829Y-121401967D01*
X126349044Y-121211196D01*
X126406106Y-121187618D01*
X126532064Y-121313797D01*
X126349343Y-121389296D01*
X126100171Y-121638033D01*
X125965154Y-121963190D01*
X125964847Y-122315265D01*
X126099296Y-122640657D01*
X126348033Y-122889829D01*
X126414393Y-122917384D01*
X126119343Y-123039296D01*
X125870171Y-123288033D01*
X125735154Y-123613190D01*
X125734847Y-123965265D01*
X125869296Y-124290657D01*
X126118033Y-124539829D01*
X126443190Y-124674846D01*
X126795265Y-124675153D01*
X127120657Y-124540704D01*
X127369829Y-124291967D01*
X127504846Y-123966810D01*
X127505153Y-123614735D01*
X127370704Y-123289343D01*
X127121967Y-123040171D01*
X127055607Y-123012616D01*
X127350657Y-122890704D01*
X127599829Y-122641967D01*
X127734846Y-122316810D01*
X127735153Y-121964735D01*
X127600704Y-121639343D01*
X127536738Y-121575265D01*
X128324847Y-121575265D01*
X128459296Y-121900657D01*
X128708033Y-122149829D01*
X128874983Y-122219153D01*
X128874847Y-122375265D01*
X129005951Y-122692560D01*
X128830171Y-122868033D01*
X128695154Y-123193190D01*
X128694847Y-123545265D01*
X128829296Y-123870657D01*
X129078033Y-124119829D01*
X129403190Y-124254846D01*
X129755265Y-124255153D01*
X130080657Y-124120704D01*
X130329829Y-123871967D01*
X130464846Y-123546810D01*
X130465153Y-123194735D01*
X130366206Y-122955265D01*
X132624847Y-122955265D01*
X132759296Y-123280657D01*
X133008033Y-123529829D01*
X133302111Y-123651941D01*
X133235154Y-123813190D01*
X133234847Y-124165265D01*
X133369296Y-124490657D01*
X133584907Y-124706645D01*
X133584847Y-124775265D01*
X133719296Y-125100657D01*
X133968033Y-125349829D01*
X134293190Y-125484846D01*
X134645265Y-125485153D01*
X134970657Y-125350704D01*
X135219829Y-125101967D01*
X135354846Y-124776810D01*
X135355153Y-124424735D01*
X135220704Y-124099343D01*
X135005093Y-123883355D01*
X135005153Y-123814735D01*
X134920061Y-123608797D01*
X135060657Y-123550704D01*
X135309829Y-123301967D01*
X135444846Y-122976810D01*
X135445153Y-122624735D01*
X135310704Y-122299343D01*
X135061967Y-122050171D01*
X134873292Y-121971826D01*
X134760704Y-121699343D01*
X134546811Y-121485076D01*
X134635265Y-121485153D01*
X134960657Y-121350704D01*
X135209829Y-121101967D01*
X135344846Y-120776810D01*
X135345153Y-120424735D01*
X135210704Y-120099343D01*
X134961967Y-119850171D01*
X134636810Y-119715154D01*
X134284735Y-119714847D01*
X134186827Y-119755302D01*
X134031967Y-119600171D01*
X133827491Y-119515265D01*
X135984847Y-119515265D01*
X136119296Y-119840657D01*
X136368033Y-120089829D01*
X136693190Y-120224846D01*
X137045265Y-120225153D01*
X137292247Y-120123102D01*
X137513190Y-120214846D01*
X137865265Y-120215153D01*
X138065089Y-120132587D01*
X138263190Y-120214846D01*
X138615265Y-120215153D01*
X138940657Y-120080704D01*
X139189829Y-119831967D01*
X139324846Y-119506810D01*
X139325153Y-119154735D01*
X139190704Y-118829343D01*
X138941967Y-118580171D01*
X138616810Y-118445154D01*
X138264735Y-118444847D01*
X138064911Y-118527413D01*
X137866810Y-118445154D01*
X137638350Y-118444955D01*
X137890657Y-118340704D01*
X138139829Y-118091967D01*
X138274846Y-117766810D01*
X138275153Y-117414735D01*
X138140704Y-117089343D01*
X137891967Y-116840171D01*
X137566810Y-116705154D01*
X137214735Y-116704847D01*
X136889343Y-116839296D01*
X136640171Y-117088033D01*
X136505154Y-117413190D01*
X136504847Y-117765265D01*
X136639296Y-118090657D01*
X136888033Y-118339829D01*
X137213190Y-118474846D01*
X137441650Y-118475045D01*
X137267753Y-118546898D01*
X137046810Y-118455154D01*
X136694735Y-118454847D01*
X136369343Y-118589296D01*
X136120171Y-118838033D01*
X135985154Y-119163190D01*
X135984847Y-119515265D01*
X133827491Y-119515265D01*
X133706810Y-119465154D01*
X133354735Y-119464847D01*
X133029343Y-119599296D01*
X132780171Y-119848033D01*
X132645154Y-120173190D01*
X132644847Y-120525265D01*
X132779296Y-120850657D01*
X133028033Y-121099829D01*
X133353190Y-121234846D01*
X133705265Y-121235153D01*
X133803173Y-121194698D01*
X133923189Y-121314924D01*
X133834735Y-121314847D01*
X133509343Y-121449296D01*
X133260171Y-121698033D01*
X133146079Y-121972798D01*
X133009343Y-122029296D01*
X132760171Y-122278033D01*
X132625154Y-122603190D01*
X132624847Y-122955265D01*
X130366206Y-122955265D01*
X130334049Y-122877440D01*
X130509829Y-122701967D01*
X130644846Y-122376810D01*
X130645153Y-122024735D01*
X130510704Y-121699343D01*
X130261967Y-121450171D01*
X130095017Y-121380847D01*
X130095153Y-121224735D01*
X129960704Y-120899343D01*
X129711967Y-120650171D01*
X129386810Y-120515154D01*
X129034735Y-120514847D01*
X128709343Y-120649296D01*
X128460171Y-120898033D01*
X128325154Y-121223190D01*
X128324847Y-121575265D01*
X127536738Y-121575265D01*
X127387936Y-121426203D01*
X127570657Y-121350704D01*
X127819829Y-121101967D01*
X127954846Y-120776810D01*
X127955153Y-120424735D01*
X127820704Y-120099343D01*
X127571967Y-119850171D01*
X127246810Y-119715154D01*
X126894735Y-119714847D01*
X126803894Y-119752382D01*
X126641967Y-119590171D01*
X126316810Y-119455154D01*
X125964735Y-119454847D01*
X125639343Y-119589296D01*
X125390171Y-119838033D01*
X125310956Y-120028804D01*
X125019343Y-120149296D01*
X124770171Y-120398033D01*
X124635154Y-120723190D01*
X124634847Y-121075265D01*
X122886738Y-121075265D01*
X122701967Y-120890171D01*
X122391627Y-120761307D01*
X122484846Y-120536810D01*
X122485153Y-120184735D01*
X122350704Y-119859343D01*
X122101967Y-119610171D01*
X121776810Y-119475154D01*
X121424735Y-119474847D01*
X121099343Y-119609296D01*
X120850171Y-119858033D01*
X120715154Y-120183190D01*
X120714847Y-120535265D01*
X118836861Y-120535265D01*
X118721967Y-120420171D01*
X118403905Y-120288100D01*
X118350704Y-120159343D01*
X118166710Y-119975028D01*
X118199829Y-119941967D01*
X118334846Y-119616810D01*
X118335153Y-119264735D01*
X118200704Y-118939343D01*
X117951967Y-118690171D01*
X117626810Y-118555154D01*
X117274735Y-118554847D01*
X116949343Y-118689296D01*
X116700171Y-118938033D01*
X116565154Y-119263190D01*
X116564847Y-119615265D01*
X104231018Y-119615265D01*
X104047592Y-119171343D01*
X103746554Y-118869779D01*
X103771110Y-118845265D01*
X109134847Y-118845265D01*
X109269296Y-119170657D01*
X109518033Y-119419829D01*
X109843190Y-119554846D01*
X110195265Y-119555153D01*
X110520657Y-119420704D01*
X110769829Y-119171967D01*
X110904846Y-118846810D01*
X110905153Y-118494735D01*
X110770704Y-118169343D01*
X110521967Y-117920171D01*
X110196810Y-117785154D01*
X109844735Y-117784847D01*
X109519343Y-117919296D01*
X109270171Y-118168033D01*
X109135154Y-118493190D01*
X109134847Y-118845265D01*
X103771110Y-118845265D01*
X104046371Y-118570485D01*
X104234785Y-118116734D01*
X104235214Y-117625421D01*
X104177303Y-117485265D01*
X117594847Y-117485265D01*
X117729296Y-117810657D01*
X117785886Y-117867346D01*
X117775154Y-117893190D01*
X117774847Y-118245265D01*
X117909296Y-118570657D01*
X118158033Y-118819829D01*
X118483190Y-118954846D01*
X118835265Y-118955153D01*
X119160657Y-118820704D01*
X119409829Y-118571967D01*
X119544846Y-118246810D01*
X119545153Y-117894735D01*
X119421415Y-117595265D01*
X120704847Y-117595265D01*
X120839296Y-117920657D01*
X121088033Y-118169829D01*
X121413190Y-118304846D01*
X121765265Y-118305153D01*
X122018352Y-118200580D01*
X121905154Y-118473190D01*
X121904847Y-118825265D01*
X122039296Y-119150657D01*
X122288033Y-119399829D01*
X122613190Y-119534846D01*
X122965265Y-119535153D01*
X123290657Y-119400704D01*
X123470112Y-119221562D01*
X123668033Y-119419829D01*
X123993190Y-119554846D01*
X124345265Y-119555153D01*
X124670657Y-119420704D01*
X124919829Y-119171967D01*
X125054846Y-118846810D01*
X125055153Y-118494735D01*
X124920704Y-118169343D01*
X124671967Y-117920171D01*
X124346810Y-117785154D01*
X123994735Y-117784847D01*
X123669343Y-117919296D01*
X123489888Y-118098438D01*
X123291967Y-117900171D01*
X122966810Y-117765154D01*
X122614735Y-117764847D01*
X122361648Y-117869420D01*
X122474846Y-117596810D01*
X122475153Y-117244735D01*
X122340704Y-116919343D01*
X122091967Y-116670171D01*
X121766810Y-116535154D01*
X121414735Y-116534847D01*
X121089343Y-116669296D01*
X120840171Y-116918033D01*
X120705154Y-117243190D01*
X120704847Y-117595265D01*
X119421415Y-117595265D01*
X119410704Y-117569343D01*
X119354114Y-117512654D01*
X119364846Y-117486810D01*
X119365153Y-117134735D01*
X119230704Y-116809343D01*
X118981967Y-116560171D01*
X118656810Y-116425154D01*
X118304735Y-116424847D01*
X117979343Y-116559296D01*
X117730171Y-116808033D01*
X117595154Y-117133190D01*
X117594847Y-117485265D01*
X104177303Y-117485265D01*
X104047592Y-117171343D01*
X103700485Y-116823629D01*
X103246734Y-116635215D01*
X102755421Y-116634786D01*
X102301343Y-116822408D01*
X102158392Y-116965109D01*
X102064090Y-116818559D01*
X101851890Y-116673569D01*
X101600000Y-116622560D01*
X100685000Y-116622560D01*
X100685000Y-115155000D01*
X100714250Y-115155000D01*
X100873000Y-114996250D01*
X100873000Y-113997000D01*
X100853000Y-113997000D01*
X100853000Y-113743000D01*
X100873000Y-113743000D01*
X100873000Y-112743750D01*
X101127000Y-112743750D01*
X101127000Y-113743000D01*
X101147000Y-113743000D01*
X101147000Y-113997000D01*
X101127000Y-113997000D01*
X101127000Y-114996250D01*
X101285750Y-115155000D01*
X101776309Y-115155000D01*
X102009698Y-115058327D01*
X102188327Y-114879699D01*
X102189480Y-114876917D01*
X102271155Y-114958735D01*
X102743276Y-115154777D01*
X103254481Y-115155223D01*
X103726943Y-114960005D01*
X104000160Y-114687266D01*
X104271155Y-114958735D01*
X104743276Y-115154777D01*
X105254481Y-115155223D01*
X105726943Y-114960005D01*
X106088735Y-114598845D01*
X106284777Y-114126724D01*
X106284839Y-114055265D01*
X110314847Y-114055265D01*
X110449296Y-114380657D01*
X110698033Y-114629829D01*
X110976498Y-114745458D01*
X110915154Y-114893190D01*
X110914847Y-115245265D01*
X111049296Y-115570657D01*
X111298033Y-115819829D01*
X111623190Y-115954846D01*
X111975265Y-115955153D01*
X112300657Y-115820704D01*
X112536507Y-115585265D01*
X118364847Y-115585265D01*
X118499296Y-115910657D01*
X118748033Y-116159829D01*
X119073190Y-116294846D01*
X119425265Y-116295153D01*
X119750657Y-116160704D01*
X119999829Y-115911967D01*
X120085659Y-115705265D01*
X121284847Y-115705265D01*
X121419296Y-116030657D01*
X121668033Y-116279829D01*
X121993190Y-116414846D01*
X122345265Y-116415153D01*
X122561046Y-116325994D01*
X122823190Y-116434846D01*
X122984969Y-116434987D01*
X122984847Y-116575265D01*
X123119296Y-116900657D01*
X123368033Y-117149829D01*
X123693190Y-117284846D01*
X124045265Y-117285153D01*
X124069195Y-117275265D01*
X125024847Y-117275265D01*
X125159296Y-117600657D01*
X125408033Y-117849829D01*
X125733190Y-117984846D01*
X126085265Y-117985153D01*
X126410657Y-117850704D01*
X126659829Y-117601967D01*
X126670916Y-117575265D01*
X128374847Y-117575265D01*
X128509296Y-117900657D01*
X128758033Y-118149829D01*
X129083190Y-118284846D01*
X129435265Y-118285153D01*
X129760657Y-118150704D01*
X129767920Y-118143453D01*
X129635154Y-118463190D01*
X129634847Y-118815265D01*
X129769296Y-119140657D01*
X130018033Y-119389829D01*
X130343190Y-119524846D01*
X130695265Y-119525153D01*
X131020657Y-119390704D01*
X131269829Y-119141967D01*
X131351638Y-118944949D01*
X131585265Y-118945153D01*
X131910657Y-118810704D01*
X132159829Y-118561967D01*
X132294846Y-118236810D01*
X132295153Y-117884735D01*
X132160704Y-117559343D01*
X131911967Y-117310171D01*
X131586810Y-117175154D01*
X131234735Y-117174847D01*
X130909343Y-117309296D01*
X130660171Y-117558033D01*
X130578362Y-117755051D01*
X130344735Y-117754847D01*
X130019343Y-117889296D01*
X130012080Y-117896547D01*
X130144846Y-117576810D01*
X130145153Y-117224735D01*
X130010704Y-116899343D01*
X129996522Y-116885137D01*
X130015265Y-116885153D01*
X130340657Y-116750704D01*
X130589829Y-116501967D01*
X130724846Y-116176810D01*
X130725153Y-115824735D01*
X130692317Y-115745265D01*
X132204847Y-115745265D01*
X132339296Y-116070657D01*
X132588033Y-116319829D01*
X132913190Y-116454846D01*
X133265265Y-116455153D01*
X133590657Y-116320704D01*
X133660741Y-116250742D01*
X133535154Y-116553190D01*
X133534847Y-116905265D01*
X133669296Y-117230657D01*
X133768348Y-117329882D01*
X133479343Y-117449296D01*
X133230171Y-117698033D01*
X133095154Y-118023190D01*
X133094847Y-118375265D01*
X133229296Y-118700657D01*
X133478033Y-118949829D01*
X133803190Y-119084846D01*
X134155265Y-119085153D01*
X134480657Y-118950704D01*
X134729829Y-118701967D01*
X134864846Y-118376810D01*
X134865153Y-118024735D01*
X134730704Y-117699343D01*
X134631652Y-117600118D01*
X134920657Y-117480704D01*
X135169829Y-117231967D01*
X135304846Y-116906810D01*
X135305153Y-116554735D01*
X135234961Y-116384856D01*
X135575265Y-116385153D01*
X135900657Y-116250704D01*
X136149829Y-116001967D01*
X136231506Y-115805265D01*
X137064847Y-115805265D01*
X137199296Y-116130657D01*
X137448033Y-116379829D01*
X137773190Y-116514846D01*
X138125265Y-116515153D01*
X138450657Y-116380704D01*
X138699829Y-116131967D01*
X138834846Y-115806810D01*
X138835153Y-115454735D01*
X138700704Y-115129343D01*
X138451967Y-114880171D01*
X138126810Y-114745154D01*
X137774735Y-114744847D01*
X137449343Y-114879296D01*
X137200171Y-115128033D01*
X137065154Y-115453190D01*
X137064847Y-115805265D01*
X136231506Y-115805265D01*
X136284846Y-115676810D01*
X136285153Y-115324735D01*
X136150704Y-114999343D01*
X135901967Y-114750171D01*
X135576810Y-114615154D01*
X135224735Y-114614847D01*
X134899343Y-114749296D01*
X134650171Y-114998033D01*
X134515154Y-115323190D01*
X134514847Y-115675265D01*
X134585039Y-115845144D01*
X134244735Y-115844847D01*
X133919343Y-115979296D01*
X133849259Y-116049258D01*
X133974846Y-115746810D01*
X133975153Y-115394735D01*
X133840704Y-115069343D01*
X133591967Y-114820171D01*
X133266810Y-114685154D01*
X132914735Y-114684847D01*
X132589343Y-114819296D01*
X132340171Y-115068033D01*
X132205154Y-115393190D01*
X132204847Y-115745265D01*
X130692317Y-115745265D01*
X130590704Y-115499343D01*
X130341967Y-115250171D01*
X130016810Y-115115154D01*
X129664735Y-115114847D01*
X129339343Y-115249296D01*
X129090171Y-115498033D01*
X128955154Y-115823190D01*
X128954847Y-116175265D01*
X129089296Y-116500657D01*
X129103478Y-116514863D01*
X129084735Y-116514847D01*
X128759343Y-116649296D01*
X128510171Y-116898033D01*
X128375154Y-117223190D01*
X128374847Y-117575265D01*
X126670916Y-117575265D01*
X126794846Y-117276810D01*
X126795153Y-116924735D01*
X126660704Y-116599343D01*
X126411967Y-116350171D01*
X126086810Y-116215154D01*
X125734735Y-116214847D01*
X125409343Y-116349296D01*
X125160171Y-116598033D01*
X125025154Y-116923190D01*
X125024847Y-117275265D01*
X124069195Y-117275265D01*
X124370657Y-117150704D01*
X124619829Y-116901967D01*
X124754846Y-116576810D01*
X124755153Y-116224735D01*
X124620704Y-115899343D01*
X124371967Y-115650171D01*
X124046810Y-115515154D01*
X123885031Y-115515013D01*
X123885153Y-115374735D01*
X123750704Y-115049343D01*
X123501967Y-114800171D01*
X123176810Y-114665154D01*
X122824735Y-114664847D01*
X122608954Y-114754006D01*
X122346810Y-114645154D01*
X121994735Y-114644847D01*
X121669343Y-114779296D01*
X121420171Y-115028033D01*
X121285154Y-115353190D01*
X121284847Y-115705265D01*
X120085659Y-115705265D01*
X120134846Y-115586810D01*
X120135153Y-115234735D01*
X120000704Y-114909343D01*
X119751967Y-114660171D01*
X119426810Y-114525154D01*
X119074735Y-114524847D01*
X118749343Y-114659296D01*
X118500171Y-114908033D01*
X118365154Y-115233190D01*
X118364847Y-115585265D01*
X112536507Y-115585265D01*
X112549829Y-115571967D01*
X112684846Y-115246810D01*
X112685153Y-114894735D01*
X112550704Y-114569343D01*
X112356965Y-114375265D01*
X140204847Y-114375265D01*
X140339296Y-114700657D01*
X140588033Y-114949829D01*
X140913190Y-115084846D01*
X141265265Y-115085153D01*
X141590657Y-114950704D01*
X141839829Y-114701967D01*
X141974846Y-114376810D01*
X141975153Y-114024735D01*
X141840704Y-113699343D01*
X141591967Y-113450171D01*
X141266810Y-113315154D01*
X140914735Y-113314847D01*
X140589343Y-113449296D01*
X140340171Y-113698033D01*
X140205154Y-114023190D01*
X140204847Y-114375265D01*
X112356965Y-114375265D01*
X112301967Y-114320171D01*
X112023502Y-114204542D01*
X112084846Y-114056810D01*
X112085153Y-113704735D01*
X111950704Y-113379343D01*
X111701967Y-113130171D01*
X111376810Y-112995154D01*
X111024735Y-112994847D01*
X110699343Y-113129296D01*
X110450171Y-113378033D01*
X110315154Y-113703190D01*
X110314847Y-114055265D01*
X106284839Y-114055265D01*
X106285223Y-113615519D01*
X106090005Y-113143057D01*
X105728845Y-112781265D01*
X105642148Y-112745265D01*
X115384847Y-112745265D01*
X115519296Y-113070657D01*
X115768033Y-113319829D01*
X116093190Y-113454846D01*
X116445265Y-113455153D01*
X116770657Y-113320704D01*
X117019829Y-113071967D01*
X117154846Y-112746810D01*
X117155153Y-112394735D01*
X117101658Y-112265265D01*
X137934847Y-112265265D01*
X138069296Y-112590657D01*
X138318033Y-112839829D01*
X138643190Y-112974846D01*
X138995265Y-112975153D01*
X139320657Y-112840704D01*
X139569829Y-112591967D01*
X139704846Y-112266810D01*
X139705153Y-111914735D01*
X139570704Y-111589343D01*
X139321967Y-111340171D01*
X138996810Y-111205154D01*
X138644735Y-111204847D01*
X138319343Y-111339296D01*
X138070171Y-111588033D01*
X137935154Y-111913190D01*
X137934847Y-112265265D01*
X117101658Y-112265265D01*
X117020704Y-112069343D01*
X116771967Y-111820171D01*
X116446810Y-111685154D01*
X116094735Y-111684847D01*
X115769343Y-111819296D01*
X115520171Y-112068033D01*
X115385154Y-112393190D01*
X115384847Y-112745265D01*
X105642148Y-112745265D01*
X105256724Y-112585223D01*
X104745519Y-112584777D01*
X104273057Y-112779995D01*
X103999840Y-113052734D01*
X103728845Y-112781265D01*
X103256724Y-112585223D01*
X102745519Y-112584777D01*
X102273057Y-112779995D01*
X102189580Y-112863326D01*
X102188327Y-112860301D01*
X102009698Y-112681673D01*
X101776309Y-112585000D01*
X101285750Y-112585000D01*
X101127000Y-112743750D01*
X100873000Y-112743750D01*
X100714250Y-112585000D01*
X100685000Y-112585000D01*
X100685000Y-111475265D01*
X105074847Y-111475265D01*
X105209296Y-111800657D01*
X105458033Y-112049829D01*
X105783190Y-112184846D01*
X106135265Y-112185153D01*
X106460657Y-112050704D01*
X106709829Y-111801967D01*
X106844846Y-111476810D01*
X106845153Y-111124735D01*
X106710704Y-110799343D01*
X106461967Y-110550171D01*
X106136810Y-110415154D01*
X105784735Y-110414847D01*
X105459343Y-110549296D01*
X105210171Y-110798033D01*
X105075154Y-111123190D01*
X105074847Y-111475265D01*
X100685000Y-111475265D01*
X100685000Y-110205265D01*
X113054847Y-110205265D01*
X113189296Y-110530657D01*
X113438033Y-110779829D01*
X113763190Y-110914846D01*
X113803381Y-110914881D01*
X113770171Y-110948033D01*
X113635154Y-111273190D01*
X113634847Y-111625265D01*
X113769296Y-111950657D01*
X114018033Y-112199829D01*
X114343190Y-112334846D01*
X114695265Y-112335153D01*
X115020657Y-112200704D01*
X115269829Y-111951967D01*
X115404846Y-111626810D01*
X115405153Y-111274735D01*
X115270704Y-110949343D01*
X115021967Y-110700171D01*
X114696810Y-110565154D01*
X114656619Y-110565119D01*
X114689829Y-110531967D01*
X114824846Y-110206810D01*
X114825153Y-109854735D01*
X114690704Y-109529343D01*
X114441967Y-109280171D01*
X114116810Y-109145154D01*
X113764735Y-109144847D01*
X113439343Y-109279296D01*
X113190171Y-109528033D01*
X113055154Y-109853190D01*
X113054847Y-110205265D01*
X100685000Y-110205265D01*
X100685000Y-109942438D01*
X100795370Y-109896721D01*
X100795371Y-109896720D01*
X100892698Y-109831688D01*
X101081690Y-109642696D01*
X101146720Y-109545372D01*
X101151278Y-109534368D01*
X101249002Y-109298441D01*
X101271838Y-109183636D01*
X101271838Y-109116170D01*
X101285000Y-109050000D01*
X101285000Y-108875265D01*
X105214847Y-108875265D01*
X105349296Y-109200657D01*
X105598033Y-109449829D01*
X105923190Y-109584846D01*
X106275265Y-109585153D01*
X106600657Y-109450704D01*
X106849829Y-109201967D01*
X106984846Y-108876810D01*
X106984951Y-108755265D01*
X124564847Y-108755265D01*
X124699296Y-109080657D01*
X124948033Y-109329829D01*
X125273190Y-109464846D01*
X125625265Y-109465153D01*
X125950657Y-109330704D01*
X126199829Y-109081967D01*
X126334846Y-108756810D01*
X126334847Y-108755265D01*
X133014847Y-108755265D01*
X133149296Y-109080657D01*
X133398033Y-109329829D01*
X133723190Y-109464846D01*
X134075265Y-109465153D01*
X134400657Y-109330704D01*
X134649829Y-109081967D01*
X134784846Y-108756810D01*
X134785153Y-108404735D01*
X134650704Y-108079343D01*
X134446983Y-107875265D01*
X139414847Y-107875265D01*
X139549296Y-108200657D01*
X139798033Y-108449829D01*
X140123190Y-108584846D01*
X140475265Y-108585153D01*
X140800657Y-108450704D01*
X141049829Y-108201967D01*
X141184846Y-107876810D01*
X141185153Y-107524735D01*
X141050704Y-107199343D01*
X140801967Y-106950171D01*
X140476810Y-106815154D01*
X140124735Y-106814847D01*
X139799343Y-106949296D01*
X139550171Y-107198033D01*
X139415154Y-107523190D01*
X139414847Y-107875265D01*
X134446983Y-107875265D01*
X134401967Y-107830171D01*
X134076810Y-107695154D01*
X133724735Y-107694847D01*
X133399343Y-107829296D01*
X133150171Y-108078033D01*
X133015154Y-108403190D01*
X133014847Y-108755265D01*
X126334847Y-108755265D01*
X126335153Y-108404735D01*
X126200704Y-108079343D01*
X125951967Y-107830171D01*
X125626810Y-107695154D01*
X125274735Y-107694847D01*
X124949343Y-107829296D01*
X124700171Y-108078033D01*
X124565154Y-108403190D01*
X124564847Y-108755265D01*
X106984951Y-108755265D01*
X106985153Y-108524735D01*
X106850704Y-108199343D01*
X106601967Y-107950171D01*
X106276810Y-107815154D01*
X105924735Y-107814847D01*
X105599343Y-107949296D01*
X105350171Y-108198033D01*
X105215154Y-108523190D01*
X105214847Y-108875265D01*
X101285000Y-108875265D01*
X101285000Y-108785083D01*
X101385069Y-108785170D01*
X101747229Y-108635529D01*
X102024555Y-108358686D01*
X102089975Y-108201137D01*
X102154471Y-108357229D01*
X102431314Y-108634555D01*
X102793212Y-108784828D01*
X103185069Y-108785170D01*
X103547229Y-108635529D01*
X103824555Y-108358686D01*
X103974828Y-107996788D01*
X103975170Y-107604931D01*
X103825529Y-107242771D01*
X103548686Y-106965445D01*
X103186788Y-106815172D01*
X102794931Y-106814830D01*
X102432771Y-106964471D01*
X102155445Y-107241314D01*
X102090025Y-107398863D01*
X102025529Y-107242771D01*
X101748686Y-106965445D01*
X101386788Y-106815172D01*
X101285000Y-106815083D01*
X101285000Y-106550000D01*
X101271838Y-106483830D01*
X101271838Y-106416364D01*
X101269631Y-106405265D01*
X122214847Y-106405265D01*
X122349296Y-106730657D01*
X122598033Y-106979829D01*
X122923190Y-107114846D01*
X123275265Y-107115153D01*
X123600657Y-106980704D01*
X123849829Y-106731967D01*
X123984846Y-106406810D01*
X123985153Y-106054735D01*
X123960581Y-105995265D01*
X139864847Y-105995265D01*
X139999296Y-106320657D01*
X140248033Y-106569829D01*
X140573190Y-106704846D01*
X140925265Y-106705153D01*
X141250657Y-106570704D01*
X141479358Y-106342403D01*
X141499296Y-106390657D01*
X141748033Y-106639829D01*
X142073190Y-106774846D01*
X142425265Y-106775153D01*
X142750657Y-106640704D01*
X142999829Y-106391967D01*
X143134846Y-106066810D01*
X143135153Y-105714735D01*
X143000704Y-105389343D01*
X142751967Y-105140171D01*
X142426810Y-105005154D01*
X142074735Y-105004847D01*
X141749343Y-105139296D01*
X141520642Y-105367597D01*
X141500704Y-105319343D01*
X141251967Y-105070171D01*
X140926810Y-104935154D01*
X140574735Y-104934847D01*
X140249343Y-105069296D01*
X140000171Y-105318033D01*
X139865154Y-105643190D01*
X139864847Y-105995265D01*
X123960581Y-105995265D01*
X123850704Y-105729343D01*
X123601967Y-105480171D01*
X123276810Y-105345154D01*
X122924735Y-105344847D01*
X122599343Y-105479296D01*
X122350171Y-105728033D01*
X122215154Y-106053190D01*
X122214847Y-106405265D01*
X101269631Y-106405265D01*
X101249002Y-106301559D01*
X101146721Y-106054630D01*
X101146720Y-106054629D01*
X101146720Y-106054628D01*
X101081688Y-105957302D01*
X100892696Y-105768310D01*
X100795371Y-105703280D01*
X100795370Y-105703279D01*
X100685000Y-105657562D01*
X100685000Y-103761025D01*
X101418581Y-103761025D01*
X101535601Y-104043446D01*
X102199663Y-104295018D01*
X102909448Y-104273314D01*
X103464399Y-104043446D01*
X103581419Y-103761025D01*
X102500000Y-102679605D01*
X101418581Y-103761025D01*
X100685000Y-103761025D01*
X100685000Y-102567467D01*
X100712068Y-102431388D01*
X100726686Y-102909448D01*
X100956554Y-103464399D01*
X101238975Y-103581419D01*
X102320395Y-102500000D01*
X102679605Y-102500000D01*
X103761025Y-103581419D01*
X104043446Y-103464399D01*
X104295018Y-102800337D01*
X104273314Y-102090552D01*
X104043446Y-101535601D01*
X103761025Y-101418581D01*
X102679605Y-102500000D01*
X102320395Y-102500000D01*
X102306252Y-102485858D01*
X102485858Y-102306252D01*
X102500000Y-102320395D01*
X103581419Y-101238975D01*
X103464399Y-100956554D01*
X102800337Y-100704982D01*
X102406461Y-100717026D01*
X102567467Y-100685000D01*
X104923562Y-100685000D01*
X104895215Y-100753266D01*
M02*
