G04 #@! TF.FileFunction,Soldermask,Bot*
%FSLAX46Y46*%
G04 Gerber Fmt 4.6, Leading zero omitted, Abs format (unit mm)*
G04 Created by KiCad (PCBNEW 4.0.6) date 03/11/19 23:36:44*
%MOMM*%
%LPD*%
G01*
G04 APERTURE LIST*
%ADD10C,0.100000*%
%ADD11C,0.700000*%
%ADD12R,1.300000X1.300000*%
%ADD13C,1.300000*%
%ADD14C,0.900000*%
%ADD15R,0.700000X1.500000*%
%ADD16R,1.000000X0.800000*%
%ADD17C,1.200000*%
%ADD18R,1.200000X1.200000*%
%ADD19C,2.300000*%
%ADD20R,1.524000X0.458000*%
%ADD21R,0.600000X0.500000*%
%ADD22C,0.500000*%
%ADD23R,0.500000X0.600000*%
G04 APERTURE END LIST*
D10*
D11*
X102990000Y-107800000D03*
X101190000Y-107800000D03*
D12*
X139100000Y-139900000D03*
D13*
X141100000Y-139900000D03*
D14*
X138500000Y-103075000D03*
X141500000Y-103075000D03*
D15*
X137750000Y-104825000D03*
X140750000Y-104825000D03*
X142250000Y-104825000D03*
D16*
X136350000Y-101975000D03*
X143650000Y-101975000D03*
X143650000Y-104175000D03*
X136350000Y-104175000D03*
D17*
X143870000Y-149000000D03*
X143870000Y-147000000D03*
X141870000Y-147000000D03*
X141870000Y-149000000D03*
D18*
X117870000Y-149000000D03*
D17*
X117870000Y-147000000D03*
X119870000Y-149000000D03*
X119870000Y-147000000D03*
X121870000Y-149000000D03*
X121870000Y-147000000D03*
X123870000Y-149000000D03*
X123870000Y-147000000D03*
X125870000Y-149000000D03*
X125870000Y-147000000D03*
X127870000Y-149000000D03*
X127870000Y-147000000D03*
X129870000Y-149000000D03*
X129870000Y-147000000D03*
X131870000Y-149000000D03*
X131870000Y-147000000D03*
X133870000Y-149000000D03*
X133870000Y-147000000D03*
X135870000Y-149000000D03*
X135870000Y-147000000D03*
X137870000Y-149000000D03*
X137870000Y-147000000D03*
X139870000Y-149000000D03*
X139870000Y-147000000D03*
X106130000Y-101000000D03*
X106130000Y-103000000D03*
X108130000Y-103000000D03*
X108130000Y-101000000D03*
D18*
X132130000Y-101000000D03*
D17*
X132130000Y-103000000D03*
X130130000Y-101000000D03*
X130130000Y-103000000D03*
X128130000Y-101000000D03*
X128130000Y-103000000D03*
X126130000Y-101000000D03*
X126130000Y-103000000D03*
X124130000Y-101000000D03*
X124130000Y-103000000D03*
X122130000Y-101000000D03*
X122130000Y-103000000D03*
X120130000Y-101000000D03*
X120130000Y-103000000D03*
X118130000Y-101000000D03*
X118130000Y-103000000D03*
X116130000Y-101000000D03*
X116130000Y-103000000D03*
X114130000Y-101000000D03*
X114130000Y-103000000D03*
X112130000Y-101000000D03*
X112130000Y-103000000D03*
X110130000Y-101000000D03*
X110130000Y-103000000D03*
D19*
X147500000Y-147500000D03*
X102500000Y-147500000D03*
X147500000Y-102500000D03*
X102500000Y-102500000D03*
D20*
X139840000Y-112600000D03*
X139840000Y-113400000D03*
X139840000Y-114200000D03*
X139840000Y-115000000D03*
X139840000Y-115800000D03*
X139840000Y-116600000D03*
X139840000Y-117400000D03*
X139840000Y-118200000D03*
X139840000Y-119000000D03*
X139840000Y-119800000D03*
X139840000Y-120600000D03*
X139840000Y-121400000D03*
X139840000Y-122200000D03*
X139840000Y-123000000D03*
X139840000Y-123800000D03*
X139840000Y-124600000D03*
X139840000Y-125400000D03*
X139840000Y-126200000D03*
X139840000Y-127000000D03*
X139840000Y-127800000D03*
X139840000Y-128600000D03*
X139840000Y-129400000D03*
X139840000Y-130200000D03*
X139840000Y-131000000D03*
X139840000Y-131800000D03*
X139840000Y-132600000D03*
X139840000Y-133400000D03*
X128160000Y-133400000D03*
X128160000Y-132600000D03*
X128160000Y-131800000D03*
X128160000Y-131000000D03*
X128160000Y-130200000D03*
X128160000Y-129400000D03*
X128160000Y-128600000D03*
X128160000Y-127800000D03*
X128160000Y-127000000D03*
X128160000Y-126200000D03*
X128160000Y-125400000D03*
X128160000Y-124600000D03*
X128160000Y-123800000D03*
X128160000Y-123000000D03*
X128160000Y-122200000D03*
X128160000Y-121400000D03*
X128160000Y-120600000D03*
X128160000Y-119800000D03*
X128160000Y-119000000D03*
X128160000Y-118200000D03*
X128160000Y-117400000D03*
X128160000Y-116600000D03*
X128160000Y-115800000D03*
X128160000Y-115000000D03*
X128160000Y-114200000D03*
X128160000Y-113400000D03*
X128160000Y-112600000D03*
D17*
X101000000Y-143870000D03*
X103000000Y-143870000D03*
X103000000Y-141870000D03*
X101000000Y-141870000D03*
D18*
X101000000Y-117870000D03*
D17*
X103000000Y-117870000D03*
X101000000Y-119870000D03*
X103000000Y-119870000D03*
X101000000Y-121870000D03*
X103000000Y-121870000D03*
X101000000Y-123870000D03*
X103000000Y-123870000D03*
X101000000Y-125870000D03*
X103000000Y-125870000D03*
X101000000Y-127870000D03*
X103000000Y-127870000D03*
X101000000Y-129870000D03*
X103000000Y-129870000D03*
X101000000Y-131870000D03*
X103000000Y-131870000D03*
X101000000Y-133870000D03*
X103000000Y-133870000D03*
X101000000Y-135870000D03*
X103000000Y-135870000D03*
X101000000Y-137870000D03*
X103000000Y-137870000D03*
X101000000Y-139870000D03*
X103000000Y-139870000D03*
D21*
X142090000Y-112600000D03*
X143190000Y-112600000D03*
D12*
X101000000Y-113870000D03*
D13*
X103000000Y-113870000D03*
X105000000Y-113870000D03*
X114100000Y-149000000D03*
D12*
X106100000Y-149000000D03*
D13*
X108100000Y-149000000D03*
X110100000Y-149000000D03*
X112100000Y-149000000D03*
D22*
X144790000Y-140110000D03*
X144790000Y-136110000D03*
D17*
X149000000Y-106130000D03*
X147000000Y-106130000D03*
X147000000Y-108130000D03*
X149000000Y-108130000D03*
D18*
X149000000Y-132130000D03*
D17*
X147000000Y-132130000D03*
X149000000Y-130130000D03*
X147000000Y-130130000D03*
X149000000Y-128130000D03*
X147000000Y-128130000D03*
X149000000Y-126130000D03*
X147000000Y-126130000D03*
X149000000Y-124130000D03*
X147000000Y-124130000D03*
X149000000Y-122130000D03*
X147000000Y-122130000D03*
X149000000Y-120130000D03*
X147000000Y-120130000D03*
X149000000Y-118130000D03*
X147000000Y-118130000D03*
X149000000Y-116130000D03*
X147000000Y-116130000D03*
X149000000Y-114130000D03*
X147000000Y-114130000D03*
X149000000Y-112130000D03*
X147000000Y-112130000D03*
X149000000Y-110130000D03*
X147000000Y-110130000D03*
D23*
X142120000Y-119000000D03*
X142120000Y-120100000D03*
X142120000Y-123000000D03*
X142120000Y-121900000D03*
D21*
X142090000Y-133400000D03*
X143190000Y-133400000D03*
X125910000Y-121400000D03*
X124810000Y-121400000D03*
X125910000Y-116600000D03*
X124810000Y-116600000D03*
X142090000Y-114200000D03*
X143190000Y-114200000D03*
M02*
