G04 #@! TF.FileFunction,Legend,Bot*
%FSLAX46Y46*%
G04 Gerber Fmt 4.6, Leading zero omitted, Abs format (unit mm)*
G04 Created by KiCad (PCBNEW 4.0.6) date 03/11/19 23:36:44*
%MOMM*%
%LPD*%
G01*
G04 APERTURE LIST*
%ADD10C,0.100000*%
%ADD11C,0.070000*%
%ADD12C,0.150000*%
%ADD13C,0.500000*%
G04 APERTURE END LIST*
D10*
D11*
X137886191Y-100696190D02*
X137933810Y-100696190D01*
X137981429Y-100720000D01*
X138005238Y-100743810D01*
X138029048Y-100791429D01*
X138052857Y-100886667D01*
X138052857Y-101005714D01*
X138029048Y-101100952D01*
X138005238Y-101148571D01*
X137981429Y-101172381D01*
X137933810Y-101196190D01*
X137886191Y-101196190D01*
X137838572Y-101172381D01*
X137814762Y-101148571D01*
X137790953Y-101100952D01*
X137767143Y-101005714D01*
X137767143Y-100886667D01*
X137790953Y-100791429D01*
X137814762Y-100743810D01*
X137838572Y-100720000D01*
X137886191Y-100696190D01*
X142632857Y-101196190D02*
X142347143Y-101196190D01*
X142490000Y-101196190D02*
X142490000Y-100696190D01*
X142442381Y-100767619D01*
X142394762Y-100815238D01*
X142347143Y-100839048D01*
D12*
X121709049Y-145602381D02*
X121709049Y-144602381D01*
X121709049Y-145554762D02*
X121804287Y-145602381D01*
X121994764Y-145602381D01*
X122090002Y-145554762D01*
X122137621Y-145507143D01*
X122185240Y-145411905D01*
X122185240Y-145126190D01*
X122137621Y-145030952D01*
X122090002Y-144983333D01*
X121994764Y-144935714D01*
X121804287Y-144935714D01*
X121709049Y-144983333D01*
X120851906Y-145554762D02*
X120947144Y-145602381D01*
X121137621Y-145602381D01*
X121232859Y-145554762D01*
X121280478Y-145459524D01*
X121280478Y-145078571D01*
X121232859Y-144983333D01*
X121137621Y-144935714D01*
X120947144Y-144935714D01*
X120851906Y-144983333D01*
X120804287Y-145078571D01*
X120804287Y-145173810D01*
X121280478Y-145269048D01*
X120423335Y-145554762D02*
X120328097Y-145602381D01*
X120137621Y-145602381D01*
X120042382Y-145554762D01*
X119994763Y-145459524D01*
X119994763Y-145411905D01*
X120042382Y-145316667D01*
X120137621Y-145269048D01*
X120280478Y-145269048D01*
X120375716Y-145221429D01*
X120423335Y-145126190D01*
X120423335Y-145078571D01*
X120375716Y-144983333D01*
X120280478Y-144935714D01*
X120137621Y-144935714D01*
X120042382Y-144983333D01*
X119566192Y-145602381D02*
X119566192Y-144935714D01*
X119566192Y-144602381D02*
X119613811Y-144650000D01*
X119566192Y-144697619D01*
X119518573Y-144650000D01*
X119566192Y-144602381D01*
X119566192Y-144697619D01*
X118661430Y-144935714D02*
X118661430Y-145745238D01*
X118709049Y-145840476D01*
X118756668Y-145888095D01*
X118851907Y-145935714D01*
X118994764Y-145935714D01*
X119090002Y-145888095D01*
X118661430Y-145554762D02*
X118756668Y-145602381D01*
X118947145Y-145602381D01*
X119042383Y-145554762D01*
X119090002Y-145507143D01*
X119137621Y-145411905D01*
X119137621Y-145126190D01*
X119090002Y-145030952D01*
X119042383Y-144983333D01*
X118947145Y-144935714D01*
X118756668Y-144935714D01*
X118661430Y-144983333D01*
X118185240Y-144935714D02*
X118185240Y-145602381D01*
X118185240Y-145030952D02*
X118137621Y-144983333D01*
X118042383Y-144935714D01*
X117899525Y-144935714D01*
X117804287Y-144983333D01*
X117756668Y-145078571D01*
X117756668Y-145602381D01*
X116899525Y-145554762D02*
X116994763Y-145602381D01*
X117185240Y-145602381D01*
X117280478Y-145554762D01*
X117328097Y-145459524D01*
X117328097Y-145078571D01*
X117280478Y-144983333D01*
X117185240Y-144935714D01*
X116994763Y-144935714D01*
X116899525Y-144983333D01*
X116851906Y-145078571D01*
X116851906Y-145173810D01*
X117328097Y-145269048D01*
X115994763Y-145602381D02*
X115994763Y-144602381D01*
X115994763Y-145554762D02*
X116090001Y-145602381D01*
X116280478Y-145602381D01*
X116375716Y-145554762D01*
X116423335Y-145507143D01*
X116470954Y-145411905D01*
X116470954Y-145126190D01*
X116423335Y-145030952D01*
X116375716Y-144983333D01*
X116280478Y-144935714D01*
X116090001Y-144935714D01*
X115994763Y-144983333D01*
X114756668Y-145602381D02*
X114756668Y-144602381D01*
X114756668Y-144983333D02*
X114661430Y-144935714D01*
X114470953Y-144935714D01*
X114375715Y-144983333D01*
X114328096Y-145030952D01*
X114280477Y-145126190D01*
X114280477Y-145411905D01*
X114328096Y-145507143D01*
X114375715Y-145554762D01*
X114470953Y-145602381D01*
X114661430Y-145602381D01*
X114756668Y-145554762D01*
X113947144Y-144935714D02*
X113709049Y-145602381D01*
X113470953Y-144935714D02*
X113709049Y-145602381D01*
X113804287Y-145840476D01*
X113851906Y-145888095D01*
X113947144Y-145935714D01*
X112423334Y-144935714D02*
X112185239Y-145602381D01*
X111947143Y-144935714D01*
X111137619Y-145602381D02*
X111137619Y-145078571D01*
X111185238Y-144983333D01*
X111280476Y-144935714D01*
X111470953Y-144935714D01*
X111566191Y-144983333D01*
X111137619Y-145554762D02*
X111232857Y-145602381D01*
X111470953Y-145602381D01*
X111566191Y-145554762D01*
X111613810Y-145459524D01*
X111613810Y-145364286D01*
X111566191Y-145269048D01*
X111470953Y-145221429D01*
X111232857Y-145221429D01*
X111137619Y-145173810D01*
X110709048Y-145554762D02*
X110613810Y-145602381D01*
X110423334Y-145602381D01*
X110328095Y-145554762D01*
X110280476Y-145459524D01*
X110280476Y-145411905D01*
X110328095Y-145316667D01*
X110423334Y-145269048D01*
X110566191Y-145269048D01*
X110661429Y-145221429D01*
X110709048Y-145126190D01*
X110709048Y-145078571D01*
X110661429Y-144983333D01*
X110566191Y-144935714D01*
X110423334Y-144935714D01*
X110328095Y-144983333D01*
X109994762Y-144935714D02*
X109613810Y-144935714D01*
X109851905Y-144602381D02*
X109851905Y-145459524D01*
X109804286Y-145554762D01*
X109709048Y-145602381D01*
X109613810Y-145602381D01*
X109328095Y-145554762D02*
X109232857Y-145602381D01*
X109042381Y-145602381D01*
X108947142Y-145554762D01*
X108899523Y-145459524D01*
X108899523Y-145411905D01*
X108947142Y-145316667D01*
X109042381Y-145269048D01*
X109185238Y-145269048D01*
X109280476Y-145221429D01*
X109328095Y-145126190D01*
X109328095Y-145078571D01*
X109280476Y-144983333D01*
X109185238Y-144935714D01*
X109042381Y-144935714D01*
X108947142Y-144983333D01*
X108470952Y-145602381D02*
X108470952Y-144602381D01*
X108375714Y-145221429D02*
X108089999Y-145602381D01*
X108089999Y-144935714D02*
X108470952Y-145316667D01*
X107756666Y-144935714D02*
X107518571Y-145602381D01*
X107280475Y-144935714D02*
X107518571Y-145602381D01*
X107613809Y-145840476D01*
X107661428Y-145888095D01*
X107756666Y-145935714D01*
X106756666Y-145602381D02*
X106851904Y-145554762D01*
X106899523Y-145459524D01*
X106899523Y-144602381D01*
X105947141Y-145602381D02*
X105947141Y-145078571D01*
X105994760Y-144983333D01*
X106089998Y-144935714D01*
X106280475Y-144935714D01*
X106375713Y-144983333D01*
X105947141Y-145554762D02*
X106042379Y-145602381D01*
X106280475Y-145602381D01*
X106375713Y-145554762D01*
X106423332Y-145459524D01*
X106423332Y-145364286D01*
X106375713Y-145269048D01*
X106280475Y-145221429D01*
X106042379Y-145221429D01*
X105947141Y-145173810D01*
X105470951Y-145602381D02*
X105470951Y-144602381D01*
X105470951Y-144983333D02*
X105375713Y-144935714D01*
X105185236Y-144935714D01*
X105089998Y-144983333D01*
X105042379Y-145030952D01*
X104994760Y-145126190D01*
X104994760Y-145411905D01*
X105042379Y-145507143D01*
X105089998Y-145554762D01*
X105185236Y-145602381D01*
X105375713Y-145602381D01*
X105470951Y-145554762D01*
X118696191Y-143315714D02*
X118458096Y-143982381D01*
X118220000Y-143315714D01*
X117410476Y-143982381D02*
X117410476Y-143458571D01*
X117458095Y-143363333D01*
X117553333Y-143315714D01*
X117743810Y-143315714D01*
X117839048Y-143363333D01*
X117410476Y-143934762D02*
X117505714Y-143982381D01*
X117743810Y-143982381D01*
X117839048Y-143934762D01*
X117886667Y-143839524D01*
X117886667Y-143744286D01*
X117839048Y-143649048D01*
X117743810Y-143601429D01*
X117505714Y-143601429D01*
X117410476Y-143553810D01*
X116981905Y-143934762D02*
X116886667Y-143982381D01*
X116696191Y-143982381D01*
X116600952Y-143934762D01*
X116553333Y-143839524D01*
X116553333Y-143791905D01*
X116600952Y-143696667D01*
X116696191Y-143649048D01*
X116839048Y-143649048D01*
X116934286Y-143601429D01*
X116981905Y-143506190D01*
X116981905Y-143458571D01*
X116934286Y-143363333D01*
X116839048Y-143315714D01*
X116696191Y-143315714D01*
X116600952Y-143363333D01*
X116267619Y-143315714D02*
X115886667Y-143315714D01*
X116124762Y-142982381D02*
X116124762Y-143839524D01*
X116077143Y-143934762D01*
X115981905Y-143982381D01*
X115886667Y-143982381D01*
X115600952Y-143934762D02*
X115505714Y-143982381D01*
X115315238Y-143982381D01*
X115219999Y-143934762D01*
X115172380Y-143839524D01*
X115172380Y-143791905D01*
X115219999Y-143696667D01*
X115315238Y-143649048D01*
X115458095Y-143649048D01*
X115553333Y-143601429D01*
X115600952Y-143506190D01*
X115600952Y-143458571D01*
X115553333Y-143363333D01*
X115458095Y-143315714D01*
X115315238Y-143315714D01*
X115219999Y-143363333D01*
X114743809Y-143982381D02*
X114743809Y-142982381D01*
X114648571Y-143601429D02*
X114362856Y-143982381D01*
X114362856Y-143315714D02*
X114743809Y-143696667D01*
X114029523Y-143315714D02*
X113791428Y-143982381D01*
X113553332Y-143315714D02*
X113791428Y-143982381D01*
X113886666Y-144220476D01*
X113934285Y-144268095D01*
X114029523Y-144315714D01*
X113267618Y-142982381D02*
X112648570Y-142982381D01*
X112981904Y-143363333D01*
X112839046Y-143363333D01*
X112743808Y-143410952D01*
X112696189Y-143458571D01*
X112648570Y-143553810D01*
X112648570Y-143791905D01*
X112696189Y-143887143D01*
X112743808Y-143934762D01*
X112839046Y-143982381D01*
X113124761Y-143982381D01*
X113219999Y-143934762D01*
X113267618Y-143887143D01*
X112267618Y-143077619D02*
X112219999Y-143030000D01*
X112124761Y-142982381D01*
X111886665Y-142982381D01*
X111791427Y-143030000D01*
X111743808Y-143077619D01*
X111696189Y-143172857D01*
X111696189Y-143268095D01*
X111743808Y-143410952D01*
X112315237Y-143982381D01*
X111696189Y-143982381D01*
X110600951Y-143315714D02*
X110362856Y-143982381D01*
X110124760Y-143315714D01*
X109219998Y-143982381D02*
X109791427Y-143982381D01*
X109505713Y-143982381D02*
X109505713Y-142982381D01*
X109600951Y-143125238D01*
X109696189Y-143220476D01*
X109791427Y-143268095D01*
X108791427Y-143887143D02*
X108743808Y-143934762D01*
X108791427Y-143982381D01*
X108839046Y-143934762D01*
X108791427Y-143887143D01*
X108791427Y-143982381D01*
X107791427Y-143982381D02*
X108362856Y-143982381D01*
X108077142Y-143982381D02*
X108077142Y-142982381D01*
X108172380Y-143125238D01*
X108267618Y-143220476D01*
X108362856Y-143268095D01*
X140750000Y-102075000D02*
X140750000Y-101775000D01*
X139250000Y-102075000D02*
X139250000Y-101775000D01*
X141400000Y-104375000D02*
X141600000Y-104375000D01*
X138600000Y-100475000D02*
X138800000Y-100275000D01*
X139900000Y-100475000D02*
X139700000Y-100275000D01*
X138600000Y-101775000D02*
X138600000Y-100475000D01*
X138800000Y-100275000D02*
X139700000Y-100275000D01*
X139900000Y-100475000D02*
X139900000Y-101775000D01*
X137150000Y-101775000D02*
X142850000Y-101775000D01*
X138400000Y-104375000D02*
X140100000Y-104375000D01*
X136650000Y-103475000D02*
X136650000Y-102675000D01*
X143350000Y-102675000D02*
X143350000Y-103475000D01*
D13*
X139970000Y-111360000D02*
G75*
G03X139970000Y-111360000I-200000J0D01*
G01*
D12*
X139100000Y-134110000D02*
X139100000Y-133750000D01*
X139100000Y-134110000D02*
X128900000Y-134110000D01*
X128900000Y-134110000D02*
X128900000Y-133750000D01*
X139100000Y-111890000D02*
X139100000Y-112250000D01*
X139100000Y-111890000D02*
X128900000Y-111890000D01*
X128900000Y-111890000D02*
X128900000Y-112250000D01*
X142890000Y-113075000D02*
X142390000Y-113075000D01*
X142390000Y-112125000D02*
X142890000Y-112125000D01*
X141645000Y-119800000D02*
X141645000Y-119300000D01*
X142595000Y-119300000D02*
X142595000Y-119800000D01*
X142595000Y-122200000D02*
X142595000Y-122700000D01*
X141645000Y-122700000D02*
X141645000Y-122200000D01*
X142890000Y-133875000D02*
X142390000Y-133875000D01*
X142390000Y-132925000D02*
X142890000Y-132925000D01*
X125110000Y-120925000D02*
X125610000Y-120925000D01*
X125610000Y-121875000D02*
X125110000Y-121875000D01*
X125110000Y-116125000D02*
X125610000Y-116125000D01*
X125610000Y-117075000D02*
X125110000Y-117075000D01*
X142890000Y-114675000D02*
X142390000Y-114675000D01*
X142390000Y-113725000D02*
X142890000Y-113725000D01*
D11*
X139660952Y-105192381D02*
X139589523Y-105216190D01*
X139470476Y-105216190D01*
X139422857Y-105192381D01*
X139399047Y-105168571D01*
X139375238Y-105120952D01*
X139375238Y-105073333D01*
X139399047Y-105025714D01*
X139422857Y-105001905D01*
X139470476Y-104978095D01*
X139565714Y-104954286D01*
X139613333Y-104930476D01*
X139637142Y-104906667D01*
X139660952Y-104859048D01*
X139660952Y-104811429D01*
X139637142Y-104763810D01*
X139613333Y-104740000D01*
X139565714Y-104716190D01*
X139446666Y-104716190D01*
X139375238Y-104740000D01*
X139208571Y-104716190D02*
X138899048Y-104716190D01*
X139065714Y-104906667D01*
X138994286Y-104906667D01*
X138946667Y-104930476D01*
X138922857Y-104954286D01*
X138899048Y-105001905D01*
X138899048Y-105120952D01*
X138922857Y-105168571D01*
X138946667Y-105192381D01*
X138994286Y-105216190D01*
X139137143Y-105216190D01*
X139184762Y-105192381D01*
X139208571Y-105168571D01*
X137266667Y-100474286D02*
X137195238Y-100498095D01*
X137171429Y-100521905D01*
X137147619Y-100569524D01*
X137147619Y-100640952D01*
X137171429Y-100688571D01*
X137195238Y-100712381D01*
X137242857Y-100736190D01*
X137433333Y-100736190D01*
X137433333Y-100236190D01*
X137266667Y-100236190D01*
X137219048Y-100260000D01*
X137195238Y-100283810D01*
X137171429Y-100331429D01*
X137171429Y-100379048D01*
X137195238Y-100426667D01*
X137219048Y-100450476D01*
X137266667Y-100474286D01*
X137433333Y-100474286D01*
X136838095Y-100236190D02*
X136742857Y-100236190D01*
X136695238Y-100260000D01*
X136647619Y-100307619D01*
X136623810Y-100402857D01*
X136623810Y-100569524D01*
X136647619Y-100664762D01*
X136695238Y-100712381D01*
X136742857Y-100736190D01*
X136838095Y-100736190D01*
X136885714Y-100712381D01*
X136933333Y-100664762D01*
X136957143Y-100569524D01*
X136957143Y-100402857D01*
X136933333Y-100307619D01*
X136885714Y-100260000D01*
X136838095Y-100236190D01*
X136314285Y-100236190D02*
X136219047Y-100236190D01*
X136171428Y-100260000D01*
X136123809Y-100307619D01*
X136100000Y-100402857D01*
X136100000Y-100569524D01*
X136123809Y-100664762D01*
X136171428Y-100712381D01*
X136219047Y-100736190D01*
X136314285Y-100736190D01*
X136361904Y-100712381D01*
X136409523Y-100664762D01*
X136433333Y-100569524D01*
X136433333Y-100402857D01*
X136409523Y-100307619D01*
X136361904Y-100260000D01*
X136314285Y-100236190D01*
X135957142Y-100236190D02*
X135671428Y-100236190D01*
X135814285Y-100736190D02*
X135814285Y-100236190D01*
X135242857Y-100736190D02*
X135528571Y-100736190D01*
X135385714Y-100736190D02*
X135385714Y-100236190D01*
X135433333Y-100307619D01*
X135480952Y-100355238D01*
X135528571Y-100379048D01*
X138680952Y-111156190D02*
X138680952Y-111560952D01*
X138657143Y-111608571D01*
X138633333Y-111632381D01*
X138585714Y-111656190D01*
X138490476Y-111656190D01*
X138442857Y-111632381D01*
X138419048Y-111608571D01*
X138395238Y-111560952D01*
X138395238Y-111156190D01*
X138180952Y-111203810D02*
X138157142Y-111180000D01*
X138109523Y-111156190D01*
X137990476Y-111156190D01*
X137942857Y-111180000D01*
X137919047Y-111203810D01*
X137895238Y-111251429D01*
X137895238Y-111299048D01*
X137919047Y-111370476D01*
X138204761Y-111656190D01*
X137895238Y-111656190D01*
X141508571Y-112198572D02*
X141532381Y-112174762D01*
X141556190Y-112103334D01*
X141556190Y-112055715D01*
X141532381Y-111984286D01*
X141484762Y-111936667D01*
X141437143Y-111912858D01*
X141341905Y-111889048D01*
X141270476Y-111889048D01*
X141175238Y-111912858D01*
X141127619Y-111936667D01*
X141080000Y-111984286D01*
X141056190Y-112055715D01*
X141056190Y-112103334D01*
X141080000Y-112174762D01*
X141103810Y-112198572D01*
X141556190Y-112674762D02*
X141556190Y-112389048D01*
X141556190Y-112531905D02*
X141056190Y-112531905D01*
X141127619Y-112484286D01*
X141175238Y-112436667D01*
X141199048Y-112389048D01*
X141056190Y-112984286D02*
X141056190Y-113031905D01*
X141080000Y-113079524D01*
X141103810Y-113103333D01*
X141151429Y-113127143D01*
X141246667Y-113150952D01*
X141365714Y-113150952D01*
X141460952Y-113127143D01*
X141508571Y-113103333D01*
X141532381Y-113079524D01*
X141556190Y-113031905D01*
X141556190Y-112984286D01*
X141532381Y-112936667D01*
X141508571Y-112912857D01*
X141460952Y-112889048D01*
X141365714Y-112865238D01*
X141246667Y-112865238D01*
X141151429Y-112889048D01*
X141103810Y-112912857D01*
X141080000Y-112936667D01*
X141056190Y-112984286D01*
X142451428Y-118418571D02*
X142475238Y-118442381D01*
X142546666Y-118466190D01*
X142594285Y-118466190D01*
X142665714Y-118442381D01*
X142713333Y-118394762D01*
X142737142Y-118347143D01*
X142760952Y-118251905D01*
X142760952Y-118180476D01*
X142737142Y-118085238D01*
X142713333Y-118037619D01*
X142665714Y-117990000D01*
X142594285Y-117966190D01*
X142546666Y-117966190D01*
X142475238Y-117990000D01*
X142451428Y-118013810D01*
X141975238Y-118466190D02*
X142260952Y-118466190D01*
X142118095Y-118466190D02*
X142118095Y-117966190D01*
X142165714Y-118037619D01*
X142213333Y-118085238D01*
X142260952Y-118109048D01*
X141784762Y-118013810D02*
X141760952Y-117990000D01*
X141713333Y-117966190D01*
X141594286Y-117966190D01*
X141546667Y-117990000D01*
X141522857Y-118013810D01*
X141499048Y-118061429D01*
X141499048Y-118109048D01*
X141522857Y-118180476D01*
X141808571Y-118466190D01*
X141499048Y-118466190D01*
X142431428Y-123938571D02*
X142455238Y-123962381D01*
X142526666Y-123986190D01*
X142574285Y-123986190D01*
X142645714Y-123962381D01*
X142693333Y-123914762D01*
X142717142Y-123867143D01*
X142740952Y-123771905D01*
X142740952Y-123700476D01*
X142717142Y-123605238D01*
X142693333Y-123557619D01*
X142645714Y-123510000D01*
X142574285Y-123486190D01*
X142526666Y-123486190D01*
X142455238Y-123510000D01*
X142431428Y-123533810D01*
X141955238Y-123986190D02*
X142240952Y-123986190D01*
X142098095Y-123986190D02*
X142098095Y-123486190D01*
X142145714Y-123557619D01*
X142193333Y-123605238D01*
X142240952Y-123629048D01*
X141788571Y-123486190D02*
X141479048Y-123486190D01*
X141645714Y-123676667D01*
X141574286Y-123676667D01*
X141526667Y-123700476D01*
X141502857Y-123724286D01*
X141479048Y-123771905D01*
X141479048Y-123890952D01*
X141502857Y-123938571D01*
X141526667Y-123962381D01*
X141574286Y-123986190D01*
X141717143Y-123986190D01*
X141764762Y-123962381D01*
X141788571Y-123938571D01*
X141508571Y-133068572D02*
X141532381Y-133044762D01*
X141556190Y-132973334D01*
X141556190Y-132925715D01*
X141532381Y-132854286D01*
X141484762Y-132806667D01*
X141437143Y-132782858D01*
X141341905Y-132759048D01*
X141270476Y-132759048D01*
X141175238Y-132782858D01*
X141127619Y-132806667D01*
X141080000Y-132854286D01*
X141056190Y-132925715D01*
X141056190Y-132973334D01*
X141080000Y-133044762D01*
X141103810Y-133068572D01*
X141556190Y-133544762D02*
X141556190Y-133259048D01*
X141556190Y-133401905D02*
X141056190Y-133401905D01*
X141127619Y-133354286D01*
X141175238Y-133306667D01*
X141199048Y-133259048D01*
X141222857Y-133973333D02*
X141556190Y-133973333D01*
X141032381Y-133854286D02*
X141389524Y-133735238D01*
X141389524Y-134044762D01*
X126898571Y-121108572D02*
X126922381Y-121084762D01*
X126946190Y-121013334D01*
X126946190Y-120965715D01*
X126922381Y-120894286D01*
X126874762Y-120846667D01*
X126827143Y-120822858D01*
X126731905Y-120799048D01*
X126660476Y-120799048D01*
X126565238Y-120822858D01*
X126517619Y-120846667D01*
X126470000Y-120894286D01*
X126446190Y-120965715D01*
X126446190Y-121013334D01*
X126470000Y-121084762D01*
X126493810Y-121108572D01*
X126946190Y-121584762D02*
X126946190Y-121299048D01*
X126946190Y-121441905D02*
X126446190Y-121441905D01*
X126517619Y-121394286D01*
X126565238Y-121346667D01*
X126589048Y-121299048D01*
X126446190Y-122037143D02*
X126446190Y-121799048D01*
X126684286Y-121775238D01*
X126660476Y-121799048D01*
X126636667Y-121846667D01*
X126636667Y-121965714D01*
X126660476Y-122013333D01*
X126684286Y-122037143D01*
X126731905Y-122060952D01*
X126850952Y-122060952D01*
X126898571Y-122037143D01*
X126922381Y-122013333D01*
X126946190Y-121965714D01*
X126946190Y-121846667D01*
X126922381Y-121799048D01*
X126898571Y-121775238D01*
X126898571Y-116298572D02*
X126922381Y-116274762D01*
X126946190Y-116203334D01*
X126946190Y-116155715D01*
X126922381Y-116084286D01*
X126874762Y-116036667D01*
X126827143Y-116012858D01*
X126731905Y-115989048D01*
X126660476Y-115989048D01*
X126565238Y-116012858D01*
X126517619Y-116036667D01*
X126470000Y-116084286D01*
X126446190Y-116155715D01*
X126446190Y-116203334D01*
X126470000Y-116274762D01*
X126493810Y-116298572D01*
X126946190Y-116774762D02*
X126946190Y-116489048D01*
X126946190Y-116631905D02*
X126446190Y-116631905D01*
X126517619Y-116584286D01*
X126565238Y-116536667D01*
X126589048Y-116489048D01*
X126446190Y-117203333D02*
X126446190Y-117108095D01*
X126470000Y-117060476D01*
X126493810Y-117036667D01*
X126565238Y-116989048D01*
X126660476Y-116965238D01*
X126850952Y-116965238D01*
X126898571Y-116989048D01*
X126922381Y-117012857D01*
X126946190Y-117060476D01*
X126946190Y-117155714D01*
X126922381Y-117203333D01*
X126898571Y-117227143D01*
X126850952Y-117250952D01*
X126731905Y-117250952D01*
X126684286Y-117227143D01*
X126660476Y-117203333D01*
X126636667Y-117155714D01*
X126636667Y-117060476D01*
X126660476Y-117012857D01*
X126684286Y-116989048D01*
X126731905Y-116965238D01*
X141508571Y-114108572D02*
X141532381Y-114084762D01*
X141556190Y-114013334D01*
X141556190Y-113965715D01*
X141532381Y-113894286D01*
X141484762Y-113846667D01*
X141437143Y-113822858D01*
X141341905Y-113799048D01*
X141270476Y-113799048D01*
X141175238Y-113822858D01*
X141127619Y-113846667D01*
X141080000Y-113894286D01*
X141056190Y-113965715D01*
X141056190Y-114013334D01*
X141080000Y-114084762D01*
X141103810Y-114108572D01*
X141556190Y-114584762D02*
X141556190Y-114299048D01*
X141556190Y-114441905D02*
X141056190Y-114441905D01*
X141127619Y-114394286D01*
X141175238Y-114346667D01*
X141199048Y-114299048D01*
X141556190Y-115060952D02*
X141556190Y-114775238D01*
X141556190Y-114918095D02*
X141056190Y-114918095D01*
X141127619Y-114870476D01*
X141175238Y-114822857D01*
X141199048Y-114775238D01*
M02*
