G04 #@! TF.FileFunction,Copper,L2,Inr,Signal*
%FSLAX46Y46*%
G04 Gerber Fmt 4.6, Leading zero omitted, Abs format (unit mm)*
G04 Created by KiCad (PCBNEW 4.0.6) date 03/11/19 23:36:44*
%MOMM*%
%LPD*%
G01*
G04 APERTURE LIST*
%ADD10C,0.100000*%
%ADD11R,1.300000X1.300000*%
%ADD12C,1.300000*%
%ADD13C,1.200000*%
%ADD14R,1.200000X1.200000*%
%ADD15C,2.300000*%
%ADD16C,0.500000*%
%ADD17C,0.800000*%
%ADD18C,0.250000*%
%ADD19C,0.300000*%
%ADD20C,0.254000*%
G04 APERTURE END LIST*
D10*
D11*
X139100000Y-139900000D03*
D12*
X141100000Y-139900000D03*
D13*
X143870000Y-149000000D03*
X143870000Y-147000000D03*
X141870000Y-147000000D03*
X141870000Y-149000000D03*
D14*
X117870000Y-149000000D03*
D13*
X117870000Y-147000000D03*
X119870000Y-149000000D03*
X119870000Y-147000000D03*
X121870000Y-149000000D03*
X121870000Y-147000000D03*
X123870000Y-149000000D03*
X123870000Y-147000000D03*
X125870000Y-149000000D03*
X125870000Y-147000000D03*
X127870000Y-149000000D03*
X127870000Y-147000000D03*
X129870000Y-149000000D03*
X129870000Y-147000000D03*
X131870000Y-149000000D03*
X131870000Y-147000000D03*
X133870000Y-149000000D03*
X133870000Y-147000000D03*
X135870000Y-149000000D03*
X135870000Y-147000000D03*
X137870000Y-149000000D03*
X137870000Y-147000000D03*
X139870000Y-149000000D03*
X139870000Y-147000000D03*
X106130000Y-101000000D03*
X106130000Y-103000000D03*
X108130000Y-103000000D03*
X108130000Y-101000000D03*
D14*
X132130000Y-101000000D03*
D13*
X132130000Y-103000000D03*
X130130000Y-101000000D03*
X130130000Y-103000000D03*
X128130000Y-101000000D03*
X128130000Y-103000000D03*
X126130000Y-101000000D03*
X126130000Y-103000000D03*
X124130000Y-101000000D03*
X124130000Y-103000000D03*
X122130000Y-101000000D03*
X122130000Y-103000000D03*
X120130000Y-101000000D03*
X120130000Y-103000000D03*
X118130000Y-101000000D03*
X118130000Y-103000000D03*
X116130000Y-101000000D03*
X116130000Y-103000000D03*
X114130000Y-101000000D03*
X114130000Y-103000000D03*
X112130000Y-101000000D03*
X112130000Y-103000000D03*
X110130000Y-101000000D03*
X110130000Y-103000000D03*
D15*
X147500000Y-147500000D03*
X102500000Y-147500000D03*
X147500000Y-102500000D03*
X102500000Y-102500000D03*
D13*
X101000000Y-143870000D03*
X103000000Y-143870000D03*
X103000000Y-141870000D03*
X101000000Y-141870000D03*
D14*
X101000000Y-117870000D03*
D13*
X103000000Y-117870000D03*
X101000000Y-119870000D03*
X103000000Y-119870000D03*
X101000000Y-121870000D03*
X103000000Y-121870000D03*
X101000000Y-123870000D03*
X103000000Y-123870000D03*
X101000000Y-125870000D03*
X103000000Y-125870000D03*
X101000000Y-127870000D03*
X103000000Y-127870000D03*
X101000000Y-129870000D03*
X103000000Y-129870000D03*
X101000000Y-131870000D03*
X103000000Y-131870000D03*
X101000000Y-133870000D03*
X103000000Y-133870000D03*
X101000000Y-135870000D03*
X103000000Y-135870000D03*
X101000000Y-137870000D03*
X103000000Y-137870000D03*
X101000000Y-139870000D03*
X103000000Y-139870000D03*
D11*
X101000000Y-113870000D03*
D12*
X103000000Y-113870000D03*
X105000000Y-113870000D03*
X114100000Y-149000000D03*
D11*
X106100000Y-149000000D03*
D12*
X108100000Y-149000000D03*
X110100000Y-149000000D03*
X112100000Y-149000000D03*
D13*
X149000000Y-106130000D03*
X147000000Y-106130000D03*
X147000000Y-108130000D03*
X149000000Y-108130000D03*
D14*
X149000000Y-132130000D03*
D13*
X147000000Y-132130000D03*
X149000000Y-130130000D03*
X147000000Y-130130000D03*
X149000000Y-128130000D03*
X147000000Y-128130000D03*
X149000000Y-126130000D03*
X147000000Y-126130000D03*
X149000000Y-124130000D03*
X147000000Y-124130000D03*
X149000000Y-122130000D03*
X147000000Y-122130000D03*
X149000000Y-120130000D03*
X147000000Y-120130000D03*
X149000000Y-118130000D03*
X147000000Y-118130000D03*
X149000000Y-116130000D03*
X147000000Y-116130000D03*
X149000000Y-114130000D03*
X147000000Y-114130000D03*
X149000000Y-112130000D03*
X147000000Y-112130000D03*
X149000000Y-110130000D03*
X147000000Y-110130000D03*
D16*
X105290000Y-128760000D03*
X123440000Y-139720000D03*
X128750000Y-139680000D03*
X137390000Y-137440000D03*
X138220000Y-135820000D03*
X129710000Y-132640000D03*
D13*
X146690000Y-136810000D03*
D16*
X124810000Y-120880000D03*
X124810000Y-117100000D03*
X129720000Y-118650000D03*
X123230000Y-111320000D03*
X143930000Y-114200000D03*
X141690000Y-121400000D03*
X134230000Y-137420000D03*
X111200000Y-141540000D03*
X115730000Y-110310000D03*
X109670000Y-110730000D03*
X143190000Y-134140000D03*
X141090000Y-128250000D03*
X110410000Y-123880000D03*
X110430000Y-131880000D03*
X110490000Y-127550000D03*
X127750000Y-110220000D03*
X142810000Y-111470000D03*
X111800000Y-137710000D03*
X137750000Y-105850000D03*
X137200000Y-111090000D03*
X141060000Y-116250000D03*
X116720000Y-139570000D03*
X135200000Y-140150000D03*
X136250000Y-142050000D03*
X138540000Y-137200000D03*
X137690000Y-119330000D03*
X139700000Y-136620000D03*
X137390000Y-117590000D03*
X141730000Y-138610000D03*
X130520000Y-118640000D03*
X117450000Y-119440000D03*
X115440000Y-135570000D03*
X131410000Y-118060000D03*
X120670000Y-131180000D03*
X114650000Y-136390000D03*
X133090000Y-115570000D03*
X140300000Y-107700000D03*
X121590000Y-117420000D03*
X121410000Y-134460000D03*
X133900000Y-108580000D03*
X125450000Y-108580000D03*
X119250000Y-115410000D03*
X123100000Y-106230000D03*
X115860000Y-127500000D03*
X116300000Y-131450000D03*
X106100000Y-108700000D03*
X116510000Y-124150000D03*
X135400000Y-115500000D03*
X134420000Y-116730000D03*
X140750000Y-105820000D03*
X109040000Y-136190000D03*
X110020000Y-118670000D03*
X106660000Y-127350000D03*
X108000000Y-141240000D03*
X109720000Y-138350000D03*
X111200000Y-134570000D03*
X109690000Y-141230000D03*
X112610000Y-139750000D03*
D13*
X128500000Y-142040000D03*
D16*
X129210000Y-121400000D03*
X134470000Y-128660000D03*
X138440000Y-119330000D03*
X138820000Y-112090000D03*
X142470000Y-134140000D03*
X139700000Y-138200000D03*
X134690000Y-136110000D03*
X128350000Y-138310000D03*
X123780000Y-140340000D03*
X116680000Y-137950000D03*
X110700000Y-137440000D03*
X115740000Y-124400000D03*
X115520000Y-130840000D03*
X116270000Y-112570000D03*
X123000000Y-115550000D03*
X134560000Y-122800000D03*
X137950000Y-115630000D03*
X141090000Y-114200000D03*
X108390000Y-139440000D03*
X125910000Y-117100000D03*
X125520000Y-120900000D03*
X105960000Y-111300000D03*
X142250000Y-105890000D03*
X134010000Y-131240000D03*
X117600000Y-120660000D03*
X117600000Y-128950000D03*
X134420000Y-131820000D03*
X118220000Y-121170000D03*
X118220000Y-129550000D03*
X134020000Y-132400000D03*
X118860000Y-130140000D03*
X118860000Y-121670000D03*
X134440000Y-132980000D03*
X119500000Y-130730000D03*
X119500000Y-122170000D03*
X120110000Y-127780000D03*
X129990000Y-127860000D03*
X120110000Y-122640000D03*
X120710000Y-123250000D03*
X129410000Y-128370000D03*
X120710000Y-128370000D03*
X112750000Y-124910000D03*
X115640000Y-125250000D03*
X112710000Y-126310000D03*
X115740000Y-126040000D03*
X115920000Y-126750000D03*
X112920000Y-128750000D03*
X134470000Y-124600000D03*
X112960000Y-129640000D03*
X115650000Y-129350000D03*
X115740000Y-130100000D03*
X112600000Y-132750000D03*
X113000000Y-133330000D03*
X113270000Y-133980000D03*
X133310000Y-137370000D03*
X133300000Y-138190000D03*
X131750000Y-134220000D03*
X133510000Y-126330000D03*
X126980000Y-130910000D03*
X126390000Y-131380000D03*
X124380000Y-137090000D03*
X125810000Y-131830000D03*
X123800000Y-133970000D03*
X125220000Y-132300000D03*
X133420000Y-133560000D03*
X125680000Y-140410000D03*
X126340000Y-133030000D03*
X126830000Y-133600000D03*
X121600000Y-120360000D03*
X127330000Y-134110000D03*
X126140000Y-120340000D03*
X127070000Y-120600000D03*
X127620000Y-137240000D03*
X128230000Y-134340000D03*
X126850000Y-122140000D03*
X129430000Y-138440000D03*
X130290000Y-134040000D03*
X134010000Y-122200000D03*
X129760000Y-122200000D03*
X134460000Y-120600000D03*
X130720000Y-138260000D03*
X133530000Y-120350000D03*
X130870000Y-137390000D03*
X134450000Y-135280000D03*
X136980000Y-135280000D03*
X133980000Y-118200000D03*
X131580000Y-137010000D03*
X142820000Y-131600000D03*
X143400000Y-130190000D03*
X144510000Y-128040000D03*
X132600000Y-128150000D03*
X132000000Y-127550000D03*
X134070000Y-129490000D03*
X131320000Y-128080000D03*
X131320000Y-125850000D03*
X130700000Y-127750000D03*
X134470000Y-130070000D03*
X130700000Y-125250000D03*
X129580000Y-123370000D03*
X134120000Y-123990000D03*
X126620000Y-123790000D03*
X129840000Y-116000000D03*
X129260000Y-117400000D03*
X123870000Y-116400000D03*
X113940000Y-110030000D03*
X114520000Y-111450000D03*
X133510000Y-122780000D03*
X122200000Y-121640000D03*
X114530000Y-104540000D03*
X116720000Y-104540000D03*
X122170000Y-115530000D03*
X124170000Y-118670000D03*
X122790000Y-127040000D03*
X134080000Y-126780000D03*
X122790000Y-118650000D03*
X141830000Y-134530000D03*
X136870000Y-119340000D03*
X111800000Y-115070000D03*
X118480000Y-117310000D03*
X118660000Y-118070000D03*
X111200000Y-113880000D03*
D17*
X139100000Y-139900000D02*
X139100000Y-141270000D01*
X143870000Y-146040000D02*
X143870000Y-147000000D01*
X139100000Y-141270000D02*
X143870000Y-146040000D01*
D18*
X138540000Y-137200000D02*
X138280000Y-137200000D01*
X138280000Y-137200000D02*
X137820000Y-136740000D01*
X137690000Y-133330000D02*
X137690000Y-135310000D01*
X137630000Y-135370000D02*
X137630000Y-136550000D01*
X137690000Y-135310000D02*
X137630000Y-135370000D01*
X137630000Y-136550000D02*
X137820000Y-136740000D01*
X137690000Y-119860000D02*
X137690000Y-133330000D01*
X137690000Y-119950000D02*
X137690000Y-119860000D01*
X137690000Y-119950000D02*
X137690000Y-119330000D01*
X139900000Y-135490000D02*
X139900000Y-118270000D01*
X139900000Y-135490000D02*
X139900000Y-136420000D01*
X139900000Y-136200000D02*
X139900000Y-135490000D01*
X139900000Y-136420000D02*
X139700000Y-136620000D01*
X139700000Y-136620000D02*
X139690000Y-136630000D01*
X139900000Y-118270000D02*
X139220000Y-117590000D01*
X139220000Y-117590000D02*
X137390000Y-117590000D01*
X130520000Y-118640000D02*
X130520000Y-118860000D01*
X130520000Y-118860000D02*
X130120000Y-119260000D01*
X130520000Y-118640000D02*
X130510000Y-118650000D01*
X117630000Y-119260000D02*
X117450000Y-119440000D01*
X130120000Y-119260000D02*
X117630000Y-119260000D01*
X115410000Y-135600000D02*
X115380000Y-135600000D01*
X115440000Y-135570000D02*
X115410000Y-135600000D01*
X130000000Y-119740000D02*
X130550000Y-119740000D01*
X131410000Y-118880000D02*
X131410000Y-118060000D01*
X130550000Y-119740000D02*
X131410000Y-118880000D01*
X120670000Y-131180000D02*
X120670000Y-129920000D01*
X123950000Y-119740000D02*
X130000000Y-119740000D01*
X123380000Y-120310000D02*
X123950000Y-119740000D01*
X123380000Y-122660000D02*
X123380000Y-120310000D01*
X121900000Y-124140000D02*
X123380000Y-122660000D01*
X121900000Y-128690000D02*
X121900000Y-124140000D01*
X120670000Y-129920000D02*
X121900000Y-128690000D01*
X132390000Y-142040000D02*
X133630000Y-142040000D01*
X134250000Y-139510000D02*
X135270000Y-138490000D01*
X134250000Y-141420000D02*
X134250000Y-139510000D01*
X133630000Y-142040000D02*
X134250000Y-141420000D01*
X128500000Y-142040000D02*
X132390000Y-142040000D01*
D19*
X128500000Y-142040000D02*
X124460000Y-142040000D01*
X123780000Y-141360000D02*
X123780000Y-140340000D01*
X124460000Y-142040000D02*
X123780000Y-141360000D01*
D18*
X134560000Y-122800000D02*
X134980000Y-122800000D01*
X132130000Y-119630000D02*
X132090000Y-119630000D01*
X132090000Y-119670000D02*
X132130000Y-119630000D01*
X132090000Y-119680000D02*
X132090000Y-119670000D01*
X132650000Y-119120000D02*
X132090000Y-119680000D01*
X133510000Y-119120000D02*
X132650000Y-119120000D01*
X135140000Y-119120000D02*
X133510000Y-119120000D01*
X135680000Y-119660000D02*
X135140000Y-119120000D01*
X135680000Y-122100000D02*
X135680000Y-119660000D01*
X134980000Y-122800000D02*
X135680000Y-122100000D01*
X125910000Y-117100000D02*
X128340000Y-117100000D01*
X128340000Y-117100000D02*
X128680000Y-116760000D01*
X128680000Y-116760000D02*
X131440000Y-116760000D01*
X131440000Y-116760000D02*
X132090000Y-117410000D01*
X132090000Y-117410000D02*
X132090000Y-119630000D01*
X132090000Y-119630000D02*
X132090000Y-120480000D01*
X132090000Y-120480000D02*
X131170000Y-121400000D01*
X131170000Y-121400000D02*
X129210000Y-121400000D01*
X134560000Y-122800000D02*
X134560000Y-123270000D01*
X135330000Y-127800000D02*
X134470000Y-128660000D01*
X135330000Y-124040000D02*
X135330000Y-127800000D01*
X134560000Y-123270000D02*
X135330000Y-124040000D01*
X138440000Y-119330000D02*
X138440000Y-134160000D01*
X139700000Y-137470000D02*
X139700000Y-138200000D01*
X138920000Y-136690000D02*
X139700000Y-137470000D01*
X138920000Y-134640000D02*
X138920000Y-136690000D01*
X138440000Y-134160000D02*
X138920000Y-134640000D01*
X139700000Y-138200000D02*
X141140000Y-138200000D01*
X141140000Y-138200000D02*
X142470000Y-136870000D01*
X142470000Y-136870000D02*
X142470000Y-134140000D01*
X139700000Y-138200000D02*
X135560000Y-138200000D01*
X135560000Y-138200000D02*
X135270000Y-138490000D01*
X134690000Y-136110000D02*
X134810000Y-136110000D01*
X135270000Y-136570000D02*
X135270000Y-138490000D01*
X134810000Y-136110000D02*
X135270000Y-136570000D01*
X128350000Y-138310000D02*
X125350000Y-138310000D01*
X125350000Y-138310000D02*
X124800000Y-138860000D01*
X124800000Y-138860000D02*
X124800000Y-139320000D01*
X124800000Y-139320000D02*
X123780000Y-140340000D01*
X123780000Y-140340000D02*
X119910000Y-140340000D01*
X119180000Y-137950000D02*
X116680000Y-137950000D01*
X119670000Y-138440000D02*
X119180000Y-137950000D01*
X119670000Y-140100000D02*
X119670000Y-138440000D01*
X119910000Y-140340000D02*
X119670000Y-140100000D01*
X116680000Y-137950000D02*
X116680000Y-135300000D01*
X116680000Y-135300000D02*
X115520000Y-134140000D01*
X115520000Y-130840000D02*
X115520000Y-134140000D01*
X115520000Y-134140000D02*
X114210000Y-135450000D01*
X114210000Y-135450000D02*
X111180000Y-135450000D01*
X111180000Y-135450000D02*
X110700000Y-135930000D01*
X110700000Y-135930000D02*
X110700000Y-137440000D01*
X115740000Y-124400000D02*
X115840000Y-124400000D01*
X116120000Y-130840000D02*
X115520000Y-130840000D01*
X116590000Y-130370000D02*
X116120000Y-130840000D01*
X116590000Y-125150000D02*
X116590000Y-130370000D01*
X115840000Y-124400000D02*
X116590000Y-125150000D01*
X116270000Y-112570000D02*
X122510000Y-112570000D01*
X123000000Y-113060000D02*
X123000000Y-115550000D01*
X122510000Y-112570000D02*
X123000000Y-113060000D01*
X125910000Y-117100000D02*
X125910000Y-116110000D01*
X125910000Y-116110000D02*
X125350000Y-115550000D01*
X125350000Y-115550000D02*
X123000000Y-115550000D01*
X141090000Y-114200000D02*
X138520000Y-114200000D01*
X137950000Y-114770000D02*
X137950000Y-115630000D01*
X138520000Y-114200000D02*
X137950000Y-114770000D01*
X120120000Y-122650000D02*
X120120000Y-122690000D01*
X120110000Y-122640000D02*
X120120000Y-122650000D01*
X127070000Y-120600000D02*
X126820000Y-120600000D01*
X126150000Y-121620000D02*
X125420000Y-122350000D01*
X126150000Y-121270000D02*
X126150000Y-121620000D01*
X126820000Y-120600000D02*
X126150000Y-121270000D01*
X125580000Y-137240000D02*
X124400000Y-136060000D01*
X127620000Y-137240000D02*
X125580000Y-137240000D01*
X124850000Y-122350000D02*
X125420000Y-122350000D01*
X124400000Y-122800000D02*
X124850000Y-122350000D01*
X124400000Y-136060000D02*
X124400000Y-122800000D01*
X126550000Y-130270000D02*
X127160000Y-130270000D01*
X128230000Y-134130000D02*
X128230000Y-134340000D01*
X127580000Y-133480000D02*
X128230000Y-134130000D01*
X127580000Y-130690000D02*
X127580000Y-133480000D01*
X127160000Y-130270000D02*
X127580000Y-130690000D01*
X125620000Y-130070000D02*
X125620000Y-127790000D01*
X125820000Y-130270000D02*
X125620000Y-130070000D01*
X126550000Y-130270000D02*
X125820000Y-130270000D01*
X126570000Y-122140000D02*
X125620000Y-123090000D01*
X126850000Y-122140000D02*
X126570000Y-122140000D01*
X125620000Y-123090000D02*
X125620000Y-127790000D01*
X129520000Y-129050000D02*
X130020000Y-129050000D01*
X130290000Y-129320000D02*
X130290000Y-134040000D01*
X130020000Y-129050000D02*
X130290000Y-129320000D01*
X128750000Y-128120000D02*
X128750000Y-128670000D01*
X129070000Y-122200000D02*
X128750000Y-122520000D01*
X128750000Y-122520000D02*
X128750000Y-128120000D01*
X129760000Y-122200000D02*
X129070000Y-122200000D01*
X128750000Y-128670000D02*
X129130000Y-129050000D01*
X129130000Y-129050000D02*
X129520000Y-129050000D01*
X132470000Y-128860000D02*
X132110000Y-128860000D01*
X130290000Y-137830000D02*
X130720000Y-138260000D01*
X130290000Y-136260000D02*
X130290000Y-137830000D01*
X131150000Y-135400000D02*
X130290000Y-136260000D01*
X131150000Y-129820000D02*
X131150000Y-135400000D01*
X132110000Y-128860000D02*
X131150000Y-129820000D01*
X134460000Y-120600000D02*
X134360000Y-120600000D01*
X132060000Y-126770000D02*
X132570000Y-127280000D01*
X132060000Y-121510000D02*
X132060000Y-126770000D01*
X132500000Y-121070000D02*
X132060000Y-121510000D01*
X133890000Y-121070000D02*
X132500000Y-121070000D01*
X134360000Y-120600000D02*
X133890000Y-121070000D01*
X133190000Y-128000000D02*
X133190000Y-127900000D01*
X133190000Y-127900000D02*
X132570000Y-127280000D01*
X132720000Y-128860000D02*
X132470000Y-128860000D01*
X133190000Y-128390000D02*
X132720000Y-128860000D01*
X133190000Y-128000000D02*
X133190000Y-128390000D01*
X134360000Y-119960000D02*
X134650000Y-119960000D01*
X134650000Y-119960000D02*
X135090000Y-120400000D01*
X130870000Y-136630000D02*
X130870000Y-136340000D01*
X130870000Y-137390000D02*
X130870000Y-136630000D01*
X135090000Y-121140000D02*
X135090000Y-120400000D01*
X134690000Y-121540000D02*
X135090000Y-121140000D01*
X132770000Y-121540000D02*
X134690000Y-121540000D01*
X132530000Y-121780000D02*
X132770000Y-121540000D01*
X132530000Y-126590000D02*
X132530000Y-121780000D01*
X133670000Y-127730000D02*
X132530000Y-126590000D01*
X133670000Y-128580000D02*
X133670000Y-128140000D01*
X132910000Y-129340000D02*
X133670000Y-128580000D01*
X133670000Y-128140000D02*
X133670000Y-127730000D01*
X130870000Y-136340000D02*
X131830000Y-135380000D01*
X131830000Y-135380000D02*
X132380000Y-135380000D01*
X132380000Y-135380000D02*
X132670000Y-135090000D01*
X132670000Y-135090000D02*
X132670000Y-129580000D01*
X132670000Y-129580000D02*
X132910000Y-129340000D01*
X134360000Y-119960000D02*
X133920000Y-119960000D01*
X133920000Y-119960000D02*
X133530000Y-120350000D01*
X134940000Y-118200000D02*
X136050000Y-118200000D01*
X136980000Y-120270000D02*
X136980000Y-120650000D01*
X136290000Y-119580000D02*
X136980000Y-120270000D01*
X136290000Y-118440000D02*
X136290000Y-119580000D01*
X136050000Y-118200000D02*
X136290000Y-118440000D01*
X136980000Y-135280000D02*
X136980000Y-120650000D01*
X131580000Y-137010000D02*
X131580000Y-136550000D01*
X131580000Y-136470000D02*
X132140000Y-135910000D01*
X132140000Y-135910000D02*
X132850000Y-135910000D01*
X131580000Y-136550000D02*
X131580000Y-136470000D01*
X133820000Y-135910000D02*
X134450000Y-135280000D01*
X132850000Y-135910000D02*
X133820000Y-135910000D01*
X134940000Y-118200000D02*
X133980000Y-118200000D01*
X136870000Y-119340000D02*
X136870000Y-118250000D01*
X141830000Y-127270000D02*
X141830000Y-134530000D01*
X140660000Y-126100000D02*
X141830000Y-127270000D01*
X140660000Y-117750000D02*
X140660000Y-126100000D01*
X139880000Y-116970000D02*
X140660000Y-117750000D01*
X137100000Y-116970000D02*
X139880000Y-116970000D01*
X136780000Y-117290000D02*
X137100000Y-116970000D01*
X136780000Y-118160000D02*
X136780000Y-117290000D01*
X136870000Y-118250000D02*
X136780000Y-118160000D01*
D20*
G36*
X104895215Y-100753266D02*
X104894786Y-101244579D01*
X105082408Y-101698657D01*
X105383446Y-102000221D01*
X105083629Y-102299515D01*
X104895215Y-102753266D01*
X104894786Y-103244579D01*
X105082408Y-103698657D01*
X105429515Y-104046371D01*
X105883266Y-104234785D01*
X106374579Y-104235214D01*
X106828657Y-104047592D01*
X107130221Y-103746554D01*
X107429515Y-104046371D01*
X107883266Y-104234785D01*
X108374579Y-104235214D01*
X108828657Y-104047592D01*
X109130221Y-103746554D01*
X109429515Y-104046371D01*
X109883266Y-104234785D01*
X110374579Y-104235214D01*
X110828657Y-104047592D01*
X111130221Y-103746554D01*
X111429515Y-104046371D01*
X111883266Y-104234785D01*
X112374579Y-104235214D01*
X112828657Y-104047592D01*
X113130221Y-103746554D01*
X113429515Y-104046371D01*
X113725649Y-104169337D01*
X113645154Y-104363190D01*
X113644847Y-104715265D01*
X113779296Y-105040657D01*
X114028033Y-105289829D01*
X114353190Y-105424846D01*
X114705265Y-105425153D01*
X115030657Y-105290704D01*
X115279829Y-105041967D01*
X115414846Y-104716810D01*
X115415153Y-104364735D01*
X115280704Y-104039343D01*
X115059200Y-103817452D01*
X115130221Y-103746554D01*
X115429515Y-104046371D01*
X115883266Y-104234785D01*
X115888471Y-104234790D01*
X115835154Y-104363190D01*
X115834847Y-104715265D01*
X115969296Y-105040657D01*
X116218033Y-105289829D01*
X116543190Y-105424846D01*
X116895265Y-105425153D01*
X117220657Y-105290704D01*
X117469829Y-105041967D01*
X117604846Y-104716810D01*
X117605153Y-104364735D01*
X117482740Y-104068472D01*
X117883266Y-104234785D01*
X118374579Y-104235214D01*
X118828657Y-104047592D01*
X119130221Y-103746554D01*
X119429515Y-104046371D01*
X119883266Y-104234785D01*
X120374579Y-104235214D01*
X120828657Y-104047592D01*
X121130221Y-103746554D01*
X121429515Y-104046371D01*
X121883266Y-104234785D01*
X122374579Y-104235214D01*
X122828657Y-104047592D01*
X123130221Y-103746554D01*
X123429515Y-104046371D01*
X123883266Y-104234785D01*
X124374579Y-104235214D01*
X124828657Y-104047592D01*
X125130221Y-103746554D01*
X125429515Y-104046371D01*
X125883266Y-104234785D01*
X126374579Y-104235214D01*
X126828657Y-104047592D01*
X127130221Y-103746554D01*
X127429515Y-104046371D01*
X127883266Y-104234785D01*
X128374579Y-104235214D01*
X128828657Y-104047592D01*
X129130221Y-103746554D01*
X129429515Y-104046371D01*
X129883266Y-104234785D01*
X130374579Y-104235214D01*
X130828657Y-104047592D01*
X131130221Y-103746554D01*
X131429515Y-104046371D01*
X131883266Y-104234785D01*
X132374579Y-104235214D01*
X132828657Y-104047592D01*
X133176371Y-103700485D01*
X133346872Y-103289873D01*
X137414812Y-103289873D01*
X137579646Y-103688800D01*
X137884595Y-103994282D01*
X138283233Y-104159811D01*
X138714873Y-104160188D01*
X139113800Y-103995354D01*
X139419282Y-103690405D01*
X139584811Y-103291767D01*
X139584812Y-103289873D01*
X140414812Y-103289873D01*
X140579646Y-103688800D01*
X140884595Y-103994282D01*
X141283233Y-104159811D01*
X141714873Y-104160188D01*
X142113800Y-103995354D01*
X142419282Y-103690405D01*
X142584811Y-103291767D01*
X142585188Y-102860127D01*
X142420354Y-102461200D01*
X142115405Y-102155718D01*
X141716767Y-101990189D01*
X141285127Y-101989812D01*
X140886200Y-102154646D01*
X140580718Y-102459595D01*
X140415189Y-102858233D01*
X140414812Y-103289873D01*
X139584812Y-103289873D01*
X139585188Y-102860127D01*
X139420354Y-102461200D01*
X139115405Y-102155718D01*
X138716767Y-101990189D01*
X138285127Y-101989812D01*
X137886200Y-102154646D01*
X137580718Y-102459595D01*
X137415189Y-102858233D01*
X137414812Y-103289873D01*
X133346872Y-103289873D01*
X133364785Y-103246734D01*
X133365214Y-102755421D01*
X133177592Y-102301343D01*
X133034891Y-102158392D01*
X133181441Y-102064090D01*
X133326431Y-101851890D01*
X133377440Y-101600000D01*
X133377440Y-100685000D01*
X147432533Y-100685000D01*
X147583719Y-100715073D01*
X147146499Y-100714691D01*
X146490200Y-100985868D01*
X145987633Y-101487559D01*
X145715311Y-102143384D01*
X145714691Y-102853501D01*
X145985868Y-103509800D01*
X146487559Y-104012367D01*
X147143384Y-104284689D01*
X147853501Y-104285309D01*
X148509800Y-104014132D01*
X149012367Y-103512441D01*
X149284689Y-102856616D01*
X149285073Y-102417013D01*
X149315000Y-102567467D01*
X149315000Y-104923562D01*
X149246734Y-104895215D01*
X148755421Y-104894786D01*
X148301343Y-105082408D01*
X147953629Y-105429515D01*
X147939428Y-105463715D01*
X147862735Y-105446870D01*
X147179605Y-106130000D01*
X147862735Y-106813130D01*
X147939065Y-106796365D01*
X147952408Y-106828657D01*
X148253446Y-107130221D01*
X147999779Y-107383446D01*
X147700485Y-107083629D01*
X147666285Y-107069428D01*
X147683130Y-106992735D01*
X147000000Y-106309605D01*
X146316870Y-106992735D01*
X146333635Y-107069065D01*
X146301343Y-107082408D01*
X145953629Y-107429515D01*
X145765215Y-107883266D01*
X145764786Y-108374579D01*
X145952408Y-108828657D01*
X146253446Y-109130221D01*
X145953629Y-109429515D01*
X145765215Y-109883266D01*
X145764786Y-110374579D01*
X145952408Y-110828657D01*
X146253446Y-111130221D01*
X145953629Y-111429515D01*
X145765215Y-111883266D01*
X145764786Y-112374579D01*
X145952408Y-112828657D01*
X146253446Y-113130221D01*
X145953629Y-113429515D01*
X145765215Y-113883266D01*
X145764786Y-114374579D01*
X145952408Y-114828657D01*
X146253446Y-115130221D01*
X145953629Y-115429515D01*
X145765215Y-115883266D01*
X145764786Y-116374579D01*
X145952408Y-116828657D01*
X146253446Y-117130221D01*
X145953629Y-117429515D01*
X145765215Y-117883266D01*
X145764786Y-118374579D01*
X145952408Y-118828657D01*
X146253446Y-119130221D01*
X145953629Y-119429515D01*
X145765215Y-119883266D01*
X145764786Y-120374579D01*
X145952408Y-120828657D01*
X146253446Y-121130221D01*
X145953629Y-121429515D01*
X145765215Y-121883266D01*
X145764786Y-122374579D01*
X145952408Y-122828657D01*
X146253446Y-123130221D01*
X145953629Y-123429515D01*
X145765215Y-123883266D01*
X145764786Y-124374579D01*
X145952408Y-124828657D01*
X146253446Y-125130221D01*
X145953629Y-125429515D01*
X145765215Y-125883266D01*
X145764786Y-126374579D01*
X145952408Y-126828657D01*
X146253446Y-127130221D01*
X145953629Y-127429515D01*
X145765215Y-127883266D01*
X145764786Y-128374579D01*
X145952408Y-128828657D01*
X146253446Y-129130221D01*
X145953629Y-129429515D01*
X145765215Y-129883266D01*
X145764786Y-130374579D01*
X145952408Y-130828657D01*
X146253446Y-131130221D01*
X145953629Y-131429515D01*
X145765215Y-131883266D01*
X145764786Y-132374579D01*
X145952408Y-132828657D01*
X146299515Y-133176371D01*
X146753266Y-133364785D01*
X147244579Y-133365214D01*
X147698657Y-133177592D01*
X147841608Y-133034891D01*
X147935910Y-133181441D01*
X148148110Y-133326431D01*
X148400000Y-133377440D01*
X149315000Y-133377440D01*
X149315000Y-147432533D01*
X149284927Y-147583719D01*
X149285309Y-147146499D01*
X149014132Y-146490200D01*
X148512441Y-145987633D01*
X147856616Y-145715311D01*
X147146499Y-145714691D01*
X146490200Y-145985868D01*
X145987633Y-146487559D01*
X145715311Y-147143384D01*
X145714691Y-147853501D01*
X145985868Y-148509800D01*
X146487559Y-149012367D01*
X147143384Y-149284689D01*
X147582987Y-149285073D01*
X147432533Y-149315000D01*
X145076438Y-149315000D01*
X145104785Y-149246734D01*
X145105214Y-148755421D01*
X144917592Y-148301343D01*
X144616554Y-147999779D01*
X144916371Y-147700485D01*
X145104785Y-147246734D01*
X145105214Y-146755421D01*
X144917592Y-146301343D01*
X144905000Y-146288729D01*
X144905000Y-146040005D01*
X144905001Y-146040000D01*
X144826215Y-145643923D01*
X144601856Y-145308144D01*
X144601853Y-145308142D01*
X140244615Y-140950903D01*
X140280687Y-140898109D01*
X140371155Y-140988735D01*
X140843276Y-141184777D01*
X141354481Y-141185223D01*
X141826943Y-140990005D01*
X142188735Y-140628845D01*
X142331402Y-140285265D01*
X143904847Y-140285265D01*
X144039296Y-140610657D01*
X144288033Y-140859829D01*
X144613190Y-140994846D01*
X144965265Y-140995153D01*
X145290657Y-140860704D01*
X145539829Y-140611967D01*
X145674846Y-140286810D01*
X145675153Y-139934735D01*
X145540704Y-139609343D01*
X145291967Y-139360171D01*
X144966810Y-139225154D01*
X144614735Y-139224847D01*
X144289343Y-139359296D01*
X144040171Y-139608033D01*
X143905154Y-139933190D01*
X143904847Y-140285265D01*
X142331402Y-140285265D01*
X142384777Y-140156724D01*
X142385223Y-139645519D01*
X142256769Y-139334638D01*
X142479829Y-139111967D01*
X142614846Y-138786810D01*
X142615153Y-138434735D01*
X142480704Y-138109343D01*
X142231967Y-137860171D01*
X141906810Y-137725154D01*
X141554735Y-137724847D01*
X141229343Y-137859296D01*
X140980171Y-138108033D01*
X140845154Y-138433190D01*
X140844995Y-138614993D01*
X140373057Y-138809995D01*
X140280746Y-138902145D01*
X140214090Y-138798559D01*
X140001890Y-138653569D01*
X139750000Y-138602560D01*
X138450000Y-138602560D01*
X138214683Y-138646838D01*
X137998559Y-138785910D01*
X137853569Y-138998110D01*
X137802560Y-139250000D01*
X137802560Y-140550000D01*
X137846838Y-140785317D01*
X137985910Y-141001441D01*
X138065000Y-141055481D01*
X138065000Y-141269995D01*
X138064999Y-141270000D01*
X138143785Y-141666077D01*
X138368144Y-142001856D01*
X142141992Y-145775703D01*
X142116734Y-145765215D01*
X141625421Y-145764786D01*
X141171343Y-145952408D01*
X140869779Y-146253446D01*
X140570485Y-145953629D01*
X140116734Y-145765215D01*
X139625421Y-145764786D01*
X139171343Y-145952408D01*
X138869779Y-146253446D01*
X138570485Y-145953629D01*
X138116734Y-145765215D01*
X137625421Y-145764786D01*
X137171343Y-145952408D01*
X136869779Y-146253446D01*
X136570485Y-145953629D01*
X136116734Y-145765215D01*
X135625421Y-145764786D01*
X135171343Y-145952408D01*
X134869779Y-146253446D01*
X134570485Y-145953629D01*
X134116734Y-145765215D01*
X133625421Y-145764786D01*
X133171343Y-145952408D01*
X132869779Y-146253446D01*
X132570485Y-145953629D01*
X132116734Y-145765215D01*
X131625421Y-145764786D01*
X131171343Y-145952408D01*
X130869779Y-146253446D01*
X130570485Y-145953629D01*
X130116734Y-145765215D01*
X129625421Y-145764786D01*
X129171343Y-145952408D01*
X128869779Y-146253446D01*
X128570485Y-145953629D01*
X128116734Y-145765215D01*
X127625421Y-145764786D01*
X127171343Y-145952408D01*
X126869779Y-146253446D01*
X126570485Y-145953629D01*
X126116734Y-145765215D01*
X125625421Y-145764786D01*
X125171343Y-145952408D01*
X124869779Y-146253446D01*
X124570485Y-145953629D01*
X124116734Y-145765215D01*
X123625421Y-145764786D01*
X123171343Y-145952408D01*
X122869779Y-146253446D01*
X122570485Y-145953629D01*
X122116734Y-145765215D01*
X121625421Y-145764786D01*
X121171343Y-145952408D01*
X120869779Y-146253446D01*
X120570485Y-145953629D01*
X120116734Y-145765215D01*
X119625421Y-145764786D01*
X119171343Y-145952408D01*
X118869779Y-146253446D01*
X118570485Y-145953629D01*
X118116734Y-145765215D01*
X117625421Y-145764786D01*
X117171343Y-145952408D01*
X116823629Y-146299515D01*
X116635215Y-146753266D01*
X116634786Y-147244579D01*
X116822408Y-147698657D01*
X116965109Y-147841608D01*
X116818559Y-147935910D01*
X116673569Y-148148110D01*
X116622560Y-148400000D01*
X116622560Y-149315000D01*
X115360579Y-149315000D01*
X115384777Y-149256724D01*
X115385223Y-148745519D01*
X115190005Y-148273057D01*
X114828845Y-147911265D01*
X114356724Y-147715223D01*
X113845519Y-147714777D01*
X113373057Y-147909995D01*
X113099840Y-148182734D01*
X112828845Y-147911265D01*
X112356724Y-147715223D01*
X111845519Y-147714777D01*
X111373057Y-147909995D01*
X111099840Y-148182734D01*
X110828845Y-147911265D01*
X110356724Y-147715223D01*
X109845519Y-147714777D01*
X109373057Y-147909995D01*
X109011265Y-148271155D01*
X109006588Y-148282418D01*
X108999016Y-148280590D01*
X108279605Y-149000000D01*
X108293748Y-149014143D01*
X108114143Y-149193748D01*
X108100000Y-149179605D01*
X108085858Y-149193748D01*
X107906253Y-149014143D01*
X107920395Y-149000000D01*
X107906252Y-148985858D01*
X108085858Y-148806252D01*
X108100000Y-148820395D01*
X108819410Y-148100984D01*
X108763729Y-147870389D01*
X108280922Y-147702378D01*
X107770572Y-147731917D01*
X107436271Y-147870389D01*
X107380590Y-148100982D01*
X107278928Y-147999320D01*
X107214090Y-147898559D01*
X107001890Y-147753569D01*
X106750000Y-147702560D01*
X105450000Y-147702560D01*
X105214683Y-147746838D01*
X104998559Y-147885910D01*
X104853569Y-148098110D01*
X104802560Y-148350000D01*
X104802560Y-149315000D01*
X102567467Y-149315000D01*
X102416281Y-149284927D01*
X102853501Y-149285309D01*
X103509800Y-149014132D01*
X104012367Y-148512441D01*
X104284689Y-147856616D01*
X104285309Y-147146499D01*
X104014132Y-146490200D01*
X103512441Y-145987633D01*
X102856616Y-145715311D01*
X102146499Y-145714691D01*
X101490200Y-145985868D01*
X100987633Y-146487559D01*
X100715311Y-147143384D01*
X100714927Y-147582987D01*
X100685000Y-147432533D01*
X100685000Y-145076438D01*
X100753266Y-145104785D01*
X101244579Y-145105214D01*
X101698657Y-144917592D01*
X102000221Y-144616554D01*
X102299515Y-144916371D01*
X102753266Y-145104785D01*
X103244579Y-145105214D01*
X103698657Y-144917592D01*
X104046371Y-144570485D01*
X104234785Y-144116734D01*
X104235214Y-143625421D01*
X104047592Y-143171343D01*
X103746554Y-142869779D01*
X104046371Y-142570485D01*
X104234785Y-142116734D01*
X104235214Y-141625421D01*
X104148379Y-141415265D01*
X107114847Y-141415265D01*
X107249296Y-141740657D01*
X107498033Y-141989829D01*
X107823190Y-142124846D01*
X108175265Y-142125153D01*
X108500657Y-141990704D01*
X108749829Y-141741967D01*
X108847139Y-141507619D01*
X108939296Y-141730657D01*
X109188033Y-141979829D01*
X109513190Y-142114846D01*
X109865265Y-142115153D01*
X110190657Y-141980704D01*
X110356230Y-141815420D01*
X110449296Y-142040657D01*
X110698033Y-142289829D01*
X111023190Y-142424846D01*
X111375265Y-142425153D01*
X111700657Y-142290704D01*
X111766210Y-142225265D01*
X135364847Y-142225265D01*
X135499296Y-142550657D01*
X135748033Y-142799829D01*
X136073190Y-142934846D01*
X136425265Y-142935153D01*
X136750657Y-142800704D01*
X136999829Y-142551967D01*
X137134846Y-142226810D01*
X137135153Y-141874735D01*
X137000704Y-141549343D01*
X136751967Y-141300171D01*
X136426810Y-141165154D01*
X136074735Y-141164847D01*
X135749343Y-141299296D01*
X135500171Y-141548033D01*
X135365154Y-141873190D01*
X135364847Y-142225265D01*
X111766210Y-142225265D01*
X111949829Y-142041967D01*
X112084846Y-141716810D01*
X112085153Y-141364735D01*
X111950704Y-141039343D01*
X111701967Y-140790171D01*
X111376810Y-140655154D01*
X111024735Y-140654847D01*
X110699343Y-140789296D01*
X110533770Y-140954580D01*
X110440704Y-140729343D01*
X110191967Y-140480171D01*
X109866810Y-140345154D01*
X109514735Y-140344847D01*
X109189343Y-140479296D01*
X108940171Y-140728033D01*
X108842861Y-140962381D01*
X108750704Y-140739343D01*
X108501967Y-140490171D01*
X108176810Y-140355154D01*
X107824735Y-140354847D01*
X107499343Y-140489296D01*
X107250171Y-140738033D01*
X107115154Y-141063190D01*
X107114847Y-141415265D01*
X104148379Y-141415265D01*
X104047592Y-141171343D01*
X103746554Y-140869779D01*
X104046371Y-140570485D01*
X104234785Y-140116734D01*
X104234952Y-139925265D01*
X111724847Y-139925265D01*
X111859296Y-140250657D01*
X112108033Y-140499829D01*
X112433190Y-140634846D01*
X112785265Y-140635153D01*
X113110657Y-140500704D01*
X113359829Y-140251967D01*
X113494846Y-139926810D01*
X113495004Y-139745265D01*
X115834847Y-139745265D01*
X115969296Y-140070657D01*
X116218033Y-140319829D01*
X116543190Y-140454846D01*
X116895265Y-140455153D01*
X117220657Y-140320704D01*
X117469829Y-140071967D01*
X117543202Y-139895265D01*
X122554847Y-139895265D01*
X122689296Y-140220657D01*
X122938033Y-140469829D01*
X123263190Y-140604846D01*
X123615265Y-140605153D01*
X123663397Y-140585265D01*
X124794847Y-140585265D01*
X124929296Y-140910657D01*
X125178033Y-141159829D01*
X125503190Y-141294846D01*
X125855265Y-141295153D01*
X126180657Y-141160704D01*
X126429829Y-140911967D01*
X126564846Y-140586810D01*
X126565153Y-140234735D01*
X126430704Y-139909343D01*
X126376721Y-139855265D01*
X127864847Y-139855265D01*
X127999296Y-140180657D01*
X128248033Y-140429829D01*
X128573190Y-140564846D01*
X128925265Y-140565153D01*
X129250657Y-140430704D01*
X129356280Y-140325265D01*
X134314847Y-140325265D01*
X134449296Y-140650657D01*
X134698033Y-140899829D01*
X135023190Y-141034846D01*
X135375265Y-141035153D01*
X135700657Y-140900704D01*
X135949829Y-140651967D01*
X136084846Y-140326810D01*
X136085153Y-139974735D01*
X135950704Y-139649343D01*
X135701967Y-139400171D01*
X135376810Y-139265154D01*
X135024735Y-139264847D01*
X134699343Y-139399296D01*
X134450171Y-139648033D01*
X134315154Y-139973190D01*
X134314847Y-140325265D01*
X129356280Y-140325265D01*
X129499829Y-140181967D01*
X129634846Y-139856810D01*
X129635153Y-139504735D01*
X129560935Y-139325114D01*
X129605265Y-139325153D01*
X129930657Y-139190704D01*
X130165033Y-138956737D01*
X130218033Y-139009829D01*
X130543190Y-139144846D01*
X130895265Y-139145153D01*
X131220657Y-139010704D01*
X131469829Y-138761967D01*
X131604846Y-138436810D01*
X131605153Y-138084735D01*
X131553048Y-137958631D01*
X131616758Y-137895032D01*
X131755265Y-137895153D01*
X132080657Y-137760704D01*
X132329829Y-137511967D01*
X132425076Y-137282587D01*
X132424847Y-137545265D01*
X132516922Y-137768105D01*
X132415154Y-138013190D01*
X132414847Y-138365265D01*
X132549296Y-138690657D01*
X132798033Y-138939829D01*
X133123190Y-139074846D01*
X133475265Y-139075153D01*
X133800657Y-138940704D01*
X134049829Y-138691967D01*
X134184846Y-138366810D01*
X134184900Y-138304961D01*
X134405265Y-138305153D01*
X134730657Y-138170704D01*
X134979829Y-137921967D01*
X135114846Y-137596810D01*
X135115153Y-137244735D01*
X134980704Y-136919343D01*
X134731967Y-136670171D01*
X134406810Y-136535154D01*
X134226305Y-136534997D01*
X134357401Y-136447401D01*
X134649777Y-136155025D01*
X134950657Y-136030704D01*
X135199829Y-135781967D01*
X135334846Y-135456810D01*
X135335153Y-135104735D01*
X135200704Y-134779343D01*
X134951967Y-134530171D01*
X134626810Y-134395154D01*
X134274735Y-134394847D01*
X133949343Y-134529296D01*
X133700171Y-134778033D01*
X133574489Y-135080709D01*
X133505198Y-135150000D01*
X133418065Y-135150000D01*
X133430000Y-135090000D01*
X133430000Y-134445009D01*
X133595265Y-134445153D01*
X133920657Y-134310704D01*
X134169829Y-134061967D01*
X134253373Y-133860770D01*
X134263190Y-133864846D01*
X134615265Y-133865153D01*
X134940657Y-133730704D01*
X135189829Y-133481967D01*
X135324846Y-133156810D01*
X135325153Y-132804735D01*
X135190704Y-132479343D01*
X135101597Y-132390080D01*
X135169829Y-132321967D01*
X135304846Y-131996810D01*
X135305153Y-131644735D01*
X135170704Y-131319343D01*
X134921967Y-131070171D01*
X134892311Y-131057857D01*
X134820037Y-130882939D01*
X134970657Y-130820704D01*
X135219829Y-130571967D01*
X135354846Y-130246810D01*
X135355153Y-129894735D01*
X135220704Y-129569343D01*
X134971967Y-129320171D01*
X134954382Y-129312869D01*
X134820704Y-128989343D01*
X134571967Y-128740171D01*
X134411402Y-128673499D01*
X134430000Y-128580000D01*
X134430000Y-127730000D01*
X134404810Y-127603362D01*
X134580657Y-127530704D01*
X134829829Y-127281967D01*
X134964846Y-126956810D01*
X134965153Y-126604735D01*
X134830704Y-126279343D01*
X134581967Y-126030171D01*
X134294335Y-125910736D01*
X134260704Y-125829343D01*
X134011967Y-125580171D01*
X133686810Y-125445154D01*
X133334735Y-125444847D01*
X133290000Y-125463331D01*
X133290000Y-124298746D01*
X133369296Y-124490657D01*
X133584907Y-124706645D01*
X133584847Y-124775265D01*
X133719296Y-125100657D01*
X133968033Y-125349829D01*
X134293190Y-125484846D01*
X134645265Y-125485153D01*
X134970657Y-125350704D01*
X135219829Y-125101967D01*
X135354846Y-124776810D01*
X135355153Y-124424735D01*
X135220704Y-124099343D01*
X135005093Y-123883355D01*
X135005153Y-123814735D01*
X134870704Y-123489343D01*
X134621967Y-123240171D01*
X134327889Y-123118059D01*
X134373921Y-123007202D01*
X134510657Y-122950704D01*
X134759829Y-122701967D01*
X134894846Y-122376810D01*
X134894949Y-122259233D01*
X134980839Y-122242148D01*
X135227401Y-122077401D01*
X135627401Y-121677401D01*
X135792148Y-121430840D01*
X135808262Y-121349829D01*
X135850000Y-121140000D01*
X135850000Y-120400000D01*
X135804014Y-120168816D01*
X136220000Y-120584802D01*
X136220000Y-134802527D01*
X136095154Y-135103190D01*
X136094847Y-135455265D01*
X136229296Y-135780657D01*
X136478033Y-136029829D01*
X136803190Y-136164846D01*
X136870000Y-136164904D01*
X136870000Y-136550000D01*
X136897073Y-136686102D01*
X136889343Y-136689296D01*
X136640171Y-136938033D01*
X136505154Y-137263190D01*
X136504847Y-137615265D01*
X136639296Y-137940657D01*
X136888033Y-138189829D01*
X137213190Y-138324846D01*
X137565265Y-138325153D01*
X137890657Y-138190704D01*
X138104363Y-137977371D01*
X138363190Y-138084846D01*
X138715265Y-138085153D01*
X139040657Y-137950704D01*
X139289829Y-137701967D01*
X139393962Y-137451186D01*
X139523190Y-137504846D01*
X139875265Y-137505153D01*
X140200657Y-137370704D01*
X140449829Y-137121967D01*
X140584846Y-136796810D01*
X140584898Y-136736655D01*
X140602148Y-136710839D01*
X140660000Y-136420000D01*
X140660000Y-136285265D01*
X143904847Y-136285265D01*
X144039296Y-136610657D01*
X144288033Y-136859829D01*
X144613190Y-136994846D01*
X144965265Y-136995153D01*
X145290657Y-136860704D01*
X145455099Y-136696549D01*
X145454786Y-137054579D01*
X145642408Y-137508657D01*
X145989515Y-137856371D01*
X146443266Y-138044785D01*
X146934579Y-138045214D01*
X147388657Y-137857592D01*
X147736371Y-137510485D01*
X147924785Y-137056734D01*
X147925214Y-136565421D01*
X147737592Y-136111343D01*
X147390485Y-135763629D01*
X146936734Y-135575215D01*
X146445421Y-135574786D01*
X145991343Y-135762408D01*
X145675028Y-136078171D01*
X145675153Y-135934735D01*
X145540704Y-135609343D01*
X145291967Y-135360171D01*
X144966810Y-135225154D01*
X144614735Y-135224847D01*
X144289343Y-135359296D01*
X144040171Y-135608033D01*
X143905154Y-135933190D01*
X143904847Y-136285265D01*
X140660000Y-136285265D01*
X140660000Y-129029712D01*
X140913190Y-129134846D01*
X141070000Y-129134983D01*
X141070000Y-134052527D01*
X140945154Y-134353190D01*
X140944847Y-134705265D01*
X141079296Y-135030657D01*
X141328033Y-135279829D01*
X141653190Y-135414846D01*
X142005265Y-135415153D01*
X142330657Y-135280704D01*
X142579829Y-135031967D01*
X142653298Y-134855033D01*
X142688033Y-134889829D01*
X143013190Y-135024846D01*
X143365265Y-135025153D01*
X143690657Y-134890704D01*
X143939829Y-134641967D01*
X144074846Y-134316810D01*
X144075153Y-133964735D01*
X143940704Y-133639343D01*
X143691967Y-133390171D01*
X143366810Y-133255154D01*
X143014735Y-133254847D01*
X142689343Y-133389296D01*
X142590000Y-133488466D01*
X142590000Y-132462760D01*
X142643190Y-132484846D01*
X142995265Y-132485153D01*
X143320657Y-132350704D01*
X143569829Y-132101967D01*
X143704846Y-131776810D01*
X143705153Y-131424735D01*
X143570704Y-131099343D01*
X143546531Y-131075128D01*
X143575265Y-131075153D01*
X143900657Y-130940704D01*
X144149829Y-130691967D01*
X144284846Y-130366810D01*
X144285153Y-130014735D01*
X144150704Y-129689343D01*
X143901967Y-129440171D01*
X143576810Y-129305154D01*
X143224735Y-129304847D01*
X142899343Y-129439296D01*
X142650171Y-129688033D01*
X142590000Y-129832941D01*
X142590000Y-128215265D01*
X143624847Y-128215265D01*
X143759296Y-128540657D01*
X144008033Y-128789829D01*
X144333190Y-128924846D01*
X144685265Y-128925153D01*
X145010657Y-128790704D01*
X145259829Y-128541967D01*
X145394846Y-128216810D01*
X145395153Y-127864735D01*
X145260704Y-127539343D01*
X145011967Y-127290171D01*
X144686810Y-127155154D01*
X144334735Y-127154847D01*
X144009343Y-127289296D01*
X143760171Y-127538033D01*
X143625154Y-127863190D01*
X143624847Y-128215265D01*
X142590000Y-128215265D01*
X142590000Y-127270000D01*
X142532148Y-126979161D01*
X142367401Y-126732599D01*
X141420000Y-125785198D01*
X141420000Y-122246150D01*
X141513190Y-122284846D01*
X141865265Y-122285153D01*
X142190657Y-122150704D01*
X142439829Y-121901967D01*
X142574846Y-121576810D01*
X142575153Y-121224735D01*
X142440704Y-120899343D01*
X142191967Y-120650171D01*
X141866810Y-120515154D01*
X141514735Y-120514847D01*
X141420000Y-120553991D01*
X141420000Y-117750000D01*
X141362148Y-117459161D01*
X141197401Y-117212599D01*
X141119854Y-117135052D01*
X141235265Y-117135153D01*
X141560657Y-117000704D01*
X141809829Y-116751967D01*
X141944846Y-116426810D01*
X141945153Y-116074735D01*
X141810704Y-115749343D01*
X141561967Y-115500171D01*
X141236810Y-115365154D01*
X140884735Y-115364847D01*
X140559343Y-115499296D01*
X140310171Y-115748033D01*
X140175154Y-116073190D01*
X140174982Y-116270620D01*
X140170839Y-116267852D01*
X139880000Y-116210000D01*
X137100000Y-116210000D01*
X136809160Y-116267852D01*
X136562599Y-116432599D01*
X136242599Y-116752599D01*
X136077852Y-116999161D01*
X136020000Y-117290000D01*
X136020000Y-117440000D01*
X134961432Y-117440000D01*
X135169829Y-117231967D01*
X135304846Y-116906810D01*
X135305153Y-116554735D01*
X135234961Y-116384856D01*
X135575265Y-116385153D01*
X135900657Y-116250704D01*
X136149829Y-116001967D01*
X136284846Y-115676810D01*
X136285153Y-115324735D01*
X136150704Y-114999343D01*
X135901967Y-114750171D01*
X135576810Y-114615154D01*
X135224735Y-114614847D01*
X134899343Y-114749296D01*
X134650171Y-114998033D01*
X134515154Y-115323190D01*
X134514847Y-115675265D01*
X134585039Y-115845144D01*
X134244735Y-115844847D01*
X133919343Y-115979296D01*
X133849259Y-116049258D01*
X133974846Y-115746810D01*
X133975153Y-115394735D01*
X133840704Y-115069343D01*
X133591967Y-114820171D01*
X133266810Y-114685154D01*
X132914735Y-114684847D01*
X132589343Y-114819296D01*
X132340171Y-115068033D01*
X132205154Y-115393190D01*
X132204847Y-115745265D01*
X132339296Y-116070657D01*
X132588033Y-116319829D01*
X132913190Y-116454846D01*
X133265265Y-116455153D01*
X133590657Y-116320704D01*
X133660741Y-116250742D01*
X133535154Y-116553190D01*
X133534847Y-116905265D01*
X133669296Y-117230657D01*
X133768348Y-117329882D01*
X133479343Y-117449296D01*
X133230171Y-117698033D01*
X133095154Y-118023190D01*
X133094847Y-118375265D01*
X133229296Y-118700657D01*
X133478033Y-118949829D01*
X133803190Y-119084846D01*
X134155265Y-119085153D01*
X134458159Y-118960000D01*
X135530000Y-118960000D01*
X135530000Y-119580000D01*
X135575986Y-119811184D01*
X135187401Y-119422599D01*
X134940839Y-119257852D01*
X134650000Y-119200000D01*
X133920000Y-119200000D01*
X133629160Y-119257852D01*
X133382599Y-119422599D01*
X133330223Y-119474975D01*
X133029343Y-119599296D01*
X132780171Y-119848033D01*
X132645154Y-120173190D01*
X132645035Y-120310000D01*
X132500000Y-120310000D01*
X132209161Y-120367852D01*
X131962599Y-120532599D01*
X131522599Y-120972599D01*
X131357852Y-121219161D01*
X131300000Y-121510000D01*
X131300000Y-124598375D01*
X131201967Y-124500171D01*
X130876810Y-124365154D01*
X130524735Y-124364847D01*
X130199343Y-124499296D01*
X129950171Y-124748033D01*
X129815154Y-125073190D01*
X129814847Y-125425265D01*
X129949296Y-125750657D01*
X130198033Y-125999829D01*
X130471206Y-126113260D01*
X130569296Y-126350657D01*
X130818033Y-126599829D01*
X131143190Y-126734846D01*
X131300000Y-126734983D01*
X131300000Y-126770000D01*
X131337887Y-126960470D01*
X131250171Y-127048033D01*
X131250046Y-127048334D01*
X131201967Y-127000171D01*
X130876810Y-126865154D01*
X130524735Y-126864847D01*
X130212178Y-126993993D01*
X130166810Y-126975154D01*
X129814735Y-126974847D01*
X129510000Y-127100761D01*
X129510000Y-124254939D01*
X129755265Y-124255153D01*
X130080657Y-124120704D01*
X130329829Y-123871967D01*
X130464846Y-123546810D01*
X130465153Y-123194735D01*
X130334049Y-122877440D01*
X130509829Y-122701967D01*
X130644846Y-122376810D01*
X130645153Y-122024735D01*
X130510704Y-121699343D01*
X130261967Y-121450171D01*
X129936810Y-121315154D01*
X129584735Y-121314847D01*
X129281841Y-121440000D01*
X129070000Y-121440000D01*
X128779160Y-121497852D01*
X128532599Y-121662599D01*
X128212599Y-121982599D01*
X128047852Y-122229161D01*
X127990000Y-122520000D01*
X127990000Y-128670000D01*
X128047852Y-128960839D01*
X128212599Y-129207401D01*
X128592599Y-129587401D01*
X128839161Y-129752148D01*
X129130000Y-129810000D01*
X129530000Y-129810000D01*
X129530000Y-131756803D01*
X129209343Y-131889296D01*
X128960171Y-132138033D01*
X128825154Y-132463190D01*
X128824847Y-132815265D01*
X128959296Y-133140657D01*
X129208033Y-133389829D01*
X129530000Y-133523521D01*
X129530000Y-133562527D01*
X129405154Y-133863190D01*
X129404847Y-134215265D01*
X129539296Y-134540657D01*
X129788033Y-134789829D01*
X130113190Y-134924846D01*
X130390000Y-134925087D01*
X130390000Y-135085198D01*
X129752599Y-135722599D01*
X129587852Y-135969161D01*
X129530000Y-136260000D01*
X129530000Y-137555087D01*
X129254735Y-137554847D01*
X128929343Y-137689296D01*
X128680171Y-137938033D01*
X128545154Y-138263190D01*
X128544847Y-138615265D01*
X128619065Y-138794886D01*
X128574735Y-138794847D01*
X128249343Y-138929296D01*
X128000171Y-139178033D01*
X127865154Y-139503190D01*
X127864847Y-139855265D01*
X126376721Y-139855265D01*
X126181967Y-139660171D01*
X125856810Y-139525154D01*
X125504735Y-139524847D01*
X125179343Y-139659296D01*
X124930171Y-139908033D01*
X124795154Y-140233190D01*
X124794847Y-140585265D01*
X123663397Y-140585265D01*
X123940657Y-140470704D01*
X124189829Y-140221967D01*
X124324846Y-139896810D01*
X124325153Y-139544735D01*
X124190704Y-139219343D01*
X123941967Y-138970171D01*
X123616810Y-138835154D01*
X123264735Y-138834847D01*
X122939343Y-138969296D01*
X122690171Y-139218033D01*
X122555154Y-139543190D01*
X122554847Y-139895265D01*
X117543202Y-139895265D01*
X117604846Y-139746810D01*
X117605153Y-139394735D01*
X117470704Y-139069343D01*
X117221967Y-138820171D01*
X116896810Y-138685154D01*
X116544735Y-138684847D01*
X116219343Y-138819296D01*
X115970171Y-139068033D01*
X115835154Y-139393190D01*
X115834847Y-139745265D01*
X113495004Y-139745265D01*
X113495153Y-139574735D01*
X113360704Y-139249343D01*
X113111967Y-139000171D01*
X112786810Y-138865154D01*
X112434735Y-138864847D01*
X112109343Y-138999296D01*
X111860171Y-139248033D01*
X111725154Y-139573190D01*
X111724847Y-139925265D01*
X104234952Y-139925265D01*
X104235214Y-139625421D01*
X104047592Y-139171343D01*
X103746554Y-138869779D01*
X104046371Y-138570485D01*
X104065147Y-138525265D01*
X108834847Y-138525265D01*
X108969296Y-138850657D01*
X109218033Y-139099829D01*
X109543190Y-139234846D01*
X109895265Y-139235153D01*
X110220657Y-139100704D01*
X110469829Y-138851967D01*
X110604846Y-138526810D01*
X110605153Y-138174735D01*
X110485547Y-137885265D01*
X110914847Y-137885265D01*
X111049296Y-138210657D01*
X111298033Y-138459829D01*
X111623190Y-138594846D01*
X111975265Y-138595153D01*
X112300657Y-138460704D01*
X112549829Y-138211967D01*
X112684846Y-137886810D01*
X112685153Y-137534735D01*
X112550704Y-137209343D01*
X112301967Y-136960171D01*
X111976810Y-136825154D01*
X111624735Y-136824847D01*
X111299343Y-136959296D01*
X111050171Y-137208033D01*
X110915154Y-137533190D01*
X110914847Y-137885265D01*
X110485547Y-137885265D01*
X110470704Y-137849343D01*
X110221967Y-137600171D01*
X109896810Y-137465154D01*
X109544735Y-137464847D01*
X109219343Y-137599296D01*
X108970171Y-137848033D01*
X108835154Y-138173190D01*
X108834847Y-138525265D01*
X104065147Y-138525265D01*
X104234785Y-138116734D01*
X104235214Y-137625421D01*
X104047592Y-137171343D01*
X103746554Y-136869779D01*
X104046371Y-136570485D01*
X104131585Y-136365265D01*
X108154847Y-136365265D01*
X108289296Y-136690657D01*
X108538033Y-136939829D01*
X108863190Y-137074846D01*
X109215265Y-137075153D01*
X109540657Y-136940704D01*
X109789829Y-136691967D01*
X109842440Y-136565265D01*
X113764847Y-136565265D01*
X113899296Y-136890657D01*
X114148033Y-137139829D01*
X114473190Y-137274846D01*
X114825265Y-137275153D01*
X115150657Y-137140704D01*
X115399829Y-136891967D01*
X115534846Y-136566810D01*
X115534943Y-136455083D01*
X115615265Y-136455153D01*
X115940657Y-136320704D01*
X116189829Y-136071967D01*
X116324846Y-135746810D01*
X116325153Y-135394735D01*
X116190704Y-135069343D01*
X115941967Y-134820171D01*
X115616810Y-134685154D01*
X115264735Y-134684847D01*
X114939343Y-134819296D01*
X114690171Y-135068033D01*
X114555154Y-135393190D01*
X114555057Y-135504917D01*
X114474735Y-135504847D01*
X114149343Y-135639296D01*
X113900171Y-135888033D01*
X113765154Y-136213190D01*
X113764847Y-136565265D01*
X109842440Y-136565265D01*
X109924846Y-136366810D01*
X109925153Y-136014735D01*
X109790704Y-135689343D01*
X109541967Y-135440171D01*
X109216810Y-135305154D01*
X108864735Y-135304847D01*
X108539343Y-135439296D01*
X108290171Y-135688033D01*
X108155154Y-136013190D01*
X108154847Y-136365265D01*
X104131585Y-136365265D01*
X104234785Y-136116734D01*
X104235214Y-135625421D01*
X104047592Y-135171343D01*
X103746554Y-134869779D01*
X103871285Y-134745265D01*
X110314847Y-134745265D01*
X110449296Y-135070657D01*
X110698033Y-135319829D01*
X111023190Y-135454846D01*
X111375265Y-135455153D01*
X111700657Y-135320704D01*
X111949829Y-135071967D01*
X112084846Y-134746810D01*
X112085153Y-134394735D01*
X111950704Y-134069343D01*
X111701967Y-133820171D01*
X111376810Y-133685154D01*
X111024735Y-133684847D01*
X110699343Y-133819296D01*
X110450171Y-134068033D01*
X110315154Y-134393190D01*
X110314847Y-134745265D01*
X103871285Y-134745265D01*
X104046371Y-134570485D01*
X104234785Y-134116734D01*
X104235214Y-133625421D01*
X104047592Y-133171343D01*
X103801944Y-132925265D01*
X111714847Y-132925265D01*
X111849296Y-133250657D01*
X112098033Y-133499829D01*
X112115618Y-133507131D01*
X112249296Y-133830657D01*
X112385012Y-133966610D01*
X112384847Y-134155265D01*
X112519296Y-134480657D01*
X112768033Y-134729829D01*
X113093190Y-134864846D01*
X113445265Y-134865153D01*
X113770657Y-134730704D01*
X113866262Y-134635265D01*
X120524847Y-134635265D01*
X120659296Y-134960657D01*
X120908033Y-135209829D01*
X121233190Y-135344846D01*
X121585265Y-135345153D01*
X121910657Y-135210704D01*
X122159829Y-134961967D01*
X122294846Y-134636810D01*
X122295153Y-134284735D01*
X122160704Y-133959343D01*
X121911967Y-133710171D01*
X121586810Y-133575154D01*
X121234735Y-133574847D01*
X120909343Y-133709296D01*
X120660171Y-133958033D01*
X120525154Y-134283190D01*
X120524847Y-134635265D01*
X113866262Y-134635265D01*
X114019829Y-134481967D01*
X114154846Y-134156810D01*
X114155153Y-133804735D01*
X114020704Y-133479343D01*
X113884988Y-133343390D01*
X113885153Y-133154735D01*
X113750704Y-132829343D01*
X113501967Y-132580171D01*
X113484382Y-132572869D01*
X113350704Y-132249343D01*
X113101967Y-132000171D01*
X112776810Y-131865154D01*
X112424735Y-131864847D01*
X112099343Y-131999296D01*
X111850171Y-132248033D01*
X111715154Y-132573190D01*
X111714847Y-132925265D01*
X103801944Y-132925265D01*
X103746554Y-132869779D01*
X104046371Y-132570485D01*
X104234785Y-132116734D01*
X104234838Y-132055265D01*
X109544847Y-132055265D01*
X109679296Y-132380657D01*
X109928033Y-132629829D01*
X110253190Y-132764846D01*
X110605265Y-132765153D01*
X110930657Y-132630704D01*
X111179829Y-132381967D01*
X111314846Y-132056810D01*
X111315153Y-131704735D01*
X111180704Y-131379343D01*
X110931967Y-131130171D01*
X110606810Y-130995154D01*
X110254735Y-130994847D01*
X109929343Y-131129296D01*
X109680171Y-131378033D01*
X109545154Y-131703190D01*
X109544847Y-132055265D01*
X104234838Y-132055265D01*
X104235214Y-131625421D01*
X104047592Y-131171343D01*
X103746554Y-130869779D01*
X104046371Y-130570485D01*
X104234785Y-130116734D01*
X104235214Y-129625421D01*
X104047592Y-129171343D01*
X103811926Y-128935265D01*
X104404847Y-128935265D01*
X104539296Y-129260657D01*
X104788033Y-129509829D01*
X105113190Y-129644846D01*
X105465265Y-129645153D01*
X105790657Y-129510704D01*
X106039829Y-129261967D01*
X106174846Y-128936810D01*
X106174856Y-128925265D01*
X112034847Y-128925265D01*
X112166358Y-129243546D01*
X112075154Y-129463190D01*
X112074847Y-129815265D01*
X112209296Y-130140657D01*
X112458033Y-130389829D01*
X112783190Y-130524846D01*
X113135265Y-130525153D01*
X113460657Y-130390704D01*
X113709829Y-130141967D01*
X113844846Y-129816810D01*
X113845100Y-129525265D01*
X114764847Y-129525265D01*
X114892301Y-129833729D01*
X114855154Y-129923190D01*
X114854847Y-130275265D01*
X114989296Y-130600657D01*
X115238033Y-130849829D01*
X115539048Y-130974821D01*
X115415154Y-131273190D01*
X115414847Y-131625265D01*
X115549296Y-131950657D01*
X115798033Y-132199829D01*
X116123190Y-132334846D01*
X116475265Y-132335153D01*
X116800657Y-132200704D01*
X117049829Y-131951967D01*
X117184846Y-131626810D01*
X117185153Y-131274735D01*
X117050704Y-130949343D01*
X116801967Y-130700171D01*
X116500952Y-130575179D01*
X116624846Y-130276810D01*
X116625153Y-129924735D01*
X116497699Y-129616271D01*
X116534846Y-129526810D01*
X116535153Y-129174735D01*
X116400704Y-128849343D01*
X116151967Y-128600171D01*
X115826810Y-128465154D01*
X115474735Y-128464847D01*
X115149343Y-128599296D01*
X114900171Y-128848033D01*
X114765154Y-129173190D01*
X114764847Y-129525265D01*
X113845100Y-129525265D01*
X113845153Y-129464735D01*
X113713642Y-129146454D01*
X113804846Y-128926810D01*
X113805153Y-128574735D01*
X113670704Y-128249343D01*
X113421967Y-128000171D01*
X113096810Y-127865154D01*
X112744735Y-127864847D01*
X112419343Y-127999296D01*
X112170171Y-128248033D01*
X112035154Y-128573190D01*
X112034847Y-128925265D01*
X106174856Y-128925265D01*
X106175153Y-128584735D01*
X106040704Y-128259343D01*
X105791967Y-128010171D01*
X105466810Y-127875154D01*
X105114735Y-127874847D01*
X104789343Y-128009296D01*
X104540171Y-128258033D01*
X104405154Y-128583190D01*
X104404847Y-128935265D01*
X103811926Y-128935265D01*
X103746554Y-128869779D01*
X104046371Y-128570485D01*
X104234785Y-128116734D01*
X104235214Y-127625421D01*
X104193831Y-127525265D01*
X105774847Y-127525265D01*
X105909296Y-127850657D01*
X106158033Y-128099829D01*
X106483190Y-128234846D01*
X106835265Y-128235153D01*
X107160657Y-128100704D01*
X107409829Y-127851967D01*
X107462440Y-127725265D01*
X109604847Y-127725265D01*
X109739296Y-128050657D01*
X109988033Y-128299829D01*
X110313190Y-128434846D01*
X110665265Y-128435153D01*
X110990657Y-128300704D01*
X111239829Y-128051967D01*
X111374846Y-127726810D01*
X111375153Y-127374735D01*
X111240704Y-127049343D01*
X110991967Y-126800171D01*
X110666810Y-126665154D01*
X110314735Y-126664847D01*
X109989343Y-126799296D01*
X109740171Y-127048033D01*
X109605154Y-127373190D01*
X109604847Y-127725265D01*
X107462440Y-127725265D01*
X107544846Y-127526810D01*
X107545153Y-127174735D01*
X107410704Y-126849343D01*
X107161967Y-126600171D01*
X106885243Y-126485265D01*
X111824847Y-126485265D01*
X111959296Y-126810657D01*
X112208033Y-127059829D01*
X112533190Y-127194846D01*
X112885265Y-127195153D01*
X113210657Y-127060704D01*
X113459829Y-126811967D01*
X113594846Y-126486810D01*
X113595153Y-126134735D01*
X113460704Y-125809343D01*
X113281545Y-125629870D01*
X113486507Y-125425265D01*
X114754847Y-125425265D01*
X114889296Y-125750657D01*
X114898185Y-125759561D01*
X114855154Y-125863190D01*
X114854847Y-126215265D01*
X114989296Y-126540657D01*
X115035142Y-126586583D01*
X115034847Y-126925265D01*
X115087487Y-127052663D01*
X114975154Y-127323190D01*
X114974847Y-127675265D01*
X115109296Y-128000657D01*
X115358033Y-128249829D01*
X115683190Y-128384846D01*
X116035265Y-128385153D01*
X116360657Y-128250704D01*
X116609829Y-128001967D01*
X116744846Y-127676810D01*
X116745153Y-127324735D01*
X116692513Y-127197337D01*
X116804846Y-126926810D01*
X116805153Y-126574735D01*
X116670704Y-126249343D01*
X116624858Y-126203417D01*
X116625153Y-125864735D01*
X116490704Y-125539343D01*
X116481815Y-125530439D01*
X116524846Y-125426810D01*
X116525153Y-125074735D01*
X116508734Y-125034999D01*
X116685265Y-125035153D01*
X117010657Y-124900704D01*
X117259829Y-124651967D01*
X117394846Y-124326810D01*
X117395153Y-123974735D01*
X117260704Y-123649343D01*
X117011967Y-123400171D01*
X116686810Y-123265154D01*
X116334735Y-123264847D01*
X116009343Y-123399296D01*
X115760171Y-123648033D01*
X115625154Y-123973190D01*
X115624847Y-124325265D01*
X115641266Y-124365001D01*
X115464735Y-124364847D01*
X115139343Y-124499296D01*
X114890171Y-124748033D01*
X114755154Y-125073190D01*
X114754847Y-125425265D01*
X113486507Y-125425265D01*
X113499829Y-125411967D01*
X113634846Y-125086810D01*
X113635153Y-124734735D01*
X113500704Y-124409343D01*
X113251967Y-124160171D01*
X112926810Y-124025154D01*
X112574735Y-124024847D01*
X112249343Y-124159296D01*
X112000171Y-124408033D01*
X111865154Y-124733190D01*
X111864847Y-125085265D01*
X111999296Y-125410657D01*
X112178455Y-125590130D01*
X111960171Y-125808033D01*
X111825154Y-126133190D01*
X111824847Y-126485265D01*
X106885243Y-126485265D01*
X106836810Y-126465154D01*
X106484735Y-126464847D01*
X106159343Y-126599296D01*
X105910171Y-126848033D01*
X105775154Y-127173190D01*
X105774847Y-127525265D01*
X104193831Y-127525265D01*
X104047592Y-127171343D01*
X103746554Y-126869779D01*
X104046371Y-126570485D01*
X104234785Y-126116734D01*
X104235214Y-125625421D01*
X104047592Y-125171343D01*
X103746554Y-124869779D01*
X104046371Y-124570485D01*
X104234785Y-124116734D01*
X104234838Y-124055265D01*
X109524847Y-124055265D01*
X109659296Y-124380657D01*
X109908033Y-124629829D01*
X110233190Y-124764846D01*
X110585265Y-124765153D01*
X110910657Y-124630704D01*
X111159829Y-124381967D01*
X111294846Y-124056810D01*
X111295153Y-123704735D01*
X111160704Y-123379343D01*
X110911967Y-123130171D01*
X110586810Y-122995154D01*
X110234735Y-122994847D01*
X109909343Y-123129296D01*
X109660171Y-123378033D01*
X109525154Y-123703190D01*
X109524847Y-124055265D01*
X104234838Y-124055265D01*
X104235214Y-123625421D01*
X104047592Y-123171343D01*
X103746554Y-122869779D01*
X104046371Y-122570485D01*
X104234785Y-122116734D01*
X104235214Y-121625421D01*
X104047592Y-121171343D01*
X103746554Y-120869779D01*
X104046371Y-120570485D01*
X104234785Y-120116734D01*
X104235214Y-119625421D01*
X104231018Y-119615265D01*
X116564847Y-119615265D01*
X116699296Y-119940657D01*
X116883290Y-120124972D01*
X116850171Y-120158033D01*
X116715154Y-120483190D01*
X116714847Y-120835265D01*
X116849296Y-121160657D01*
X117098033Y-121409829D01*
X117416095Y-121541900D01*
X117469296Y-121670657D01*
X117718033Y-121919829D01*
X118043190Y-122054846D01*
X118061451Y-122054862D01*
X118109296Y-122170657D01*
X118358033Y-122419829D01*
X118683190Y-122554846D01*
X118701451Y-122554862D01*
X118749296Y-122670657D01*
X118998033Y-122919829D01*
X119323190Y-123054846D01*
X119323840Y-123054847D01*
X119359296Y-123140657D01*
X119608033Y-123389829D01*
X119852076Y-123491165D01*
X119959296Y-123750657D01*
X120208033Y-123999829D01*
X120533190Y-124134846D01*
X120885265Y-124135153D01*
X121163862Y-124020039D01*
X121140000Y-124140000D01*
X121140000Y-127590288D01*
X120957949Y-127514693D01*
X120860704Y-127279343D01*
X120611967Y-127030171D01*
X120286810Y-126895154D01*
X119934735Y-126894847D01*
X119609343Y-127029296D01*
X119360171Y-127278033D01*
X119225154Y-127603190D01*
X119224847Y-127955265D01*
X119359296Y-128280657D01*
X119608033Y-128529829D01*
X119862051Y-128635307D01*
X119959296Y-128870657D01*
X120208033Y-129119829D01*
X120340404Y-129174794D01*
X120132599Y-129382599D01*
X119967852Y-129629161D01*
X119910000Y-129920000D01*
X119910000Y-129941983D01*
X119699664Y-129854644D01*
X119610704Y-129639343D01*
X119361967Y-129390171D01*
X119059664Y-129264644D01*
X118970704Y-129049343D01*
X118721967Y-128800171D01*
X118448794Y-128686740D01*
X118350704Y-128449343D01*
X118101967Y-128200171D01*
X117776810Y-128065154D01*
X117424735Y-128064847D01*
X117099343Y-128199296D01*
X116850171Y-128448033D01*
X116715154Y-128773190D01*
X116714847Y-129125265D01*
X116849296Y-129450657D01*
X117098033Y-129699829D01*
X117371206Y-129813260D01*
X117469296Y-130050657D01*
X117718033Y-130299829D01*
X118020336Y-130425356D01*
X118109296Y-130640657D01*
X118358033Y-130889829D01*
X118660336Y-131015356D01*
X118749296Y-131230657D01*
X118998033Y-131479829D01*
X119323190Y-131614846D01*
X119675265Y-131615153D01*
X119860590Y-131538578D01*
X119919296Y-131680657D01*
X120168033Y-131929829D01*
X120493190Y-132064846D01*
X120845265Y-132065153D01*
X121170657Y-131930704D01*
X121419829Y-131681967D01*
X121554846Y-131356810D01*
X121555153Y-131004735D01*
X121430000Y-130701841D01*
X121430000Y-130234802D01*
X122437401Y-129227401D01*
X122602148Y-128980839D01*
X122660000Y-128690000D01*
X122660000Y-127924887D01*
X122965265Y-127925153D01*
X123290657Y-127790704D01*
X123539829Y-127541967D01*
X123640000Y-127300728D01*
X123640000Y-133084860D01*
X123624735Y-133084847D01*
X123299343Y-133219296D01*
X123050171Y-133468033D01*
X122915154Y-133793190D01*
X122914847Y-134145265D01*
X123049296Y-134470657D01*
X123298033Y-134719829D01*
X123623190Y-134854846D01*
X123640000Y-134854861D01*
X123640000Y-136060000D01*
X123697852Y-136350839D01*
X123765844Y-136452597D01*
X123630171Y-136588033D01*
X123495154Y-136913190D01*
X123494847Y-137265265D01*
X123629296Y-137590657D01*
X123878033Y-137839829D01*
X124203190Y-137974846D01*
X124555265Y-137975153D01*
X124880657Y-137840704D01*
X124993378Y-137728180D01*
X125042599Y-137777401D01*
X125289161Y-137942148D01*
X125580000Y-138000000D01*
X127142527Y-138000000D01*
X127443190Y-138124846D01*
X127795265Y-138125153D01*
X128120657Y-137990704D01*
X128369829Y-137741967D01*
X128504846Y-137416810D01*
X128505153Y-137064735D01*
X128370704Y-136739343D01*
X128121967Y-136490171D01*
X127796810Y-136355154D01*
X127444735Y-136354847D01*
X127141841Y-136480000D01*
X125894802Y-136480000D01*
X125160000Y-135745198D01*
X125160000Y-133184948D01*
X125395265Y-133185153D01*
X125454886Y-133160518D01*
X125454847Y-133205265D01*
X125589296Y-133530657D01*
X125838033Y-133779829D01*
X125969245Y-133834313D01*
X126079296Y-134100657D01*
X126328033Y-134349829D01*
X126501242Y-134421752D01*
X126579296Y-134610657D01*
X126828033Y-134859829D01*
X127153190Y-134994846D01*
X127505265Y-134995153D01*
X127596069Y-134957634D01*
X127728033Y-135089829D01*
X128053190Y-135224846D01*
X128405265Y-135225153D01*
X128730657Y-135090704D01*
X128979829Y-134841967D01*
X129114846Y-134516810D01*
X129115153Y-134164735D01*
X128980704Y-133839343D01*
X128834224Y-133692607D01*
X128767401Y-133592599D01*
X128340000Y-133165198D01*
X128340000Y-130690000D01*
X128282148Y-130399161D01*
X128117401Y-130152599D01*
X127697401Y-129732599D01*
X127450839Y-129567852D01*
X127160000Y-129510000D01*
X126380000Y-129510000D01*
X126380000Y-124648607D01*
X126443190Y-124674846D01*
X126795265Y-124675153D01*
X127120657Y-124540704D01*
X127369829Y-124291967D01*
X127504846Y-123966810D01*
X127505153Y-123614735D01*
X127370704Y-123289343D01*
X127121967Y-123040171D01*
X127055607Y-123012616D01*
X127350657Y-122890704D01*
X127599829Y-122641967D01*
X127734846Y-122316810D01*
X127735153Y-121964735D01*
X127600704Y-121639343D01*
X127387936Y-121426203D01*
X127570657Y-121350704D01*
X127819829Y-121101967D01*
X127954846Y-120776810D01*
X127955087Y-120500000D01*
X130550000Y-120500000D01*
X130840839Y-120442148D01*
X131087401Y-120277401D01*
X131947401Y-119417401D01*
X132112148Y-119170839D01*
X132170000Y-118880000D01*
X132170000Y-118537473D01*
X132294846Y-118236810D01*
X132295153Y-117884735D01*
X132160704Y-117559343D01*
X131911967Y-117310171D01*
X131586810Y-117175154D01*
X131234735Y-117174847D01*
X130909343Y-117309296D01*
X130660171Y-117558033D01*
X130578362Y-117755051D01*
X130344735Y-117754847D01*
X130107778Y-117852756D01*
X130041663Y-117825302D01*
X130144846Y-117576810D01*
X130145153Y-117224735D01*
X130010704Y-116899343D01*
X129996522Y-116885137D01*
X130015265Y-116885153D01*
X130340657Y-116750704D01*
X130589829Y-116501967D01*
X130724846Y-116176810D01*
X130725153Y-115824735D01*
X130590704Y-115499343D01*
X130341967Y-115250171D01*
X130016810Y-115115154D01*
X129664735Y-115114847D01*
X129339343Y-115249296D01*
X129090171Y-115498033D01*
X128955154Y-115823190D01*
X128954847Y-116175265D01*
X129089296Y-116500657D01*
X129103478Y-116514863D01*
X129084735Y-116514847D01*
X128759343Y-116649296D01*
X128510171Y-116898033D01*
X128375154Y-117223190D01*
X128374847Y-117575265D01*
X128509296Y-117900657D01*
X128758033Y-118149829D01*
X128938337Y-118224698D01*
X128835154Y-118473190D01*
X128835131Y-118500000D01*
X125055148Y-118500000D01*
X125055153Y-118494735D01*
X124920704Y-118169343D01*
X124736619Y-117984936D01*
X124985265Y-117985153D01*
X125310657Y-117850704D01*
X125559829Y-117601967D01*
X125694846Y-117276810D01*
X125695153Y-116924735D01*
X125560704Y-116599343D01*
X125311967Y-116350171D01*
X124986810Y-116215154D01*
X124751109Y-116214948D01*
X124620704Y-115899343D01*
X124371967Y-115650171D01*
X124046810Y-115515154D01*
X123694735Y-115514847D01*
X123369343Y-115649296D01*
X123120171Y-115898033D01*
X122985154Y-116223190D01*
X122984847Y-116575265D01*
X123119296Y-116900657D01*
X123368033Y-117149829D01*
X123693190Y-117284846D01*
X123928891Y-117285052D01*
X124059296Y-117600657D01*
X124243381Y-117785064D01*
X123994735Y-117784847D01*
X123669343Y-117919296D01*
X123489888Y-118098438D01*
X123291967Y-117900171D01*
X122966810Y-117765154D01*
X122614735Y-117764847D01*
X122361648Y-117869420D01*
X122474846Y-117596810D01*
X122475153Y-117244735D01*
X122340704Y-116919343D01*
X122091967Y-116670171D01*
X121766810Y-116535154D01*
X121414735Y-116534847D01*
X121089343Y-116669296D01*
X120840171Y-116918033D01*
X120705154Y-117243190D01*
X120704847Y-117595265D01*
X120839296Y-117920657D01*
X121088033Y-118169829D01*
X121413190Y-118304846D01*
X121765265Y-118305153D01*
X122018352Y-118200580D01*
X121905154Y-118473190D01*
X121905131Y-118500000D01*
X119439712Y-118500000D01*
X119544846Y-118246810D01*
X119545153Y-117894735D01*
X119410704Y-117569343D01*
X119354114Y-117512654D01*
X119364846Y-117486810D01*
X119365153Y-117134735D01*
X119230704Y-116809343D01*
X118981967Y-116560171D01*
X118656810Y-116425154D01*
X118304735Y-116424847D01*
X117979343Y-116559296D01*
X117730171Y-116808033D01*
X117595154Y-117133190D01*
X117594847Y-117485265D01*
X117729296Y-117810657D01*
X117785886Y-117867346D01*
X117775154Y-117893190D01*
X117774847Y-118245265D01*
X117880101Y-118500000D01*
X117630000Y-118500000D01*
X117387414Y-118548254D01*
X117353920Y-118554916D01*
X117274735Y-118554847D01*
X116949343Y-118689296D01*
X116700171Y-118938033D01*
X116565154Y-119263190D01*
X116564847Y-119615265D01*
X104231018Y-119615265D01*
X104047592Y-119171343D01*
X103746554Y-118869779D01*
X103771110Y-118845265D01*
X109134847Y-118845265D01*
X109269296Y-119170657D01*
X109518033Y-119419829D01*
X109843190Y-119554846D01*
X110195265Y-119555153D01*
X110520657Y-119420704D01*
X110769829Y-119171967D01*
X110904846Y-118846810D01*
X110905153Y-118494735D01*
X110770704Y-118169343D01*
X110521967Y-117920171D01*
X110196810Y-117785154D01*
X109844735Y-117784847D01*
X109519343Y-117919296D01*
X109270171Y-118168033D01*
X109135154Y-118493190D01*
X109134847Y-118845265D01*
X103771110Y-118845265D01*
X104046371Y-118570485D01*
X104234785Y-118116734D01*
X104235214Y-117625421D01*
X104047592Y-117171343D01*
X103700485Y-116823629D01*
X103246734Y-116635215D01*
X102755421Y-116634786D01*
X102301343Y-116822408D01*
X102158392Y-116965109D01*
X102064090Y-116818559D01*
X101851890Y-116673569D01*
X101600000Y-116622560D01*
X100685000Y-116622560D01*
X100685000Y-115167440D01*
X101650000Y-115167440D01*
X101885317Y-115123162D01*
X102101441Y-114984090D01*
X102180687Y-114868109D01*
X102271155Y-114958735D01*
X102743276Y-115154777D01*
X103254481Y-115155223D01*
X103726943Y-114960005D01*
X104000160Y-114687266D01*
X104271155Y-114958735D01*
X104743276Y-115154777D01*
X105254481Y-115155223D01*
X105726943Y-114960005D01*
X106088735Y-114598845D01*
X106284777Y-114126724D01*
X106284839Y-114055265D01*
X110314847Y-114055265D01*
X110449296Y-114380657D01*
X110698033Y-114629829D01*
X110976498Y-114745458D01*
X110915154Y-114893190D01*
X110914847Y-115245265D01*
X111049296Y-115570657D01*
X111298033Y-115819829D01*
X111623190Y-115954846D01*
X111975265Y-115955153D01*
X112300657Y-115820704D01*
X112536507Y-115585265D01*
X118364847Y-115585265D01*
X118499296Y-115910657D01*
X118748033Y-116159829D01*
X119073190Y-116294846D01*
X119425265Y-116295153D01*
X119750657Y-116160704D01*
X119999829Y-115911967D01*
X120085659Y-115705265D01*
X121284847Y-115705265D01*
X121419296Y-116030657D01*
X121668033Y-116279829D01*
X121993190Y-116414846D01*
X122345265Y-116415153D01*
X122670657Y-116280704D01*
X122919829Y-116031967D01*
X123054846Y-115706810D01*
X123055153Y-115354735D01*
X122920704Y-115029343D01*
X122671967Y-114780171D01*
X122346810Y-114645154D01*
X121994735Y-114644847D01*
X121669343Y-114779296D01*
X121420171Y-115028033D01*
X121285154Y-115353190D01*
X121284847Y-115705265D01*
X120085659Y-115705265D01*
X120134846Y-115586810D01*
X120135153Y-115234735D01*
X120000704Y-114909343D01*
X119751967Y-114660171D01*
X119426810Y-114525154D01*
X119074735Y-114524847D01*
X118749343Y-114659296D01*
X118500171Y-114908033D01*
X118365154Y-115233190D01*
X118364847Y-115585265D01*
X112536507Y-115585265D01*
X112549829Y-115571967D01*
X112684846Y-115246810D01*
X112685153Y-114894735D01*
X112550704Y-114569343D01*
X112356965Y-114375265D01*
X143044847Y-114375265D01*
X143179296Y-114700657D01*
X143428033Y-114949829D01*
X143753190Y-115084846D01*
X144105265Y-115085153D01*
X144430657Y-114950704D01*
X144679829Y-114701967D01*
X144814846Y-114376810D01*
X144815153Y-114024735D01*
X144680704Y-113699343D01*
X144431967Y-113450171D01*
X144106810Y-113315154D01*
X143754735Y-113314847D01*
X143429343Y-113449296D01*
X143180171Y-113698033D01*
X143045154Y-114023190D01*
X143044847Y-114375265D01*
X112356965Y-114375265D01*
X112301967Y-114320171D01*
X112023502Y-114204542D01*
X112084846Y-114056810D01*
X112085153Y-113704735D01*
X111950704Y-113379343D01*
X111701967Y-113130171D01*
X111376810Y-112995154D01*
X111024735Y-112994847D01*
X110699343Y-113129296D01*
X110450171Y-113378033D01*
X110315154Y-113703190D01*
X110314847Y-114055265D01*
X106284839Y-114055265D01*
X106285223Y-113615519D01*
X106090005Y-113143057D01*
X105728845Y-112781265D01*
X105256724Y-112585223D01*
X104745519Y-112584777D01*
X104273057Y-112779995D01*
X103999840Y-113052734D01*
X103728845Y-112781265D01*
X103256724Y-112585223D01*
X102745519Y-112584777D01*
X102273057Y-112779995D01*
X102180746Y-112872145D01*
X102114090Y-112768559D01*
X101901890Y-112623569D01*
X101650000Y-112572560D01*
X100685000Y-112572560D01*
X100685000Y-110905265D01*
X108784847Y-110905265D01*
X108919296Y-111230657D01*
X109168033Y-111479829D01*
X109493190Y-111614846D01*
X109845265Y-111615153D01*
X110170657Y-111480704D01*
X110419829Y-111231967D01*
X110554846Y-110906810D01*
X110555153Y-110554735D01*
X110420704Y-110229343D01*
X110396669Y-110205265D01*
X113054847Y-110205265D01*
X113189296Y-110530657D01*
X113438033Y-110779829D01*
X113763190Y-110914846D01*
X113803381Y-110914881D01*
X113770171Y-110948033D01*
X113635154Y-111273190D01*
X113634847Y-111625265D01*
X113769296Y-111950657D01*
X114018033Y-112199829D01*
X114343190Y-112334846D01*
X114695265Y-112335153D01*
X115020657Y-112200704D01*
X115269829Y-111951967D01*
X115404846Y-111626810D01*
X115404960Y-111495265D01*
X122344847Y-111495265D01*
X122479296Y-111820657D01*
X122728033Y-112069829D01*
X123053190Y-112204846D01*
X123405265Y-112205153D01*
X123730657Y-112070704D01*
X123979829Y-111821967D01*
X124114846Y-111496810D01*
X124115047Y-111265265D01*
X136314847Y-111265265D01*
X136449296Y-111590657D01*
X136698033Y-111839829D01*
X137023190Y-111974846D01*
X137375265Y-111975153D01*
X137700657Y-111840704D01*
X137896437Y-111645265D01*
X141924847Y-111645265D01*
X142059296Y-111970657D01*
X142308033Y-112219829D01*
X142633190Y-112354846D01*
X142985265Y-112355153D01*
X143310657Y-112220704D01*
X143559829Y-111971967D01*
X143694846Y-111646810D01*
X143695153Y-111294735D01*
X143560704Y-110969343D01*
X143311967Y-110720171D01*
X142986810Y-110585154D01*
X142634735Y-110584847D01*
X142309343Y-110719296D01*
X142060171Y-110968033D01*
X141925154Y-111293190D01*
X141924847Y-111645265D01*
X137896437Y-111645265D01*
X137949829Y-111591967D01*
X138084846Y-111266810D01*
X138085153Y-110914735D01*
X137950704Y-110589343D01*
X137701967Y-110340171D01*
X137376810Y-110205154D01*
X137024735Y-110204847D01*
X136699343Y-110339296D01*
X136450171Y-110588033D01*
X136315154Y-110913190D01*
X136314847Y-111265265D01*
X124115047Y-111265265D01*
X124115153Y-111144735D01*
X123980704Y-110819343D01*
X123731967Y-110570171D01*
X123406810Y-110435154D01*
X123054735Y-110434847D01*
X122729343Y-110569296D01*
X122480171Y-110818033D01*
X122345154Y-111143190D01*
X122344847Y-111495265D01*
X115404960Y-111495265D01*
X115405153Y-111274735D01*
X115334648Y-111104099D01*
X115553190Y-111194846D01*
X115905265Y-111195153D01*
X116230657Y-111060704D01*
X116479829Y-110811967D01*
X116614846Y-110486810D01*
X116614925Y-110395265D01*
X126864847Y-110395265D01*
X126999296Y-110720657D01*
X127248033Y-110969829D01*
X127573190Y-111104846D01*
X127925265Y-111105153D01*
X128250657Y-110970704D01*
X128499829Y-110721967D01*
X128634846Y-110396810D01*
X128635153Y-110044735D01*
X128500704Y-109719343D01*
X128251967Y-109470171D01*
X127926810Y-109335154D01*
X127574735Y-109334847D01*
X127249343Y-109469296D01*
X127000171Y-109718033D01*
X126865154Y-110043190D01*
X126864847Y-110395265D01*
X116614925Y-110395265D01*
X116615153Y-110134735D01*
X116480704Y-109809343D01*
X116231967Y-109560171D01*
X115906810Y-109425154D01*
X115554735Y-109424847D01*
X115229343Y-109559296D01*
X114980171Y-109808033D01*
X114845154Y-110133190D01*
X114844847Y-110485265D01*
X114915352Y-110655901D01*
X114696810Y-110565154D01*
X114656619Y-110565119D01*
X114689829Y-110531967D01*
X114824846Y-110206810D01*
X114825153Y-109854735D01*
X114690704Y-109529343D01*
X114441967Y-109280171D01*
X114116810Y-109145154D01*
X113764735Y-109144847D01*
X113439343Y-109279296D01*
X113190171Y-109528033D01*
X113055154Y-109853190D01*
X113054847Y-110205265D01*
X110396669Y-110205265D01*
X110171967Y-109980171D01*
X109846810Y-109845154D01*
X109494735Y-109844847D01*
X109169343Y-109979296D01*
X108920171Y-110228033D01*
X108785154Y-110553190D01*
X108784847Y-110905265D01*
X100685000Y-110905265D01*
X100685000Y-109942438D01*
X100795370Y-109896721D01*
X100795371Y-109896720D01*
X100892698Y-109831688D01*
X101081690Y-109642696D01*
X101146720Y-109545372D01*
X101151278Y-109534368D01*
X101249002Y-109298441D01*
X101271838Y-109183636D01*
X101271838Y-109116170D01*
X101285000Y-109050000D01*
X101285000Y-108875265D01*
X105214847Y-108875265D01*
X105349296Y-109200657D01*
X105598033Y-109449829D01*
X105923190Y-109584846D01*
X106275265Y-109585153D01*
X106600657Y-109450704D01*
X106849829Y-109201967D01*
X106984846Y-108876810D01*
X106984951Y-108755265D01*
X124564847Y-108755265D01*
X124699296Y-109080657D01*
X124948033Y-109329829D01*
X125273190Y-109464846D01*
X125625265Y-109465153D01*
X125950657Y-109330704D01*
X126199829Y-109081967D01*
X126334846Y-108756810D01*
X126334847Y-108755265D01*
X133014847Y-108755265D01*
X133149296Y-109080657D01*
X133398033Y-109329829D01*
X133723190Y-109464846D01*
X134075265Y-109465153D01*
X134400657Y-109330704D01*
X134649829Y-109081967D01*
X134784846Y-108756810D01*
X134785153Y-108404735D01*
X134650704Y-108079343D01*
X134446983Y-107875265D01*
X139414847Y-107875265D01*
X139549296Y-108200657D01*
X139798033Y-108449829D01*
X140123190Y-108584846D01*
X140475265Y-108585153D01*
X140800657Y-108450704D01*
X141049829Y-108201967D01*
X141184846Y-107876810D01*
X141185153Y-107524735D01*
X141050704Y-107199343D01*
X140801967Y-106950171D01*
X140476810Y-106815154D01*
X140124735Y-106814847D01*
X139799343Y-106949296D01*
X139550171Y-107198033D01*
X139415154Y-107523190D01*
X139414847Y-107875265D01*
X134446983Y-107875265D01*
X134401967Y-107830171D01*
X134076810Y-107695154D01*
X133724735Y-107694847D01*
X133399343Y-107829296D01*
X133150171Y-108078033D01*
X133015154Y-108403190D01*
X133014847Y-108755265D01*
X126334847Y-108755265D01*
X126335153Y-108404735D01*
X126200704Y-108079343D01*
X125951967Y-107830171D01*
X125626810Y-107695154D01*
X125274735Y-107694847D01*
X124949343Y-107829296D01*
X124700171Y-108078033D01*
X124565154Y-108403190D01*
X124564847Y-108755265D01*
X106984951Y-108755265D01*
X106985153Y-108524735D01*
X106850704Y-108199343D01*
X106601967Y-107950171D01*
X106276810Y-107815154D01*
X105924735Y-107814847D01*
X105599343Y-107949296D01*
X105350171Y-108198033D01*
X105215154Y-108523190D01*
X105214847Y-108875265D01*
X101285000Y-108875265D01*
X101285000Y-108785083D01*
X101385069Y-108785170D01*
X101747229Y-108635529D01*
X102024555Y-108358686D01*
X102089975Y-108201137D01*
X102154471Y-108357229D01*
X102431314Y-108634555D01*
X102793212Y-108784828D01*
X103185069Y-108785170D01*
X103547229Y-108635529D01*
X103824555Y-108358686D01*
X103974828Y-107996788D01*
X103975170Y-107604931D01*
X103825529Y-107242771D01*
X103548686Y-106965445D01*
X103186788Y-106815172D01*
X102794931Y-106814830D01*
X102432771Y-106964471D01*
X102155445Y-107241314D01*
X102090025Y-107398863D01*
X102025529Y-107242771D01*
X101748686Y-106965445D01*
X101386788Y-106815172D01*
X101285000Y-106815083D01*
X101285000Y-106550000D01*
X101271838Y-106483830D01*
X101271838Y-106416364D01*
X101269631Y-106405265D01*
X122214847Y-106405265D01*
X122349296Y-106730657D01*
X122598033Y-106979829D01*
X122923190Y-107114846D01*
X123275265Y-107115153D01*
X123600657Y-106980704D01*
X123849829Y-106731967D01*
X123984846Y-106406810D01*
X123985153Y-106054735D01*
X123972977Y-106025265D01*
X136864847Y-106025265D01*
X136999296Y-106350657D01*
X137248033Y-106599829D01*
X137573190Y-106734846D01*
X137925265Y-106735153D01*
X138250657Y-106600704D01*
X138499829Y-106351967D01*
X138634846Y-106026810D01*
X138634873Y-105995265D01*
X139864847Y-105995265D01*
X139999296Y-106320657D01*
X140248033Y-106569829D01*
X140573190Y-106704846D01*
X140925265Y-106705153D01*
X141250657Y-106570704D01*
X141499829Y-106321967D01*
X141634846Y-105996810D01*
X141634877Y-105961036D01*
X145752193Y-105961036D01*
X145782518Y-106451413D01*
X145911836Y-106763617D01*
X146137265Y-106813130D01*
X146820395Y-106130000D01*
X146137265Y-105446870D01*
X145911836Y-105496383D01*
X145752193Y-105961036D01*
X141634877Y-105961036D01*
X141635153Y-105644735D01*
X141500704Y-105319343D01*
X141448717Y-105267265D01*
X146316870Y-105267265D01*
X147000000Y-105950395D01*
X147683130Y-105267265D01*
X147633617Y-105041836D01*
X147168964Y-104882193D01*
X146678587Y-104912518D01*
X146366383Y-105041836D01*
X146316870Y-105267265D01*
X141448717Y-105267265D01*
X141251967Y-105070171D01*
X140926810Y-104935154D01*
X140574735Y-104934847D01*
X140249343Y-105069296D01*
X140000171Y-105318033D01*
X139865154Y-105643190D01*
X139864847Y-105995265D01*
X138634873Y-105995265D01*
X138635153Y-105674735D01*
X138500704Y-105349343D01*
X138251967Y-105100171D01*
X137926810Y-104965154D01*
X137574735Y-104964847D01*
X137249343Y-105099296D01*
X137000171Y-105348033D01*
X136865154Y-105673190D01*
X136864847Y-106025265D01*
X123972977Y-106025265D01*
X123850704Y-105729343D01*
X123601967Y-105480171D01*
X123276810Y-105345154D01*
X122924735Y-105344847D01*
X122599343Y-105479296D01*
X122350171Y-105728033D01*
X122215154Y-106053190D01*
X122214847Y-106405265D01*
X101269631Y-106405265D01*
X101249002Y-106301559D01*
X101146721Y-106054630D01*
X101146720Y-106054629D01*
X101146720Y-106054628D01*
X101081688Y-105957302D01*
X100892696Y-105768310D01*
X100795371Y-105703280D01*
X100795370Y-105703279D01*
X100685000Y-105657562D01*
X100685000Y-102567467D01*
X100715073Y-102416281D01*
X100714691Y-102853501D01*
X100985868Y-103509800D01*
X101487559Y-104012367D01*
X102143384Y-104284689D01*
X102853501Y-104285309D01*
X103509800Y-104014132D01*
X104012367Y-103512441D01*
X104284689Y-102856616D01*
X104285309Y-102146499D01*
X104014132Y-101490200D01*
X103512441Y-100987633D01*
X102856616Y-100715311D01*
X102417013Y-100714927D01*
X102567467Y-100685000D01*
X104923562Y-100685000D01*
X104895215Y-100753266D01*
X104895215Y-100753266D01*
G37*
X104895215Y-100753266D02*
X104894786Y-101244579D01*
X105082408Y-101698657D01*
X105383446Y-102000221D01*
X105083629Y-102299515D01*
X104895215Y-102753266D01*
X104894786Y-103244579D01*
X105082408Y-103698657D01*
X105429515Y-104046371D01*
X105883266Y-104234785D01*
X106374579Y-104235214D01*
X106828657Y-104047592D01*
X107130221Y-103746554D01*
X107429515Y-104046371D01*
X107883266Y-104234785D01*
X108374579Y-104235214D01*
X108828657Y-104047592D01*
X109130221Y-103746554D01*
X109429515Y-104046371D01*
X109883266Y-104234785D01*
X110374579Y-104235214D01*
X110828657Y-104047592D01*
X111130221Y-103746554D01*
X111429515Y-104046371D01*
X111883266Y-104234785D01*
X112374579Y-104235214D01*
X112828657Y-104047592D01*
X113130221Y-103746554D01*
X113429515Y-104046371D01*
X113725649Y-104169337D01*
X113645154Y-104363190D01*
X113644847Y-104715265D01*
X113779296Y-105040657D01*
X114028033Y-105289829D01*
X114353190Y-105424846D01*
X114705265Y-105425153D01*
X115030657Y-105290704D01*
X115279829Y-105041967D01*
X115414846Y-104716810D01*
X115415153Y-104364735D01*
X115280704Y-104039343D01*
X115059200Y-103817452D01*
X115130221Y-103746554D01*
X115429515Y-104046371D01*
X115883266Y-104234785D01*
X115888471Y-104234790D01*
X115835154Y-104363190D01*
X115834847Y-104715265D01*
X115969296Y-105040657D01*
X116218033Y-105289829D01*
X116543190Y-105424846D01*
X116895265Y-105425153D01*
X117220657Y-105290704D01*
X117469829Y-105041967D01*
X117604846Y-104716810D01*
X117605153Y-104364735D01*
X117482740Y-104068472D01*
X117883266Y-104234785D01*
X118374579Y-104235214D01*
X118828657Y-104047592D01*
X119130221Y-103746554D01*
X119429515Y-104046371D01*
X119883266Y-104234785D01*
X120374579Y-104235214D01*
X120828657Y-104047592D01*
X121130221Y-103746554D01*
X121429515Y-104046371D01*
X121883266Y-104234785D01*
X122374579Y-104235214D01*
X122828657Y-104047592D01*
X123130221Y-103746554D01*
X123429515Y-104046371D01*
X123883266Y-104234785D01*
X124374579Y-104235214D01*
X124828657Y-104047592D01*
X125130221Y-103746554D01*
X125429515Y-104046371D01*
X125883266Y-104234785D01*
X126374579Y-104235214D01*
X126828657Y-104047592D01*
X127130221Y-103746554D01*
X127429515Y-104046371D01*
X127883266Y-104234785D01*
X128374579Y-104235214D01*
X128828657Y-104047592D01*
X129130221Y-103746554D01*
X129429515Y-104046371D01*
X129883266Y-104234785D01*
X130374579Y-104235214D01*
X130828657Y-104047592D01*
X131130221Y-103746554D01*
X131429515Y-104046371D01*
X131883266Y-104234785D01*
X132374579Y-104235214D01*
X132828657Y-104047592D01*
X133176371Y-103700485D01*
X133346872Y-103289873D01*
X137414812Y-103289873D01*
X137579646Y-103688800D01*
X137884595Y-103994282D01*
X138283233Y-104159811D01*
X138714873Y-104160188D01*
X139113800Y-103995354D01*
X139419282Y-103690405D01*
X139584811Y-103291767D01*
X139584812Y-103289873D01*
X140414812Y-103289873D01*
X140579646Y-103688800D01*
X140884595Y-103994282D01*
X141283233Y-104159811D01*
X141714873Y-104160188D01*
X142113800Y-103995354D01*
X142419282Y-103690405D01*
X142584811Y-103291767D01*
X142585188Y-102860127D01*
X142420354Y-102461200D01*
X142115405Y-102155718D01*
X141716767Y-101990189D01*
X141285127Y-101989812D01*
X140886200Y-102154646D01*
X140580718Y-102459595D01*
X140415189Y-102858233D01*
X140414812Y-103289873D01*
X139584812Y-103289873D01*
X139585188Y-102860127D01*
X139420354Y-102461200D01*
X139115405Y-102155718D01*
X138716767Y-101990189D01*
X138285127Y-101989812D01*
X137886200Y-102154646D01*
X137580718Y-102459595D01*
X137415189Y-102858233D01*
X137414812Y-103289873D01*
X133346872Y-103289873D01*
X133364785Y-103246734D01*
X133365214Y-102755421D01*
X133177592Y-102301343D01*
X133034891Y-102158392D01*
X133181441Y-102064090D01*
X133326431Y-101851890D01*
X133377440Y-101600000D01*
X133377440Y-100685000D01*
X147432533Y-100685000D01*
X147583719Y-100715073D01*
X147146499Y-100714691D01*
X146490200Y-100985868D01*
X145987633Y-101487559D01*
X145715311Y-102143384D01*
X145714691Y-102853501D01*
X145985868Y-103509800D01*
X146487559Y-104012367D01*
X147143384Y-104284689D01*
X147853501Y-104285309D01*
X148509800Y-104014132D01*
X149012367Y-103512441D01*
X149284689Y-102856616D01*
X149285073Y-102417013D01*
X149315000Y-102567467D01*
X149315000Y-104923562D01*
X149246734Y-104895215D01*
X148755421Y-104894786D01*
X148301343Y-105082408D01*
X147953629Y-105429515D01*
X147939428Y-105463715D01*
X147862735Y-105446870D01*
X147179605Y-106130000D01*
X147862735Y-106813130D01*
X147939065Y-106796365D01*
X147952408Y-106828657D01*
X148253446Y-107130221D01*
X147999779Y-107383446D01*
X147700485Y-107083629D01*
X147666285Y-107069428D01*
X147683130Y-106992735D01*
X147000000Y-106309605D01*
X146316870Y-106992735D01*
X146333635Y-107069065D01*
X146301343Y-107082408D01*
X145953629Y-107429515D01*
X145765215Y-107883266D01*
X145764786Y-108374579D01*
X145952408Y-108828657D01*
X146253446Y-109130221D01*
X145953629Y-109429515D01*
X145765215Y-109883266D01*
X145764786Y-110374579D01*
X145952408Y-110828657D01*
X146253446Y-111130221D01*
X145953629Y-111429515D01*
X145765215Y-111883266D01*
X145764786Y-112374579D01*
X145952408Y-112828657D01*
X146253446Y-113130221D01*
X145953629Y-113429515D01*
X145765215Y-113883266D01*
X145764786Y-114374579D01*
X145952408Y-114828657D01*
X146253446Y-115130221D01*
X145953629Y-115429515D01*
X145765215Y-115883266D01*
X145764786Y-116374579D01*
X145952408Y-116828657D01*
X146253446Y-117130221D01*
X145953629Y-117429515D01*
X145765215Y-117883266D01*
X145764786Y-118374579D01*
X145952408Y-118828657D01*
X146253446Y-119130221D01*
X145953629Y-119429515D01*
X145765215Y-119883266D01*
X145764786Y-120374579D01*
X145952408Y-120828657D01*
X146253446Y-121130221D01*
X145953629Y-121429515D01*
X145765215Y-121883266D01*
X145764786Y-122374579D01*
X145952408Y-122828657D01*
X146253446Y-123130221D01*
X145953629Y-123429515D01*
X145765215Y-123883266D01*
X145764786Y-124374579D01*
X145952408Y-124828657D01*
X146253446Y-125130221D01*
X145953629Y-125429515D01*
X145765215Y-125883266D01*
X145764786Y-126374579D01*
X145952408Y-126828657D01*
X146253446Y-127130221D01*
X145953629Y-127429515D01*
X145765215Y-127883266D01*
X145764786Y-128374579D01*
X145952408Y-128828657D01*
X146253446Y-129130221D01*
X145953629Y-129429515D01*
X145765215Y-129883266D01*
X145764786Y-130374579D01*
X145952408Y-130828657D01*
X146253446Y-131130221D01*
X145953629Y-131429515D01*
X145765215Y-131883266D01*
X145764786Y-132374579D01*
X145952408Y-132828657D01*
X146299515Y-133176371D01*
X146753266Y-133364785D01*
X147244579Y-133365214D01*
X147698657Y-133177592D01*
X147841608Y-133034891D01*
X147935910Y-133181441D01*
X148148110Y-133326431D01*
X148400000Y-133377440D01*
X149315000Y-133377440D01*
X149315000Y-147432533D01*
X149284927Y-147583719D01*
X149285309Y-147146499D01*
X149014132Y-146490200D01*
X148512441Y-145987633D01*
X147856616Y-145715311D01*
X147146499Y-145714691D01*
X146490200Y-145985868D01*
X145987633Y-146487559D01*
X145715311Y-147143384D01*
X145714691Y-147853501D01*
X145985868Y-148509800D01*
X146487559Y-149012367D01*
X147143384Y-149284689D01*
X147582987Y-149285073D01*
X147432533Y-149315000D01*
X145076438Y-149315000D01*
X145104785Y-149246734D01*
X145105214Y-148755421D01*
X144917592Y-148301343D01*
X144616554Y-147999779D01*
X144916371Y-147700485D01*
X145104785Y-147246734D01*
X145105214Y-146755421D01*
X144917592Y-146301343D01*
X144905000Y-146288729D01*
X144905000Y-146040005D01*
X144905001Y-146040000D01*
X144826215Y-145643923D01*
X144601856Y-145308144D01*
X144601853Y-145308142D01*
X140244615Y-140950903D01*
X140280687Y-140898109D01*
X140371155Y-140988735D01*
X140843276Y-141184777D01*
X141354481Y-141185223D01*
X141826943Y-140990005D01*
X142188735Y-140628845D01*
X142331402Y-140285265D01*
X143904847Y-140285265D01*
X144039296Y-140610657D01*
X144288033Y-140859829D01*
X144613190Y-140994846D01*
X144965265Y-140995153D01*
X145290657Y-140860704D01*
X145539829Y-140611967D01*
X145674846Y-140286810D01*
X145675153Y-139934735D01*
X145540704Y-139609343D01*
X145291967Y-139360171D01*
X144966810Y-139225154D01*
X144614735Y-139224847D01*
X144289343Y-139359296D01*
X144040171Y-139608033D01*
X143905154Y-139933190D01*
X143904847Y-140285265D01*
X142331402Y-140285265D01*
X142384777Y-140156724D01*
X142385223Y-139645519D01*
X142256769Y-139334638D01*
X142479829Y-139111967D01*
X142614846Y-138786810D01*
X142615153Y-138434735D01*
X142480704Y-138109343D01*
X142231967Y-137860171D01*
X141906810Y-137725154D01*
X141554735Y-137724847D01*
X141229343Y-137859296D01*
X140980171Y-138108033D01*
X140845154Y-138433190D01*
X140844995Y-138614993D01*
X140373057Y-138809995D01*
X140280746Y-138902145D01*
X140214090Y-138798559D01*
X140001890Y-138653569D01*
X139750000Y-138602560D01*
X138450000Y-138602560D01*
X138214683Y-138646838D01*
X137998559Y-138785910D01*
X137853569Y-138998110D01*
X137802560Y-139250000D01*
X137802560Y-140550000D01*
X137846838Y-140785317D01*
X137985910Y-141001441D01*
X138065000Y-141055481D01*
X138065000Y-141269995D01*
X138064999Y-141270000D01*
X138143785Y-141666077D01*
X138368144Y-142001856D01*
X142141992Y-145775703D01*
X142116734Y-145765215D01*
X141625421Y-145764786D01*
X141171343Y-145952408D01*
X140869779Y-146253446D01*
X140570485Y-145953629D01*
X140116734Y-145765215D01*
X139625421Y-145764786D01*
X139171343Y-145952408D01*
X138869779Y-146253446D01*
X138570485Y-145953629D01*
X138116734Y-145765215D01*
X137625421Y-145764786D01*
X137171343Y-145952408D01*
X136869779Y-146253446D01*
X136570485Y-145953629D01*
X136116734Y-145765215D01*
X135625421Y-145764786D01*
X135171343Y-145952408D01*
X134869779Y-146253446D01*
X134570485Y-145953629D01*
X134116734Y-145765215D01*
X133625421Y-145764786D01*
X133171343Y-145952408D01*
X132869779Y-146253446D01*
X132570485Y-145953629D01*
X132116734Y-145765215D01*
X131625421Y-145764786D01*
X131171343Y-145952408D01*
X130869779Y-146253446D01*
X130570485Y-145953629D01*
X130116734Y-145765215D01*
X129625421Y-145764786D01*
X129171343Y-145952408D01*
X128869779Y-146253446D01*
X128570485Y-145953629D01*
X128116734Y-145765215D01*
X127625421Y-145764786D01*
X127171343Y-145952408D01*
X126869779Y-146253446D01*
X126570485Y-145953629D01*
X126116734Y-145765215D01*
X125625421Y-145764786D01*
X125171343Y-145952408D01*
X124869779Y-146253446D01*
X124570485Y-145953629D01*
X124116734Y-145765215D01*
X123625421Y-145764786D01*
X123171343Y-145952408D01*
X122869779Y-146253446D01*
X122570485Y-145953629D01*
X122116734Y-145765215D01*
X121625421Y-145764786D01*
X121171343Y-145952408D01*
X120869779Y-146253446D01*
X120570485Y-145953629D01*
X120116734Y-145765215D01*
X119625421Y-145764786D01*
X119171343Y-145952408D01*
X118869779Y-146253446D01*
X118570485Y-145953629D01*
X118116734Y-145765215D01*
X117625421Y-145764786D01*
X117171343Y-145952408D01*
X116823629Y-146299515D01*
X116635215Y-146753266D01*
X116634786Y-147244579D01*
X116822408Y-147698657D01*
X116965109Y-147841608D01*
X116818559Y-147935910D01*
X116673569Y-148148110D01*
X116622560Y-148400000D01*
X116622560Y-149315000D01*
X115360579Y-149315000D01*
X115384777Y-149256724D01*
X115385223Y-148745519D01*
X115190005Y-148273057D01*
X114828845Y-147911265D01*
X114356724Y-147715223D01*
X113845519Y-147714777D01*
X113373057Y-147909995D01*
X113099840Y-148182734D01*
X112828845Y-147911265D01*
X112356724Y-147715223D01*
X111845519Y-147714777D01*
X111373057Y-147909995D01*
X111099840Y-148182734D01*
X110828845Y-147911265D01*
X110356724Y-147715223D01*
X109845519Y-147714777D01*
X109373057Y-147909995D01*
X109011265Y-148271155D01*
X109006588Y-148282418D01*
X108999016Y-148280590D01*
X108279605Y-149000000D01*
X108293748Y-149014143D01*
X108114143Y-149193748D01*
X108100000Y-149179605D01*
X108085858Y-149193748D01*
X107906253Y-149014143D01*
X107920395Y-149000000D01*
X107906252Y-148985858D01*
X108085858Y-148806252D01*
X108100000Y-148820395D01*
X108819410Y-148100984D01*
X108763729Y-147870389D01*
X108280922Y-147702378D01*
X107770572Y-147731917D01*
X107436271Y-147870389D01*
X107380590Y-148100982D01*
X107278928Y-147999320D01*
X107214090Y-147898559D01*
X107001890Y-147753569D01*
X106750000Y-147702560D01*
X105450000Y-147702560D01*
X105214683Y-147746838D01*
X104998559Y-147885910D01*
X104853569Y-148098110D01*
X104802560Y-148350000D01*
X104802560Y-149315000D01*
X102567467Y-149315000D01*
X102416281Y-149284927D01*
X102853501Y-149285309D01*
X103509800Y-149014132D01*
X104012367Y-148512441D01*
X104284689Y-147856616D01*
X104285309Y-147146499D01*
X104014132Y-146490200D01*
X103512441Y-145987633D01*
X102856616Y-145715311D01*
X102146499Y-145714691D01*
X101490200Y-145985868D01*
X100987633Y-146487559D01*
X100715311Y-147143384D01*
X100714927Y-147582987D01*
X100685000Y-147432533D01*
X100685000Y-145076438D01*
X100753266Y-145104785D01*
X101244579Y-145105214D01*
X101698657Y-144917592D01*
X102000221Y-144616554D01*
X102299515Y-144916371D01*
X102753266Y-145104785D01*
X103244579Y-145105214D01*
X103698657Y-144917592D01*
X104046371Y-144570485D01*
X104234785Y-144116734D01*
X104235214Y-143625421D01*
X104047592Y-143171343D01*
X103746554Y-142869779D01*
X104046371Y-142570485D01*
X104234785Y-142116734D01*
X104235214Y-141625421D01*
X104148379Y-141415265D01*
X107114847Y-141415265D01*
X107249296Y-141740657D01*
X107498033Y-141989829D01*
X107823190Y-142124846D01*
X108175265Y-142125153D01*
X108500657Y-141990704D01*
X108749829Y-141741967D01*
X108847139Y-141507619D01*
X108939296Y-141730657D01*
X109188033Y-141979829D01*
X109513190Y-142114846D01*
X109865265Y-142115153D01*
X110190657Y-141980704D01*
X110356230Y-141815420D01*
X110449296Y-142040657D01*
X110698033Y-142289829D01*
X111023190Y-142424846D01*
X111375265Y-142425153D01*
X111700657Y-142290704D01*
X111766210Y-142225265D01*
X135364847Y-142225265D01*
X135499296Y-142550657D01*
X135748033Y-142799829D01*
X136073190Y-142934846D01*
X136425265Y-142935153D01*
X136750657Y-142800704D01*
X136999829Y-142551967D01*
X137134846Y-142226810D01*
X137135153Y-141874735D01*
X137000704Y-141549343D01*
X136751967Y-141300171D01*
X136426810Y-141165154D01*
X136074735Y-141164847D01*
X135749343Y-141299296D01*
X135500171Y-141548033D01*
X135365154Y-141873190D01*
X135364847Y-142225265D01*
X111766210Y-142225265D01*
X111949829Y-142041967D01*
X112084846Y-141716810D01*
X112085153Y-141364735D01*
X111950704Y-141039343D01*
X111701967Y-140790171D01*
X111376810Y-140655154D01*
X111024735Y-140654847D01*
X110699343Y-140789296D01*
X110533770Y-140954580D01*
X110440704Y-140729343D01*
X110191967Y-140480171D01*
X109866810Y-140345154D01*
X109514735Y-140344847D01*
X109189343Y-140479296D01*
X108940171Y-140728033D01*
X108842861Y-140962381D01*
X108750704Y-140739343D01*
X108501967Y-140490171D01*
X108176810Y-140355154D01*
X107824735Y-140354847D01*
X107499343Y-140489296D01*
X107250171Y-140738033D01*
X107115154Y-141063190D01*
X107114847Y-141415265D01*
X104148379Y-141415265D01*
X104047592Y-141171343D01*
X103746554Y-140869779D01*
X104046371Y-140570485D01*
X104234785Y-140116734D01*
X104234952Y-139925265D01*
X111724847Y-139925265D01*
X111859296Y-140250657D01*
X112108033Y-140499829D01*
X112433190Y-140634846D01*
X112785265Y-140635153D01*
X113110657Y-140500704D01*
X113359829Y-140251967D01*
X113494846Y-139926810D01*
X113495004Y-139745265D01*
X115834847Y-139745265D01*
X115969296Y-140070657D01*
X116218033Y-140319829D01*
X116543190Y-140454846D01*
X116895265Y-140455153D01*
X117220657Y-140320704D01*
X117469829Y-140071967D01*
X117543202Y-139895265D01*
X122554847Y-139895265D01*
X122689296Y-140220657D01*
X122938033Y-140469829D01*
X123263190Y-140604846D01*
X123615265Y-140605153D01*
X123663397Y-140585265D01*
X124794847Y-140585265D01*
X124929296Y-140910657D01*
X125178033Y-141159829D01*
X125503190Y-141294846D01*
X125855265Y-141295153D01*
X126180657Y-141160704D01*
X126429829Y-140911967D01*
X126564846Y-140586810D01*
X126565153Y-140234735D01*
X126430704Y-139909343D01*
X126376721Y-139855265D01*
X127864847Y-139855265D01*
X127999296Y-140180657D01*
X128248033Y-140429829D01*
X128573190Y-140564846D01*
X128925265Y-140565153D01*
X129250657Y-140430704D01*
X129356280Y-140325265D01*
X134314847Y-140325265D01*
X134449296Y-140650657D01*
X134698033Y-140899829D01*
X135023190Y-141034846D01*
X135375265Y-141035153D01*
X135700657Y-140900704D01*
X135949829Y-140651967D01*
X136084846Y-140326810D01*
X136085153Y-139974735D01*
X135950704Y-139649343D01*
X135701967Y-139400171D01*
X135376810Y-139265154D01*
X135024735Y-139264847D01*
X134699343Y-139399296D01*
X134450171Y-139648033D01*
X134315154Y-139973190D01*
X134314847Y-140325265D01*
X129356280Y-140325265D01*
X129499829Y-140181967D01*
X129634846Y-139856810D01*
X129635153Y-139504735D01*
X129560935Y-139325114D01*
X129605265Y-139325153D01*
X129930657Y-139190704D01*
X130165033Y-138956737D01*
X130218033Y-139009829D01*
X130543190Y-139144846D01*
X130895265Y-139145153D01*
X131220657Y-139010704D01*
X131469829Y-138761967D01*
X131604846Y-138436810D01*
X131605153Y-138084735D01*
X131553048Y-137958631D01*
X131616758Y-137895032D01*
X131755265Y-137895153D01*
X132080657Y-137760704D01*
X132329829Y-137511967D01*
X132425076Y-137282587D01*
X132424847Y-137545265D01*
X132516922Y-137768105D01*
X132415154Y-138013190D01*
X132414847Y-138365265D01*
X132549296Y-138690657D01*
X132798033Y-138939829D01*
X133123190Y-139074846D01*
X133475265Y-139075153D01*
X133800657Y-138940704D01*
X134049829Y-138691967D01*
X134184846Y-138366810D01*
X134184900Y-138304961D01*
X134405265Y-138305153D01*
X134730657Y-138170704D01*
X134979829Y-137921967D01*
X135114846Y-137596810D01*
X135115153Y-137244735D01*
X134980704Y-136919343D01*
X134731967Y-136670171D01*
X134406810Y-136535154D01*
X134226305Y-136534997D01*
X134357401Y-136447401D01*
X134649777Y-136155025D01*
X134950657Y-136030704D01*
X135199829Y-135781967D01*
X135334846Y-135456810D01*
X135335153Y-135104735D01*
X135200704Y-134779343D01*
X134951967Y-134530171D01*
X134626810Y-134395154D01*
X134274735Y-134394847D01*
X133949343Y-134529296D01*
X133700171Y-134778033D01*
X133574489Y-135080709D01*
X133505198Y-135150000D01*
X133418065Y-135150000D01*
X133430000Y-135090000D01*
X133430000Y-134445009D01*
X133595265Y-134445153D01*
X133920657Y-134310704D01*
X134169829Y-134061967D01*
X134253373Y-133860770D01*
X134263190Y-133864846D01*
X134615265Y-133865153D01*
X134940657Y-133730704D01*
X135189829Y-133481967D01*
X135324846Y-133156810D01*
X135325153Y-132804735D01*
X135190704Y-132479343D01*
X135101597Y-132390080D01*
X135169829Y-132321967D01*
X135304846Y-131996810D01*
X135305153Y-131644735D01*
X135170704Y-131319343D01*
X134921967Y-131070171D01*
X134892311Y-131057857D01*
X134820037Y-130882939D01*
X134970657Y-130820704D01*
X135219829Y-130571967D01*
X135354846Y-130246810D01*
X135355153Y-129894735D01*
X135220704Y-129569343D01*
X134971967Y-129320171D01*
X134954382Y-129312869D01*
X134820704Y-128989343D01*
X134571967Y-128740171D01*
X134411402Y-128673499D01*
X134430000Y-128580000D01*
X134430000Y-127730000D01*
X134404810Y-127603362D01*
X134580657Y-127530704D01*
X134829829Y-127281967D01*
X134964846Y-126956810D01*
X134965153Y-126604735D01*
X134830704Y-126279343D01*
X134581967Y-126030171D01*
X134294335Y-125910736D01*
X134260704Y-125829343D01*
X134011967Y-125580171D01*
X133686810Y-125445154D01*
X133334735Y-125444847D01*
X133290000Y-125463331D01*
X133290000Y-124298746D01*
X133369296Y-124490657D01*
X133584907Y-124706645D01*
X133584847Y-124775265D01*
X133719296Y-125100657D01*
X133968033Y-125349829D01*
X134293190Y-125484846D01*
X134645265Y-125485153D01*
X134970657Y-125350704D01*
X135219829Y-125101967D01*
X135354846Y-124776810D01*
X135355153Y-124424735D01*
X135220704Y-124099343D01*
X135005093Y-123883355D01*
X135005153Y-123814735D01*
X134870704Y-123489343D01*
X134621967Y-123240171D01*
X134327889Y-123118059D01*
X134373921Y-123007202D01*
X134510657Y-122950704D01*
X134759829Y-122701967D01*
X134894846Y-122376810D01*
X134894949Y-122259233D01*
X134980839Y-122242148D01*
X135227401Y-122077401D01*
X135627401Y-121677401D01*
X135792148Y-121430840D01*
X135808262Y-121349829D01*
X135850000Y-121140000D01*
X135850000Y-120400000D01*
X135804014Y-120168816D01*
X136220000Y-120584802D01*
X136220000Y-134802527D01*
X136095154Y-135103190D01*
X136094847Y-135455265D01*
X136229296Y-135780657D01*
X136478033Y-136029829D01*
X136803190Y-136164846D01*
X136870000Y-136164904D01*
X136870000Y-136550000D01*
X136897073Y-136686102D01*
X136889343Y-136689296D01*
X136640171Y-136938033D01*
X136505154Y-137263190D01*
X136504847Y-137615265D01*
X136639296Y-137940657D01*
X136888033Y-138189829D01*
X137213190Y-138324846D01*
X137565265Y-138325153D01*
X137890657Y-138190704D01*
X138104363Y-137977371D01*
X138363190Y-138084846D01*
X138715265Y-138085153D01*
X139040657Y-137950704D01*
X139289829Y-137701967D01*
X139393962Y-137451186D01*
X139523190Y-137504846D01*
X139875265Y-137505153D01*
X140200657Y-137370704D01*
X140449829Y-137121967D01*
X140584846Y-136796810D01*
X140584898Y-136736655D01*
X140602148Y-136710839D01*
X140660000Y-136420000D01*
X140660000Y-136285265D01*
X143904847Y-136285265D01*
X144039296Y-136610657D01*
X144288033Y-136859829D01*
X144613190Y-136994846D01*
X144965265Y-136995153D01*
X145290657Y-136860704D01*
X145455099Y-136696549D01*
X145454786Y-137054579D01*
X145642408Y-137508657D01*
X145989515Y-137856371D01*
X146443266Y-138044785D01*
X146934579Y-138045214D01*
X147388657Y-137857592D01*
X147736371Y-137510485D01*
X147924785Y-137056734D01*
X147925214Y-136565421D01*
X147737592Y-136111343D01*
X147390485Y-135763629D01*
X146936734Y-135575215D01*
X146445421Y-135574786D01*
X145991343Y-135762408D01*
X145675028Y-136078171D01*
X145675153Y-135934735D01*
X145540704Y-135609343D01*
X145291967Y-135360171D01*
X144966810Y-135225154D01*
X144614735Y-135224847D01*
X144289343Y-135359296D01*
X144040171Y-135608033D01*
X143905154Y-135933190D01*
X143904847Y-136285265D01*
X140660000Y-136285265D01*
X140660000Y-129029712D01*
X140913190Y-129134846D01*
X141070000Y-129134983D01*
X141070000Y-134052527D01*
X140945154Y-134353190D01*
X140944847Y-134705265D01*
X141079296Y-135030657D01*
X141328033Y-135279829D01*
X141653190Y-135414846D01*
X142005265Y-135415153D01*
X142330657Y-135280704D01*
X142579829Y-135031967D01*
X142653298Y-134855033D01*
X142688033Y-134889829D01*
X143013190Y-135024846D01*
X143365265Y-135025153D01*
X143690657Y-134890704D01*
X143939829Y-134641967D01*
X144074846Y-134316810D01*
X144075153Y-133964735D01*
X143940704Y-133639343D01*
X143691967Y-133390171D01*
X143366810Y-133255154D01*
X143014735Y-133254847D01*
X142689343Y-133389296D01*
X142590000Y-133488466D01*
X142590000Y-132462760D01*
X142643190Y-132484846D01*
X142995265Y-132485153D01*
X143320657Y-132350704D01*
X143569829Y-132101967D01*
X143704846Y-131776810D01*
X143705153Y-131424735D01*
X143570704Y-131099343D01*
X143546531Y-131075128D01*
X143575265Y-131075153D01*
X143900657Y-130940704D01*
X144149829Y-130691967D01*
X144284846Y-130366810D01*
X144285153Y-130014735D01*
X144150704Y-129689343D01*
X143901967Y-129440171D01*
X143576810Y-129305154D01*
X143224735Y-129304847D01*
X142899343Y-129439296D01*
X142650171Y-129688033D01*
X142590000Y-129832941D01*
X142590000Y-128215265D01*
X143624847Y-128215265D01*
X143759296Y-128540657D01*
X144008033Y-128789829D01*
X144333190Y-128924846D01*
X144685265Y-128925153D01*
X145010657Y-128790704D01*
X145259829Y-128541967D01*
X145394846Y-128216810D01*
X145395153Y-127864735D01*
X145260704Y-127539343D01*
X145011967Y-127290171D01*
X144686810Y-127155154D01*
X144334735Y-127154847D01*
X144009343Y-127289296D01*
X143760171Y-127538033D01*
X143625154Y-127863190D01*
X143624847Y-128215265D01*
X142590000Y-128215265D01*
X142590000Y-127270000D01*
X142532148Y-126979161D01*
X142367401Y-126732599D01*
X141420000Y-125785198D01*
X141420000Y-122246150D01*
X141513190Y-122284846D01*
X141865265Y-122285153D01*
X142190657Y-122150704D01*
X142439829Y-121901967D01*
X142574846Y-121576810D01*
X142575153Y-121224735D01*
X142440704Y-120899343D01*
X142191967Y-120650171D01*
X141866810Y-120515154D01*
X141514735Y-120514847D01*
X141420000Y-120553991D01*
X141420000Y-117750000D01*
X141362148Y-117459161D01*
X141197401Y-117212599D01*
X141119854Y-117135052D01*
X141235265Y-117135153D01*
X141560657Y-117000704D01*
X141809829Y-116751967D01*
X141944846Y-116426810D01*
X141945153Y-116074735D01*
X141810704Y-115749343D01*
X141561967Y-115500171D01*
X141236810Y-115365154D01*
X140884735Y-115364847D01*
X140559343Y-115499296D01*
X140310171Y-115748033D01*
X140175154Y-116073190D01*
X140174982Y-116270620D01*
X140170839Y-116267852D01*
X139880000Y-116210000D01*
X137100000Y-116210000D01*
X136809160Y-116267852D01*
X136562599Y-116432599D01*
X136242599Y-116752599D01*
X136077852Y-116999161D01*
X136020000Y-117290000D01*
X136020000Y-117440000D01*
X134961432Y-117440000D01*
X135169829Y-117231967D01*
X135304846Y-116906810D01*
X135305153Y-116554735D01*
X135234961Y-116384856D01*
X135575265Y-116385153D01*
X135900657Y-116250704D01*
X136149829Y-116001967D01*
X136284846Y-115676810D01*
X136285153Y-115324735D01*
X136150704Y-114999343D01*
X135901967Y-114750171D01*
X135576810Y-114615154D01*
X135224735Y-114614847D01*
X134899343Y-114749296D01*
X134650171Y-114998033D01*
X134515154Y-115323190D01*
X134514847Y-115675265D01*
X134585039Y-115845144D01*
X134244735Y-115844847D01*
X133919343Y-115979296D01*
X133849259Y-116049258D01*
X133974846Y-115746810D01*
X133975153Y-115394735D01*
X133840704Y-115069343D01*
X133591967Y-114820171D01*
X133266810Y-114685154D01*
X132914735Y-114684847D01*
X132589343Y-114819296D01*
X132340171Y-115068033D01*
X132205154Y-115393190D01*
X132204847Y-115745265D01*
X132339296Y-116070657D01*
X132588033Y-116319829D01*
X132913190Y-116454846D01*
X133265265Y-116455153D01*
X133590657Y-116320704D01*
X133660741Y-116250742D01*
X133535154Y-116553190D01*
X133534847Y-116905265D01*
X133669296Y-117230657D01*
X133768348Y-117329882D01*
X133479343Y-117449296D01*
X133230171Y-117698033D01*
X133095154Y-118023190D01*
X133094847Y-118375265D01*
X133229296Y-118700657D01*
X133478033Y-118949829D01*
X133803190Y-119084846D01*
X134155265Y-119085153D01*
X134458159Y-118960000D01*
X135530000Y-118960000D01*
X135530000Y-119580000D01*
X135575986Y-119811184D01*
X135187401Y-119422599D01*
X134940839Y-119257852D01*
X134650000Y-119200000D01*
X133920000Y-119200000D01*
X133629160Y-119257852D01*
X133382599Y-119422599D01*
X133330223Y-119474975D01*
X133029343Y-119599296D01*
X132780171Y-119848033D01*
X132645154Y-120173190D01*
X132645035Y-120310000D01*
X132500000Y-120310000D01*
X132209161Y-120367852D01*
X131962599Y-120532599D01*
X131522599Y-120972599D01*
X131357852Y-121219161D01*
X131300000Y-121510000D01*
X131300000Y-124598375D01*
X131201967Y-124500171D01*
X130876810Y-124365154D01*
X130524735Y-124364847D01*
X130199343Y-124499296D01*
X129950171Y-124748033D01*
X129815154Y-125073190D01*
X129814847Y-125425265D01*
X129949296Y-125750657D01*
X130198033Y-125999829D01*
X130471206Y-126113260D01*
X130569296Y-126350657D01*
X130818033Y-126599829D01*
X131143190Y-126734846D01*
X131300000Y-126734983D01*
X131300000Y-126770000D01*
X131337887Y-126960470D01*
X131250171Y-127048033D01*
X131250046Y-127048334D01*
X131201967Y-127000171D01*
X130876810Y-126865154D01*
X130524735Y-126864847D01*
X130212178Y-126993993D01*
X130166810Y-126975154D01*
X129814735Y-126974847D01*
X129510000Y-127100761D01*
X129510000Y-124254939D01*
X129755265Y-124255153D01*
X130080657Y-124120704D01*
X130329829Y-123871967D01*
X130464846Y-123546810D01*
X130465153Y-123194735D01*
X130334049Y-122877440D01*
X130509829Y-122701967D01*
X130644846Y-122376810D01*
X130645153Y-122024735D01*
X130510704Y-121699343D01*
X130261967Y-121450171D01*
X129936810Y-121315154D01*
X129584735Y-121314847D01*
X129281841Y-121440000D01*
X129070000Y-121440000D01*
X128779160Y-121497852D01*
X128532599Y-121662599D01*
X128212599Y-121982599D01*
X128047852Y-122229161D01*
X127990000Y-122520000D01*
X127990000Y-128670000D01*
X128047852Y-128960839D01*
X128212599Y-129207401D01*
X128592599Y-129587401D01*
X128839161Y-129752148D01*
X129130000Y-129810000D01*
X129530000Y-129810000D01*
X129530000Y-131756803D01*
X129209343Y-131889296D01*
X128960171Y-132138033D01*
X128825154Y-132463190D01*
X128824847Y-132815265D01*
X128959296Y-133140657D01*
X129208033Y-133389829D01*
X129530000Y-133523521D01*
X129530000Y-133562527D01*
X129405154Y-133863190D01*
X129404847Y-134215265D01*
X129539296Y-134540657D01*
X129788033Y-134789829D01*
X130113190Y-134924846D01*
X130390000Y-134925087D01*
X130390000Y-135085198D01*
X129752599Y-135722599D01*
X129587852Y-135969161D01*
X129530000Y-136260000D01*
X129530000Y-137555087D01*
X129254735Y-137554847D01*
X128929343Y-137689296D01*
X128680171Y-137938033D01*
X128545154Y-138263190D01*
X128544847Y-138615265D01*
X128619065Y-138794886D01*
X128574735Y-138794847D01*
X128249343Y-138929296D01*
X128000171Y-139178033D01*
X127865154Y-139503190D01*
X127864847Y-139855265D01*
X126376721Y-139855265D01*
X126181967Y-139660171D01*
X125856810Y-139525154D01*
X125504735Y-139524847D01*
X125179343Y-139659296D01*
X124930171Y-139908033D01*
X124795154Y-140233190D01*
X124794847Y-140585265D01*
X123663397Y-140585265D01*
X123940657Y-140470704D01*
X124189829Y-140221967D01*
X124324846Y-139896810D01*
X124325153Y-139544735D01*
X124190704Y-139219343D01*
X123941967Y-138970171D01*
X123616810Y-138835154D01*
X123264735Y-138834847D01*
X122939343Y-138969296D01*
X122690171Y-139218033D01*
X122555154Y-139543190D01*
X122554847Y-139895265D01*
X117543202Y-139895265D01*
X117604846Y-139746810D01*
X117605153Y-139394735D01*
X117470704Y-139069343D01*
X117221967Y-138820171D01*
X116896810Y-138685154D01*
X116544735Y-138684847D01*
X116219343Y-138819296D01*
X115970171Y-139068033D01*
X115835154Y-139393190D01*
X115834847Y-139745265D01*
X113495004Y-139745265D01*
X113495153Y-139574735D01*
X113360704Y-139249343D01*
X113111967Y-139000171D01*
X112786810Y-138865154D01*
X112434735Y-138864847D01*
X112109343Y-138999296D01*
X111860171Y-139248033D01*
X111725154Y-139573190D01*
X111724847Y-139925265D01*
X104234952Y-139925265D01*
X104235214Y-139625421D01*
X104047592Y-139171343D01*
X103746554Y-138869779D01*
X104046371Y-138570485D01*
X104065147Y-138525265D01*
X108834847Y-138525265D01*
X108969296Y-138850657D01*
X109218033Y-139099829D01*
X109543190Y-139234846D01*
X109895265Y-139235153D01*
X110220657Y-139100704D01*
X110469829Y-138851967D01*
X110604846Y-138526810D01*
X110605153Y-138174735D01*
X110485547Y-137885265D01*
X110914847Y-137885265D01*
X111049296Y-138210657D01*
X111298033Y-138459829D01*
X111623190Y-138594846D01*
X111975265Y-138595153D01*
X112300657Y-138460704D01*
X112549829Y-138211967D01*
X112684846Y-137886810D01*
X112685153Y-137534735D01*
X112550704Y-137209343D01*
X112301967Y-136960171D01*
X111976810Y-136825154D01*
X111624735Y-136824847D01*
X111299343Y-136959296D01*
X111050171Y-137208033D01*
X110915154Y-137533190D01*
X110914847Y-137885265D01*
X110485547Y-137885265D01*
X110470704Y-137849343D01*
X110221967Y-137600171D01*
X109896810Y-137465154D01*
X109544735Y-137464847D01*
X109219343Y-137599296D01*
X108970171Y-137848033D01*
X108835154Y-138173190D01*
X108834847Y-138525265D01*
X104065147Y-138525265D01*
X104234785Y-138116734D01*
X104235214Y-137625421D01*
X104047592Y-137171343D01*
X103746554Y-136869779D01*
X104046371Y-136570485D01*
X104131585Y-136365265D01*
X108154847Y-136365265D01*
X108289296Y-136690657D01*
X108538033Y-136939829D01*
X108863190Y-137074846D01*
X109215265Y-137075153D01*
X109540657Y-136940704D01*
X109789829Y-136691967D01*
X109842440Y-136565265D01*
X113764847Y-136565265D01*
X113899296Y-136890657D01*
X114148033Y-137139829D01*
X114473190Y-137274846D01*
X114825265Y-137275153D01*
X115150657Y-137140704D01*
X115399829Y-136891967D01*
X115534846Y-136566810D01*
X115534943Y-136455083D01*
X115615265Y-136455153D01*
X115940657Y-136320704D01*
X116189829Y-136071967D01*
X116324846Y-135746810D01*
X116325153Y-135394735D01*
X116190704Y-135069343D01*
X115941967Y-134820171D01*
X115616810Y-134685154D01*
X115264735Y-134684847D01*
X114939343Y-134819296D01*
X114690171Y-135068033D01*
X114555154Y-135393190D01*
X114555057Y-135504917D01*
X114474735Y-135504847D01*
X114149343Y-135639296D01*
X113900171Y-135888033D01*
X113765154Y-136213190D01*
X113764847Y-136565265D01*
X109842440Y-136565265D01*
X109924846Y-136366810D01*
X109925153Y-136014735D01*
X109790704Y-135689343D01*
X109541967Y-135440171D01*
X109216810Y-135305154D01*
X108864735Y-135304847D01*
X108539343Y-135439296D01*
X108290171Y-135688033D01*
X108155154Y-136013190D01*
X108154847Y-136365265D01*
X104131585Y-136365265D01*
X104234785Y-136116734D01*
X104235214Y-135625421D01*
X104047592Y-135171343D01*
X103746554Y-134869779D01*
X103871285Y-134745265D01*
X110314847Y-134745265D01*
X110449296Y-135070657D01*
X110698033Y-135319829D01*
X111023190Y-135454846D01*
X111375265Y-135455153D01*
X111700657Y-135320704D01*
X111949829Y-135071967D01*
X112084846Y-134746810D01*
X112085153Y-134394735D01*
X111950704Y-134069343D01*
X111701967Y-133820171D01*
X111376810Y-133685154D01*
X111024735Y-133684847D01*
X110699343Y-133819296D01*
X110450171Y-134068033D01*
X110315154Y-134393190D01*
X110314847Y-134745265D01*
X103871285Y-134745265D01*
X104046371Y-134570485D01*
X104234785Y-134116734D01*
X104235214Y-133625421D01*
X104047592Y-133171343D01*
X103801944Y-132925265D01*
X111714847Y-132925265D01*
X111849296Y-133250657D01*
X112098033Y-133499829D01*
X112115618Y-133507131D01*
X112249296Y-133830657D01*
X112385012Y-133966610D01*
X112384847Y-134155265D01*
X112519296Y-134480657D01*
X112768033Y-134729829D01*
X113093190Y-134864846D01*
X113445265Y-134865153D01*
X113770657Y-134730704D01*
X113866262Y-134635265D01*
X120524847Y-134635265D01*
X120659296Y-134960657D01*
X120908033Y-135209829D01*
X121233190Y-135344846D01*
X121585265Y-135345153D01*
X121910657Y-135210704D01*
X122159829Y-134961967D01*
X122294846Y-134636810D01*
X122295153Y-134284735D01*
X122160704Y-133959343D01*
X121911967Y-133710171D01*
X121586810Y-133575154D01*
X121234735Y-133574847D01*
X120909343Y-133709296D01*
X120660171Y-133958033D01*
X120525154Y-134283190D01*
X120524847Y-134635265D01*
X113866262Y-134635265D01*
X114019829Y-134481967D01*
X114154846Y-134156810D01*
X114155153Y-133804735D01*
X114020704Y-133479343D01*
X113884988Y-133343390D01*
X113885153Y-133154735D01*
X113750704Y-132829343D01*
X113501967Y-132580171D01*
X113484382Y-132572869D01*
X113350704Y-132249343D01*
X113101967Y-132000171D01*
X112776810Y-131865154D01*
X112424735Y-131864847D01*
X112099343Y-131999296D01*
X111850171Y-132248033D01*
X111715154Y-132573190D01*
X111714847Y-132925265D01*
X103801944Y-132925265D01*
X103746554Y-132869779D01*
X104046371Y-132570485D01*
X104234785Y-132116734D01*
X104234838Y-132055265D01*
X109544847Y-132055265D01*
X109679296Y-132380657D01*
X109928033Y-132629829D01*
X110253190Y-132764846D01*
X110605265Y-132765153D01*
X110930657Y-132630704D01*
X111179829Y-132381967D01*
X111314846Y-132056810D01*
X111315153Y-131704735D01*
X111180704Y-131379343D01*
X110931967Y-131130171D01*
X110606810Y-130995154D01*
X110254735Y-130994847D01*
X109929343Y-131129296D01*
X109680171Y-131378033D01*
X109545154Y-131703190D01*
X109544847Y-132055265D01*
X104234838Y-132055265D01*
X104235214Y-131625421D01*
X104047592Y-131171343D01*
X103746554Y-130869779D01*
X104046371Y-130570485D01*
X104234785Y-130116734D01*
X104235214Y-129625421D01*
X104047592Y-129171343D01*
X103811926Y-128935265D01*
X104404847Y-128935265D01*
X104539296Y-129260657D01*
X104788033Y-129509829D01*
X105113190Y-129644846D01*
X105465265Y-129645153D01*
X105790657Y-129510704D01*
X106039829Y-129261967D01*
X106174846Y-128936810D01*
X106174856Y-128925265D01*
X112034847Y-128925265D01*
X112166358Y-129243546D01*
X112075154Y-129463190D01*
X112074847Y-129815265D01*
X112209296Y-130140657D01*
X112458033Y-130389829D01*
X112783190Y-130524846D01*
X113135265Y-130525153D01*
X113460657Y-130390704D01*
X113709829Y-130141967D01*
X113844846Y-129816810D01*
X113845100Y-129525265D01*
X114764847Y-129525265D01*
X114892301Y-129833729D01*
X114855154Y-129923190D01*
X114854847Y-130275265D01*
X114989296Y-130600657D01*
X115238033Y-130849829D01*
X115539048Y-130974821D01*
X115415154Y-131273190D01*
X115414847Y-131625265D01*
X115549296Y-131950657D01*
X115798033Y-132199829D01*
X116123190Y-132334846D01*
X116475265Y-132335153D01*
X116800657Y-132200704D01*
X117049829Y-131951967D01*
X117184846Y-131626810D01*
X117185153Y-131274735D01*
X117050704Y-130949343D01*
X116801967Y-130700171D01*
X116500952Y-130575179D01*
X116624846Y-130276810D01*
X116625153Y-129924735D01*
X116497699Y-129616271D01*
X116534846Y-129526810D01*
X116535153Y-129174735D01*
X116400704Y-128849343D01*
X116151967Y-128600171D01*
X115826810Y-128465154D01*
X115474735Y-128464847D01*
X115149343Y-128599296D01*
X114900171Y-128848033D01*
X114765154Y-129173190D01*
X114764847Y-129525265D01*
X113845100Y-129525265D01*
X113845153Y-129464735D01*
X113713642Y-129146454D01*
X113804846Y-128926810D01*
X113805153Y-128574735D01*
X113670704Y-128249343D01*
X113421967Y-128000171D01*
X113096810Y-127865154D01*
X112744735Y-127864847D01*
X112419343Y-127999296D01*
X112170171Y-128248033D01*
X112035154Y-128573190D01*
X112034847Y-128925265D01*
X106174856Y-128925265D01*
X106175153Y-128584735D01*
X106040704Y-128259343D01*
X105791967Y-128010171D01*
X105466810Y-127875154D01*
X105114735Y-127874847D01*
X104789343Y-128009296D01*
X104540171Y-128258033D01*
X104405154Y-128583190D01*
X104404847Y-128935265D01*
X103811926Y-128935265D01*
X103746554Y-128869779D01*
X104046371Y-128570485D01*
X104234785Y-128116734D01*
X104235214Y-127625421D01*
X104193831Y-127525265D01*
X105774847Y-127525265D01*
X105909296Y-127850657D01*
X106158033Y-128099829D01*
X106483190Y-128234846D01*
X106835265Y-128235153D01*
X107160657Y-128100704D01*
X107409829Y-127851967D01*
X107462440Y-127725265D01*
X109604847Y-127725265D01*
X109739296Y-128050657D01*
X109988033Y-128299829D01*
X110313190Y-128434846D01*
X110665265Y-128435153D01*
X110990657Y-128300704D01*
X111239829Y-128051967D01*
X111374846Y-127726810D01*
X111375153Y-127374735D01*
X111240704Y-127049343D01*
X110991967Y-126800171D01*
X110666810Y-126665154D01*
X110314735Y-126664847D01*
X109989343Y-126799296D01*
X109740171Y-127048033D01*
X109605154Y-127373190D01*
X109604847Y-127725265D01*
X107462440Y-127725265D01*
X107544846Y-127526810D01*
X107545153Y-127174735D01*
X107410704Y-126849343D01*
X107161967Y-126600171D01*
X106885243Y-126485265D01*
X111824847Y-126485265D01*
X111959296Y-126810657D01*
X112208033Y-127059829D01*
X112533190Y-127194846D01*
X112885265Y-127195153D01*
X113210657Y-127060704D01*
X113459829Y-126811967D01*
X113594846Y-126486810D01*
X113595153Y-126134735D01*
X113460704Y-125809343D01*
X113281545Y-125629870D01*
X113486507Y-125425265D01*
X114754847Y-125425265D01*
X114889296Y-125750657D01*
X114898185Y-125759561D01*
X114855154Y-125863190D01*
X114854847Y-126215265D01*
X114989296Y-126540657D01*
X115035142Y-126586583D01*
X115034847Y-126925265D01*
X115087487Y-127052663D01*
X114975154Y-127323190D01*
X114974847Y-127675265D01*
X115109296Y-128000657D01*
X115358033Y-128249829D01*
X115683190Y-128384846D01*
X116035265Y-128385153D01*
X116360657Y-128250704D01*
X116609829Y-128001967D01*
X116744846Y-127676810D01*
X116745153Y-127324735D01*
X116692513Y-127197337D01*
X116804846Y-126926810D01*
X116805153Y-126574735D01*
X116670704Y-126249343D01*
X116624858Y-126203417D01*
X116625153Y-125864735D01*
X116490704Y-125539343D01*
X116481815Y-125530439D01*
X116524846Y-125426810D01*
X116525153Y-125074735D01*
X116508734Y-125034999D01*
X116685265Y-125035153D01*
X117010657Y-124900704D01*
X117259829Y-124651967D01*
X117394846Y-124326810D01*
X117395153Y-123974735D01*
X117260704Y-123649343D01*
X117011967Y-123400171D01*
X116686810Y-123265154D01*
X116334735Y-123264847D01*
X116009343Y-123399296D01*
X115760171Y-123648033D01*
X115625154Y-123973190D01*
X115624847Y-124325265D01*
X115641266Y-124365001D01*
X115464735Y-124364847D01*
X115139343Y-124499296D01*
X114890171Y-124748033D01*
X114755154Y-125073190D01*
X114754847Y-125425265D01*
X113486507Y-125425265D01*
X113499829Y-125411967D01*
X113634846Y-125086810D01*
X113635153Y-124734735D01*
X113500704Y-124409343D01*
X113251967Y-124160171D01*
X112926810Y-124025154D01*
X112574735Y-124024847D01*
X112249343Y-124159296D01*
X112000171Y-124408033D01*
X111865154Y-124733190D01*
X111864847Y-125085265D01*
X111999296Y-125410657D01*
X112178455Y-125590130D01*
X111960171Y-125808033D01*
X111825154Y-126133190D01*
X111824847Y-126485265D01*
X106885243Y-126485265D01*
X106836810Y-126465154D01*
X106484735Y-126464847D01*
X106159343Y-126599296D01*
X105910171Y-126848033D01*
X105775154Y-127173190D01*
X105774847Y-127525265D01*
X104193831Y-127525265D01*
X104047592Y-127171343D01*
X103746554Y-126869779D01*
X104046371Y-126570485D01*
X104234785Y-126116734D01*
X104235214Y-125625421D01*
X104047592Y-125171343D01*
X103746554Y-124869779D01*
X104046371Y-124570485D01*
X104234785Y-124116734D01*
X104234838Y-124055265D01*
X109524847Y-124055265D01*
X109659296Y-124380657D01*
X109908033Y-124629829D01*
X110233190Y-124764846D01*
X110585265Y-124765153D01*
X110910657Y-124630704D01*
X111159829Y-124381967D01*
X111294846Y-124056810D01*
X111295153Y-123704735D01*
X111160704Y-123379343D01*
X110911967Y-123130171D01*
X110586810Y-122995154D01*
X110234735Y-122994847D01*
X109909343Y-123129296D01*
X109660171Y-123378033D01*
X109525154Y-123703190D01*
X109524847Y-124055265D01*
X104234838Y-124055265D01*
X104235214Y-123625421D01*
X104047592Y-123171343D01*
X103746554Y-122869779D01*
X104046371Y-122570485D01*
X104234785Y-122116734D01*
X104235214Y-121625421D01*
X104047592Y-121171343D01*
X103746554Y-120869779D01*
X104046371Y-120570485D01*
X104234785Y-120116734D01*
X104235214Y-119625421D01*
X104231018Y-119615265D01*
X116564847Y-119615265D01*
X116699296Y-119940657D01*
X116883290Y-120124972D01*
X116850171Y-120158033D01*
X116715154Y-120483190D01*
X116714847Y-120835265D01*
X116849296Y-121160657D01*
X117098033Y-121409829D01*
X117416095Y-121541900D01*
X117469296Y-121670657D01*
X117718033Y-121919829D01*
X118043190Y-122054846D01*
X118061451Y-122054862D01*
X118109296Y-122170657D01*
X118358033Y-122419829D01*
X118683190Y-122554846D01*
X118701451Y-122554862D01*
X118749296Y-122670657D01*
X118998033Y-122919829D01*
X119323190Y-123054846D01*
X119323840Y-123054847D01*
X119359296Y-123140657D01*
X119608033Y-123389829D01*
X119852076Y-123491165D01*
X119959296Y-123750657D01*
X120208033Y-123999829D01*
X120533190Y-124134846D01*
X120885265Y-124135153D01*
X121163862Y-124020039D01*
X121140000Y-124140000D01*
X121140000Y-127590288D01*
X120957949Y-127514693D01*
X120860704Y-127279343D01*
X120611967Y-127030171D01*
X120286810Y-126895154D01*
X119934735Y-126894847D01*
X119609343Y-127029296D01*
X119360171Y-127278033D01*
X119225154Y-127603190D01*
X119224847Y-127955265D01*
X119359296Y-128280657D01*
X119608033Y-128529829D01*
X119862051Y-128635307D01*
X119959296Y-128870657D01*
X120208033Y-129119829D01*
X120340404Y-129174794D01*
X120132599Y-129382599D01*
X119967852Y-129629161D01*
X119910000Y-129920000D01*
X119910000Y-129941983D01*
X119699664Y-129854644D01*
X119610704Y-129639343D01*
X119361967Y-129390171D01*
X119059664Y-129264644D01*
X118970704Y-129049343D01*
X118721967Y-128800171D01*
X118448794Y-128686740D01*
X118350704Y-128449343D01*
X118101967Y-128200171D01*
X117776810Y-128065154D01*
X117424735Y-128064847D01*
X117099343Y-128199296D01*
X116850171Y-128448033D01*
X116715154Y-128773190D01*
X116714847Y-129125265D01*
X116849296Y-129450657D01*
X117098033Y-129699829D01*
X117371206Y-129813260D01*
X117469296Y-130050657D01*
X117718033Y-130299829D01*
X118020336Y-130425356D01*
X118109296Y-130640657D01*
X118358033Y-130889829D01*
X118660336Y-131015356D01*
X118749296Y-131230657D01*
X118998033Y-131479829D01*
X119323190Y-131614846D01*
X119675265Y-131615153D01*
X119860590Y-131538578D01*
X119919296Y-131680657D01*
X120168033Y-131929829D01*
X120493190Y-132064846D01*
X120845265Y-132065153D01*
X121170657Y-131930704D01*
X121419829Y-131681967D01*
X121554846Y-131356810D01*
X121555153Y-131004735D01*
X121430000Y-130701841D01*
X121430000Y-130234802D01*
X122437401Y-129227401D01*
X122602148Y-128980839D01*
X122660000Y-128690000D01*
X122660000Y-127924887D01*
X122965265Y-127925153D01*
X123290657Y-127790704D01*
X123539829Y-127541967D01*
X123640000Y-127300728D01*
X123640000Y-133084860D01*
X123624735Y-133084847D01*
X123299343Y-133219296D01*
X123050171Y-133468033D01*
X122915154Y-133793190D01*
X122914847Y-134145265D01*
X123049296Y-134470657D01*
X123298033Y-134719829D01*
X123623190Y-134854846D01*
X123640000Y-134854861D01*
X123640000Y-136060000D01*
X123697852Y-136350839D01*
X123765844Y-136452597D01*
X123630171Y-136588033D01*
X123495154Y-136913190D01*
X123494847Y-137265265D01*
X123629296Y-137590657D01*
X123878033Y-137839829D01*
X124203190Y-137974846D01*
X124555265Y-137975153D01*
X124880657Y-137840704D01*
X124993378Y-137728180D01*
X125042599Y-137777401D01*
X125289161Y-137942148D01*
X125580000Y-138000000D01*
X127142527Y-138000000D01*
X127443190Y-138124846D01*
X127795265Y-138125153D01*
X128120657Y-137990704D01*
X128369829Y-137741967D01*
X128504846Y-137416810D01*
X128505153Y-137064735D01*
X128370704Y-136739343D01*
X128121967Y-136490171D01*
X127796810Y-136355154D01*
X127444735Y-136354847D01*
X127141841Y-136480000D01*
X125894802Y-136480000D01*
X125160000Y-135745198D01*
X125160000Y-133184948D01*
X125395265Y-133185153D01*
X125454886Y-133160518D01*
X125454847Y-133205265D01*
X125589296Y-133530657D01*
X125838033Y-133779829D01*
X125969245Y-133834313D01*
X126079296Y-134100657D01*
X126328033Y-134349829D01*
X126501242Y-134421752D01*
X126579296Y-134610657D01*
X126828033Y-134859829D01*
X127153190Y-134994846D01*
X127505265Y-134995153D01*
X127596069Y-134957634D01*
X127728033Y-135089829D01*
X128053190Y-135224846D01*
X128405265Y-135225153D01*
X128730657Y-135090704D01*
X128979829Y-134841967D01*
X129114846Y-134516810D01*
X129115153Y-134164735D01*
X128980704Y-133839343D01*
X128834224Y-133692607D01*
X128767401Y-133592599D01*
X128340000Y-133165198D01*
X128340000Y-130690000D01*
X128282148Y-130399161D01*
X128117401Y-130152599D01*
X127697401Y-129732599D01*
X127450839Y-129567852D01*
X127160000Y-129510000D01*
X126380000Y-129510000D01*
X126380000Y-124648607D01*
X126443190Y-124674846D01*
X126795265Y-124675153D01*
X127120657Y-124540704D01*
X127369829Y-124291967D01*
X127504846Y-123966810D01*
X127505153Y-123614735D01*
X127370704Y-123289343D01*
X127121967Y-123040171D01*
X127055607Y-123012616D01*
X127350657Y-122890704D01*
X127599829Y-122641967D01*
X127734846Y-122316810D01*
X127735153Y-121964735D01*
X127600704Y-121639343D01*
X127387936Y-121426203D01*
X127570657Y-121350704D01*
X127819829Y-121101967D01*
X127954846Y-120776810D01*
X127955087Y-120500000D01*
X130550000Y-120500000D01*
X130840839Y-120442148D01*
X131087401Y-120277401D01*
X131947401Y-119417401D01*
X132112148Y-119170839D01*
X132170000Y-118880000D01*
X132170000Y-118537473D01*
X132294846Y-118236810D01*
X132295153Y-117884735D01*
X132160704Y-117559343D01*
X131911967Y-117310171D01*
X131586810Y-117175154D01*
X131234735Y-117174847D01*
X130909343Y-117309296D01*
X130660171Y-117558033D01*
X130578362Y-117755051D01*
X130344735Y-117754847D01*
X130107778Y-117852756D01*
X130041663Y-117825302D01*
X130144846Y-117576810D01*
X130145153Y-117224735D01*
X130010704Y-116899343D01*
X129996522Y-116885137D01*
X130015265Y-116885153D01*
X130340657Y-116750704D01*
X130589829Y-116501967D01*
X130724846Y-116176810D01*
X130725153Y-115824735D01*
X130590704Y-115499343D01*
X130341967Y-115250171D01*
X130016810Y-115115154D01*
X129664735Y-115114847D01*
X129339343Y-115249296D01*
X129090171Y-115498033D01*
X128955154Y-115823190D01*
X128954847Y-116175265D01*
X129089296Y-116500657D01*
X129103478Y-116514863D01*
X129084735Y-116514847D01*
X128759343Y-116649296D01*
X128510171Y-116898033D01*
X128375154Y-117223190D01*
X128374847Y-117575265D01*
X128509296Y-117900657D01*
X128758033Y-118149829D01*
X128938337Y-118224698D01*
X128835154Y-118473190D01*
X128835131Y-118500000D01*
X125055148Y-118500000D01*
X125055153Y-118494735D01*
X124920704Y-118169343D01*
X124736619Y-117984936D01*
X124985265Y-117985153D01*
X125310657Y-117850704D01*
X125559829Y-117601967D01*
X125694846Y-117276810D01*
X125695153Y-116924735D01*
X125560704Y-116599343D01*
X125311967Y-116350171D01*
X124986810Y-116215154D01*
X124751109Y-116214948D01*
X124620704Y-115899343D01*
X124371967Y-115650171D01*
X124046810Y-115515154D01*
X123694735Y-115514847D01*
X123369343Y-115649296D01*
X123120171Y-115898033D01*
X122985154Y-116223190D01*
X122984847Y-116575265D01*
X123119296Y-116900657D01*
X123368033Y-117149829D01*
X123693190Y-117284846D01*
X123928891Y-117285052D01*
X124059296Y-117600657D01*
X124243381Y-117785064D01*
X123994735Y-117784847D01*
X123669343Y-117919296D01*
X123489888Y-118098438D01*
X123291967Y-117900171D01*
X122966810Y-117765154D01*
X122614735Y-117764847D01*
X122361648Y-117869420D01*
X122474846Y-117596810D01*
X122475153Y-117244735D01*
X122340704Y-116919343D01*
X122091967Y-116670171D01*
X121766810Y-116535154D01*
X121414735Y-116534847D01*
X121089343Y-116669296D01*
X120840171Y-116918033D01*
X120705154Y-117243190D01*
X120704847Y-117595265D01*
X120839296Y-117920657D01*
X121088033Y-118169829D01*
X121413190Y-118304846D01*
X121765265Y-118305153D01*
X122018352Y-118200580D01*
X121905154Y-118473190D01*
X121905131Y-118500000D01*
X119439712Y-118500000D01*
X119544846Y-118246810D01*
X119545153Y-117894735D01*
X119410704Y-117569343D01*
X119354114Y-117512654D01*
X119364846Y-117486810D01*
X119365153Y-117134735D01*
X119230704Y-116809343D01*
X118981967Y-116560171D01*
X118656810Y-116425154D01*
X118304735Y-116424847D01*
X117979343Y-116559296D01*
X117730171Y-116808033D01*
X117595154Y-117133190D01*
X117594847Y-117485265D01*
X117729296Y-117810657D01*
X117785886Y-117867346D01*
X117775154Y-117893190D01*
X117774847Y-118245265D01*
X117880101Y-118500000D01*
X117630000Y-118500000D01*
X117387414Y-118548254D01*
X117353920Y-118554916D01*
X117274735Y-118554847D01*
X116949343Y-118689296D01*
X116700171Y-118938033D01*
X116565154Y-119263190D01*
X116564847Y-119615265D01*
X104231018Y-119615265D01*
X104047592Y-119171343D01*
X103746554Y-118869779D01*
X103771110Y-118845265D01*
X109134847Y-118845265D01*
X109269296Y-119170657D01*
X109518033Y-119419829D01*
X109843190Y-119554846D01*
X110195265Y-119555153D01*
X110520657Y-119420704D01*
X110769829Y-119171967D01*
X110904846Y-118846810D01*
X110905153Y-118494735D01*
X110770704Y-118169343D01*
X110521967Y-117920171D01*
X110196810Y-117785154D01*
X109844735Y-117784847D01*
X109519343Y-117919296D01*
X109270171Y-118168033D01*
X109135154Y-118493190D01*
X109134847Y-118845265D01*
X103771110Y-118845265D01*
X104046371Y-118570485D01*
X104234785Y-118116734D01*
X104235214Y-117625421D01*
X104047592Y-117171343D01*
X103700485Y-116823629D01*
X103246734Y-116635215D01*
X102755421Y-116634786D01*
X102301343Y-116822408D01*
X102158392Y-116965109D01*
X102064090Y-116818559D01*
X101851890Y-116673569D01*
X101600000Y-116622560D01*
X100685000Y-116622560D01*
X100685000Y-115167440D01*
X101650000Y-115167440D01*
X101885317Y-115123162D01*
X102101441Y-114984090D01*
X102180687Y-114868109D01*
X102271155Y-114958735D01*
X102743276Y-115154777D01*
X103254481Y-115155223D01*
X103726943Y-114960005D01*
X104000160Y-114687266D01*
X104271155Y-114958735D01*
X104743276Y-115154777D01*
X105254481Y-115155223D01*
X105726943Y-114960005D01*
X106088735Y-114598845D01*
X106284777Y-114126724D01*
X106284839Y-114055265D01*
X110314847Y-114055265D01*
X110449296Y-114380657D01*
X110698033Y-114629829D01*
X110976498Y-114745458D01*
X110915154Y-114893190D01*
X110914847Y-115245265D01*
X111049296Y-115570657D01*
X111298033Y-115819829D01*
X111623190Y-115954846D01*
X111975265Y-115955153D01*
X112300657Y-115820704D01*
X112536507Y-115585265D01*
X118364847Y-115585265D01*
X118499296Y-115910657D01*
X118748033Y-116159829D01*
X119073190Y-116294846D01*
X119425265Y-116295153D01*
X119750657Y-116160704D01*
X119999829Y-115911967D01*
X120085659Y-115705265D01*
X121284847Y-115705265D01*
X121419296Y-116030657D01*
X121668033Y-116279829D01*
X121993190Y-116414846D01*
X122345265Y-116415153D01*
X122670657Y-116280704D01*
X122919829Y-116031967D01*
X123054846Y-115706810D01*
X123055153Y-115354735D01*
X122920704Y-115029343D01*
X122671967Y-114780171D01*
X122346810Y-114645154D01*
X121994735Y-114644847D01*
X121669343Y-114779296D01*
X121420171Y-115028033D01*
X121285154Y-115353190D01*
X121284847Y-115705265D01*
X120085659Y-115705265D01*
X120134846Y-115586810D01*
X120135153Y-115234735D01*
X120000704Y-114909343D01*
X119751967Y-114660171D01*
X119426810Y-114525154D01*
X119074735Y-114524847D01*
X118749343Y-114659296D01*
X118500171Y-114908033D01*
X118365154Y-115233190D01*
X118364847Y-115585265D01*
X112536507Y-115585265D01*
X112549829Y-115571967D01*
X112684846Y-115246810D01*
X112685153Y-114894735D01*
X112550704Y-114569343D01*
X112356965Y-114375265D01*
X143044847Y-114375265D01*
X143179296Y-114700657D01*
X143428033Y-114949829D01*
X143753190Y-115084846D01*
X144105265Y-115085153D01*
X144430657Y-114950704D01*
X144679829Y-114701967D01*
X144814846Y-114376810D01*
X144815153Y-114024735D01*
X144680704Y-113699343D01*
X144431967Y-113450171D01*
X144106810Y-113315154D01*
X143754735Y-113314847D01*
X143429343Y-113449296D01*
X143180171Y-113698033D01*
X143045154Y-114023190D01*
X143044847Y-114375265D01*
X112356965Y-114375265D01*
X112301967Y-114320171D01*
X112023502Y-114204542D01*
X112084846Y-114056810D01*
X112085153Y-113704735D01*
X111950704Y-113379343D01*
X111701967Y-113130171D01*
X111376810Y-112995154D01*
X111024735Y-112994847D01*
X110699343Y-113129296D01*
X110450171Y-113378033D01*
X110315154Y-113703190D01*
X110314847Y-114055265D01*
X106284839Y-114055265D01*
X106285223Y-113615519D01*
X106090005Y-113143057D01*
X105728845Y-112781265D01*
X105256724Y-112585223D01*
X104745519Y-112584777D01*
X104273057Y-112779995D01*
X103999840Y-113052734D01*
X103728845Y-112781265D01*
X103256724Y-112585223D01*
X102745519Y-112584777D01*
X102273057Y-112779995D01*
X102180746Y-112872145D01*
X102114090Y-112768559D01*
X101901890Y-112623569D01*
X101650000Y-112572560D01*
X100685000Y-112572560D01*
X100685000Y-110905265D01*
X108784847Y-110905265D01*
X108919296Y-111230657D01*
X109168033Y-111479829D01*
X109493190Y-111614846D01*
X109845265Y-111615153D01*
X110170657Y-111480704D01*
X110419829Y-111231967D01*
X110554846Y-110906810D01*
X110555153Y-110554735D01*
X110420704Y-110229343D01*
X110396669Y-110205265D01*
X113054847Y-110205265D01*
X113189296Y-110530657D01*
X113438033Y-110779829D01*
X113763190Y-110914846D01*
X113803381Y-110914881D01*
X113770171Y-110948033D01*
X113635154Y-111273190D01*
X113634847Y-111625265D01*
X113769296Y-111950657D01*
X114018033Y-112199829D01*
X114343190Y-112334846D01*
X114695265Y-112335153D01*
X115020657Y-112200704D01*
X115269829Y-111951967D01*
X115404846Y-111626810D01*
X115404960Y-111495265D01*
X122344847Y-111495265D01*
X122479296Y-111820657D01*
X122728033Y-112069829D01*
X123053190Y-112204846D01*
X123405265Y-112205153D01*
X123730657Y-112070704D01*
X123979829Y-111821967D01*
X124114846Y-111496810D01*
X124115047Y-111265265D01*
X136314847Y-111265265D01*
X136449296Y-111590657D01*
X136698033Y-111839829D01*
X137023190Y-111974846D01*
X137375265Y-111975153D01*
X137700657Y-111840704D01*
X137896437Y-111645265D01*
X141924847Y-111645265D01*
X142059296Y-111970657D01*
X142308033Y-112219829D01*
X142633190Y-112354846D01*
X142985265Y-112355153D01*
X143310657Y-112220704D01*
X143559829Y-111971967D01*
X143694846Y-111646810D01*
X143695153Y-111294735D01*
X143560704Y-110969343D01*
X143311967Y-110720171D01*
X142986810Y-110585154D01*
X142634735Y-110584847D01*
X142309343Y-110719296D01*
X142060171Y-110968033D01*
X141925154Y-111293190D01*
X141924847Y-111645265D01*
X137896437Y-111645265D01*
X137949829Y-111591967D01*
X138084846Y-111266810D01*
X138085153Y-110914735D01*
X137950704Y-110589343D01*
X137701967Y-110340171D01*
X137376810Y-110205154D01*
X137024735Y-110204847D01*
X136699343Y-110339296D01*
X136450171Y-110588033D01*
X136315154Y-110913190D01*
X136314847Y-111265265D01*
X124115047Y-111265265D01*
X124115153Y-111144735D01*
X123980704Y-110819343D01*
X123731967Y-110570171D01*
X123406810Y-110435154D01*
X123054735Y-110434847D01*
X122729343Y-110569296D01*
X122480171Y-110818033D01*
X122345154Y-111143190D01*
X122344847Y-111495265D01*
X115404960Y-111495265D01*
X115405153Y-111274735D01*
X115334648Y-111104099D01*
X115553190Y-111194846D01*
X115905265Y-111195153D01*
X116230657Y-111060704D01*
X116479829Y-110811967D01*
X116614846Y-110486810D01*
X116614925Y-110395265D01*
X126864847Y-110395265D01*
X126999296Y-110720657D01*
X127248033Y-110969829D01*
X127573190Y-111104846D01*
X127925265Y-111105153D01*
X128250657Y-110970704D01*
X128499829Y-110721967D01*
X128634846Y-110396810D01*
X128635153Y-110044735D01*
X128500704Y-109719343D01*
X128251967Y-109470171D01*
X127926810Y-109335154D01*
X127574735Y-109334847D01*
X127249343Y-109469296D01*
X127000171Y-109718033D01*
X126865154Y-110043190D01*
X126864847Y-110395265D01*
X116614925Y-110395265D01*
X116615153Y-110134735D01*
X116480704Y-109809343D01*
X116231967Y-109560171D01*
X115906810Y-109425154D01*
X115554735Y-109424847D01*
X115229343Y-109559296D01*
X114980171Y-109808033D01*
X114845154Y-110133190D01*
X114844847Y-110485265D01*
X114915352Y-110655901D01*
X114696810Y-110565154D01*
X114656619Y-110565119D01*
X114689829Y-110531967D01*
X114824846Y-110206810D01*
X114825153Y-109854735D01*
X114690704Y-109529343D01*
X114441967Y-109280171D01*
X114116810Y-109145154D01*
X113764735Y-109144847D01*
X113439343Y-109279296D01*
X113190171Y-109528033D01*
X113055154Y-109853190D01*
X113054847Y-110205265D01*
X110396669Y-110205265D01*
X110171967Y-109980171D01*
X109846810Y-109845154D01*
X109494735Y-109844847D01*
X109169343Y-109979296D01*
X108920171Y-110228033D01*
X108785154Y-110553190D01*
X108784847Y-110905265D01*
X100685000Y-110905265D01*
X100685000Y-109942438D01*
X100795370Y-109896721D01*
X100795371Y-109896720D01*
X100892698Y-109831688D01*
X101081690Y-109642696D01*
X101146720Y-109545372D01*
X101151278Y-109534368D01*
X101249002Y-109298441D01*
X101271838Y-109183636D01*
X101271838Y-109116170D01*
X101285000Y-109050000D01*
X101285000Y-108875265D01*
X105214847Y-108875265D01*
X105349296Y-109200657D01*
X105598033Y-109449829D01*
X105923190Y-109584846D01*
X106275265Y-109585153D01*
X106600657Y-109450704D01*
X106849829Y-109201967D01*
X106984846Y-108876810D01*
X106984951Y-108755265D01*
X124564847Y-108755265D01*
X124699296Y-109080657D01*
X124948033Y-109329829D01*
X125273190Y-109464846D01*
X125625265Y-109465153D01*
X125950657Y-109330704D01*
X126199829Y-109081967D01*
X126334846Y-108756810D01*
X126334847Y-108755265D01*
X133014847Y-108755265D01*
X133149296Y-109080657D01*
X133398033Y-109329829D01*
X133723190Y-109464846D01*
X134075265Y-109465153D01*
X134400657Y-109330704D01*
X134649829Y-109081967D01*
X134784846Y-108756810D01*
X134785153Y-108404735D01*
X134650704Y-108079343D01*
X134446983Y-107875265D01*
X139414847Y-107875265D01*
X139549296Y-108200657D01*
X139798033Y-108449829D01*
X140123190Y-108584846D01*
X140475265Y-108585153D01*
X140800657Y-108450704D01*
X141049829Y-108201967D01*
X141184846Y-107876810D01*
X141185153Y-107524735D01*
X141050704Y-107199343D01*
X140801967Y-106950171D01*
X140476810Y-106815154D01*
X140124735Y-106814847D01*
X139799343Y-106949296D01*
X139550171Y-107198033D01*
X139415154Y-107523190D01*
X139414847Y-107875265D01*
X134446983Y-107875265D01*
X134401967Y-107830171D01*
X134076810Y-107695154D01*
X133724735Y-107694847D01*
X133399343Y-107829296D01*
X133150171Y-108078033D01*
X133015154Y-108403190D01*
X133014847Y-108755265D01*
X126334847Y-108755265D01*
X126335153Y-108404735D01*
X126200704Y-108079343D01*
X125951967Y-107830171D01*
X125626810Y-107695154D01*
X125274735Y-107694847D01*
X124949343Y-107829296D01*
X124700171Y-108078033D01*
X124565154Y-108403190D01*
X124564847Y-108755265D01*
X106984951Y-108755265D01*
X106985153Y-108524735D01*
X106850704Y-108199343D01*
X106601967Y-107950171D01*
X106276810Y-107815154D01*
X105924735Y-107814847D01*
X105599343Y-107949296D01*
X105350171Y-108198033D01*
X105215154Y-108523190D01*
X105214847Y-108875265D01*
X101285000Y-108875265D01*
X101285000Y-108785083D01*
X101385069Y-108785170D01*
X101747229Y-108635529D01*
X102024555Y-108358686D01*
X102089975Y-108201137D01*
X102154471Y-108357229D01*
X102431314Y-108634555D01*
X102793212Y-108784828D01*
X103185069Y-108785170D01*
X103547229Y-108635529D01*
X103824555Y-108358686D01*
X103974828Y-107996788D01*
X103975170Y-107604931D01*
X103825529Y-107242771D01*
X103548686Y-106965445D01*
X103186788Y-106815172D01*
X102794931Y-106814830D01*
X102432771Y-106964471D01*
X102155445Y-107241314D01*
X102090025Y-107398863D01*
X102025529Y-107242771D01*
X101748686Y-106965445D01*
X101386788Y-106815172D01*
X101285000Y-106815083D01*
X101285000Y-106550000D01*
X101271838Y-106483830D01*
X101271838Y-106416364D01*
X101269631Y-106405265D01*
X122214847Y-106405265D01*
X122349296Y-106730657D01*
X122598033Y-106979829D01*
X122923190Y-107114846D01*
X123275265Y-107115153D01*
X123600657Y-106980704D01*
X123849829Y-106731967D01*
X123984846Y-106406810D01*
X123985153Y-106054735D01*
X123972977Y-106025265D01*
X136864847Y-106025265D01*
X136999296Y-106350657D01*
X137248033Y-106599829D01*
X137573190Y-106734846D01*
X137925265Y-106735153D01*
X138250657Y-106600704D01*
X138499829Y-106351967D01*
X138634846Y-106026810D01*
X138634873Y-105995265D01*
X139864847Y-105995265D01*
X139999296Y-106320657D01*
X140248033Y-106569829D01*
X140573190Y-106704846D01*
X140925265Y-106705153D01*
X141250657Y-106570704D01*
X141499829Y-106321967D01*
X141634846Y-105996810D01*
X141634877Y-105961036D01*
X145752193Y-105961036D01*
X145782518Y-106451413D01*
X145911836Y-106763617D01*
X146137265Y-106813130D01*
X146820395Y-106130000D01*
X146137265Y-105446870D01*
X145911836Y-105496383D01*
X145752193Y-105961036D01*
X141634877Y-105961036D01*
X141635153Y-105644735D01*
X141500704Y-105319343D01*
X141448717Y-105267265D01*
X146316870Y-105267265D01*
X147000000Y-105950395D01*
X147683130Y-105267265D01*
X147633617Y-105041836D01*
X147168964Y-104882193D01*
X146678587Y-104912518D01*
X146366383Y-105041836D01*
X146316870Y-105267265D01*
X141448717Y-105267265D01*
X141251967Y-105070171D01*
X140926810Y-104935154D01*
X140574735Y-104934847D01*
X140249343Y-105069296D01*
X140000171Y-105318033D01*
X139865154Y-105643190D01*
X139864847Y-105995265D01*
X138634873Y-105995265D01*
X138635153Y-105674735D01*
X138500704Y-105349343D01*
X138251967Y-105100171D01*
X137926810Y-104965154D01*
X137574735Y-104964847D01*
X137249343Y-105099296D01*
X137000171Y-105348033D01*
X136865154Y-105673190D01*
X136864847Y-106025265D01*
X123972977Y-106025265D01*
X123850704Y-105729343D01*
X123601967Y-105480171D01*
X123276810Y-105345154D01*
X122924735Y-105344847D01*
X122599343Y-105479296D01*
X122350171Y-105728033D01*
X122215154Y-106053190D01*
X122214847Y-106405265D01*
X101269631Y-106405265D01*
X101249002Y-106301559D01*
X101146721Y-106054630D01*
X101146720Y-106054629D01*
X101146720Y-106054628D01*
X101081688Y-105957302D01*
X100892696Y-105768310D01*
X100795371Y-105703280D01*
X100795370Y-105703279D01*
X100685000Y-105657562D01*
X100685000Y-102567467D01*
X100715073Y-102416281D01*
X100714691Y-102853501D01*
X100985868Y-103509800D01*
X101487559Y-104012367D01*
X102143384Y-104284689D01*
X102853501Y-104285309D01*
X103509800Y-104014132D01*
X104012367Y-103512441D01*
X104284689Y-102856616D01*
X104285309Y-102146499D01*
X104014132Y-101490200D01*
X103512441Y-100987633D01*
X102856616Y-100715311D01*
X102417013Y-100714927D01*
X102567467Y-100685000D01*
X104923562Y-100685000D01*
X104895215Y-100753266D01*
G36*
X139140000Y-118584802D02*
X139140000Y-135928535D01*
X139104875Y-135963599D01*
X139105153Y-135644735D01*
X138970704Y-135319343D01*
X138721967Y-135070171D01*
X138450000Y-134957240D01*
X138450000Y-119807473D01*
X138574846Y-119506810D01*
X138575153Y-119154735D01*
X138440704Y-118829343D01*
X138191967Y-118580171D01*
X137866810Y-118445154D01*
X137638350Y-118444955D01*
X137868159Y-118350000D01*
X138905198Y-118350000D01*
X139140000Y-118584802D01*
X139140000Y-118584802D01*
G37*
X139140000Y-118584802D02*
X139140000Y-135928535D01*
X139104875Y-135963599D01*
X139105153Y-135644735D01*
X138970704Y-135319343D01*
X138721967Y-135070171D01*
X138450000Y-134957240D01*
X138450000Y-119807473D01*
X138574846Y-119506810D01*
X138575153Y-119154735D01*
X138440704Y-118829343D01*
X138191967Y-118580171D01*
X137866810Y-118445154D01*
X137638350Y-118444955D01*
X137868159Y-118350000D01*
X138905198Y-118350000D01*
X139140000Y-118584802D01*
M02*
